<svg id="logo-branca" xmlns="http://www.w3.org/2000/svg" width="206.599" height="160.187" viewBox="0 0 206.599 160.187">
  <path id="Caminho_1" data-name="Caminho 1" d="M19.637,167.022a13.1,13.1,0,0,0-1.852,9.023,11.1,11.1,0,0,0,3.935,6.69,12.57,12.57,0,0,0,8.542,2.532,12.127,12.127,0,0,0,.759-12.644,12.131,12.131,0,0,0-8.216-5.517A12.334,12.334,0,0,0,19.637,167.022Z" transform="translate(-10.602 -100.596)" fill="#fff"/>
  <path id="Caminho_2" data-name="Caminho 2" d="M0,213.1a7.3,7.3,0,0,0,3.661,4.146,7.973,7.973,0,0,0,5.048.644,8.977,8.977,0,0,0,5.008-2.981,6.412,6.412,0,0,0-.668-1.554,7.825,7.825,0,0,0-5.271-3.414,9.12,9.12,0,0,0-6.348,1.745A8.124,8.124,0,0,0,0,213.1Z" transform="translate(0 -126.463)" fill="#fff"/>
  <g id="Grupo_11" data-name="Grupo 11" transform="translate(74.361 42.181)">
    <g id="Grupo_1" data-name="Grupo 1" transform="translate(29.672 23.041)">
      <path id="Caminho_3" data-name="Caminho 3" d="M276.577,166.582c.215.429.008.628-.366,3.323-.219,1.59-.274,2.413.223,3.041a1.846,1.846,0,0,0,.867.612c4.368,1.391,6.3,2.043,7.516,3.422a6.216,6.216,0,0,1,1.153,2.071,7.826,7.826,0,0,1,.374,2.731,10.934,10.934,0,0,1-2.385,6.8,3.93,3.93,0,0,1-.668.668c-.227.175-1.618,1.2-2.675.668a2.289,2.289,0,0,1-1-1.673c-.159-.851.127-1.26.644-3.1.676-2.4.521-2.945.366-3.323s-.549-.652-1.332-1.2a15.327,15.327,0,0,0-3.367-1.459,2.555,2.555,0,0,0-3.1,1.626,114.725,114.725,0,0,1-6.181,12.1c-1.18,1.952-4.9.847-3.239-2.13a105.449,105.449,0,0,0,6.066-12.1c.839-1.82.6-1.475-.052-2.544-.978-1.6-1.2-8.868,2.627-10.45C273.712,165,276.017,165.473,276.577,166.582Z" transform="translate(-262.488 -164.858)" fill="#fff"/>
      <path id="Caminho_4" data-name="Caminho 4" d="M264.1,193.612a2.6,2.6,0,0,1-1.3-.334c-.886-.517-1.574-1.745-.588-3.514a105.629,105.629,0,0,0,6.046-12.048c.568-1.232.568-1.232.314-1.586-.1-.131-.207-.29-.334-.5-.775-1.264-1-4.825-.119-7.528a5.552,5.552,0,0,1,2.981-3.649c1.92-.795,4.484-.235,5.171,1.133h0c.211.417.159.719.016,1.526-.076.437-.195,1.1-.33,2.091-.219,1.574-.234,2.214.119,2.659a1.355,1.355,0,0,0,.628.445c4.547,1.447,6.447,2.095,7.743,3.569a6.624,6.624,0,0,1,1.252,2.242,8.369,8.369,0,0,1,.4,2.9,11.454,11.454,0,0,1-2.5,7.115,4.3,4.3,0,0,1-.751.747c-.429.33-1.932,1.359-3.208.719a2.639,2.639,0,0,1-1.272-2.027,3.934,3.934,0,0,1,.294-2.13c.1-.322.219-.708.358-1.192.656-2.337.481-2.766.386-3s-.473-.5-1.153-.978a12.555,12.555,0,0,0-2.822-1.244l-.429-.155a2.052,2.052,0,0,0-2.468,1.347,114.875,114.875,0,0,1-6.209,12.159A2.58,2.58,0,0,1,264.1,193.612Zm8.892-28.507a4.026,4.026,0,0,0-1.51.282,4.525,4.525,0,0,0-2.409,3.033c-.878,2.7-.485,5.871.02,6.694.111.183.215.322.294.437.572.8.465,1.1-.215,2.576a106.728,106.728,0,0,1-6.093,12.147c-.533.962-.457,1.745.227,2.142a1.612,1.612,0,0,0,2.154-.529,113.075,113.075,0,0,0,6.149-12.044,3.044,3.044,0,0,1,3.728-1.9l.425.155a13.3,13.3,0,0,1,3.057,1.363c.835.58,1.3.9,1.506,1.415s.346,1.184-.346,3.653c-.139.5-.262.894-.366,1.22a3.087,3.087,0,0,0-.266,1.646,1.728,1.728,0,0,0,.735,1.316c.791.4,2.007-.513,2.142-.62a3.58,3.58,0,0,0,.588-.588,10.435,10.435,0,0,0,2.27-6.483,7.4,7.4,0,0,0-.346-2.568,5.6,5.6,0,0,0-1.057-1.9c-1.117-1.272-3.041-1.924-7.294-3.275a2.4,2.4,0,0,1-1.109-.779c-.636-.8-.549-1.828-.326-3.422.139-1.01.258-1.681.338-2.127.131-.735.131-.795.076-.9h0A2.759,2.759,0,0,0,272.993,165.1Z" transform="translate(-261.734 -164.092)" fill="#fff"/>
    </g>
    <g id="Grupo_2" data-name="Grupo 2" transform="translate(40.57 42.559)">
      <path id="Caminho_5" data-name="Caminho 5" d="M297.946,222.608c1.113,1.765-1.789,5.589-1.812,8.4a2.331,2.331,0,0,0,.489,1.618,2.058,2.058,0,0,0,1.045.616c3.832.986,12.564-13.594,14.341-16.686a13.6,13.6,0,0,1,.711-1.26c1.065-1.836,4.543-.382,3.243,1.908a2.662,2.662,0,0,0-.469.692c-3.43,6.073-11.491,20.943-19.751,20.112a5.885,5.885,0,0,1-4.551-2.635q-.042-.066-.1-.167h0a4.619,4.619,0,0,1-.668-2.524c0-1.1.978-4.65,3.053-9.217a3.353,3.353,0,0,1,2.548-1.737A2.413,2.413,0,0,1,297.946,222.608Z" transform="translate(-289.921 -213.961)" fill="#fff"/>
      <path id="Caminho_6" data-name="Caminho 6" d="M295.641,237.777c-.242,0-.481-.012-.723-.036a6.38,6.38,0,0,1-4.929-2.874c-.028-.044-.06-.1-.1-.163a5.131,5.131,0,0,1-.743-2.79c0-1.272,1.089-5,3.1-9.424l.02-.04a3.839,3.839,0,0,1,2.981-2,2.94,2.94,0,0,1,2.349,1.117h0c.763,1.212.068,2.977-.668,4.849a12.02,12.02,0,0,0-1.069,3.824,1.883,1.883,0,0,0,.366,1.284,1.556,1.556,0,0,0,.795.461c2.778.719,9.758-9.448,13.773-16.452a13.145,13.145,0,0,1,.719-1.276,2.385,2.385,0,0,1,3.3-.7,2.168,2.168,0,0,1,.811,3.124l-.079.1a2.116,2.116,0,0,0-.382.572l-.382.68C311.138,224.513,303.666,237.773,295.641,237.777Zm-2.488-14.85c-2.067,4.547-3,7.993-3,8.991a4.219,4.219,0,0,0,.576,2.234l.028.044q.048.089.083.143a5.4,5.4,0,0,0,4.177,2.4c7.639.771,15.517-13.22,18.884-19.194l.374-.664a3.127,3.127,0,0,1,.5-.747,1.178,1.178,0,0,0-.465-1.705,1.4,1.4,0,0,0-1.936.35l-.02.032a12.88,12.88,0,0,0-.68,1.208c-1.741,3.041-10.6,18.061-14.909,16.944a2.538,2.538,0,0,1-1.3-.771,2.867,2.867,0,0,1-.616-1.952,12.625,12.625,0,0,1,1.137-4.181c.612-1.558,1.244-3.168.751-3.947a1.924,1.924,0,0,0-1.491-.652h0A2.857,2.857,0,0,0,293.153,222.927Z" transform="translate(-289.15 -213.195)" fill="#fff"/>
    </g>
    <g id="Grupo_3" data-name="Grupo 3" transform="translate(60.027 0.057)">
      <path id="Caminho_7" data-name="Caminho 7" d="M339.884,168.215a13.1,13.1,0,0,1-.449-4.953c.227-4.885,1.94-10.187,3.414-15.037,1.1-3.5,2.568-7.9,4.038-12.64.608-1.809,1.1-3.609,1.713-5.414.374-1.351-.421-1.3-1.554-1.347l-3.176.079c-4.2.032-3.514-4.881.008-5.092l5-.3c1.932-.115,2.055-.564,2.3-1.467,1.956-6.093,3.546-10.947,3.919-12.3.99-3.49,7.1-2.862,5.056,1.908-.242.68-1.582,4.635-3.3,10.048-.242.68-.378,1.574.87,1.5l3.748-.227c3.518-.1,3.391,5.219-1.029,5.263l-4.086.135a2.207,2.207,0,0,0-2.313,1.908q-.918,2.88-1.836,5.755c-1.463,4.4-2.814,8.689-3.911,12.075-1.479,4.957-3.18,9.929-3.645,15.16a9.192,9.192,0,0,0,.274,2.862c.425,1.192,1.328,1.471,2.58,1.284,3.073-.405,5.99-4.011,8.7-8.268,2.115-3.116,3.784-6.535,5.08-8.605,1.173-1.729,4.654-.278,3.239,2.019-1.3,2.182-2.846,5.263-4.845,8.371-3.18,5.06-7.266,10.064-12.167,11.133C343.855,172.846,341.056,171.351,339.884,168.215Z" transform="translate(-338.871 -107.03)" fill="#fff"/>
      <path id="Caminho_8" data-name="Caminho 8" d="M344.894,172.01a6.373,6.373,0,0,1-6.252-4.388l-.008-.02a13.491,13.491,0,0,1-.473-5.147c.215-4.6,1.7-9.456,3.136-14.154l.3-.986c.449-1.427.958-3,1.5-4.686.779-2.413,1.665-5.147,2.536-7.957.306-.906.584-1.82.859-2.707s.556-1.812.863-2.723c.119-.429.048-.545.044-.545-.076-.1-.636-.123-.97-.131l-.175-.008-3.144.079h-.044c-2.417,0-3.323-1.447-3.367-2.695a3.413,3.413,0,0,1,3.371-3.4l5-.3c1.57-.1,1.63-.306,1.848-1.1.517-1.618,1.006-3.128,1.451-4.511,1.272-3.947,2.194-6.8,2.464-7.787a3.509,3.509,0,0,1,2.723-2.5,3.15,3.15,0,0,1,3.124.958c.433.533,1.033,1.729.155,3.788-.211.6-1.546,4.519-3.279,10-.219.608-.111.759-.107.767.028.036.159.1.469.079l3.748-.227a2.826,2.826,0,0,1,2.6,1.288,3.076,3.076,0,0,1-.008,3.084,3.973,3.973,0,0,1-3.589,1.9l-4.074.135a1.714,1.714,0,0,0-1.844,1.534l-1.844,5.783c-.966,2.91-1.892,5.791-2.707,8.339-.425,1.332-.831,2.588-1.2,3.74-.211.708-.429,1.423-.648,2.142a63.994,63.994,0,0,0-2.973,12.906,8.824,8.824,0,0,0,.25,2.663c.25.7.7,1.141,2.027.942,3.164-.417,6.28-4.79,8.351-8.041,1.3-1.924,2.425-3.939,3.414-5.716.6-1.073,1.161-2.087,1.661-2.886a2.538,2.538,0,0,1,3.474-.549,2.147,2.147,0,0,1,.62,3.1c-.465.779-.974,1.7-1.514,2.675-.962,1.741-2.055,3.712-3.335,5.7-4.229,6.729-8.311,10.442-12.485,11.352A9.67,9.67,0,0,1,344.894,172.01Zm-5.306-4.726c1.109,2.957,3.677,4.245,7.043,3.534,3.891-.847,7.767-4.416,11.849-10.911,1.268-1.968,2.349-3.923,3.307-5.652.545-.982,1.057-1.908,1.534-2.711a1.151,1.151,0,0,0-.306-1.737,1.544,1.544,0,0,0-2.087.254c-.477.763-1.033,1.765-1.626,2.826-1,1.8-2.134,3.836-3.454,5.779-2.353,3.7-5.517,8.017-9.047,8.486-1.622.242-2.643-.286-3.116-1.614a9.5,9.5,0,0,1-.3-3.041,64.974,64.974,0,0,1,3.017-13.145c.219-.715.437-1.431.648-2.146.378-1.165.779-2.421,1.208-3.748.819-2.548,1.745-5.434,2.711-8.343l1.832-5.748a2.674,2.674,0,0,1,2.758-2.258l4.1-.135a2.906,2.906,0,0,0,2.735-1.379,2.1,2.1,0,0,0,.028-2.075,1.808,1.808,0,0,0-1.7-.807l-3.732.223a1.449,1.449,0,0,1-1.332-.477,1.88,1.88,0,0,1-.044-1.689c1.733-5.477,3.073-9.42,3.3-10.048a2.7,2.7,0,0,0,0-2.786,2.2,2.2,0,0,0-2.146-.612,2.52,2.52,0,0,0-1.96,1.793c-.278,1.006-1.2,3.863-2.476,7.826-.445,1.383-.934,2.894-1.447,4.491-.318,1.161-.676,1.689-2.751,1.812l-5,.3a2.422,2.422,0,0,0-2.429,2.365c.028.843.66,1.737,2.389,1.725l3.168-.079.2.008c.739.024,1.379.048,1.745.541a1.672,1.672,0,0,1,.1,1.435c-.31.926-.592,1.836-.863,2.723s-.556,1.809-.863,2.719c-.87,2.8-1.757,5.541-2.536,7.954-.545,1.681-1.053,3.251-1.5,4.674l-.3.982c-1.419,4.639-2.882,9.436-3.092,13.928A12.622,12.622,0,0,0,339.588,167.284Z" transform="translate(-338.103 -106.266)" fill="#fff"/>
    </g>
    <g id="Grupo_4" data-name="Grupo 4" transform="translate(3.693 46.027)">
      <path id="Caminho_9" data-name="Caminho 9" d="M225.559,223.22c-1.463,2.325-2.81,4.166-3.8,5.461,0,0-7.405,9.655-13.355,11.316a8.556,8.556,0,0,1-3.065.338,7.378,7.378,0,0,1-3.251-1.029,6.989,6.989,0,0,0-.628-.405,5.5,5.5,0,0,0-.962-.441,2.494,2.494,0,0,0-2.472,1.073,2.878,2.878,0,0,0-.254,2.325c.8,2.58,5.692,4.011,9.718,3.422,2.369-.346,3.919-1.324,6.209-2.778a41.272,41.272,0,0,0,12.314-12.684,46.457,46.457,0,0,0,3.39-6.356Q227.476,223.343,225.559,223.22Z" transform="translate(-197.133 -222.703)" fill="#fff"/>
      <path id="Caminho_10" data-name="Caminho 10" d="M204.716,245.149c-4.193,0-7.548-1.868-8.184-3.923a3.4,3.4,0,0,1,.318-2.755,3.008,3.008,0,0,1,3.025-1.28,5.771,5.771,0,0,1,1.073.489,6.908,6.908,0,0,1,.66.425,6.965,6.965,0,0,0,3.017.95,8.153,8.153,0,0,0,2.886-.318c5.72-1.6,13.021-11.046,13.093-11.141,1.328-1.729,2.6-3.553,3.776-5.426l.159-.25,4.849.31-.286.656a47.178,47.178,0,0,1-3.426,6.423,42.207,42.207,0,0,1-12.469,12.839c-2.278,1.443-3.923,2.488-6.407,2.85A14.483,14.483,0,0,1,204.716,245.149Zm-5.39-7.027a2.144,2.144,0,0,0-1.646.906,2.41,2.41,0,0,0-.195,1.9c.676,2.17,5.131,3.669,9.166,3.076,2.27-.334,3.76-1.276,6.014-2.7a41.214,41.214,0,0,0,12.159-12.528,46.18,46.18,0,0,0,3.061-5.632l-2.818-.179c-1.149,1.809-2.381,3.573-3.669,5.247-.306.4-7.576,9.806-13.618,11.5a9.14,9.14,0,0,1-3.243.354,7.934,7.934,0,0,1-3.5-1.121,6.527,6.527,0,0,0-.584-.378,5.058,5.058,0,0,0-.851-.4A.847.847,0,0,0,199.326,238.121Z" transform="translate(-196.374 -221.92)" fill="#fff"/>
    </g>
    <g id="Grupo_6" data-name="Grupo 6" transform="translate(0 28.821)">
      <g id="Grupo_5" data-name="Grupo 5">
        <path id="Caminho_11" data-name="Caminho 11" d="M190.7,210.875a2.539,2.539,0,0,0,2.1-.779,2.634,2.634,0,0,0,.513-1.53c.016-.266-.02-.405-.016-.56a3.985,3.985,0,0,1,1.717-2.715,4.521,4.521,0,0,1,2.437-.743c3.363-.143,15.275-5.529,17.7-14.456.29-1.065,1.427-5.215-.831-7.882-1.375-1.63-3.685-2.52-6.757-2.285-8.8.676-15.247,11.1-17.656,17.882-2.5,7.027-1.423,11.916-.5,12.588A2.728,2.728,0,0,0,190.7,210.875Zm5.247-14.2c2.747-5.922,7.067-11.161,11.849-12,3.3-.529,3.919,2.091,3.065,4.686-1.84,5.867-7.461,8.748-12.946,10.406C195.415,200.247,195.228,198.486,195.951,196.673Z" transform="translate(-187.859 -179.388)" fill="#fff"/>
        <path id="Caminho_12" data-name="Caminho 12" d="M190.146,210.633a1.987,1.987,0,0,1-.258-.012,3.255,3.255,0,0,1-1.55-.572c-1.24-.906-2.19-6.077.326-13.16,2.123-5.982,8.637-17.489,18.089-18.216,3.088-.238,5.636.636,7.178,2.46,1.606,1.9,1.92,4.7.934,8.327-2.5,9.194-14.607,14.691-18.169,14.838h-.04a3.964,3.964,0,0,0-2.134.652,3.564,3.564,0,0,0-1.5,2.317c0,.044,0,.083.008.131a3,3,0,0,1,.008.445,3.128,3.128,0,0,1-.624,1.816A2.9,2.9,0,0,1,190.146,210.633Zm17.584-31c-.294,0-.592.012-.9.036-8.935.688-15.172,11.781-17.223,17.549-2.429,6.837-1.343,11.531-.68,12.016a2.229,2.229,0,0,0,1.029.382h.012a2.057,2.057,0,0,0,1.669-.6,2.191,2.191,0,0,0,.4-1.244,1.762,1.762,0,0,0-.008-.3c-.008-.087-.012-.163-.012-.242a4.44,4.44,0,0,1,1.932-3.112,4.909,4.909,0,0,1,2.667-.831c3.307-.139,14.945-5.513,17.27-14.087.9-3.3.652-5.8-.727-7.429A6.883,6.883,0,0,0,207.73,179.637Zm-11.36,19.953a2,2,0,0,1-1.634-.664c-.568-.688-.576-1.82-.028-3.2l.012-.024c3.208-6.912,7.775-11.5,12.214-12.282a3.29,3.29,0,0,1,3.263.89c.839.982.97,2.6.366,4.444-1.566,4.988-5.907,8.5-13.276,10.728l-.052.012A4.662,4.662,0,0,1,196.37,199.591Zm-.735-3.474c-.386.97-.433,1.8-.127,2.174s.986.33,1.514.231c7.012-2.123,11.129-5.418,12.584-10.068.489-1.487.425-2.786-.171-3.486a2.4,2.4,0,0,0-2.333-.552C202.992,185.135,198.7,189.511,195.635,196.117Z" transform="translate(-187.082 -178.633)" fill="#fff"/>
      </g>
    </g>
    <g id="Grupo_7" data-name="Grupo 7" transform="translate(97.117)">
      <path id="Caminho_13" data-name="Caminho 13" d="M437.417,121.977l7.977-10.136a3.054,3.054,0,0,0,0-4.015c-1.018-.851-3.255-.549-4.348,1.34q-3.881,5.145-7.763,10.295C431.168,122.465,434.96,125.224,437.417,121.977Z" transform="translate(-432.168 -106.878)" fill="#fff"/>
      <path id="Caminho_14" data-name="Caminho 14" d="M434.156,123.189a2.794,2.794,0,0,1-1.646-.529,2.959,2.959,0,0,1-.393-4.245l7.755-10.283a4.013,4.013,0,0,1,2.751-1.956,2.89,2.89,0,0,1,2.337.513,3.527,3.527,0,0,1,.079,4.7l-7.981,10.14A3.671,3.671,0,0,1,434.156,123.189Zm9.09-16.066a2.469,2.469,0,0,0-.445.04,3.012,3.012,0,0,0-2.071,1.5l-.032.052-7.763,10.295a1.939,1.939,0,0,0,.175,2.842c.763.556,2.079.5,3.164-.93l0-.008,7.977-10.136a2.589,2.589,0,0,0,.072-3.319A1.735,1.735,0,0,0,443.246,107.123Z" transform="translate(-431.415 -106.123)" fill="#fff"/>
    </g>
    <g id="Grupo_8" data-name="Grupo 8" transform="translate(84.385 43.21)">
      <path id="Caminho_15" data-name="Caminho 15" d="M427.758,216.077c-1.4-.072-2.58,2.015-2.989,2.7-3.414,5.748-9.961,10.37-13.355,11.316a8.556,8.556,0,0,1-3.065.338A7.377,7.377,0,0,1,405.1,229.4a7,7,0,0,0-.628-.405,5.5,5.5,0,0,0-.962-.441,2.494,2.494,0,0,0-2.472,1.073,2.878,2.878,0,0,0-.254,2.325c.8,2.58,5.692,4.011,9.718,3.422,2.226-.326,3.653-1.188,6.209-2.778,0,0,8.279-5.139,11.646-12.755.346-.787,1.081-2.492.366-3.323A1.449,1.449,0,0,0,427.758,216.077Z" transform="translate(-400.143 -215.582)" fill="#fff"/>
      <path id="Caminho_16" data-name="Caminho 16" d="M407.726,235.278c-4.193,0-7.548-1.868-8.184-3.923a3.4,3.4,0,0,1,.318-2.755,3.008,3.008,0,0,1,3.025-1.28,5.773,5.773,0,0,1,1.073.489,6.906,6.906,0,0,1,.66.425,6.966,6.966,0,0,0,3.017.95,8.072,8.072,0,0,0,2.886-.318c3.172-.886,9.647-5.346,13.061-11.09l.044-.072c.525-.886,1.753-2.957,3.4-2.87a1.938,1.938,0,0,1,1.316.616c.938,1.089.079,3.025-.286,3.856-3.391,7.671-11.5,12.767-11.841,12.982-2.512,1.558-4.026,2.5-6.4,2.846A15.744,15.744,0,0,1,407.726,235.278Zm-5.386-7.023a2.144,2.144,0,0,0-1.646.906,2.41,2.41,0,0,0-.195,1.9c.676,2.17,5.131,3.669,9.166,3.076,2.075-.3,3.418-1.093,6.018-2.707.079-.052,8.188-5.151,11.451-12.532.64-1.451.791-2.393.445-2.794a.985.985,0,0,0-.6-.27h0c-1.037-.048-2.13,1.777-2.488,2.381l-.044.076a29.344,29.344,0,0,1-6.8,7.592,21.781,21.781,0,0,1-6.849,3.951,9.148,9.148,0,0,1-3.243.354,7.933,7.933,0,0,1-3.5-1.121,6.529,6.529,0,0,0-.584-.378,5.059,5.059,0,0,0-.851-.4A1,1,0,0,0,402.34,228.255Z" transform="translate(-399.384 -214.833)" fill="#fff"/>
    </g>
    <g id="Grupo_10" data-name="Grupo 10" transform="translate(80.692 23.221)">
      <g id="Grupo_9" data-name="Grupo 9">
        <path id="Caminho_17" data-name="Caminho 17" d="M393.714,196.8a2.539,2.539,0,0,0,2.1-.779,2.634,2.634,0,0,0,.513-1.53c.016-.266-.02-.405-.016-.56a3.985,3.985,0,0,1,1.717-2.715,4.521,4.521,0,0,1,2.437-.743c3.363-.143,15.275-5.529,17.7-14.456.29-1.065,1.427-5.215-.831-7.882-1.375-1.63-3.685-2.52-6.757-2.285-8.8.676-15.247,11.1-17.656,17.883-2.5,7.027-1.423,11.916-.5,12.588A2.741,2.741,0,0,0,393.714,196.8Zm5.247-14.206c2.747-5.922,7.067-11.161,11.849-12,3.3-.529,3.919,2.091,3.065,4.686-1.84,5.867-7.461,8.748-12.946,10.406C398.425,186.163,398.238,184.4,398.961,182.589Z" transform="translate(-390.869 -165.304)" fill="#fff"/>
        <path id="Caminho_18" data-name="Caminho 18" d="M393.156,196.543a1.982,1.982,0,0,1-.258-.012,3.255,3.255,0,0,1-1.55-.572c-1.24-.906-2.19-6.077.326-13.16,2.123-5.982,8.637-17.489,18.089-18.216,3.088-.238,5.636.636,7.178,2.46,1.606,1.9,1.92,4.7.934,8.327-2.5,9.194-14.607,14.691-18.169,14.838h-.04a3.965,3.965,0,0,0-2.134.652,3.564,3.564,0,0,0-1.5,2.317c0,.044,0,.083.008.131a3.006,3.006,0,0,1,.008.445,3.129,3.129,0,0,1-.624,1.816A2.9,2.9,0,0,1,393.156,196.543Zm17.584-31c-.294,0-.592.012-.9.036-8.935.688-15.172,11.781-17.223,17.549-2.429,6.837-1.344,11.531-.68,12.016a2.229,2.229,0,0,0,1.029.382h.012a2.043,2.043,0,0,0,1.669-.6,2.191,2.191,0,0,0,.4-1.244,1.766,1.766,0,0,0-.008-.3c-.008-.087-.012-.163-.012-.242a4.44,4.44,0,0,1,1.932-3.112,4.909,4.909,0,0,1,2.667-.831c3.307-.139,14.945-5.513,17.27-14.087.9-3.3.652-5.8-.727-7.429A6.872,6.872,0,0,0,410.74,165.547ZM399.38,185.5a2,2,0,0,1-1.634-.664c-.568-.684-.576-1.82-.028-3.2l.012-.024c3.208-6.912,7.775-11.5,12.214-12.282a3.29,3.29,0,0,1,3.263.89c.839.982.97,2.6.366,4.444-1.566,4.988-5.907,8.5-13.276,10.728l-.052.012A4.317,4.317,0,0,1,399.38,185.5Zm-.735-3.474c-.386.97-.433,1.8-.127,2.174s.986.33,1.514.231c7.012-2.127,11.129-5.418,12.584-10.068.489-1.487.425-2.786-.171-3.486a2.4,2.4,0,0,0-2.333-.552C406,171.045,401.714,175.421,398.645,182.027Z" transform="translate(-390.092 -164.543)" fill="#fff"/>
      </g>
    </g>
  </g>
  <g id="Grupo_12" data-name="Grupo 12" transform="translate(10.243 10.065)">
    <path id="Caminho_19" data-name="Caminho 19" d="M28.87,133.821a26.467,26.467,0,0,1-1.721-3.2c-.6-1.232-1.049-2.309-1.379-3.144q1.926-.62,3.848-1.244c.58-.982,1.157-1.964,1.737-2.945a44.2,44.2,0,0,0,4.189,9.424,51.549,51.549,0,0,0,10.47,12.214,80.822,80.822,0,0,0,11.515,8.725,117.406,117.406,0,0,0,15,8.025c10.811,4.67,35.038,11.4,64.7,6.26,8.82-1.53,19.647-3.5,32.227-10.33a92.427,92.427,0,0,0,33.992-32.144c3.752-5.994,9.166-14.834,11.372-27.76,1.18-6.928,3.732-21.877-4.348-37.124C202.616,45.748,189.391,39.5,183.048,36.5c-14.893-7.059-28.233-6.678-36.119-6.356-22.946.942-40.09,10.521-48.83,16.388a1.963,1.963,0,0,1-1.34.334.869.869,0,0,1-.668-.334.882.882,0,0,1,0-.668,1.743,1.743,0,0,1,.334-.668c7.433-5.8,25.951-18.542,52.173-19.731,7.385-.334,24.552-.894,42.474,9.031,6.141,3.4,17.465,9.679,24.751,23.078,9.114,16.77,6.065,33.6,4.682,41.135-2.6,14.19-8.709,23.9-12.707,30.1a102.568,102.568,0,0,1-30.769,30.435c-30.236,19.234-61.839,16.527-73.243,15.386-7.492-.751-30.288-3.406-50.166-16.054C53.621,158.572,38.656,149.053,28.87,133.821Z" transform="translate(-25.77 -25.323)" fill="#fff"/>
  </g>
  <path id="Caminho_20" data-name="Caminho 20" d="M235.44,0a11.5,11.5,0,0,0-3.184,6.972,9.3,9.3,0,0,0,1.7,6.117,9.419,9.419,0,0,0,6.038,3.577,10.558,10.558,0,0,0,1.538-1.82,10.884,10.884,0,0,0,1.518-8.279A9.5,9.5,0,0,0,237.845.632,9.278,9.278,0,0,0,235.44,0Z" transform="translate(-139.926)" fill="#fff"/>
  <path id="Caminho_21" data-name="Caminho 21" d="M243.791,58.81a7.483,7.483,0,0,0-3.136,3.883,6.04,6.04,0,0,0,.083,4.134,6.121,6.121,0,0,0,3.232,3.231,6.975,6.975,0,0,0,1.264-.9,7.1,7.1,0,0,0,2.3-4.976,6.2,6.2,0,0,0-2.325-4.587A5.974,5.974,0,0,0,243.791,58.81Z" transform="translate(-144.803 -35.434)" fill="#fff"/>
  <path id="Caminho_22" data-name="Caminho 22" d="M219.983,35.988a5.491,5.491,0,0,0,.723,3.581,4.421,4.421,0,0,0,2.369,1.88,4.494,4.494,0,0,0,3.331-.314A4.939,4.939,0,0,0,226.489,40a5.192,5.192,0,0,0-1.733-3.617,4.525,4.525,0,0,0-3.669-.831A4.423,4.423,0,0,0,219.983,35.988Z" transform="translate(-132.514 -21.357)" fill="#fff"/>
  <path id="Caminho_23" data-name="Caminho 23" d="M35.14,305.83v1" transform="translate(-21.173 -184.27)" fill="#fff"/>
  <g id="Grupo_13" data-name="Grupo 13" transform="translate(8.767 38.86)">
    <path id="Caminho_24" data-name="Caminho 24" d="M75.348,239.781l4.913-11.586c1.033-2.528-4.146-4.408-5.974-1.371l-5.072,11.9C68.5,240.624,73.508,242.925,75.348,239.781Z" transform="translate(-50.428 -174.581)" fill="#fff"/>
    <path id="Caminho_25" data-name="Caminho 25" d="M68.709,97.779c-10.879-.358-22.962,6.4-27.307,15.227-1.594,3.152,3.657,4.392,5.008,2.3,3.621-6.825,13.145-12.7,21.921-12.2,8.287.489,12.787,6.081,12.7,12.059a13.468,13.468,0,0,1-5.5,10.287,15.638,15.638,0,0,1-10.132,3.724c-2.349.135-3.394-1.4-2.377-3.816l3.883-9.058c1.093-3.061-4.245-4.627-6.149-.95l-9.436,21.9c-.874,2.214-3.065,3.1-5.533,3.235-12.326.449-22.04,10.06-23.5,20.478a19.26,19.26,0,0,0,1.451,11,5.464,5.464,0,0,0,4.674.9,4.818,4.818,0,0,0,2.095-1.4c-.115-.35-.235-.7-.35-1.045-.362-1.375-.6-2.254-.6-2.262v0s0,.008,0,0a17,17,0,0,1,16.4-21.794c7.031-.3,13.9,2.914,15.533,8.844.91,2.7,6.3,1.705,5.628-1.952-.97-4.3-4.018-7.608-8.16-9.989-2.051-1.347-2.194-3.275-1.336-5.386,1.363-3.267,3.3-2.989,6.264-2.142,8.407,2.627,12.135,8.518,12.8,16.444.855,10.132-5.958,20.061-14.524,24.512a25.151,25.151,0,0,1-7.238,2.441,3.164,3.164,0,0,0-2.095,1.4,2.962,2.962,0,0,0,1.045,4.189c.839.461,1.733.314,3.49,0a20.566,20.566,0,0,0,2.79-.7,34.655,34.655,0,0,0,4.885-2.095c1.4-.735,14.524-7.858,18.022-22.382A27.406,27.406,0,0,0,83.6,148.78a21.736,21.736,0,0,0-6.077-12.055c-3.732-3.756-1.554-4.539,2.242-7.616a18.355,18.355,0,0,0,7.461-13.427C87.876,107.064,82.025,98.328,68.709,97.779Z" transform="translate(-22.056 -97.766)" fill="#fff"/>
  </g>
  <path id="Caminho_26" data-name="Caminho 26" d="M36.31,298.14" transform="translate(-21.878 -179.636)" fill="#fff"/>
  <path id="Caminho_27" data-name="Caminho 27" d="M44.21,284.09" transform="translate(-26.638 -171.171)" fill="#fff"/>
  <g id="Grupo_14" data-name="Grupo 14" transform="translate(78.39 46.908)">
    <path id="Caminho_28" data-name="Caminho 28" d="M199.2,130.344a1.788,1.788,0,0,0,.568.851,2.264,2.264,0,0,0,.795.409,3.72,3.72,0,0,0,1,.119c.258,0,.6-.02,1.006-.06.242-.024.37.083.378.318l.036.6a.363.363,0,0,1-.354.413,10.38,10.38,0,0,1-1.522.119q-3.869,0-3.883-4.122a5.018,5.018,0,0,1,.338-1.936,2.959,2.959,0,0,1,.922-1.264,4,4,0,0,1,1.256-.656,4.929,4.929,0,0,1,1.463-.207,6.47,6.47,0,0,1,1.582.211.335.335,0,0,1,.27.437l-.131.592a.274.274,0,0,1-.4.235,4.059,4.059,0,0,0-1.157-.179q-2.349,0-2.361,2.727A4.235,4.235,0,0,0,199.2,130.344Z" transform="translate(-197.22 -122.182)" fill="#fff"/>
    <path id="Caminho_29" data-name="Caminho 29" d="M221.724,125.644a.314.314,0,0,1,.354-.354H223.1a.314.314,0,0,1,.354.354v7.178a.314.314,0,0,1-.354.354h-1.025a.312.312,0,0,1-.354-.354v-3.045h-2.941v3.045a.314.314,0,0,1-.354.354H217.4a.314.314,0,0,1-.354-.354v-7.178a.314.314,0,0,1,.354-.354h1.025a.314.314,0,0,1,.354.354v2.762h2.941Z" transform="translate(-209.168 -122.399)" fill="#fff"/>
    <path id="Caminho_30" data-name="Caminho 30" d="M243.264,128.793a.444.444,0,0,1-.461-.33l-.509-1.534h-2.6l-.485,1.522a.443.443,0,0,1-.461.342h-1.073c-.234,0-.314-.111-.234-.33l2.5-7.226a.464.464,0,0,1,.473-.33h1.216a.464.464,0,0,1,.473.33l2.409,7.226c.079.219,0,.33-.235.33Zm-2.822-8.808a.328.328,0,0,1-.473-.187l-.119-.27a.374.374,0,0,1,.163-.509l1.618-.934a.271.271,0,0,1,.449.143l.294.672a.285.285,0,0,1-.191.437Zm.568,2.552-.91,3.1h1.793Z" transform="translate(-221.438 -118.015)" fill="#fff"/>
    <path id="Caminho_31" data-name="Caminho 31" d="M260.585,130.344a1.788,1.788,0,0,0,.568.851,2.248,2.248,0,0,0,.8.409,3.72,3.72,0,0,0,1,.119c.258,0,.6-.02,1-.06.242-.024.37.083.378.318l.036.6a.363.363,0,0,1-.354.413,10.381,10.381,0,0,1-1.522.119q-3.869,0-3.883-4.122a5.018,5.018,0,0,1,.338-1.936,2.992,2.992,0,0,1,.922-1.264,4,4,0,0,1,1.256-.656,4.928,4.928,0,0,1,1.463-.207,6.47,6.47,0,0,1,1.582.211.335.335,0,0,1,.27.437l-.131.592a.274.274,0,0,1-.4.235,4.059,4.059,0,0,0-1.157-.179q-2.349,0-2.361,2.727A4.234,4.234,0,0,0,260.585,130.344Z" transform="translate(-234.209 -122.182)" fill="#fff"/>
    <path id="Caminho_32" data-name="Caminho 32" d="M282.5,133.176a.444.444,0,0,1-.461-.33l-.509-1.534h-2.6l-.485,1.522a.443.443,0,0,1-.461.342h-1.073c-.234,0-.314-.111-.234-.33l2.5-7.226a.461.461,0,0,1,.473-.33h1.216a.464.464,0,0,1,.473.33l2.409,7.226c.079.219,0,.33-.234.33Zm-2.254-6.256-.91,3.1h1.8Z" transform="translate(-245.075 -122.399)" fill="#fff"/>
    <path id="Caminho_33" data-name="Caminho 33" d="M298.88,125.66a.377.377,0,0,1,.342-.413,13.847,13.847,0,0,1,2.242-.167,5.886,5.886,0,0,1,1.188.107,3.283,3.283,0,0,1,.986.378,1.81,1.81,0,0,1,.731.815,3.086,3.086,0,0,1,.258,1.347,2.29,2.29,0,0,1-1.594,2.468l1.749,2.564c.135.2.083.294-.155.294h-1.181a.61.61,0,0,1-.545-.306l-1.475-2.4a7.593,7.593,0,0,1-.8-.131v2.48a.314.314,0,0,1-.354.354h-1.037a.314.314,0,0,1-.354-.354Zm2.576,3.506a1.834,1.834,0,0,0,1.1-.294,1.512,1.512,0,0,0-1.089-2.536,3.686,3.686,0,0,0-.839.072V129.1A7.42,7.42,0,0,0,301.456,129.166Z" transform="translate(-258.472 -122.272)" fill="#fff"/>
    <path id="Caminho_34" data-name="Caminho 34" d="M322.768,133.176a.444.444,0,0,1-.461-.33l-.509-1.534h-2.6l-.485,1.522a.443.443,0,0,1-.461.342h-1.073c-.234,0-.314-.111-.234-.33l2.5-7.226a.461.461,0,0,1,.473-.33h1.216a.464.464,0,0,1,.473.33l2.409,7.226c.08.219,0,.33-.234.33Zm-2.254-6.256-.91,3.1h1.8Z" transform="translate(-269.339 -122.399)" fill="#fff"/>
  </g>
</svg>
