<svg id="logo" xmlns="http://www.w3.org/2000/svg" width="204.454" height="158.516" viewBox="0 0 204.454 158.516">
  <path id="Caminho_383" data-name="Caminho 383" d="M24,208.629a12.988,12.988,0,0,0-1.832,8.929,10.957,10.957,0,0,0,3.895,6.618,12.434,12.434,0,0,0,8.451,2.5,12.012,12.012,0,0,0,.753-12.513,12.005,12.005,0,0,0-8.133-5.46A12.257,12.257,0,0,0,24,208.629Z" transform="translate(-15.06 -142.895)" fill="#77a597"/>
  <path id="Caminho_384" data-name="Caminho 384" d="M0,265.367a7.206,7.206,0,0,0,3.624,4.1,7.875,7.875,0,0,0,4.994.636,8.874,8.874,0,0,0,4.956-2.95,6.521,6.521,0,0,0-.658-1.536A7.753,7.753,0,0,0,7.7,262.237a9.044,9.044,0,0,0-6.281,1.725A8.051,8.051,0,0,0,0,265.367Z" transform="translate(0 -179.636)" fill="#77a597"/>
  <g id="Grupo_199" data-name="Grupo 199" transform="translate(73.586 41.739)">
    <g id="Grupo_189" data-name="Grupo 189" transform="translate(29.358 22.803)">
      <path id="Caminho_385" data-name="Caminho 385" d="M341.99,207.788c.214.425.009.62-.362,3.29-.217,1.571-.271,2.39.22,3.01a1.846,1.846,0,0,0,.86.608c4.323,1.376,6.241,2.021,7.437,3.385a6.2,6.2,0,0,1,1.14,2.05,7.782,7.782,0,0,1,.368,2.7,10.834,10.834,0,0,1-.252,2.3,10.962,10.962,0,0,1-2.106,4.424,3.865,3.865,0,0,1-.661.661c-.224.173-1.6,1.19-2.648.661a2.276,2.276,0,0,1-.992-1.656c-.154-.841.126-1.247.636-3.064.668-2.374.516-2.916.362-3.29s-.542-.645-1.316-1.184a15.074,15.074,0,0,0-3.331-1.442,2.53,2.53,0,0,0-3.067,1.609,113.324,113.324,0,0,1-6.115,11.974c-1.168,1.933-4.846.838-3.205-2.106a105.1,105.1,0,0,0,6-11.968c.828-1.8.6-1.461-.054-2.516-.97-1.581-1.187-8.775,2.6-10.34C339.153,206.22,341.436,206.689,341.99,207.788Z" transform="translate(-328.041 -206.08)" fill="#77a597"/>
      <path id="Caminho_386" data-name="Caminho 386" d="M329.3,234.2a2.545,2.545,0,0,1-1.285-.334c-.878-.51-1.559-1.725-.582-3.476a104.83,104.83,0,0,0,5.982-11.924c.56-1.222.56-1.222.312-1.568-.091-.129-.2-.287-.331-.491-.768-1.25-.986-4.776-.117-7.45a5.488,5.488,0,0,1,2.95-3.611c1.9-.787,4.436-.23,5.117,1.121h0c.208.416.157.715.016,1.511-.076.435-.192,1.089-.327,2.069-.217,1.559-.23,2.191.12,2.632a1.332,1.332,0,0,0,.62.441c4.5,1.433,6.379,2.072,7.661,3.533a6.513,6.513,0,0,1,1.237,2.217,8.281,8.281,0,0,1,.4,2.865,11.332,11.332,0,0,1-.264,2.409,11.474,11.474,0,0,1-2.207,4.635,4.226,4.226,0,0,1-.743.74c-.425.327-1.911,1.348-3.174.712a2.6,2.6,0,0,1-1.256-2.006,3.879,3.879,0,0,1,.293-2.106c.1-.318.217-.7.353-1.181.652-2.311.475-2.736.381-2.966s-.469-.5-1.14-.967a12.512,12.512,0,0,0-2.793-1.231l-.425-.151a2.025,2.025,0,0,0-2.44,1.335A113.363,113.363,0,0,1,331.5,232.99,2.546,2.546,0,0,1,329.3,234.2Zm8.8-28.212a3.914,3.914,0,0,0-1.492.28,4.481,4.481,0,0,0-2.384,3c-.869,2.673-.482,5.809.019,6.625.113.183.211.321.293.435.567.79.46,1.089-.211,2.547a104.928,104.928,0,0,1-6.03,12.018c-.529.951-.45,1.729.224,2.119a1.594,1.594,0,0,0,2.132-.526,112.048,112.048,0,0,0,6.086-11.918,3.019,3.019,0,0,1,3.69-1.877l.422.151a13.139,13.139,0,0,1,3.026,1.351c.825.576,1.281.891,1.492,1.4s.343,1.174-.343,3.615c-.139.494-.261.885-.362,1.209a3.045,3.045,0,0,0-.264,1.631,1.689,1.689,0,0,0,.727,1.3c.781.394,1.987-.507,2.122-.611a3.379,3.379,0,0,0,.579-.583,10.36,10.36,0,0,0,2.248-6.414,7.321,7.321,0,0,0-.343-2.544,5.534,5.534,0,0,0-1.045-1.883c-1.105-1.256-3.01-1.9-7.217-3.24a2.346,2.346,0,0,1-1.1-.771c-.63-.8-.542-1.81-.324-3.385.139-1,.255-1.666.334-2.106.129-.73.129-.787.076-.891h0A2.758,2.758,0,0,0,338.1,205.987Z" transform="translate(-326.949 -204.984)" fill="#77a597"/>
    </g>
    <g id="Grupo_190" data-name="Grupo 190" transform="translate(40.151 42.114)">
      <path id="Caminho_387" data-name="Caminho 387" d="M370.236,275.965c1.1,1.747-1.77,5.529-1.795,8.315a2.285,2.285,0,0,0,.485,1.6,2.034,2.034,0,0,0,1.033.608c3.791.976,12.434-13.451,14.191-16.515a13.271,13.271,0,0,1,.7-1.247c1.052-1.817,4.5-.381,3.208,1.889a2.626,2.626,0,0,0-.466.686c-3.394,6.008-11.373,20.724-19.543,19.9a5.828,5.828,0,0,1-4.506-2.607c-.025-.044-.06-.1-.094-.164h0a4.584,4.584,0,0,1-.661-2.5c0-1.086.967-4.6,3.023-9.122a3.319,3.319,0,0,1,2.519-1.722A2.4,2.4,0,0,1,370.236,275.965Z" transform="translate(-362.299 -267.403)" fill="#77a597"/>
      <path id="Caminho_388" data-name="Caminho 388" d="M367.65,290.644c-.239,0-.475-.013-.715-.035a6.316,6.316,0,0,1-4.877-2.843c-.028-.044-.06-.1-.094-.164a5.088,5.088,0,0,1-.734-2.758c0-1.256,1.077-4.953,3.067-9.326l.019-.038a3.788,3.788,0,0,1,2.95-1.974,2.893,2.893,0,0,1,2.324,1.108h0c.753,1.2.066,2.947-.661,4.8a11.951,11.951,0,0,0-1.058,3.785,1.84,1.84,0,0,0,.362,1.269,1.542,1.542,0,0,0,.787.453c2.749.712,9.657-9.348,13.63-16.282.227-.434.469-.9.712-1.266a2.363,2.363,0,0,1,3.262-.693,2.144,2.144,0,0,1,.8,3.092l-.079.1a2.1,2.1,0,0,0-.378.567l-.378.674C382.984,277.52,375.591,290.644,367.65,290.644Zm-2.462-14.695c-2.043,4.5-2.966,7.909-2.969,8.895a4.161,4.161,0,0,0,.573,2.214l.028.044a1.628,1.628,0,0,0,.085.145,5.351,5.351,0,0,0,4.134,2.374c7.56.762,15.356-13.083,18.687-18.992l.371-.658a2.973,2.973,0,0,1,.494-.737,1.168,1.168,0,0,0-.46-1.688,1.385,1.385,0,0,0-1.918.346l-.019.028a12.525,12.525,0,0,0-.671,1.2c-1.725,3.01-10.485,17.875-14.754,16.766a2.537,2.537,0,0,1-1.285-.762,2.823,2.823,0,0,1-.608-1.93,12.585,12.585,0,0,1,1.124-4.14c.6-1.54,1.231-3.133.746-3.907a1.9,1.9,0,0,0-1.477-.642h0A2.819,2.819,0,0,0,365.188,275.949Z" transform="translate(-361.23 -266.316)" fill="#77a597"/>
    </g>
    <g id="Grupo_191" data-name="Grupo 191" transform="translate(59.404 0.061)">
      <path id="Caminho_389" data-name="Caminho 389" d="M424.449,194.381a12.982,12.982,0,0,1-.447-4.9c.227-4.833,1.921-10.082,3.378-14.877,1.093-3.46,2.541-7.818,4-12.506.6-1.788,1.093-3.571,1.7-5.359.368-1.335-.419-1.291-1.54-1.332l-3.145.079c-4.153.028-3.476-4.83.006-5.038l4.943-.3c1.911-.113,2.034-.56,2.28-1.452,1.936-6.03,3.508-10.834,3.876-12.169.979-3.454,7.025-2.831,5.006,1.889-.239.671-1.568,4.584-3.262,9.943-.239.671-.375,1.555.863,1.483l3.709-.224c3.482-.1,3.356,5.164-1.02,5.208l-4.043.132a2.185,2.185,0,0,0-2.289,1.889q-.907,2.848-1.817,5.7c-1.448,4.358-2.783,8.6-3.873,11.952-1.461,4.906-3.149,9.827-3.605,15a9.115,9.115,0,0,0,.271,2.831c.422,1.181,1.313,1.455,2.55,1.272,3.038-.4,5.929-3.97,8.608-8.183,2.091-3.082,3.744-6.467,5.025-8.514,1.162-1.713,4.606-.277,3.208,2-1.285,2.157-2.815,5.208-4.8,8.284-3.149,5.006-7.191,9.959-12.04,11.017C428.382,198.965,425.611,197.488,424.449,194.381Z" transform="translate(-423.453 -133.838)" fill="#77a597"/>
      <path id="Caminho_390" data-name="Caminho 390" d="M429.1,197.814a6.3,6.3,0,0,1-6.187-4.342l-.006-.019a13.357,13.357,0,0,1-.469-5.094c.211-4.55,1.681-9.358,3.1-14.008l.3-.976c.444-1.414.948-2.969,1.486-4.635.771-2.387,1.647-5.094,2.509-7.872.3-.9.579-1.8.847-2.676s.548-1.792.853-2.692c.116-.425.044-.538.044-.538a2.49,2.49,0,0,0-.96-.132l-.173-.006-3.114.079h-.044c-2.393,0-3.287-1.433-3.328-2.667a3.381,3.381,0,0,1,3.338-3.366l4.943-.3c1.555-.094,1.612-.305,1.829-1.086.513-1.6.995-3.1,1.436-4.465,1.259-3.907,2.169-6.729,2.44-7.7a3.48,3.48,0,0,1,2.7-2.481,3.122,3.122,0,0,1,3.092.948c.431.526,1.023,1.713.151,3.75-.211.589-1.53,4.474-3.246,9.9-.214.6-.11.753-.1.759.025.035.157.094.466.076l3.709-.224a2.8,2.8,0,0,1,2.576,1.275,3.044,3.044,0,0,1-.006,3.051,3.931,3.931,0,0,1-3.555,1.873l-4.03.132a1.692,1.692,0,0,0-1.823,1.518l-1.826,5.721c-.957,2.878-1.873,5.734-2.679,8.249-.422,1.316-.822,2.563-1.193,3.7-.208.7-.425,1.407-.639,2.119a63.624,63.624,0,0,0-2.944,12.774,8.659,8.659,0,0,0,.249,2.635c.249.7.69,1.127,2.006.932,3.133-.412,6.215-4.742,8.262-7.96,1.291-1.9,2.4-3.9,3.378-5.658.589-1.061,1.149-2.062,1.644-2.856a2.515,2.515,0,0,1,3.438-.545,2.125,2.125,0,0,1,.614,3.067c-.46.771-.963,1.685-1.5,2.648-.954,1.722-2.034,3.671-3.3,5.642-4.185,6.656-8.224,10.334-12.352,11.234A9.017,9.017,0,0,1,429.1,197.814Zm-5.255-4.679c1.1,2.928,3.64,4.2,6.968,3.5,3.851-.841,7.686-4.37,11.722-10.8,1.253-1.949,2.327-3.882,3.271-5.592.538-.973,1.045-1.889,1.518-2.683a1.135,1.135,0,0,0-.3-1.716,1.529,1.529,0,0,0-2.065.252c-.472.756-1.023,1.744-1.606,2.8-.989,1.779-2.11,3.794-3.419,5.721-2.327,3.659-5.457,7.935-8.955,8.4-1.6.239-2.613-.283-3.082-1.6a9.564,9.564,0,0,1-.3-3.01,64.155,64.155,0,0,1,2.985-13.007q.326-1.063.642-2.125c.375-1.152.771-2.4,1.193-3.712.809-2.522,1.725-5.378,2.683-8.256l1.814-5.69a2.648,2.648,0,0,1,2.733-2.236l4.055-.135a2.885,2.885,0,0,0,2.708-1.363,2.077,2.077,0,0,0,.025-2.053,1.79,1.79,0,0,0-1.681-.8l-3.693.224a1.434,1.434,0,0,1-1.319-.472,1.843,1.843,0,0,1-.041-1.672c1.716-5.419,3.042-9.323,3.262-9.943a2.669,2.669,0,0,0,0-2.758,2.169,2.169,0,0,0-2.122-.6,2.494,2.494,0,0,0-1.94,1.776c-.274.992-1.187,3.826-2.45,7.742-.441,1.37-.923,2.865-1.429,4.443-.315,1.146-.671,1.672-2.72,1.795l-4.943.3a2.4,2.4,0,0,0-2.406,2.339c.028.834.652,1.719,2.365,1.707l3.136-.079.2.006c.734.025,1.367.047,1.725.535a1.653,1.653,0,0,1,.1,1.417c-.309.913-.586,1.82-.853,2.692s-.548,1.792-.853,2.692c-.863,2.774-1.738,5.482-2.509,7.872-.538,1.666-1.039,3.218-1.483,4.625l-.3.973c-1.4,4.591-2.853,9.336-3.06,13.782A12.6,12.6,0,0,0,423.842,193.135Z" transform="translate(-422.377 -132.756)" fill="#77a597"/>
    </g>
    <g id="Grupo_192" data-name="Grupo 192" transform="translate(3.654 45.544)">
      <path id="Caminho_391" data-name="Caminho 391" d="M274.524,278.85c-1.448,2.3-2.78,4.125-3.763,5.406,0,0-7.327,9.553-13.218,11.2a8.439,8.439,0,0,1-3.032.334,7.339,7.339,0,0,1-3.218-1.02,6.145,6.145,0,0,0-.62-.4,5.708,5.708,0,0,0-.951-.438A2.463,2.463,0,0,0,247.275,295a2.851,2.851,0,0,0-.252,2.3c.793,2.554,5.633,3.97,9.616,3.388,2.346-.343,3.879-1.313,6.146-2.749a40.8,40.8,0,0,0,12.185-12.55,46.373,46.373,0,0,0,3.356-6.291Z" transform="translate(-246.392 -278.334)" fill="#77a597"/>
      <path id="Caminho_392" data-name="Caminho 392" d="M253.569,300.2c-4.15,0-7.469-1.848-8.1-3.882a3.363,3.363,0,0,1,.315-2.727,2.973,2.973,0,0,1,2.994-1.266,5.809,5.809,0,0,1,1.061.482,7.418,7.418,0,0,1,.652.419,6.912,6.912,0,0,0,2.988.938,8.066,8.066,0,0,0,2.856-.315c5.661-1.581,12.884-10.929,12.957-11.023,1.313-1.713,2.569-3.517,3.734-5.368l.157-.249,4.8.309-.283.649a46.62,46.62,0,0,1-3.391,6.357,41.76,41.76,0,0,1-12.336,12.7c-2.254,1.429-3.882,2.459-6.338,2.821A14.192,14.192,0,0,1,253.569,300.2Zm-5.331-6.952a2.115,2.115,0,0,0-1.628.894,2.381,2.381,0,0,0-.192,1.88c.668,2.147,5.076,3.63,9.071,3.045,2.248-.327,3.722-1.263,5.951-2.676a40.771,40.771,0,0,0,12.031-12.4,45.633,45.633,0,0,0,3.029-5.573l-2.79-.179c-1.137,1.788-2.358,3.533-3.63,5.192-.3.4-7.5,9.7-13.476,11.376a9.027,9.027,0,0,1-3.212.349,7.782,7.782,0,0,1-3.463-1.111,6.451,6.451,0,0,0-.576-.372,4.911,4.911,0,0,0-.841-.39A1.088,1.088,0,0,0,248.239,293.249Z" transform="translate(-245.315 -277.21)" fill="#77a597"/>
    </g>
    <g id="Grupo_194" data-name="Grupo 194" transform="translate(0 28.525)">
      <g id="Grupo_193" data-name="Grupo 193">
        <path id="Caminho_393" data-name="Caminho 393" d="M237.627,255.394a2.517,2.517,0,0,0,2.081-.771,2.612,2.612,0,0,0,.507-1.514c.016-.264-.022-.4-.019-.554a3.954,3.954,0,0,1,1.7-2.686,4.469,4.469,0,0,1,2.412-.734c3.325-.139,15.117-5.469,17.516-14.3.287-1.055,1.414-5.161-.822-7.8-1.363-1.612-3.646-2.5-6.685-2.261-8.712.671-15.088,10.982-17.472,17.7-2.469,6.955-1.407,11.792-.5,12.456A2.718,2.718,0,0,0,237.627,255.394Zm5.192-14.055c2.717-5.86,6.993-11.042,11.725-11.877,3.265-.526,3.879,2.069,3.032,4.638-1.82,5.8-7.384,8.659-12.809,10.3C242.287,244.875,242.1,243.134,242.819,241.339Z" transform="translate(-234.813 -224.235)" fill="#77a597"/>
        <path id="Caminho_394" data-name="Caminho 394" d="M236.739,254.822c-.117,0-.2-.006-.255-.009a3.2,3.2,0,0,1-1.533-.567c-1.225-.894-2.166-6.014.324-13.023,2.1-5.919,8.549-17.3,17.9-18.026,3.054-.236,5.576.63,7.1,2.437,1.587,1.88,1.9,4.651.923,8.24-2.472,9.1-14.455,14.537-17.979,14.685h-.038a3.922,3.922,0,0,0-2.11.645,3.536,3.536,0,0,0-1.483,2.292c0,.044,0,.085.006.129a2.652,2.652,0,0,1,.009.441,3.108,3.108,0,0,1-.617,1.8A2.9,2.9,0,0,1,236.739,254.822Zm17.406-30.671c-.29,0-.586.013-.891.035-8.844.68-15.016,11.656-17.043,17.368-2.4,6.766-1.329,11.411-.674,11.889a2.186,2.186,0,0,0,1.017.378h.013a2.036,2.036,0,0,0,1.653-.589,2.165,2.165,0,0,0,.4-1.231,2.193,2.193,0,0,0-.006-.3,2.1,2.1,0,0,1-.009-.242,4.4,4.4,0,0,1,1.911-3.079,4.87,4.87,0,0,1,2.639-.822c3.271-.139,14.789-5.457,17.091-13.942.888-3.268.645-5.737-.721-7.352A6.815,6.815,0,0,0,254.145,224.151ZM242.9,243.9a1.98,1.98,0,0,1-1.615-.655c-.56-.677-.57-1.8-.028-3.164l.009-.025c3.174-6.839,7.692-11.382,12.088-12.157a3.265,3.265,0,0,1,3.23.882c.828.973.96,2.576.359,4.4-1.549,4.937-5.847,8.413-13.139,10.617l-.05.013A4.242,4.242,0,0,1,242.9,243.9Zm-.727-3.438c-.381.96-.428,1.785-.123,2.15s.973.324,1.5.227c6.936-2.1,11.011-5.362,12.456-9.962.485-1.47.419-2.758-.17-3.451a2.377,2.377,0,0,0-2.311-.548C249.453,229.592,245.209,233.921,242.174,240.458Z" transform="translate(-233.71 -223.159)" fill="#77a597"/>
      </g>
    </g>
    <g id="Grupo_195" data-name="Grupo 195" transform="translate(96.105)">
      <path id="Caminho_395" data-name="Caminho 395" d="M545.207,148.6q3.948-5.016,7.894-10.028a3.018,3.018,0,0,0,0-3.97c-1.008-.841-3.221-.545-4.3,1.322l-7.683,10.186C539.023,149.079,542.773,151.809,545.207,148.6Z" transform="translate(-540.011 -133.652)" fill="#77a597"/>
      <path id="Caminho_396" data-name="Caminho 396" d="M541.65,149.454a2.762,2.762,0,0,1-1.628-.526,2.925,2.925,0,0,1-.387-4.2l7.676-10.176a3.984,3.984,0,0,1,2.724-1.936,2.866,2.866,0,0,1,2.311.507,3.492,3.492,0,0,1,.079,4.651l-7.9,10.035A3.641,3.641,0,0,1,541.65,149.454Zm8.992-15.9a2.4,2.4,0,0,0-.441.041,2.991,2.991,0,0,0-2.05,1.483l-.035.05-7.683,10.186a1.919,1.919,0,0,0,.17,2.812c.756.551,2.056.5,3.13-.919l.006-.006,7.894-10.028a2.564,2.564,0,0,0,.072-3.284A1.648,1.648,0,0,0,550.642,133.557Z" transform="translate(-538.938 -132.563)" fill="#77a597"/>
    </g>
    <g id="Grupo_196" data-name="Grupo 196" transform="translate(83.506 42.752)">
      <path id="Caminho_397" data-name="Caminho 397" d="M527.328,269.936c-1.382-.072-2.554,1.993-2.957,2.67-3.379,5.686-9.855,10.261-13.218,11.2a8.439,8.439,0,0,1-3.032.334,7.339,7.339,0,0,1-3.218-1.02,6.15,6.15,0,0,0-.62-.4,5.708,5.708,0,0,0-.951-.438,2.463,2.463,0,0,0-2.447,1.064,2.851,2.851,0,0,0-.252,2.3c.793,2.554,5.633,3.97,9.616,3.388,2.2-.321,3.615-1.174,6.146-2.749,0,0,8.193-5.085,11.527-12.623.343-.778,1.071-2.469.362-3.29A1.437,1.437,0,0,0,527.328,269.936Z" transform="translate(-500.002 -269.433)" fill="#77a597"/>
      <path id="Caminho_398" data-name="Caminho 398" d="M507.179,288.584c-4.15,0-7.469-1.848-8.1-3.882a3.363,3.363,0,0,1,.315-2.727,2.971,2.971,0,0,1,2.994-1.266,5.812,5.812,0,0,1,1.061.482,7.415,7.415,0,0,1,.652.419,6.912,6.912,0,0,0,2.988.938,8.074,8.074,0,0,0,2.856-.315c3.139-.875,9.547-5.29,12.925-10.976l.044-.072c.52-.875,1.738-2.925,3.366-2.84a1.92,1.92,0,0,1,1.3.608c.926,1.077.079,2.994-.283,3.816-3.356,7.591-11.379,12.632-11.719,12.846-2.484,1.543-3.983,2.472-6.335,2.818A14.225,14.225,0,0,1,507.179,288.584Zm-5.331-6.949a2.115,2.115,0,0,0-1.628.894,2.381,2.381,0,0,0-.192,1.88c.668,2.147,5.076,3.63,9.071,3.045,2.056-.3,3.382-1.08,5.954-2.679.082-.05,8.1-5.1,11.335-12.4.636-1.436.784-2.368.441-2.764a.955.955,0,0,0-.6-.264h0c-1.023-.047-2.11,1.76-2.462,2.355l-.044.072a29.072,29.072,0,0,1-6.732,7.513,21.615,21.615,0,0,1-6.779,3.911,9.033,9.033,0,0,1-3.212.349,7.781,7.781,0,0,1-3.463-1.111,6.466,6.466,0,0,0-.576-.371,4.908,4.908,0,0,0-.841-.39A.96.96,0,0,0,501.849,281.635Z" transform="translate(-498.925 -268.342)" fill="#77a597"/>
    </g>
    <g id="Grupo_198" data-name="Grupo 198" transform="translate(79.852 22.984)">
      <g id="Grupo_197" data-name="Grupo 197">
        <path id="Caminho_399" data-name="Caminho 399" d="M491.237,237.794a2.517,2.517,0,0,0,2.081-.771,2.613,2.613,0,0,0,.507-1.514c.016-.264-.022-.4-.019-.554a3.954,3.954,0,0,1,1.7-2.686,4.469,4.469,0,0,1,2.412-.734c3.325-.139,15.117-5.469,17.516-14.3.286-1.055,1.414-5.161-.822-7.8-1.363-1.612-3.646-2.5-6.685-2.261-8.712.671-15.088,10.982-17.472,17.7-2.469,6.955-1.407,11.792-.5,12.456A2.717,2.717,0,0,0,491.237,237.794Zm5.192-14.055c2.717-5.86,6.993-11.042,11.725-11.877,3.265-.526,3.879,2.069,3.032,4.638-1.82,5.8-7.384,8.659-12.809,10.3C495.9,227.275,495.715,225.534,496.429,223.739Z" transform="translate(-488.422 -206.635)" fill="#77a597"/>
        <path id="Caminho_400" data-name="Caminho 400" d="M490.349,237.222c-.117,0-.2-.006-.255-.009a3.2,3.2,0,0,1-1.533-.567c-1.225-.894-2.166-6.014.324-13.023,2.1-5.919,8.549-17.3,17.9-18.026,3.054-.236,5.576.63,7.1,2.437,1.587,1.88,1.9,4.651.923,8.24-2.472,9.1-14.455,14.537-17.979,14.685H496.8a3.922,3.922,0,0,0-2.11.645A3.536,3.536,0,0,0,493.2,233.9c0,.041,0,.082.006.129a2.65,2.65,0,0,1,.009.441,3.108,3.108,0,0,1-.617,1.8A2.9,2.9,0,0,1,490.349,237.222Zm17.406-30.671c-.29,0-.586.013-.891.035-8.844.68-15.016,11.656-17.043,17.368-2.4,6.766-1.329,11.411-.674,11.889a2.185,2.185,0,0,0,1.017.378h.013a2.033,2.033,0,0,0,1.653-.589,2.165,2.165,0,0,0,.4-1.231,2.189,2.189,0,0,0-.006-.3,2.091,2.091,0,0,1-.009-.239,4.411,4.411,0,0,1,1.911-3.082,4.87,4.87,0,0,1,2.639-.822c3.271-.139,14.789-5.457,17.091-13.942.888-3.268.645-5.737-.721-7.352A6.815,6.815,0,0,0,507.755,206.551ZM496.511,226.3a1.98,1.98,0,0,1-1.615-.655c-.56-.677-.57-1.8-.028-3.164l.009-.025c3.174-6.839,7.692-11.382,12.088-12.157a3.265,3.265,0,0,1,3.23.882c.828.973.96,2.576.359,4.4-1.549,4.937-5.847,8.413-13.139,10.617l-.05.013A4.243,4.243,0,0,1,496.511,226.3Zm-.727-3.438c-.381.96-.428,1.785-.123,2.151s.973.324,1.5.227c6.936-2.1,11.011-5.362,12.456-9.962.485-1.47.419-2.758-.17-3.451a2.377,2.377,0,0,0-2.311-.548C503.063,211.992,498.819,216.321,495.784,222.858Z" transform="translate(-487.32 -205.559)" fill="#77a597"/>
      </g>
    </g>
  </g>
  <g id="Grupo_200" data-name="Grupo 200" transform="translate(10.139 9.96)">
    <path id="Caminho_401" data-name="Caminho 401" d="M35.267,139a25.838,25.838,0,0,1-1.7-3.168c-.592-1.219-1.039-2.286-1.363-3.111q1.9-.614,3.807-1.231.86-1.455,1.719-2.912a43.6,43.6,0,0,0,4.144,9.323,50.992,50.992,0,0,0,10.359,12.088,79.744,79.744,0,0,0,11.395,8.634,115.919,115.919,0,0,0,14.849,7.944c10.7,4.622,34.673,11.285,64.024,6.193,8.728-1.514,19.443-3.467,31.892-10.224a91.482,91.482,0,0,0,33.64-31.81c3.712-5.932,9.071-14.679,11.253-27.469,1.171-6.855,3.693-21.647-4.3-36.738-7.777-14.676-20.86-20.853-27.138-23.829C173.1,35.71,159.9,36.085,152.1,36.406c-22.708.929-39.673,10.412-48.319,16.219a1.939,1.939,0,0,1-1.322.331.863.863,0,0,1-.661-.331.874.874,0,0,1,0-.661,1.744,1.744,0,0,1,.331-.661c7.355-5.737,25.68-18.35,51.631-19.528,7.308-.331,24.3-.885,42.031,8.936,6.077,3.366,17.286,9.575,24.49,22.837,9.018,16.593,6,33.246,4.635,40.708-2.572,14.043-8.618,23.649-12.576,29.786a101.5,101.5,0,0,1-30.447,30.117c-29.921,19.033-61.2,16.354-72.481,15.224-7.412-.743-29.972-3.369-49.644-15.885C59.757,163.494,44.949,154.073,35.267,139Z" transform="translate(-32.2 -31.634)" fill="#a89478"/>
  </g>
  <path id="Caminho_402" data-name="Caminho 402" d="M293.284,0a11.379,11.379,0,0,0-3.152,6.9,9.2,9.2,0,0,0,1.681,6.055,9.308,9.308,0,0,0,5.976,3.539,10.665,10.665,0,0,0,1.524-1.8A10.789,10.789,0,0,0,300.818,6.5,9.4,9.4,0,0,0,295.667.627,8.994,8.994,0,0,0,293.284,0Z" transform="translate(-198.765)" fill="#77a597"/>
  <path id="Caminho_403" data-name="Caminho 403" d="M303.651,73.47a7.4,7.4,0,0,0-3.1,3.844,5.98,5.98,0,0,0,.082,4.09,6.064,6.064,0,0,0,3.2,3.2,6.905,6.905,0,0,0,1.253-.891,7.016,7.016,0,0,0,2.273-4.924,6.125,6.125,0,0,0-2.3-4.537A5.817,5.817,0,0,0,303.651,73.47Z" transform="translate(-205.695 -50.337)" fill="#77a597"/>
  <path id="Caminho_404" data-name="Caminho 404" d="M274.8,44.812a5.428,5.428,0,0,0,.718,3.542,4.38,4.38,0,0,0,2.346,1.861,4.453,4.453,0,0,0,3.293-.309,4.976,4.976,0,0,0,.082-1.121,5.137,5.137,0,0,0-1.716-3.58,4.474,4.474,0,0,0-3.63-.822A4.32,4.32,0,0,0,274.8,44.812Z" transform="translate(-188.242 -30.335)" fill="#77a597"/>
  <path id="Caminho_405" data-name="Caminho 405" d="M43.9,382.05v.992" transform="translate(-30.078 -261.757)" fill="none"/>
  <g id="Grupo_201" data-name="Grupo 201" transform="translate(8.681 38.456)">
    <path id="Caminho_406" data-name="Caminho 406" d="M92.507,295.766,97.368,284.3c1.02-2.5-4.106-4.364-5.913-1.357l-5.022,11.779C85.731,296.6,90.687,298.877,92.507,295.766Z" transform="translate(-67.854 -231.247)" fill="#a89478"/>
    <path id="Caminho_407" data-name="Caminho 407" d="M73.737,122.15c-10.768-.356-22.72,6.332-27.021,15.069-1.581,3.12,3.621,4.348,4.956,2.276,3.583-6.751,13.007-12.572,21.694-12.075,8.2.482,12.654,6.02,12.569,11.936a13.33,13.33,0,0,1-5.441,10.179,15.482,15.482,0,0,1-10.025,3.687c-2.324.135-3.36-1.379-2.352-3.778l3.841-8.964c1.083-3.029-4.2-4.578-6.083-.941l-9.336,21.675c-.863,2.191-3.032,3.07-5.475,3.2-12.195.444-21.81,9.956-23.259,20.268a19.083,19.083,0,0,0,1.436,10.882,5.411,5.411,0,0,0,4.625.888,4.747,4.747,0,0,0,2.072-1.382c-.117-.346-.23-.69-.346-1.036-.359-1.36-.589-2.229-.589-2.236v0s0,.006,0,0A16.82,16.82,0,0,1,51.23,170.236c6.958-.3,13.75,2.884,15.372,8.75.9,2.673,6.241,1.684,5.57-1.93-.96-4.26-3.977-7.528-8.073-9.884-2.031-1.335-2.173-3.243-1.319-5.327,1.351-3.234,3.262-2.957,6.2-2.122,8.319,2.6,12.009,8.429,12.67,16.272.847,10.025-5.894,19.852-14.373,24.26a25,25,0,0,1-7.163,2.418,3.121,3.121,0,0,0-2.072,1.382,2.927,2.927,0,0,0,1.036,4.144c.831.453,1.716.309,3.454,0a20.944,20.944,0,0,0,2.761-.69,34.425,34.425,0,0,0,4.836-2.072c1.389-.727,14.373-7.777,17.834-22.147a27.1,27.1,0,0,0,.516-10.658,21.507,21.507,0,0,0-6.014-11.93c-3.693-3.715-1.54-4.49,2.217-7.538a18.155,18.155,0,0,0,7.383-13.284C92.7,131.338,86.91,122.692,73.737,122.15Z" transform="translate(-27.572 -122.137)" fill="#a89478"/>
  </g>
  <path id="Caminho_408" data-name="Caminho 408" d="M45.36,372.44" transform="translate(-31.078 -255.173)" fill="#231f20"/>
  <path id="Caminho_409" data-name="Caminho 409" d="M55.23,354.89" transform="translate(-37.84 -243.149)" fill="#231f20"/>
  <g id="Grupo_202" data-name="Grupo 202" transform="translate(77.566 46.421)">
    <path id="Caminho_410" data-name="Caminho 410" d="M248.312,161.419a1.762,1.762,0,0,0,.56.841,2.256,2.256,0,0,0,.787.4,3.7,3.7,0,0,0,.992.117c.258,0,.589-.019.992-.06.242-.022.365.082.375.315l.035.6a.359.359,0,0,1-.349.409,10.262,10.262,0,0,1-1.508.117q-3.83,0-3.844-4.077a4.957,4.957,0,0,1,.334-1.914,2.942,2.942,0,0,1,.91-1.25,3.921,3.921,0,0,1,1.244-.649,4.939,4.939,0,0,1,1.448-.2,6.217,6.217,0,0,1,1.565.211.33.33,0,0,1,.268.431l-.129.586a.27.27,0,0,1-.4.233,4.061,4.061,0,0,0-1.146-.176q-2.324,0-2.336,2.7A4.381,4.381,0,0,0,248.312,161.419Z" transform="translate(-246.35 -153.343)" fill="#77a597"/>
    <path id="Caminho_411" data-name="Caminho 411" d="M275.775,156.869a.309.309,0,0,1,.35-.349h1.017a.309.309,0,0,1,.349.349v7.1a.309.309,0,0,1-.349.349h-1.017a.309.309,0,0,1-.35-.349V160.96h-2.909v3.013a.309.309,0,0,1-.35.349H271.5a.309.309,0,0,1-.349-.349v-7.1a.309.309,0,0,1,.349-.349h1.017a.309.309,0,0,1,.35.349V159.6h2.909Z" transform="translate(-263.341 -153.658)" fill="#77a597"/>
    <path id="Caminho_412" data-name="Caminho 412" d="M302.368,158.1a.44.44,0,0,1-.457-.327l-.5-1.518h-2.569l-.479,1.508a.437.437,0,0,1-.457.34h-1.064c-.233,0-.312-.11-.233-.327l2.475-7.15a.456.456,0,0,1,.466-.327h1.2a.453.453,0,0,1,.466.327l2.384,7.15c.079.217,0,.327-.233.327h-1Zm-2.793-8.715a.323.323,0,0,1-.466-.186l-.117-.268a.371.371,0,0,1,.164-.5l1.6-.923a.268.268,0,0,1,.444.142l.293.664a.28.28,0,0,1-.186.431Zm.56,2.522-.9,3.073h1.776Z" transform="translate(-280.762 -147.432)" fill="#77a597"/>
    <path id="Caminho_413" data-name="Caminho 413" d="M325.008,161.419a1.762,1.762,0,0,0,.56.841,2.242,2.242,0,0,0,.79.4,3.7,3.7,0,0,0,.992.117c.258,0,.589-.019.992-.06.242-.022.365.082.375.315l.035.6a.356.356,0,0,1-.349.409,10.262,10.262,0,0,1-1.508.117q-3.83,0-3.844-4.077a4.958,4.958,0,0,1,.334-1.914,2.968,2.968,0,0,1,.91-1.25,3.889,3.889,0,0,1,1.244-.649,4.939,4.939,0,0,1,1.448-.2,6.217,6.217,0,0,1,1.565.211.33.33,0,0,1,.268.431l-.129.586a.27.27,0,0,1-.4.233,4.061,4.061,0,0,0-1.146-.176q-2.324,0-2.336,2.7A4.482,4.482,0,0,0,325.008,161.419Z" transform="translate(-298.9 -153.343)" fill="#77a597"/>
    <path id="Caminho_414" data-name="Caminho 414" d="M351.394,164.322a.44.44,0,0,1-.457-.327l-.5-1.518h-2.569l-.479,1.508a.437.437,0,0,1-.457.34h-1.064c-.233,0-.312-.11-.233-.327l2.478-7.151a.456.456,0,0,1,.466-.327h1.2a.453.453,0,0,1,.466.327L352.632,164c.079.217,0,.327-.233.327h-1Zm-2.232-6.193-.9,3.073h1.776Z" transform="translate(-314.354 -153.658)" fill="#77a597"/>
    <path id="Caminho_415" data-name="Caminho 415" d="M373.37,156.823a.373.373,0,0,1,.34-.409,13.747,13.747,0,0,1,2.22-.164,5.92,5.92,0,0,1,1.174.1,3.244,3.244,0,0,1,.976.375,1.778,1.778,0,0,1,.724.806,3.1,3.1,0,0,1,.258,1.332,2.261,2.261,0,0,1-1.577,2.44l1.729,2.535q.2.293-.151.293h-1.168a.6.6,0,0,1-.538-.3l-1.461-2.371a7.092,7.092,0,0,1-.793-.129v2.453a.309.309,0,0,1-.349.349h-1.03a.309.309,0,0,1-.349-.349v-6.962Zm2.547,3.47A1.8,1.8,0,0,0,377.01,160a1.5,1.5,0,0,0-1.083-2.513,3.632,3.632,0,0,0-.828.069v2.664A6.285,6.285,0,0,0,375.917,160.293Z" transform="translate(-333.376 -153.473)" fill="#77a597"/>
    <path id="Caminho_416" data-name="Caminho 416" d="M401.7,164.322a.44.44,0,0,1-.457-.327l-.5-1.518h-2.569l-.479,1.508a.437.437,0,0,1-.457.34h-1.064c-.233,0-.312-.11-.233-.327l2.478-7.151a.456.456,0,0,1,.466-.327h1.2a.453.453,0,0,1,.466.327L402.942,164c.079.217,0,.327-.233.327h-1Zm-2.232-6.193-.9,3.073h1.779Z" transform="translate(-348.823 -153.658)" fill="#77a597"/>
  </g>
</svg>
