<svg xmlns="http://www.w3.org/2000/svg" xmlns:xlink="http://www.w3.org/1999/xlink" width="271" height="740" viewBox="0 0 271 740">
  <defs>
    <clipPath id="clip-path">
      <rect id="Retângulo_69" data-name="Retângulo 69" width="271" height="740" transform="translate(1649 4026)" fill="none"/>
    </clipPath>
  </defs>
  <g id="eventos-folha" transform="translate(-1649 -4026)" clip-path="url(#clip-path)">
    <g id="Grupo_170" data-name="Grupo 170" transform="matrix(-0.309, -0.951, 0.951, -0.309, 1978.27, 5221.355)" opacity="0.162">
      <g id="Grupo_92" data-name="Grupo 92">
        <g id="Grupo_27" data-name="Grupo 27" transform="translate(156.075 221.179)">
          <path id="Caminho_58" data-name="Caminho 58" d="M27.21,38.56c6.539,5.679,10.554,14.11,11.873,22.772a55.343,55.343,0,0,1-2.466,25.64c.516-8.6.975-16.978-.344-25.238A56.334,56.334,0,0,0,27.21,38.56Z" transform="translate(-27.21 -38.56)" fill="#4d300f"/>
        </g>
        <g id="Grupo_28" data-name="Grupo 28" transform="translate(128.485 205.921)">
          <path id="Caminho_59" data-name="Caminho 59" d="M123.181,87.925c-17.437-7.457-34.358-15.831-51.337-24.206L46.663,50.7C38.4,46.167,29.742,42.037,22.4,35.9c7.973,5.1,16.692,8.719,25.238,12.849L73.106,61.2C89.97,69.8,106.833,78.346,123.181,87.925Z" transform="translate(-22.4 -35.9)" fill="#4d300f"/>
        </g>
        <g id="Grupo_29" data-name="Grupo 29" transform="translate(107.779 183.207)">
          <path id="Caminho_60" data-name="Caminho 60" d="M172.743,101.4c-27.246-7.457-53.23-18.871-78.812-30.63-12.734-6.137-25.3-12.5-37.8-18.986C43.627,45.362,31.18,38.708,18.79,31.94q19.273,8.69,38.316,17.839C69.84,55.8,82.4,62.226,95.136,68.134c12.676,6.137,25.525,11.873,38.374,17.495C146.472,91.25,159.493,96.642,172.743,101.4Z" transform="translate(-18.79 -31.94)" fill="#4d300f"/>
        </g>
        <g id="Grupo_30" data-name="Grupo 30" transform="translate(376.967 294.599)">
          <path id="Caminho_61" data-name="Caminho 61" d="M65.72,52.737a115.224,115.224,0,0,1,40.037,24.779,101.115,101.115,0,0,1,25.353,39.865,90.289,90.289,0,0,1,4.761,23.4c.516,7.973.172,15.831.86,23.575.746,7.571,2.409,15.659,7.342,21.166a12.545,12.545,0,0,0,9.522,4.073,21.141,21.141,0,0,0,10.439-3.327c6.367-3.9,11.128-10.439,13.938-17.437a48.869,48.869,0,0,0,3.155-22.6c-1.319-15.43-10.153-29.425-21.4-39.98-5.621-5.392-12.1-9.751-18.757-14.053-6.6-4.3-13.307-8.432-19.846-12.906a209.135,209.135,0,0,1-18.642-14.627c-5.965-5.105-12.16-10.1-19.388-13.307,7.342,2.983,13.709,7.858,19.846,12.734a197.338,197.338,0,0,0,18.986,14c6.539,4.3,13.307,8.374,20.018,12.562,6.711,4.13,13.422,8.489,19.273,13.938,11.759,10.612,20.936,25.123,22.485,41.356a51.053,51.053,0,0,1-3.212,23.8c-3.04,7.514-7.916,14.512-15.028,18.871a23.887,23.887,0,0,1-11.873,3.671,15.115,15.115,0,0,1-11.529-4.99c-5.679-6.482-7.113-14.913-7.916-22.772-.631-7.973-.229-15.889-.688-23.632a97.793,97.793,0,0,0-4.359-22.886C119.581,88.185,94.973,64.323,65.72,52.737Z" transform="translate(-65.72 -51.36)" fill="#4d300f"/>
        </g>
        <g id="Grupo_31" data-name="Grupo 31" transform="translate(418.897 291.272)">
          <path id="Caminho_62" data-name="Caminho 62" d="M140.37,58.237a257.1,257.1,0,0,1-33.9-1.663A264.678,264.678,0,0,1,73.03,50.78c11.357.516,22.542,1.778,33.785,2.925C118,55.025,129.185,56.287,140.37,58.237Z" transform="translate(-73.03 -50.78)" fill="#4d300f"/>
        </g>
        <g id="Grupo_32" data-name="Grupo 32" transform="translate(439.088 285.705)">
          <path id="Caminho_63" data-name="Caminho 63" d="M128.231,53.369c-8.489,2.18-17.437,1.836-26.041,1.09a205.388,205.388,0,0,1-25.64-4.646,203.4,203.4,0,0,1,25.869,1.778C111.08,52.508,119.512,53.311,128.231,53.369Z" transform="translate(-76.55 -49.809)" fill="#4d300f"/>
        </g>
        <g id="Grupo_33" data-name="Grupo 33" transform="translate(522.202 232.364)">
          <path id="Caminho_64" data-name="Caminho 64" d="M118.343,40.51c-2.122,4.187-3.04,8.719-4.13,13.25a56.739,56.739,0,0,1-4.761,13.422,60.893,60.893,0,0,1-7.858,11.873A48.328,48.328,0,0,1,91.04,88.463,95.508,95.508,0,0,0,106.929,65.92a82.176,82.176,0,0,0,5.162-12.734C113.582,48.77,115.188,44.124,118.343,40.51Z" transform="translate(-91.04 -40.51)" fill="#4d300f"/>
        </g>
        <g id="Grupo_34" data-name="Grupo 34" transform="translate(477.347 249.342)">
          <path id="Caminho_65" data-name="Caminho 65" d="M148.954,43.47a159.754,159.754,0,0,1-30.573,23.8A166.955,166.955,0,0,1,83.22,83.507c11.415-6.023,22.714-12.046,33.67-18.7C127.846,58.211,138.457,51.041,148.954,43.47Z" transform="translate(-83.22 -43.47)" fill="#4d300f"/>
        </g>
        <g id="Grupo_35" data-name="Grupo 35" transform="translate(495.988 69.577)">
          <path id="Caminho_66" data-name="Caminho 66" d="M209.564,12.13a133.869,133.869,0,0,0-39.119,11.3,147.454,147.454,0,0,0-34.186,21.854,181.706,181.706,0,0,0-27.934,29.54A251.109,251.109,0,0,0,86.47,109.412,191.983,191.983,0,0,1,106.546,73.5a168.834,168.834,0,0,1,27.819-30.458,141.234,141.234,0,0,1,35.161-21.625A115.514,115.514,0,0,1,209.564,12.13Z" transform="translate(-86.47 -12.13)" fill="#4d300f"/>
        </g>
        <g id="Grupo_36" data-name="Grupo 36" transform="translate(639.904 172.595)">
          <path id="Caminho_67" data-name="Caminho 67" d="M111.9,136.894c14.856,3.212,27.7,11.587,41.127,18.183a118.572,118.572,0,0,0,43.02,11.873,164.4,164.4,0,0,0,44.683-2.409A203.327,203.327,0,0,0,283.7,151.807c13.766-5.851,26.385-14.168,36.481-25.238,10.153-10.841,19.5-23.116,31.777-32.179,11.988-9.235,24.722-17.265,34.989-28.106,10.325-10.726,19.846-22.485,29.884-33.67l1.606,2.237a90.106,90.106,0,0,1-20.477,5.162,160.359,160.359,0,0,1-20.936.975c-13.938-.172-27.762-1.491-41.528-1.09-13.766.287-27.533,2.7-39.808,8.948-12.39,5.965-23.862,14.11-37.112,18.929-13.307,5.277-27.762,4.3-41.471,4.187a117.768,117.768,0,0,0-20.592,1.606,128.371,128.371,0,0,0-19.961,5.392c-25.984,9.579-48.182,27.934-64.988,49.96,16.4-22.256,38.374-41.069,64.472-51.222a117.947,117.947,0,0,1,20.133-5.621A121.021,121.021,0,0,1,216.987,70.3c13.824.057,27.934.918,40.783-4.3,12.906-4.818,24.263-12.963,36.825-19.1,12.5-6.482,26.73-9.063,40.668-9.407,14-.459,27.819.8,41.643.86A164.548,164.548,0,0,0,397.5,37.26a90.439,90.439,0,0,0,19.789-5.1l5.334-2.065-3.728,4.245c-9.923,11.3-19.5,22.829-30.056,33.727-10.554,11.07-23.575,19.1-35.391,28.164-12.1,8.833-21.28,20.764-31.663,31.777-10.267,11.185-23.345,19.674-37.284,25.525a208.05,208.05,0,0,1-43.421,12.619,167.686,167.686,0,0,1-45.142,2.18,120.162,120.162,0,0,1-43.249-12.619C139.379,148.939,126.7,140.335,111.9,136.894Z" transform="translate(-111.56 -30.09)" fill="#4d300f"/>
        </g>
        <g id="Grupo_37" data-name="Grupo 37" transform="translate(572.162 217.794)">
          <path id="Caminho_68" data-name="Caminho 68" d="M120.858,104.564c24.206-4.187,48.813-5.679,73.306-7.113,24.492-1.319,49.1-2.524,73.306-6.367,24.206-3.728,48.125-10.153,69.921-21.28,10.9-5.564,21.166-12.275,31.949-18.3,10.726-5.965,22.141-11.3,34.473-13.479l.287,2.237c-12.849,1.2-24.665,7.227-36.137,13.307a334.861,334.861,0,0,1-35.391,17.093,247.975,247.975,0,0,1-76.231,18.412c-13.078.688-26.213.516-39.291.746-13.078.287-26.1,1.032-39.177,2.065-26.1,1.95-52.083,4.99-78.124,7.686,25.984-3.04,51.91-6.482,78.009-8.833,13.021-1.147,26.1-1.95,39.234-2.237,13.078-.344,26.156-.172,39.177-.975a246.2,246.2,0,0,0,75.6-18.7,326.606,326.606,0,0,0,35.161-17.208c11.472-6.137,23.46-12.5,36.94-13.652l.287,2.237c-11.988,2.065-23.173,7.227-33.9,13.078-10.726,5.908-21.051,12.562-32.121,18.126-22.083,11.128-46.289,17.437-70.552,21.108C218.943,100.09,169.442,96.936,120.858,104.564Z" transform="translate(-99.75 -37.97)" fill="#4d300f"/>
        </g>
        <g id="Grupo_38" data-name="Grupo 38" transform="translate(728.295 310.774)">
          <path id="Caminho_69" data-name="Caminho 69" d="M141.883,81.827a77.9,77.9,0,0,1-8.719-13.135A76.212,76.212,0,0,1,126.97,54.18a76.791,76.791,0,0,1,8.719,13.135A81.227,81.227,0,0,1,141.883,81.827Z" transform="translate(-126.97 -54.18)" fill="#4d300f"/>
        </g>
        <g id="Grupo_39" data-name="Grupo 39" transform="translate(843.587 273.373)">
          <path id="Caminho_70" data-name="Caminho 70" d="M179.249,51.964A94.7,94.7,0,0,0,163.3,50.53c-5.334-.115-10.726.172-16.233-.4a52.2,52.2,0,0,1,16.29-2.466C168.809,47.834,174.6,48.924,179.249,51.964Z" transform="translate(-147.07 -47.66)" fill="#4d300f"/>
        </g>
        <g id="Grupo_40" data-name="Grupo 40" transform="translate(851.102 264.6)">
          <path id="Caminho_71" data-name="Caminho 71" d="M173.274,48.539c-4.3.459-8.375.4-12.447.459-4.13-.057-8.145.057-12.447-.4a33,33,0,0,1,24.894-.057Z" transform="translate(-148.38 -46.13)" fill="#4d300f"/>
        </g>
        <g id="Grupo_58" data-name="Grupo 58">
          <g id="Grupo_41" data-name="Grupo 41" transform="translate(0 116.672)">
            <path id="Caminho_72" data-name="Caminho 72" d="M0,23.722a13.942,13.942,0,0,1,7.629-3.327,21.507,21.507,0,0,1,8.317,1.147c5.392,1.836,10.1,5.048,14.856,7.916C40.324,35.366,49.96,41.1,59.31,47.3s19.043,11.931,27.7,19.1a259.7,259.7,0,0,1,24.837,22.829c15.487,16.29,29.483,34.072,40.84,53.631,11.185,19.5,19.789,41.069,21.338,63.9a106.374,106.374,0,0,1-.172,17.093,8.417,8.417,0,0,1-6.654,7.227,18.16,18.16,0,0,1-4.646.057l-4.187-.229-8.432-.459-4.187-.229-4.245-.631a120.147,120.147,0,0,1-16.634-3.786C103.247,218.974,83.4,206.125,69,188.516c-14.8-17.495-22.313-39.922-25.181-62.178a156.037,156.037,0,0,1,5.392-66.881v.4c-.459-2.524-2.352-3.843-4.7-5.162l-6.424-4.3c-4.245-2.925-8.432-5.965-12.562-9.005C16.978,35.366,8.719,29.228,0,23.722Zm0,0C8.833,29,17.265,34.964,25.7,40.872c4.245,2.925,8.432,5.851,12.791,8.661l6.539,4.13A22.535,22.535,0,0,1,48.354,55.9a7.658,7.658,0,0,1,2.065,3.614l.057.172-.057.229a158.143,158.143,0,0,0-4.359,66.136C49.215,147.963,56.9,169.7,71.241,186.623c14.053,17.093,33.5,29.483,54.549,36.079a120.972,120.972,0,0,0,16.118,3.614l4.073.574,4.187.229,8.374.4,4.187.229a13.383,13.383,0,0,0,3.728,0,4.987,4.987,0,0,0,4.015-4.3,113.349,113.349,0,0,0,.229-16.52c-1.377-22.083-9.694-43.306-20.649-62.579a302.038,302.038,0,0,0-39.98-53.459,262.655,262.655,0,0,0-24.32-22.944C77.263,60.719,67.57,54.983,58.449,48.5c-9.178-6.424-18.7-12.332-28.049-18.47-4.7-3.04-9.292-6.31-14.569-8.2a21.059,21.059,0,0,0-8.2-1.319A14.873,14.873,0,0,0,0,23.722Z" transform="translate(0 -20.34)" fill="#4d300f"/>
          </g>
          <g id="Grupo_42" data-name="Grupo 42" transform="translate(149.109 232.192)">
            <path id="Caminho_73" data-name="Caminho 73" d="M27.513,133.632c-1.549,13.25-.8,26.557.172,39.808,1.032,13.25,1.663,26.557,2.008,39.922.344,13.307.344,26.672.057,39.98L29,273.3c-.229,6.6,0,13.135,2.008,19.215l-1.2-1.032c.4.115,1.2-.344,1.893-1.319.688-.918,1.377-2.237,2.065-3.384q2.151-3.528,4.13-7.227c2.7-4.818,5.22-9.751,7.686-14.684,4.876-9.923,9.178-20.133,13.078-30.458A275.356,275.356,0,0,0,74.375,170.17a250.35,250.35,0,0,0-.8-66.136,240.412,240.412,0,0,0-7.227-32.408C62.445,61.244,59,50.69,54.644,40.48c4.7,10.038,8.489,20.535,12.734,30.859a209.355,209.355,0,0,1,8.145,32.408,243.357,243.357,0,0,1,1.893,66.767A281.422,281.422,0,0,1,61.928,235.56,297.251,297.251,0,0,1,48.678,266.3c-2.524,4.99-5.1,9.923-7.858,14.8-1.377,2.466-2.753,4.876-4.187,7.227-.746,1.2-1.319,2.352-2.294,3.671-.86,1.147-2.466,2.925-4.99,2.524l-.918-.115-.287-.918c-2.18-6.654-2.294-13.594-2.065-20.305l.86-19.961q.774-19.875.631-39.865C27.513,200.054,27,186.8,26.48,173.5,25.907,160.189,25.562,146.767,27.513,133.632Z" transform="translate(-25.996 -40.48)" fill="#4d300f"/>
          </g>
          <g id="Grupo_43" data-name="Grupo 43" transform="translate(148.504 39.356)">
            <path id="Caminho_74" data-name="Caminho 74" d="M42.123,177.9c15.43-6.768,30.687-14.34,44.282-24.263,13.594-9.751,25.64-22.083,33.383-36.825,3.843-7.342,6.826-15.258,7.285-23.46.516-8.2-.918-16.52-2.466-24.779a238.488,238.488,0,0,0-14.627-48.067l-2.524-5.793c-.86-2.065-1.606-3.614-2.811-4.245a3.726,3.726,0,0,0-3.958.918,8.83,8.83,0,0,0-2.237,4.7L94.607,41.041C91.8,57.732,88.527,74.424,83.479,90.657a205.109,205.109,0,0,1-20.42,46.519c-4.589,7.113-9.407,14.225-15.544,20.133C41.492,163.274,34.15,168.15,25.89,170.1c8.2-2.237,15.258-7.342,20.994-13.422,5.851-6.08,10.382-13.193,14.684-20.42a206.7,206.7,0,0,0,19.33-46.4A412.325,412.325,0,0,0,91.452,40.524L95.18,15.4a11.776,11.776,0,0,1,3.212-6.482,7.011,7.011,0,0,1,7.744-1.434c2.7,1.491,3.671,4.187,4.474,5.908l2.581,5.851a245.14,245.14,0,0,1,14.569,48.813c1.491,8.317,2.925,16.864,2.352,25.525-.516,8.776-3.786,17.036-7.916,24.493-8.317,15.086-20.822,27.361-34.76,36.94C73.269,164.593,57.782,171.591,42.123,177.9Z" transform="translate(-25.89 -6.861)" fill="#4d300f"/>
          </g>
          <g id="Grupo_44" data-name="Grupo 44" transform="translate(210.166 57.403)">
            <path id="Caminho_75" data-name="Caminho 75" d="M36.64,185.656c13.766-4.13,26.041-11.873,38.488-18.871,12.39-7.113,24.665-14.684,35.391-24.091,10.784-9.35,20.305-20.076,30.286-30.4,9.923-10.382,20.248-20.363,30.8-30.114,10.554-9.694,21.452-19.1,32.695-28.106,11.242-8.948,22.542-17.839,34.817-25.525,12.218-7.629,25.64-13.938,39.922-16.806A79.792,79.792,0,0,1,300.9,10.193c1.836.115,3.671.344,5.449.574a8.265,8.265,0,0,1,5.449,3.442,9.738,9.738,0,0,1,2.237,5.908,20.456,20.456,0,0,1-.86,5.793c-7.858,27.7-18.7,54.778-34.53,78.984a194.244,194.244,0,0,1-27.475,33.441,170.953,170.953,0,0,1-34.817,25.64,336.344,336.344,0,0,1-38.832,18.814,195.5,195.5,0,0,1-41.758,10.9c-7.113,1.032-14.283,1.778-21.452,2.18a93.616,93.616,0,0,1-21.567-.86C78.57,193.17,64.345,189.958,50,191.564c14.34-1.893,28.622,1.09,42.848,2.581a91.6,91.6,0,0,0,21.338.4c7.113-.574,14.225-1.434,21.28-2.581a195.355,195.355,0,0,0,41.184-11.242,331.148,331.148,0,0,0,38.316-19.1,180.691,180.691,0,0,0,34.072-25.468,193.151,193.151,0,0,0,26.9-32.982c15.544-23.919,26.213-50.706,33.842-78.124a16.08,16.08,0,0,0,.746-4.761,6.519,6.519,0,0,0-1.491-3.958c-.975-1.2-2.008-2.122-3.269-2.18a51.872,51.872,0,0,0-5.22-.574,80.166,80.166,0,0,0-20.936,1.434c-13.824,2.753-26.9,8.776-38.947,16.233-12.1,7.457-23.4,16.347-34.588,25.181Q189.3,69.847,173.328,84.13c-10.612,9.579-20.994,19.445-31.032,29.655s-19.732,20.879-30.745,30.171c-11.07,9.292-23.517,16.634-36.079,23.517C62.968,174.3,50.521,181.813,36.64,185.656Z" transform="translate(-36.64 -10.008)" fill="#4d300f"/>
          </g>
          <g id="Grupo_45" data-name="Grupo 45" transform="translate(262.592 165.166)">
            <path id="Caminho_76" data-name="Caminho 76" d="M219.58,33.3a582.227,582.227,0,0,1,138.81-.688c5.736.86,11.529.918,17.437,2.983a14.188,14.188,0,0,1,7.4,5.965,13.612,13.612,0,0,1,1.147,9.464c-1.377,6.367-6.08,10.9-10.325,14.741-4.359,3.843-8.776,7.686-13.307,11.3a383.253,383.253,0,0,1-58.392,38.029,683.641,683.641,0,0,1-63.21,29.139,210.5,210.5,0,0,1-67.627,16.4,191.333,191.333,0,0,1-34.875-.688,129.758,129.758,0,0,1-33.785-8.776,159.788,159.788,0,0,1-57.073-39,158.877,158.877,0,0,0,57.646,37.4c21.452,8.6,44.97,10.325,67.856,8.374a214.417,214.417,0,0,0,66.652-16.692c21.4-8.833,42.446-18.355,62.809-29.253A373.949,373.949,0,0,0,358.791,74.54c4.531-3.556,8.891-7.342,13.25-11.07,4.245-3.786,8.374-7.916,9.464-13.078a11.014,11.014,0,0,0-.8-7.457,10.964,10.964,0,0,0-5.851-4.7c-5.048-1.95-11.013-2.18-16.692-3.04A625.436,625.436,0,0,0,219.58,33.3Z" transform="translate(-45.78 -28.795)" fill="#4d300f"/>
          </g>
          <g id="Grupo_46" data-name="Grupo 46" transform="translate(291.444 315.937)">
            <path id="Caminho_77" data-name="Caminho 77" d="M73.238,55.08c19.5,6.826,39.291,13.824,56.786,25.3a100.9,100.9,0,0,1,23.116,21.051c6.482,8.26,11.472,17.552,15.946,26.959a205.742,205.742,0,0,1,18.527,59.6,158.955,158.955,0,0,1,1.319,31.318c-.688,10.382-2.581,21.28-8.6,30.4l.287-.918a5.719,5.719,0,0,1-2.065,4.245,10.56,10.56,0,0,1-11.644,1.2c-4.7-2.925-6.539-7.744-8.661-11.759-4.13-8.317-7.629-16.921-11.07-25.468-6.768-17.151-14.455-33.785-24.206-49.444C103.638,136.3,78.457,108.826,50.81,84.448a434.276,434.276,0,0,1,40.324,37.915,318.313,318.313,0,0,1,33.957,43.823c10.1,15.544,18.068,32.466,24.894,49.616,3.5,8.547,7,17.036,11.128,25.181,2.065,4.015,4.015,8.375,7.4,10.325a6.476,6.476,0,0,0,5.392.4c1.893-.516,3.384-1.893,3.327-3.04v-.459l.287-.459c5.449-8.374,7.4-18.642,8.088-28.794a156.867,156.867,0,0,0-1.09-30.687c-2.753-20.363-9.292-40.152-17.9-58.851-4.3-9.35-9.063-18.585-15.2-26.73a98.25,98.25,0,0,0-22.313-20.994C112.07,69.993,92.568,62.422,73.238,55.08Z" transform="translate(-50.81 -55.08)" fill="#4d300f"/>
          </g>
          <g id="Grupo_47" data-name="Grupo 47" transform="translate(486.35 289.8)">
            <path id="Caminho_78" data-name="Caminho 78" d="M95.117,54.749c25.525-5.793,52.6-5.851,78.066,1.2a132.826,132.826,0,0,1,36.079,16A223.513,223.513,0,0,1,240.408,96.22l29.024,26.557c4.818,4.3,10.038,8.317,15.2,12.332l15.372,12.218c20.822,15.717,44.741,26.73,68.487,37.685l.631.287.229.574c1.262,3.327-1.377,5.965-3.442,6.654-1.778.8-3.614,1.491-5.449,2.18a95.857,95.857,0,0,1-11.185,3.27,173.964,173.964,0,0,1-22.886,3.556c-15.258,1.377-30.515,2.753-45.888,3.327-15.372.516-30.859.057-46.06-2.7-15.258-2.7-29.827-8.317-43.651-14.913a209.255,209.255,0,0,1-39.463-23.8A126.967,126.967,0,0,1,120.584,129.2a95.049,95.049,0,0,1-9.464-21.051c-2.18-7.342-4.531-14.569-8.719-20.994-4.073-6.482-8.317-12.849-12.447-19.273L86.8,63.066a9.718,9.718,0,0,1-2.008-5.392c-.057-1.147,1.09-1.663,1.893-2.065a15.329,15.329,0,0,1,2.753-.86C91.273,54.4,93.338,54,95.117,54.749Zm0,0c-1.778-.688-3.786-.287-5.621.057a14.937,14.937,0,0,0-2.7.918c-.8.4-1.836.918-1.778,1.893a9.254,9.254,0,0,0,2.065,5.162L90.3,67.54c4.3,6.367,8.661,12.619,12.849,19.043a64.357,64.357,0,0,1,5.449,10.21c1.491,3.556,2.581,7.285,3.786,10.841a96.08,96.08,0,0,0,9.694,20.535,124.723,124.723,0,0,0,30.63,33.326c12.045,9.292,25.41,16.749,39.234,23.116s28.049,11.931,43.02,14.455c14.914,2.7,30.229,3.1,45.429,2.524,15.2-.631,30.458-2.065,45.658-3.5a182.555,182.555,0,0,0,22.428-3.556,101.832,101.832,0,0,0,10.841-3.155c1.778-.631,3.5-1.319,5.22-2.065a2.18,2.18,0,0,0,1.778-2.237l.8.86c-23.747-11.07-47.838-22.2-68.946-38.316-5.277-4.015-10.153-8.317-15.372-12.275-5.162-4.015-10.382-8.088-15.315-12.5L238.745,98A222.66,222.66,0,0,0,208.172,73.62a135.616,135.616,0,0,0-35.391-16.233C147.715,49.931,120.756,49.414,95.117,54.749Z" transform="translate(-84.79 -50.523)" fill="#4d300f"/>
          </g>
          <g id="Grupo_48" data-name="Grupo 48" transform="translate(583.577 420.159)">
            <path id="Caminho_79" data-name="Caminho 79" d="M206.134,95.161l30.515,19.5c9.923,6.826,19.789,14.34,26.729,24.779,1.606,2.639,2.983,5.908,2.639,9.35a13.4,13.4,0,0,1-4.531,8.776c-4.876,4.417-11.3,6.252-17.38,7-12.332,1.663-24.665-.287-36.423-3.1-23.575-5.908-46.289-15.6-66.25-29.54a109.33,109.33,0,0,1-26.041-25.353A76.95,76.95,0,0,1,101.74,73.25c2.237,11.873,7.744,22.886,15.028,32.351a109.709,109.709,0,0,0,26.213,24.206,204.054,204.054,0,0,0,65.562,28.336c11.587,2.868,23.517,4.818,35.219,3.327,5.851-.688,11.529-2.352,15.774-6.08a10.53,10.53,0,0,0,3.671-6.826c.344-2.581-.631-5.277-2.065-7.744-6.252-9.923-15.717-17.724-25.41-24.779Z" transform="translate(-101.74 -73.25)" fill="#4d300f"/>
          </g>
          <g id="Grupo_49" data-name="Grupo 49" transform="translate(491.22 276.92)">
            <path id="Caminho_80" data-name="Caminho 80" d="M247,119.071c17.609,3.671,35.735,3.327,53.574,2.065,8.948-.631,17.9-1.434,26.787-2.294,8.833-.918,17.724-2.466,25.525-6.367L352.2,114.2a4.621,4.621,0,0,0-1.95-2.18h-4.073c-2.925-.057-5.908-.115-8.833-.287-5.908-.287-11.759-.86-17.609-1.663a214.717,214.717,0,0,1-34.53-7.744c-22.714-6.94-43.249-18.929-64.013-29.6C200.48,62.056,178.741,52.477,155.453,50.7c-23.231-1.836-46.633,2.294-69.348,7.858l.057-.057a5.389,5.389,0,0,0,.057,3.671,5.283,5.283,0,0,0,2.237,2.983,5.914,5.914,0,0,1-2.352-2.925,5.084,5.084,0,0,1-.172-3.786v-.057h.057c22.485-6.31,45.83-11.415,69.577-9.809,23.8,1.319,46.174,10.841,67,21.51,20.936,10.669,41.356,22.141,63.612,29.2a214.419,214.419,0,0,0,33.957,7.858q8.6,1.2,17.38,1.721c2.925.172,5.793.287,8.719.344h3.27a8.363,8.363,0,0,1,1.434.115c2.352.918,3.04,2.237,3.9,4.073l.516,1.147-1.262.574c-8.375,4.015-17.609,5.334-26.557,6.137-9.005.688-17.9,1.377-26.9,1.778C282.734,123.66,264.551,123.316,247,119.071Z" transform="translate(-85.639 -48.278)" fill="#4d300f"/>
          </g>
          <g id="Grupo_50" data-name="Grupo 50" transform="translate(560.346 14.11)">
            <path id="Caminho_81" data-name="Caminho 81" d="M107.728,266.774A189.056,189.056,0,0,0,189.637,172.3a192.938,192.938,0,0,0,9.063-30.4c2.18-10.382,3.728-20.879,5.22-31.433a462.33,462.33,0,0,1,12.447-62.923c2.925-10.325,6.195-20.477,9.866-30.573l2.811-7.514,1.491-3.728c.287-.918,0-.172.4.057.115.057-.4-.115-.86-.115a13.65,13.65,0,0,0-3.442.86c-1.262.4-2.524.746-3.728,1.2-2.466.86-4.933,1.836-7.342,2.868-19.33,8.547-35.448,22.944-49.731,38.546a352.493,352.493,0,0,0-37.915,51.165,546.613,546.613,0,0,0-30.229,56.27,560.318,560.318,0,0,1,28.794-57.13,350.5,350.5,0,0,1,37.341-52.083c14.11-16.061,30.573-30.687,50.419-39.635,2.466-1.09,4.99-2.122,7.514-3.04,1.262-.516,2.581-.86,3.843-1.262a14.43,14.43,0,0,1,4.3-.975,4.441,4.441,0,0,1,2.925.746,2.664,2.664,0,0,1,1.032,2.18,3.666,3.666,0,0,1-.4,1.491l-1.434,3.728-2.753,7.457c-3.614,9.981-6.768,20.133-9.636,30.343A459.97,459.97,0,0,0,206.96,110.87c-2.983,21.051-6.482,42.5-14.914,62.407a187.249,187.249,0,0,1-34.072,54.2A184.412,184.412,0,0,1,107.728,266.774Z" transform="translate(-97.69 -2.46)" fill="#4d300f"/>
          </g>
          <g id="Grupo_51" data-name="Grupo 51" transform="translate(672.541)">
            <path id="Caminho_82" data-name="Caminho 82" d="M198.529,212.46a134.06,134.06,0,0,0,25.3-56.327,123.655,123.655,0,0,0-3.442-61.2,124.968,124.968,0,0,0-12.849-27.991,132.22,132.22,0,0,0-19.5-23.919C173.29,28.508,156.025,16.806,138.76,5.162L141.4,3.442a36.426,36.426,0,0,1-.8,15.544A109.644,109.644,0,0,1,135.2,33.154a77.3,77.3,0,0,0-4.761,13.824,48.249,48.249,0,0,0-.688,14.4c.631,9.751,2.524,19.789,2.008,29.942-.287,10.038-1.549,19.961-1.893,29.827-.516,9.808.86,19.732,1.262,29.712a260.754,260.754,0,0,1,.344,29.942c-.8,9.981-1.778,19.846-3.384,29.77-1.663,9.808-5.105,19.5-10.841,27.647,5.564-8.317,8.661-17.954,10.038-27.762,1.319-9.808,2.065-19.789,2.581-29.712a286.625,286.625,0,0,0-.8-29.77c-.574-9.923-2.065-19.789-1.721-29.942.229-10.038,1.319-19.961,1.549-29.827.459-9.866-1.434-19.56-2.122-29.655a53.038,53.038,0,0,1,.688-15.315,75.96,75.96,0,0,1,4.876-14.4A108.54,108.54,0,0,0,137.5,18.068a32.381,32.381,0,0,0,.688-14.053L137.326,0l3.384,2.294C157.918,14,175.3,25.927,190.269,40.725,205.3,55.409,217.113,73.764,222.964,94.07a126.226,126.226,0,0,1,2.524,62.35A134.087,134.087,0,0,1,198.529,212.46Z" transform="translate(-117.25)" fill="#4d300f"/>
          </g>
          <g id="Grupo_52" data-name="Grupo 52" transform="translate(781.639 43.141)">
            <path id="Caminho_83" data-name="Caminho 83" d="M136.27,175.234a296.022,296.022,0,0,0,70.093-60.17,283.474,283.474,0,0,0,47.781-78.7c1.549-3.556,2.868-7.17,4.13-10.784,1.147-3.556,2.983-7.4,3.27-10.612a4.011,4.011,0,0,0-1.549-3.728,2.191,2.191,0,0,0-1.549-.516c-.4.057-1.721.516-2.581.688-3.843,1.032-7.686,1.721-11.472,2.466-7.686,1.319-14.8,3.212-21.51,7.227A202.6,202.6,0,0,0,203.151,33.04,243.253,243.253,0,0,0,167.76,62.81a354.418,354.418,0,0,0-30.573,34.932c17.954-25.181,38.89-48.756,64.415-66.881a176.722,176.722,0,0,1,19.846-12.39A54.4,54.4,0,0,1,232.29,13.6a104.054,104.054,0,0,1,11.472-2.753C247.548,10.1,251.333,9.35,255,8.375a24.664,24.664,0,0,1,3.04-.8,5.339,5.339,0,0,1,3.9,1.09,7.362,7.362,0,0,1,2.868,6.482c-.4,4.589-2.18,7.8-3.384,11.587-1.262,3.671-2.581,7.342-4.13,10.956a279.441,279.441,0,0,1-48.985,79.156A274.322,274.322,0,0,1,136.27,175.234Z" transform="translate(-136.27 -7.521)" fill="#4d300f"/>
          </g>
          <g id="Grupo_53" data-name="Grupo 53" transform="translate(748.714 295)">
            <path id="Caminho_84" data-name="Caminho 84" d="M193.511,51.43c19.961,2.868,38.832,11.07,55.868,21.739a274.579,274.579,0,0,1,46.748,38.259c14.053,14.4,26.1,31.605,31.777,51.279a94.072,94.072,0,0,1-2.983,60.17l-1.549,3.556a10.738,10.738,0,0,1-2.925,3.442,7.578,7.578,0,0,1-4.474,1.663,14.616,14.616,0,0,1-4.245-.688c-4.933-1.778-9.464-3.556-14.168-5.392-9.35-3.614-18.7-7.342-27.992-11.3-18.47-7.916-36.71-16.749-53.631-27.762a233.2,233.2,0,0,1-24.32-17.954l-11.472-9.751-5.736-4.876-6.023-4.531a65.339,65.339,0,0,1-11.243-10.21c-3.327-3.843-6.195-7.973-9.12-12.046L130.53,102.48l18.126,24.034c5.908,8.088,12.218,15.946,20.707,21.4,2.008,1.434,4.13,2.868,6.138,4.417l5.851,4.761,11.644,9.579A244.3,244.3,0,0,0,217.372,184.1a377.184,377.184,0,0,0,53.459,27.131c9.235,3.9,18.585,7.571,27.934,11.128,4.646,1.778,9.464,3.614,14,5.22,4.7,1.778,7.285-.975,8.948-6.08a90.727,90.727,0,0,0,3.155-58.048c-5.334-19.1-17.151-35.85-30.687-50.362a275.165,275.165,0,0,0-45.716-38.66C231.885,63.533,213.415,54.814,193.511,51.43Z" transform="translate(-130.53 -51.43)" fill="#4d300f"/>
          </g>
          <g id="Grupo_54" data-name="Grupo 54" transform="translate(881.043 87.061)">
            <path id="Caminho_85" data-name="Caminho 85" d="M197.365,109.2a97.424,97.424,0,0,0,26.959-47.207,95.994,95.994,0,0,0,2.524-27.131,76.124,76.124,0,0,0-1.778-13.48,17.567,17.567,0,0,0-.688-2.868c-.057-.057.115,0-.115-.057a5.1,5.1,0,0,0-1.09.172,33.153,33.153,0,0,0-6.08,2.524c-7.858,4.187-14.168,11.013-20.477,17.724a248.1,248.1,0,0,0-17.437,21.338c-5.621,7.227-7.973,16.233-11.759,24.779A147.779,147.779,0,0,1,153.6,109.144a144.323,144.323,0,0,0,12.275-24.779c3.384-8.432,5.564-17.839,11.128-25.64a206.144,206.144,0,0,1,17.323-21.911c6.252-6.768,12.619-13.938,21.166-18.642a31.449,31.449,0,0,1,6.768-2.7,6.773,6.773,0,0,1,2.294-.287,3.322,3.322,0,0,1,2.7,1.663,14.909,14.909,0,0,1,1.032,3.843,82.488,82.488,0,0,1,1.663,14,91.7,91.7,0,0,1-3.1,27.934,98.3,98.3,0,0,1-11.185,25.64A91.155,91.155,0,0,1,197.365,109.2Z" transform="translate(-153.6 -15.178)" fill="#4d300f"/>
          </g>
          <g id="Grupo_55" data-name="Grupo 55" transform="translate(861.025 30.084)">
            <path id="Caminho_86" data-name="Caminho 86" d="M150.11,231.444c29.253-3.614,57.646-12.046,85.007-22.714a406.255,406.255,0,0,0,40.152-18.011,136.192,136.192,0,0,0,34.76-26.213c20.133-21.166,36.251-46.174,48.3-72.789a268.424,268.424,0,0,0,14.856-41.3c1.95-7.055,3.5-14.225,4.876-21.4.688-3.614,1.2-7.227,1.778-10.841.516-3.5.688-7.17-1.147-9.579l.688.516c-6.08-2.237-12.791-.287-18.814,2.524-6.137,2.868-12.218,6.195-18.183,9.464-11.988,6.6-23.632,13.881-34.932,21.625a436.706,436.706,0,0,0-63.21,52.656,417.963,417.963,0,0,1,62.12-54.262c11.242-7.973,22.829-15.43,34.817-22.256,6.023-3.384,11.988-6.768,18.24-9.808,6.137-2.983,13.766-5.277,20.994-2.7l.459.172.287.344c2.639,3.728,2.18,8.145,1.721,11.759-.574,3.671-1.09,7.342-1.778,10.956-1.319,7.285-2.868,14.512-4.818,21.682a270.908,270.908,0,0,1-14.8,41.873,264.234,264.234,0,0,1-21.51,38.832,237.2,237.2,0,0,1-27.7,34.7,133.782,133.782,0,0,1-35.678,26.5A429.741,429.741,0,0,1,235.92,210.68C208.273,221.062,179.478,228.518,150.11,231.444Z" transform="translate(-150.11 -5.245)" fill="#4d300f"/>
          </g>
          <g id="Grupo_56" data-name="Grupo 56" transform="translate(868.832 233.28)">
            <path id="Caminho_87" data-name="Caminho 87" d="M157.717,74.858q34.5-9.981,69.52-17.781c23.4-5.1,46.805-10.21,70.552-13.422A235.513,235.513,0,0,1,369.6,43.2c11.816,1.721,24.034,4.359,34.645,10.554,5.334,2.983,10.267,6.367,15.258,9.808a9.949,9.949,0,0,1,3.442,4.13,4.761,4.761,0,0,1,.115,3.212,8.842,8.842,0,0,1-1.147,2.466c-2.065,2.925-4.474,4.531-6.711,6.654-18.929,15.6-42.217,23.862-64.988,30.859a221.7,221.7,0,0,1-35.161,8.088,184.538,184.538,0,0,1-36.022,1.262c-24.034-1.377-47.551-7-70.208-14.684-11.357-3.786-22.485-8.2-33.5-12.906-5.507-2.352-10.956-4.761-16.4-7.227-2.639-1.262-5.793-2.237-7.285-4.99-.688-1.549.918-2.811,2.008-3.614A17.735,17.735,0,0,1,157.717,74.858Zm0,0a15.486,15.486,0,0,0-4.015,2.008c-1.09.8-2.7,2.065-2.008,3.556,1.491,2.7,4.646,3.671,7.285,4.933,5.449,2.466,10.956,4.818,16.462,7.113,11.013,4.589,22.2,8.891,33.555,12.619,22.714,7.4,46.289,12.447,70.151,13.422a184.815,184.815,0,0,0,35.62-1.893c11.759-1.778,23.231-4.99,34.645-8.547,22.657-7.113,45.486-15.487,63.669-30.687,2.122-1.95,4.7-3.843,6.137-5.851a6.378,6.378,0,0,0,.746-1.549,1.955,1.955,0,0,0,0-1.147,6.64,6.64,0,0,0-2.237-2.639c-4.818-3.384-9.751-6.826-14.856-9.694-10.153-6.023-21.739-8.661-33.555-10.439-23.46-3.614-47.551-4.3-71.183-.746C250.64,51.455,203.777,61.952,157.717,74.858Z" transform="translate(-151.471 -40.67)" fill="#4d300f"/>
          </g>
          <g id="Grupo_57" data-name="Grupo 57" transform="translate(1059.374 58.675)">
            <path id="Caminho_88" data-name="Caminho 88" d="M184.69,128.623q25.037-8.518,49.272-18.929c16.118-6.941,31.949-14.684,46.748-24.034A258.069,258.069,0,0,0,322.3,53.769a225.947,225.947,0,0,0,17.9-19.158c2.811-3.327,5.506-6.768,8.03-10.325,1.2-1.778,2.811-3.556,3.27-5.105a2,2,0,0,0-.115-1.836c-.344-.574-.8-.688-.918-.631l-.631.344-.8-.574c-4.474-3.327-10.669-3.556-16.52-2.868-6.08.688-12.1,1.434-18.183,2.352-12.1,1.778-24.148,3.614-36.137,6.023-11.988,2.294-23.862,5.162-35.735,8.088q-17.81,4.474-35.276,10.1a537.156,537.156,0,0,1,70.61-20.42c11.988-2.581,24.034-4.876,36.194-6.654,6.08-.918,12.16-1.721,18.24-2.466,6.08-.8,13.135-.746,18.757,3.327l-1.377-.229c4.417-.8,6.137,4.073,5.048,6.539-.975,2.7-2.466,4.187-3.728,6.08-2.581,3.614-5.277,7.113-8.088,10.554a200.916,200.916,0,0,1-18.24,19.388A263.808,263.808,0,0,1,282.259,88.3C267.116,97.477,251,104.876,234.65,111.53,218.3,118.012,201.554,123.576,184.69,128.623Z" transform="translate(-184.69 -10.229)" fill="#4d300f"/>
          </g>
        </g>
        <g id="Grupo_60" data-name="Grupo 60" transform="translate(202.648 251.618)">
          <g id="Grupo_59" data-name="Grupo 59">
            <path id="Caminho_89" data-name="Caminho 89" d="M100.149,45.893A62.674,62.674,0,0,0,82.54,45.2,61.424,61.424,0,0,0,65.733,50.08a55.206,55.206,0,0,0-14.225,9.809,36.922,36.922,0,0,0-9.005,14.4,58.449,58.449,0,0,0-1.549,33.9,52.36,52.36,0,0,0,18.757,27.877A48.657,48.657,0,0,0,91.66,146.1a59.574,59.574,0,0,0,32.179-10.956c9.35-6.654,16.921-16.233,20.248-27.418A40.836,40.836,0,0,0,139.9,73.942c7.285,9.522,9.178,22.6,6.252,34.358-3.1,11.816-10.669,22.141-20.363,29.483a60.28,60.28,0,0,1-34.014,12.16,53.226,53.226,0,0,1-34.7-10.554,56.558,56.558,0,0,1-19.961-30.343,59.676,59.676,0,0,1,2.237-36.079c2.294-5.621,5.564-11.128,10.267-15.2a56.2,56.2,0,0,1,15.258-9.751,59.763,59.763,0,0,1,17.495-4.073A59.427,59.427,0,0,1,100.149,45.893Z" transform="translate(-35.329 -43.867)" fill="#4d300f"/>
          </g>
          <path id="Caminho_90" data-name="Caminho 90" d="M44.236,51.287A5.559,5.559,0,0,1,46.7,47.96a4.789,4.789,0,0,1,1.663,2.868,4.443,4.443,0,0,1-1.778,3.384A6.237,6.237,0,0,1,42.8,56.277c-1.434.115-3.1-.86-3.212-2.294-.172-1.663,1.606-2.868,3.269-3.155" transform="translate(-15.208 -24.482)" fill="#4d300f"/>
        </g>
        <g id="Grupo_64" data-name="Grupo 64" transform="translate(974.467 168.236)">
          <g id="Grupo_63" data-name="Grupo 63">
            <g id="Grupo_61" data-name="Grupo 61" transform="translate(66.495)">
              <path id="Caminho_91" data-name="Caminho 91" d="M214.519,96.727a57.535,57.535,0,0,0,1.663-20.649A69.306,69.306,0,0,0,210.5,56.461a56.068,56.068,0,0,0-11.357-16.806A37.967,37.967,0,0,0,181.48,29.33a30.9,30.9,0,0,1,10.554,2.122,37.571,37.571,0,0,1,9.292,5.736c5.851,4.7,9.923,10.9,13.078,17.495,2.925,6.711,4.99,13.766,5.1,21.166A42.693,42.693,0,0,1,214.519,96.727Z" transform="translate(-181.48 -29.33)" fill="#4d300f"/>
            </g>
            <g id="Grupo_62" data-name="Grupo 62" transform="translate(0 54.09)">
              <path id="Caminho_92" data-name="Caminho 92" d="M170.877,38.76a47.488,47.488,0,0,1,3.958,9.808,43.86,43.86,0,0,1,2.008,10.382c-3.212-2.294-4.99-5.679-6.138-9.178A17.255,17.255,0,0,1,170.877,38.76Z" transform="translate(-169.887 -38.76)" fill="#4d300f"/>
            </g>
          </g>
          <path id="Caminho_93" data-name="Caminho 93" d="M190.379,41.338a3.012,3.012,0,0,0-1.721-3.384,3.133,3.133,0,0,0-3.671,1.09,4.74,4.74,0,0,0-.4,3.442,4.215,4.215,0,0,0,.975,2.18,2.8,2.8,0,0,0,3.728,0,3.444,3.444,0,0,0,.8-3.786" transform="translate(-100.941 10.515)" fill="#4d300f"/>
        </g>
        <g id="Grupo_91" data-name="Grupo 91" transform="translate(74.51 27.246)">
          <g id="Grupo_65" data-name="Grupo 65" transform="translate(172.136 57.761)">
            <path id="Caminho_94" data-name="Caminho 94" d="M247.2,14.82a463.547,463.547,0,0,1-44.11,43.421A511.827,511.827,0,0,1,153.761,95.7a513.967,513.967,0,0,1-53.631,30.974A456.564,456.564,0,0,1,43,150.533a577.465,577.465,0,0,0,56.327-25.468A542.641,542.641,0,0,0,152.5,93.747,554.06,554.06,0,0,0,202,56.865,601.392,601.392,0,0,0,247.2,14.82Z" transform="translate(-43 -14.82)" fill="#4d300f"/>
          </g>
          <g id="Grupo_66" data-name="Grupo 66" transform="translate(0 150.684)">
            <path id="Caminho_95" data-name="Caminho 95" d="M103.962,170.06q-8.432-19.1-18.355-37.513c-6.654-12.218-13.652-24.206-21.338-35.792-7.514-11.7-15.717-22.944-24.263-33.9C31.4,51.9,22.454,41.287,12.99,31.02A369.279,369.279,0,0,1,41.383,61.765,418,418,0,0,1,66.22,95.492a407.35,407.35,0,0,1,20.994,36.251A385.256,385.256,0,0,1,103.962,170.06Z" transform="translate(-12.99 -31.02)" fill="#4d300f"/>
          </g>
          <g id="Grupo_67" data-name="Grupo 67" transform="translate(205.864 164.393)">
            <path id="Caminho_96" data-name="Caminho 96" d="M320.076,33.41q-33.3,10.067-66.767,19.617L186.428,72.242c-22.485,5.851-45.2,10.784-68.143,14.455S72.111,92.605,48.88,91.745a305.22,305.22,0,0,0,34.7-1.95Q100.876,88.074,118,85.148c22.829-3.9,45.429-9.063,67.8-15.143l67.053-18.47Q286.406,42.243,320.076,33.41Z" transform="translate(-48.88 -33.41)" fill="#4d300f"/>
          </g>
          <g id="Grupo_68" data-name="Grupo 68" transform="translate(368.306 320.395)">
            <path id="Caminho_97" data-name="Caminho 97" d="M101.291,139.779A51.321,51.321,0,0,0,108,117.7a58.587,58.587,0,0,0-2.811-22.714,73.992,73.992,0,0,0-10.5-20.535A69.264,69.264,0,0,0,87.353,65.5c-2.639-2.7-6.08-5.105-10.153-4.7,3.958-.86,7.916,1.377,10.9,3.843a68.428,68.428,0,0,1,8.03,8.776,72.076,72.076,0,0,1,11.242,20.879,56.864,56.864,0,0,1,2.409,23.632A46.152,46.152,0,0,1,101.291,139.779Z" transform="translate(-77.2 -60.607)" fill="#4d300f"/>
          </g>
          <g id="Grupo_71" data-name="Grupo 71" transform="translate(464.269)">
            <g id="Grupo_69" data-name="Grupo 69" transform="translate(52.255)">
              <path id="Caminho_98" data-name="Caminho 98" d="M193.209,4.75a315.726,315.726,0,0,0-27.762,32.924A392.527,392.527,0,0,0,141.872,73.7c-7.342,12.332-14,25.066-20.363,37.972s-12.447,25.927-18.47,39c5.22-13.422,10.726-26.73,16.864-39.75,6.08-13.078,12.791-25.869,19.961-38.374a350.643,350.643,0,0,1,24.148-35.907A244.424,244.424,0,0,1,193.209,4.75Z" transform="translate(-103.04 -4.75)" fill="#4d300f"/>
            </g>
            <g id="Grupo_70" data-name="Grupo 70" transform="translate(0 183.149)">
              <path id="Caminho_99" data-name="Caminho 99" d="M133.852,36.68c-2.7,12.39-8.145,24.034-14.8,34.817C112.17,82.109,103.968,92.032,93.93,99.776A181.459,181.459,0,0,0,117.1,70.293,178.427,178.427,0,0,0,133.852,36.68Z" transform="translate(-93.93 -36.68)" fill="#4d300f"/>
            </g>
          </g>
          <g id="Grupo_72" data-name="Grupo 72" transform="translate(687.742 28.852)">
            <path id="Caminho_100" data-name="Caminho 100" d="M265.849,9.78C253.517,21.768,241.128,33.7,229.2,46.031s-23.4,25.123-33.5,39c-10.669,13.422-20.822,27.3-31.261,40.955q-15.659,20.563-31.548,40.783,14.885-21.08,30.171-41.872c10.153-13.881,20.363-27.7,30.917-41.356C214.513,55.9,240.152,32.494,265.849,9.78Z" transform="translate(-132.89 -9.78)" fill="#4d300f"/>
          </g>
          <g id="Grupo_73" data-name="Grupo 73" transform="translate(638.871 47.379)">
            <path id="Caminho_101" data-name="Caminho 101" d="M124.37,155.778a120.088,120.088,0,0,0,17.437-33.039A130.192,130.192,0,0,0,148.92,86.2a153.023,153.023,0,0,0-2.581-37.226A197.447,197.447,0,0,0,135.727,13.01,158.772,158.772,0,0,1,148.06,48.63a143.389,143.389,0,0,1,3.155,37.685,127.446,127.446,0,0,1-7.744,37A105.832,105.832,0,0,1,124.37,155.778Z" transform="translate(-124.37 -13.01)" fill="#4d300f"/>
          </g>
          <g id="Grupo_76" data-name="Grupo 76" transform="translate(573.022 414.595)">
            <g id="Grupo_74" data-name="Grupo 74" transform="translate(0 0.516)">
              <path id="Caminho_102" data-name="Caminho 102" d="M210.86,129.6c-8.891-2.868-17.724-5.851-26.443-9.235q-13.078-4.99-25.754-11.128a209.5,209.5,0,0,1-24.32-14.11A137.312,137.312,0,0,1,112.89,77.12,190.09,190.09,0,0,0,135.318,93.7a257.7,257.7,0,0,0,24.32,13.537c8.317,4.187,16.864,7.858,25.41,11.529Z" transform="translate(-112.89 -77.12)" fill="#4d300f"/>
            </g>
            <g id="Grupo_75" data-name="Grupo 75" transform="translate(7.801)">
              <path id="Caminho_103" data-name="Caminho 103" d="M204.935,127.162c-7.916-3.614-16-6.826-24.034-10.1-8.088-3.27-16.061-6.6-24.034-10.21a178.572,178.572,0,0,1-22.944-12.619A92.412,92.412,0,0,1,114.25,77.03,116.838,116.838,0,0,0,134.9,92.746a224.526,224.526,0,0,0,23,12.046c7.8,3.728,15.831,7.055,23.747,10.669C189.506,119.017,197.364,122.8,204.935,127.162Z" transform="translate(-114.25 -77.03)" fill="#4d300f"/>
            </g>
          </g>
          <g id="Grupo_77" data-name="Grupo 77" transform="translate(411.727 266.78)">
            <path id="Caminho_104" data-name="Caminho 104" d="M84.77,55.963l52.943,31.548L190.484,119.4l26.385,15.946c8.719,5.449,17.38,10.956,26.213,16.118,17.609,10.382,36.022,19.846,55.754,25.066h-.574c-.057,0-.287,0-.459.516-.057.344.057.459,0,.4,0-.057-.229-.287-.4-.4a8.4,8.4,0,0,0-1.377-.975,20.374,20.374,0,0,0-3.155-1.606c-2.122-.688-4.818-1.377-7.17-2.237a97.227,97.227,0,0,1-13.824-6.31c-8.891-4.876-17.151-10.5-25.64-15.889-16.806-10.956-33.383-22.256-49.96-33.613-33.211-22.542-66.25-45.371-101.182-65.16,17.667,9.579,34.875,19.9,51.853,30.63,16.921,10.841,33.555,22.083,50.19,33.269s33.269,22.428,50.132,33.269c8.489,5.334,16.864,10.9,25.582,15.659a98.939,98.939,0,0,0,13.537,6.137c2.352.918,4.589,1.377,7.227,2.237a20.6,20.6,0,0,1,3.556,1.778,11.13,11.13,0,0,1,1.663,1.2,4.947,4.947,0,0,1,.86.975,1.744,1.744,0,0,1,.229,1.262,1.594,1.594,0,0,1-1.147,1.09l-.229.115-.229-.057c-20.076-5.392-38.546-15.086-56.155-25.64-8.833-5.277-17.495-10.841-26.156-16.347l-26.271-16.118L137.2,88.486Z" transform="translate(-84.77 -51.26)" fill="#4d300f"/>
          </g>
          <g id="Grupo_80" data-name="Grupo 80" transform="translate(826.093 73.133)">
            <g id="Grupo_78" data-name="Grupo 78" transform="translate(43.077)">
              <path id="Caminho_105" data-name="Caminho 105" d="M169.223,17.5a10.451,10.451,0,0,1-1.09,5.507,10.428,10.428,0,0,1-3.614,4.3,15.307,15.307,0,0,1,1.549-5.277A17.956,17.956,0,0,1,169.223,17.5Z" transform="translate(-164.52 -17.5)" fill="#4d300f"/>
            </g>
            <g id="Grupo_79" data-name="Grupo 79" transform="translate(0 16.175)">
              <path id="Caminho_106" data-name="Caminho 106" d="M197.391,20.32c-3.843,12.332-9.636,23.976-16.29,35.047A158.987,158.987,0,0,1,157.01,85.6a348.693,348.693,0,0,0,22.141-31.433A348.645,348.645,0,0,0,197.391,20.32Z" transform="translate(-157.01 -20.32)" fill="#4d300f"/>
            </g>
          </g>
          <g id="Grupo_83" data-name="Grupo 83" transform="translate(844.104 38.718)">
            <g id="Grupo_81" data-name="Grupo 81" transform="translate(84.261)">
              <path id="Caminho_107" data-name="Caminho 107" d="M230.249,11.5c-3.556,6.654-7.342,13.193-11.529,19.5-4.13,6.31-8.6,12.39-13.193,18.412-4.7,5.908-9.522,11.7-14.627,17.265S180.4,77.521,174.84,82.569c4.99-5.621,9.923-11.357,14.741-17.093s9.636-11.529,14.168-17.495c4.7-5.851,9.12-11.931,13.537-18.011C221.645,23.89,226,17.695,230.249,11.5Z" transform="translate(-174.84 -11.5)" fill="#4d300f"/>
            </g>
            <g id="Grupo_82" data-name="Grupo 82" transform="translate(0 87.416)">
              <path id="Caminho_108" data-name="Caminho 108" d="M230.243,26.74A170.569,170.569,0,0,1,215.33,43.374a216.141,216.141,0,0,1-16.864,14.684A209.363,209.363,0,0,1,180,70.62,161.647,161.647,0,0,1,160.15,80.773c6.424-3.671,12.734-7.571,18.929-11.644,6.138-4.073,12.218-8.317,18.011-12.906,5.908-4.417,11.529-9.235,17.036-14.168S225.024,32.017,230.243,26.74Z" transform="translate(-160.15 -26.74)" fill="#4d300f"/>
            </g>
          </g>
          <g id="Grupo_86" data-name="Grupo 86" transform="translate(837.335 250.719)">
            <g id="Grupo_84" data-name="Grupo 84" transform="translate(150.97)">
              <path id="Caminho_109" data-name="Caminho 109" d="M205.71,48.46a25.946,25.946,0,0,1-9.579,5.162,25.7,25.7,0,0,1-10.841.918c3.442-1.262,6.883-2.008,10.21-3.155C198.827,50.582,202.1,49.32,205.71,48.46Z" transform="translate(-185.29 -48.46)" fill="#4d300f"/>
            </g>
            <g id="Grupo_85" data-name="Grupo 85" transform="translate(0 6.768)">
              <path id="Caminho_110" data-name="Caminho 110" d="M293.593,50.615a244.121,244.121,0,0,1-33.383,6.137,304.709,304.709,0,0,1-33.957,1.893A291.935,291.935,0,0,1,192.3,56.294,244.736,244.736,0,0,1,158.97,49.64q16.692,3.183,33.5,4.876A332.216,332.216,0,0,0,226.2,56.351c11.242.172,22.542-.4,33.785-1.319C271.223,54.057,282.465,52.565,293.593,50.615Z" transform="translate(-158.97 -49.64)" fill="#4d300f"/>
            </g>
          </g>
          <g id="Grupo_87" data-name="Grupo 87" transform="translate(1000.294 39.119)">
            <path id="Caminho_111" data-name="Caminho 111" d="M333.934,11.57a231.391,231.391,0,0,0-37.4,7.686C284.26,22.7,272.1,26.541,259.94,30.384q-18.326,5.507-36.481,11.472C211.356,45.871,199.311,50,187.38,54.59c11.587-5.392,23.46-10.1,35.506-14.4s24.206-8.145,36.423-11.988c12.218-3.614,24.378-7.571,36.825-10.612A186.807,186.807,0,0,1,333.934,11.57Z" transform="translate(-187.38 -11.57)" fill="#4d300f"/>
          </g>
          <g id="Grupo_90" data-name="Grupo 90" transform="translate(655.62 284.102)">
            <g id="Grupo_88" data-name="Grupo 88" transform="translate(9.751)">
              <path id="Caminho_112" data-name="Caminho 112" d="M321.317,196.36c-7.457-19.846-14.971-40.037-27.762-56.9-12.677-16.921-29.2-30.63-46.748-42.389s-35.792-23-55.581-30.4c-19.846-7.4-41.127-10.038-62.235-12.39,21.166,1.549,42.561,3.556,62.809,10.726,20.191,7.17,38.488,18.527,56.27,30.171,17.552,12.046,34.3,25.869,46.863,43.249C307.722,155.749,314.663,176.226,321.317,196.36Z" transform="translate(-128.99 -54.28)" fill="#4d300f"/>
            </g>
            <g id="Grupo_89" data-name="Grupo 89" transform="translate(0 2.639)">
              <path id="Caminho_113" data-name="Caminho 113" d="M300.057,149.9c-9.522-14-21.682-25.984-34.932-36.366a333.166,333.166,0,0,0-42.217-27.819,248.476,248.476,0,0,0-46.174-20.248A268.488,268.488,0,0,0,127.29,54.74,228.606,228.606,0,0,1,177.25,63.8a236.949,236.949,0,0,1,46.805,19.961,312.022,312.022,0,0,1,42.159,28.45C279.408,122.826,291.224,135.388,300.057,149.9Z" transform="translate(-127.29 -54.74)" fill="#4d300f"/>
            </g>
          </g>
        </g>
      </g>
      <g id="Grupo_93" data-name="Grupo 93" transform="translate(49.221 25.812)">
        <path id="Caminho_114" data-name="Caminho 114" d="M87.389,106.644c-14.168,3.212-29.54-3.384-38.6-14.684C39.666,80.66,36.4,65.345,37.945,50.89" transform="translate(128.735 215.201)" fill="none" stroke="#4d300f" stroke-miterlimit="10" stroke-width="0.25"/>
        <path id="Caminho_115" data-name="Caminho 115" d="M59.922,59.54A41.316,41.316,0,0,1,47.36,64.358" transform="translate(175.074 256.167)" fill="none" stroke="#4d300f" stroke-miterlimit="10" stroke-width="0.25"/>
        <path id="Caminho_116" data-name="Caminho 116" d="M98.717,59.392a40.481,40.481,0,0,1-29.77,11.472A40.827,40.827,0,0,1,40.21,57.04" transform="translate(141.212 244.327)" fill="none" stroke="#4d300f" stroke-miterlimit="10" stroke-width="0.25"/>
        <path id="Caminho_117" data-name="Caminho 117" d="M69.812,53.13a34.8,34.8,0,0,1-5.621,18.929A53.034,53.034,0,0,1,50.31,86.341" transform="translate(189.045 225.81)" fill="none" stroke="#4d300f" stroke-miterlimit="10" stroke-width="0.25"/>
        <path id="Caminho_118" data-name="Caminho 118" d="M51.39,95.005A39.079,39.079,0,0,0,54.373,48.2" transform="translate(194.16 202.461)" fill="none" stroke="#4d300f" stroke-miterlimit="10" stroke-width="0.25"/>
        <path id="Caminho_119" data-name="Caminho 119" d="M48.26,90.046A33.863,33.863,0,0,0,66.443,50.64" transform="translate(179.336 214.017)" fill="none" stroke="#4d300f" stroke-miterlimit="10" stroke-width="0.25"/>
        <path id="Caminho_120" data-name="Caminho 120" d="M44.659,162.6A228.428,228.428,0,0,0,30.95,42.66" transform="translate(97.357 176.224)" fill="none" stroke="#4d300f" stroke-miterlimit="10" stroke-width="0.25"/>
        <path id="Caminho_121" data-name="Caminho 121" d="M41.371,65.06A88.737,88.737,0,0,1,31.39,99.992" transform="translate(99.441 282.31)" fill="none" stroke="#4d300f" stroke-miterlimit="10" stroke-width="0.25"/>
        <path id="Caminho_122" data-name="Caminho 122" d="M71.483,86.158A228.988,228.988,0,0,0,12.46,28.11" transform="translate(9.789 107.316)" fill="none" stroke="#4d300f" stroke-miterlimit="10" stroke-width="0.25"/>
        <path id="Caminho_123" data-name="Caminho 123" d="M30.273,49.861A66.619,66.619,0,0,0,23.39,39.02" transform="translate(61.553 158.985)" fill="none" stroke="#4d300f" stroke-miterlimit="10" stroke-width="0.25"/>
        <path id="Caminho_124" data-name="Caminho 124" d="M96.1,14.08C90.072,54.863,75.56,95.875,46.479,125.128c-5.564,5.564-11.988,10.9-19.789,12.218" transform="translate(77.182 40.87)" fill="none" stroke="#4d300f" stroke-miterlimit="10" stroke-width="0.25"/>
        <path id="Caminho_125" data-name="Caminho 125" d="M68.865,28.66A122.536,122.536,0,0,1,44.143,59.577c-4.7,4.245-9.981,8.26-16.233,9.407" transform="translate(82.959 109.921)" fill="none" stroke="#4d300f" stroke-miterlimit="10" stroke-width="0.25"/>
        <path id="Caminho_126" data-name="Caminho 126" d="M40.144,25.79a37.327,37.327,0,0,1-4.474,8.948" transform="translate(119.71 96.329)" fill="none" stroke="#4d300f" stroke-miterlimit="10" stroke-width="0.25"/>
        <path id="Caminho_127" data-name="Caminho 127" d="M166.24,33.06A202.659,202.659,0,0,1,49.8,80.9" transform="translate(186.63 130.759)" fill="none" stroke="#4d300f" stroke-miterlimit="10" stroke-width="0.25"/>
        <path id="Caminho_128" data-name="Caminho 128" d="M80.621,30.44c-2.983,2.581-5.908,5.1-8.891,7.686" transform="translate(290.489 118.351)" fill="none" stroke="#4d300f" stroke-miterlimit="10" stroke-width="0.25"/>
        <path id="Caminho_129" data-name="Caminho 129" d="M202.261,46.32A200.581,200.581,0,0,1,55.65,62.151" transform="translate(214.335 193.558)" fill="none" stroke="#4d300f" stroke-miterlimit="10" stroke-width="0.25"/>
        <path id="Caminho_130" data-name="Caminho 130" d="M87.4,45.24c-1.491.516-2.983,1.032-4.474,1.491" transform="translate(343.532 188.443)" fill="none" stroke="#4d300f" stroke-miterlimit="10" stroke-width="0.25"/>
        <path id="Caminho_131" data-name="Caminho 131" d="M135.954,66.142A141.565,141.565,0,0,1,49.57,45.32" transform="translate(185.54 188.822)" fill="none" stroke="#4d300f" stroke-miterlimit="10" stroke-width="0.25"/>
        <path id="Caminho_132" data-name="Caminho 132" d="M10.7,76.446a121.339,121.339,0,0,1,.115-45.716" transform="translate(-8.581 119.724)" fill="none" stroke="#4d300f" stroke-miterlimit="10" stroke-width="0.25"/>
        <path id="Caminho_133" data-name="Caminho 133" d="M38.105,70.328A97.439,97.439,0,0,1,12.58,48.13" transform="translate(10.357 202.13)" fill="none" stroke="#4d300f" stroke-miterlimit="10" stroke-width="0.25"/>
        <path id="Caminho_134" data-name="Caminho 134" d="M33.778,67.718A54.119,54.119,0,0,1,12.67,46.61" transform="translate(10.783 194.931)" fill="none" stroke="#4d300f" stroke-miterlimit="10" stroke-width="0.25"/>
        <path id="Caminho_135" data-name="Caminho 135" d="M11.947,55.735A60.53,60.53,0,0,1,9.882,35.2" transform="translate(-3.178 140.894)" fill="none" stroke="#4d300f" stroke-miterlimit="10" stroke-width="0.25"/>
        <path id="Caminho_136" data-name="Caminho 136" d="M138.1,119.539c-7.113-16.4-19.732-30.114-34.416-40.324S72.253,62.064,55.16,56.73" transform="translate(212.014 242.859)" fill="none" stroke="#4d300f" stroke-miterlimit="10" stroke-width="0.25"/>
        <path id="Caminho_137" data-name="Caminho 137" d="M75.847,82.5,70.34,69.25" transform="translate(283.906 302.153)" fill="none" stroke="#4d300f" stroke-miterlimit="10" stroke-width="0.25"/>
        <path id="Caminho_138" data-name="Caminho 138" d="M113.8,90.538A126.435,126.435,0,0,0,54.83,57.9" transform="translate(210.451 248.4)" fill="none" stroke="#4d300f" stroke-miterlimit="10" stroke-width="0.25"/>
        <path id="Caminho_139" data-name="Caminho 139" d="M81.629,69.74A78.177,78.177,0,0,0,54.67,58.67" transform="translate(209.694 252.047)" fill="none" stroke="#4d300f" stroke-miterlimit="10" stroke-width="0.25"/>
        <path id="Caminho_140" data-name="Caminho 140" d="M173.053,34.47A200.949,200.949,0,0,1,98.6,113.339" transform="translate(417.744 137.437)" fill="none" stroke="#4d300f" stroke-miterlimit="10" stroke-width="0.25"/>
        <path id="Caminho_141" data-name="Caminho 141" d="M149.006,40.07A225.55,225.55,0,0,1,97.44,88.654" transform="translate(412.251 163.958)" fill="none" stroke="#4d300f" stroke-miterlimit="10" stroke-width="0.25"/>
        <path id="Caminho_142" data-name="Caminho 142" d="M126.356,43.65A140.314,140.314,0,0,1,96.07,69.175" transform="translate(405.762 180.913)" fill="none" stroke="#4d300f" stroke-miterlimit="10" stroke-width="0.25"/>
        <path id="Caminho_143" data-name="Caminho 143" d="M127.822,19.39A182.3,182.3,0,0,0,99.2,75.258" transform="translate(420.586 66.018)" fill="none" stroke="#4d300f" stroke-miterlimit="10" stroke-width="0.25"/>
        <path id="Caminho_144" data-name="Caminho 144" d="M159.609,96.688A847.07,847.07,0,0,0,85.73,52.12" transform="translate(356.793 221.026)" fill="none" stroke="#4d300f" stroke-miterlimit="10" stroke-width="0.25"/>
        <path id="Caminho_145" data-name="Caminho 145" d="M189.341,76.186c-14.914-9.464-31.031-17.323-48.182-21.51s-35.448-4.646-52.369.574" transform="translate(371.285 217.782)" fill="none" stroke="#4d300f" stroke-miterlimit="10" stroke-width="0.25"/>
        <path id="Caminho_146" data-name="Caminho 146" d="M114.467,62.809a13.664,13.664,0,0,0-7.227-6.539" transform="translate(458.663 240.681)" fill="none" stroke="#4d300f" stroke-miterlimit="10" stroke-width="0.25"/>
        <path id="Caminho_147" data-name="Caminho 147" d="M130.57,136.834C157.414,103.451,164.986,54.867,147.2,15.92" transform="translate(569.153 49.585)" fill="none" stroke="#4d300f" stroke-miterlimit="10" stroke-width="0.25"/>
        <path id="Caminho_148" data-name="Caminho 148" d="M129.42,100.637A102.385,102.385,0,0,0,151.962,23.66" transform="translate(563.707 86.241)" fill="none" stroke="#4d300f" stroke-miterlimit="10" stroke-width="0.25"/>
        <path id="Caminho_149" data-name="Caminho 149" d="M134.756,32.659A71.973,71.973,0,0,0,132.92,20.04" transform="translate(580.282 69.097)" fill="none" stroke="#4d300f" stroke-miterlimit="10" stroke-width="0.25"/>
        <path id="Caminho_150" data-name="Caminho 150" d="M127.96,78.047A81.971,81.971,0,0,0,149.412,28.66" transform="translate(556.792 109.921)" fill="none" stroke="#4d300f" stroke-miterlimit="10" stroke-width="0.25"/>
        <path id="Caminho_151" data-name="Caminho 151" d="M126.29,74.187c11.816-11.472,17.495-27.934,20.133-44.167" transform="translate(548.883 116.362)" fill="none" stroke="#4d300f" stroke-miterlimit="10" stroke-width="0.25"/>
        <path id="Caminho_152" data-name="Caminho 152" d="M204.35,24.98a335.608,335.608,0,0,1-68.43,66.48" transform="translate(594.49 92.492)" fill="none" stroke="#4d300f" stroke-miterlimit="10" stroke-width="0.25"/>
        <path id="Caminho_153" data-name="Caminho 153" d="M193.985,23.36A953.53,953.53,0,0,0,134.56,98.1" transform="translate(588.049 84.82)" fill="none" stroke="#4d300f" stroke-miterlimit="10" stroke-width="0.25"/>
        <path id="Caminho_154" data-name="Caminho 154" d="M151.6,21.42a29,29,0,0,0-5.679,5.564" transform="translate(641.85 75.632)" fill="none" stroke="#4d300f" stroke-miterlimit="10" stroke-width="0.25"/>
        <path id="Caminho_155" data-name="Caminho 155" d="M295.677,31.9C276.4,50.026,253.059,63.333,228.567,73.256s-50.132,16.634-75.887,22.6" transform="translate(673.865 125.265)" fill="none" stroke="#4d300f" stroke-miterlimit="10" stroke-width="0.25"/>
        <path id="Caminho_156" data-name="Caminho 156" d="M177.52,54.559A25.834,25.834,0,0,1,171.21,38.9" transform="translate(761.622 158.417)" fill="none" stroke="#4d300f" stroke-miterlimit="10" stroke-width="0.25"/>
        <path id="Caminho_157" data-name="Caminho 157" d="M180.455,58.335A41.474,41.474,0,0,1,172.31,37.8" transform="translate(766.832 153.207)" fill="none" stroke="#4d300f" stroke-miterlimit="10" stroke-width="0.25"/>
        <path id="Caminho_158" data-name="Caminho 158" d="M179.284,54.793A39.286,39.286,0,0,1,173.72,37.47" transform="translate(773.51 151.645)" fill="none" stroke="#4d300f" stroke-miterlimit="10" stroke-width="0.25"/>
        <path id="Caminho_159" data-name="Caminho 159" d="M204.978,55.219A36.964,36.964,0,0,0,181.69,30.21" transform="translate(811.255 117.262)" fill="none" stroke="#4d300f" stroke-miterlimit="10" stroke-width="0.25"/>
        <path id="Caminho_160" data-name="Caminho 160" d="M198.749,46.495A28.707,28.707,0,0,0,180.91,31.18" transform="translate(807.561 121.855)" fill="none" stroke="#4d300f" stroke-miterlimit="10" stroke-width="0.25"/>
        <path id="Caminho_161" data-name="Caminho 161" d="M186.41,52.268a31.813,31.813,0,0,0,1.032-13.938" transform="translate(833.609 155.718)" fill="none" stroke="#4d300f" stroke-miterlimit="10" stroke-width="0.25"/>
        <path id="Caminho_162" data-name="Caminho 162" d="M223.02,37.78a284,284,0,0,1-69.29,22.886" transform="translate(678.838 153.113)" fill="none" stroke="#4d300f" stroke-miterlimit="10" stroke-width="0.25"/>
        <path id="Caminho_163" data-name="Caminho 163" d="M187.106,38.26a123.621,123.621,0,0,1-30.286,9.005" transform="translate(693.472 155.386)" fill="none" stroke="#4d300f" stroke-miterlimit="10" stroke-width="0.25"/>
        <path id="Caminho_164" data-name="Caminho 164" d="M188.681,27.79a64.255,64.255,0,0,1-9.751,13.422" transform="translate(798.184 105.8)" fill="none" stroke="#4d300f" stroke-miterlimit="10" stroke-width="0.25"/>
        <path id="Caminho_165" data-name="Caminho 165" d="M304.914,19.33C270.556,49.272,226.848,65.849,184,81.508" transform="translate(822.195 65.734)" fill="none" stroke="#4d300f" stroke-miterlimit="10" stroke-width="0.25"/>
        <path id="Caminho_166" data-name="Caminho 166" d="M269.923,22.61A421.419,421.419,0,0,1,183.31,61.672" transform="translate(818.927 81.268)" fill="none" stroke="#4d300f" stroke-miterlimit="10" stroke-width="0.25"/>
        <path id="Caminho_167" data-name="Caminho 167" d="M233.379,24.66A303.988,303.988,0,0,1,182.96,47.948" transform="translate(817.27 90.977)" fill="none" stroke="#4d300f" stroke-miterlimit="10" stroke-width="0.25"/>
        <path id="Caminho_168" data-name="Caminho 168" d="M240.406,17.14A386.1,386.1,0,0,0,186.66,38.363" transform="translate(834.793 55.363)" fill="none" stroke="#4d300f" stroke-miterlimit="10" stroke-width="0.25"/>
        <path id="Caminho_169" data-name="Caminho 169" d="M246.376,13.52a366.692,366.692,0,0,0-48.469,14.913c-3.384,1.319-6.768,2.7-9.407,5.162" transform="translate(843.507 38.218)" fill="none" stroke="#4d300f" stroke-miterlimit="10" stroke-width="0.25"/>
        <path id="Caminho_170" data-name="Caminho 170" d="M306.508,41.99A793.812,793.812,0,0,0,154.39,71.76" transform="translate(681.964 173.051)" fill="none" stroke="#4d300f" stroke-miterlimit="10" stroke-width="0.25"/>
        <path id="Caminho_171" data-name="Caminho 171" d="M198.663,43.9a23.987,23.987,0,0,0-16.233-1.262" transform="translate(814.76 172.055)" fill="none" stroke="#4d300f" stroke-miterlimit="10" stroke-width="0.25"/>
        <path id="Caminho_172" data-name="Caminho 172" d="M232.995,44.65A375.581,375.581,0,0,0,157.28,61.17" transform="translate(695.65 185.649)" fill="none" stroke="#4d300f" stroke-miterlimit="10" stroke-width="0.25"/>
        <path id="Caminho_173" data-name="Caminho 173" d="M216.3,91.509A161.574,161.574,0,0,0,140.36,52.16" transform="translate(615.518 221.216)" fill="none" stroke="#4d300f" stroke-miterlimit="10" stroke-width="0.25"/>
        <path id="Caminho_174" data-name="Caminho 174" d="M203.289,80.522A156.842,156.842,0,0,0,138.53,52.76" transform="translate(606.851 224.057)" fill="none" stroke="#4d300f" stroke-miterlimit="10" stroke-width="0.25"/>
        <path id="Caminho_175" data-name="Caminho 175" d="M221.583,92.216c-7.629-6.883-16.806-11.759-25.927-16.634-19.1-10.21-39-20.592-60.686-21.911" transform="translate(589.991 228.367)" fill="none" stroke="#4d300f" stroke-miterlimit="10" stroke-width="0.25"/>
        <path id="Caminho_176" data-name="Caminho 176" d="M146.981,95.209c-11.931-1.2-21.567-9.694-30.4-17.839" transform="translate(502.897 340.609)" fill="none" stroke="#4d300f" stroke-miterlimit="10" stroke-width="0.25"/>
        <path id="Caminho_177" data-name="Caminho 177" d="M134.792,89.287c-2.811-1.434-5.564-2.811-8.374-4.245-3.614-1.836-7.686-4.245-8.317-8.2" transform="translate(510.096 338.099)" fill="none" stroke="#4d300f" stroke-miterlimit="10" stroke-width="0.25"/>
        <path id="Caminho_178" data-name="Caminho 178" d="M176.017,136c-32.064-7.629-59.941-31.2-72.847-61.547" transform="translate(439.388 326.78)" fill="none" stroke="#4d300f" stroke-miterlimit="10" stroke-width="0.25"/>
        <path id="Caminho_179" data-name="Caminho 179" d="M155,117.889c-10.784-2.868-20.477-9.178-28.622-16.806S111.4,84.505,104.75,75.5" transform="translate(446.871 331.753)" fill="none" stroke="#4d300f" stroke-miterlimit="10" stroke-width="0.25"/>
        <path id="Caminho_180" data-name="Caminho 180" d="M95.428,112.372A64.855,64.855,0,0,0,82.35,62.01" transform="translate(340.785 267.865)" fill="none" stroke="#4d300f" stroke-miterlimit="10" stroke-width="0.25"/>
        <path id="Caminho_181" data-name="Caminho 181" d="M87.319,71.96a17.309,17.309,0,0,1-3.5,5.507" transform="translate(347.747 314.988)" fill="none" stroke="#4d300f" stroke-miterlimit="10" stroke-width="0.25"/>
        <path id="Caminho_182" data-name="Caminho 182" d="M199.27,40.63c-21.338,7.113-39,22.886-60.4,29.6" transform="translate(608.461 166.61)" fill="none" stroke="#4d300f" stroke-miterlimit="10" stroke-width="0.25"/>
        <path id="Caminho_183" data-name="Caminho 183" d="M145.367,46.33c-3.155.918-6.31,1.778-9.407,2.7" transform="translate(594.68 193.605)" fill="none" stroke="#4d300f" stroke-miterlimit="10" stroke-width="0.25"/>
        <path id="Caminho_184" data-name="Caminho 184" d="M215.754,38.9C176.4,35.914,136.139,54.613,113.08,86.62" transform="translate(486.321 156.929)" fill="none" stroke="#4d300f" stroke-miterlimit="10" stroke-width="0.25"/>
        <path id="Caminho_185" data-name="Caminho 185" d="M181.228,40.09A117.506,117.506,0,0,0,114.92,78.808" transform="translate(495.035 164.053)" fill="none" stroke="#4d300f" stroke-miterlimit="10" stroke-width="0.25"/>
        <path id="Caminho_186" data-name="Caminho 186" d="M140.038,43.86A52.849,52.849,0,0,0,116.75,59.29" transform="translate(503.702 181.907)" fill="none" stroke="#4d300f" stroke-miterlimit="10" stroke-width="0.25"/>
        <path id="Caminho_187" data-name="Caminho 187" d="M151.742,37.98A44.866,44.866,0,0,1,133.1,40.963" transform="translate(581.135 154.06)" fill="none" stroke="#4d300f" stroke-miterlimit="10" stroke-width="0.25"/>
        <path id="Caminho_188" data-name="Caminho 188" d="M219.574,47.97C207.3,58.295,192.213,64.776,176.726,68.906c-15.487,4.073-31.49,5.908-47.436,7.686" transform="translate(563.091 201.372)" fill="none" stroke="#4d300f" stroke-miterlimit="10" stroke-width="0.25"/>
        <path id="Caminho_189" data-name="Caminho 189" d="M159.011,61.139a117.325,117.325,0,0,1-45.6-1.549" transform="translate(487.884 256.404)" fill="none" stroke="#4d300f" stroke-miterlimit="10" stroke-width="0.25"/>
        <path id="Caminho_190" data-name="Caminho 190" d="M149.989,60.5A111.525,111.525,0,0,1,111.96,58.61" transform="translate(481.017 251.763)" fill="none" stroke="#4d300f" stroke-miterlimit="10" stroke-width="0.25"/>
        <path id="Caminho_191" data-name="Caminho 191" d="M164.826,53.82a53.866,53.866,0,0,0-14.053-3.27A141.378,141.378,0,0,0,87.62,57.319" transform="translate(365.744 208.772)" fill="none" stroke="#4d300f" stroke-miterlimit="10" stroke-width="0.25"/>
        <path id="Caminho_192" data-name="Caminho 192" d="M153.241,42.11A306.821,306.821,0,0,1,82,88.973" transform="translate(339.127 173.619)" fill="none" stroke="#4d300f" stroke-miterlimit="10" stroke-width="0.25"/>
        <path id="Caminho_193" data-name="Caminho 193" d="M129.38,44.77A250.32,250.32,0,0,1,80.51,75.916" transform="translate(332.071 186.217)" fill="none" stroke="#4d300f" stroke-miterlimit="10" stroke-width="0.25"/>
        <path id="Caminho_194" data-name="Caminho 194" d="M103.176,47.22A81.536,81.536,0,0,1,79.2,61.33" transform="translate(325.867 197.82)" fill="none" stroke="#4d300f" stroke-miterlimit="10" stroke-width="0.25"/>
        <path id="Caminho_195" data-name="Caminho 195" d="M155.785,15.88c-30.974,14.4-52.255,43.937-67.455,74.567" transform="translate(369.106 49.395)" fill="none" stroke="#4d300f" stroke-miterlimit="10" stroke-width="0.25"/>
        <path id="Caminho_196" data-name="Caminho 196" d="M133.955,19.27c-3.212.574-5.851,2.868-8.2,5.1A182.277,182.277,0,0,0,89.96,72.156" transform="translate(376.826 65.45)" fill="none" stroke="#4d300f" stroke-miterlimit="10" stroke-width="0.25"/>
        <path id="Caminho_197" data-name="Caminho 197" d="M112.741,23.23A76.585,76.585,0,0,0,91.69,49.787" transform="translate(385.019 84.205)" fill="none" stroke="#4d300f" stroke-miterlimit="10" stroke-width="0.25"/>
        <path id="Caminho_198" data-name="Caminho 198" d="M128.716,13.5A85.7,85.7,0,0,0,101.47,23.538" transform="translate(431.337 38.124)" fill="none" stroke="#4d300f" stroke-miterlimit="10" stroke-width="0.25"/>
        <path id="Caminho_199" data-name="Caminho 199" d="M171.955,118c-12.16-4.3-24.32-8.6-35.62-14.741A123.562,123.562,0,0,1,93.43,64.54" transform="translate(393.259 279.847)" fill="none" stroke="#4d300f" stroke-miterlimit="10" stroke-width="0.25"/>
        <path id="Caminho_200" data-name="Caminho 200" d="M217.165,45.99A128.865,128.865,0,0,1,192.73,62.337" transform="translate(863.54 191.995)" fill="none" stroke="#4d300f" stroke-miterlimit="10" stroke-width="0.25"/>
        <path id="Caminho_201" data-name="Caminho 201" d="M220.8,7.53A216.82,216.82,0,0,0,180.13,28.982" transform="translate(803.867 9.85)" fill="none" stroke="#4d300f" stroke-miterlimit="10" stroke-width="0.25"/>
        <path id="Caminho_202" data-name="Caminho 202" d="M158.238,31.688c-2.237-1.95-4.417-3.9-6.654-5.851-8.776-7.8-17.667-15.6-27.934-21.338" transform="translate(536.38 -4.5)" fill="none" stroke="#4d300f" stroke-miterlimit="10" stroke-width="0.25"/>
      </g>
    </g>
  </g>
</svg>
