<svg xmlns="http://www.w3.org/2000/svg" xmlns:xlink="http://www.w3.org/1999/xlink" width="554" height="1022" viewBox="0 0 554 1022">
  <defs>
    <clipPath id="clip-path">
      <rect id="Retângulo_78" data-name="Retângulo 78" width="554" height="1022" transform="translate(0 3744)" fill="none" stroke="#707070" stroke-width="1"/>
    </clipPath>
  </defs>
  <g id="folha1-sobre" transform="translate(0 -3744)" clip-path="url(#clip-path)">
    <g id="Folhas" transform="translate(-168 1390.504)" opacity="0.318">
      <g id="F" transform="translate(-317.68 3169.932) rotate(-43)">
        <g id="Grupo_27" data-name="Grupo 27" transform="translate(158.096 224.042)">
          <path id="Caminho_58" data-name="Caminho 58" d="M0,0C6.624,5.752,10.691,14.293,12.027,23.067a56.06,56.06,0,0,1-2.5,25.972c.523-8.715.988-17.2-.349-25.565A57.064,57.064,0,0,0,0,0Z" transform="translate(0 0)" fill="#4d300f"/>
        </g>
        <g id="Grupo_28" data-name="Grupo 28" transform="translate(130.149 208.587)">
          <path id="Caminho_59" data-name="Caminho 59" d="M102.085,52.7c-17.663-7.553-34.8-16.036-52-24.519L24.577,14.99C16.21,10.4,7.437,6.217,0,0,8.076,5.171,16.908,8.832,25.565,13.015l25.8,12.608C68.444,34.338,85.526,43,102.085,52.7Z" transform="translate(0 0)" fill="#4d300f"/>
        </g>
        <g id="Grupo_29" data-name="Grupo 29" transform="translate(109.174 185.578)">
          <path id="Caminho_60" data-name="Caminho 60" d="M155.946,70.362c-27.6-7.553-53.919-19.116-79.832-31.027C63.215,33.118,50.491,26.669,37.824,20.1,25.158,13.6,12.55,6.856,0,0Q19.522,8.8,38.812,18.07c12.9,6.1,25.623,12.608,38.522,18.593,12.841,6.217,25.855,12.027,38.87,17.721C129.335,60.078,142.525,65.539,155.946,70.362Z" transform="translate(0)" fill="#4d300f"/>
        </g>
        <g id="Grupo_30" data-name="Grupo 30" transform="translate(381.847 298.413)">
          <path id="Caminho_61" data-name="Caminho 61" d="M0,1.394a116.716,116.716,0,0,1,40.555,25.1A102.424,102.424,0,0,1,66.236,66.876a91.458,91.458,0,0,1,4.822,23.706c.523,8.076.174,16.036.872,23.88.755,7.669,2.44,15.862,7.437,21.44a12.708,12.708,0,0,0,9.645,4.125,21.415,21.415,0,0,0,10.575-3.37c6.449-3.951,11.272-10.575,14.119-17.663A49.5,49.5,0,0,0,116.9,96.1c-1.336-15.63-10.284-29.806-21.672-40.5-5.694-5.462-12.26-9.877-19-14.235-6.682-4.358-13.48-8.541-20.1-13.073A211.841,211.841,0,0,1,37.244,13.48C31.2,8.309,24.926,3.254,17.605,0c7.437,3.021,13.886,7.96,20.1,12.9A199.892,199.892,0,0,0,56.94,27.076c6.624,4.358,13.48,8.483,20.278,12.724,6.8,4.183,13.6,8.6,19.522,14.119,11.911,10.749,21.207,25.449,22.776,41.892a51.714,51.714,0,0,1-3.254,24.112c-3.079,7.611-8.018,14.7-15.223,19.116a24.2,24.2,0,0,1-12.027,3.719A15.31,15.31,0,0,1,77.334,137.7c-5.752-6.565-7.2-15.107-8.018-23.067-.639-8.076-.232-16.094-.7-23.938A99.059,99.059,0,0,0,64.2,67.515C54.558,37.3,29.632,13.131,0,1.394Z" transform="translate(0)" fill="#4d300f"/>
        </g>
        <g id="Grupo_31" data-name="Grupo 31" transform="translate(424.32 295.043)">
          <path id="Caminho_62" data-name="Caminho 62" d="M68.212,7.553A260.423,260.423,0,0,1,33.874,5.868,268.1,268.1,0,0,1,0,0C11.5.523,22.834,1.8,34.222,2.963,45.552,4.3,56.882,5.578,68.212,7.553Z" transform="translate(0 0)" fill="#4d300f"/>
        </g>
        <g id="Grupo_32" data-name="Grupo 32" transform="translate(444.772 289.404)">
          <path id="Caminho_63" data-name="Caminho 63" d="M52.35,3.605c-8.6,2.208-17.663,1.859-26.378,1.1A208.046,208.046,0,0,1,0,0,206.035,206.035,0,0,1,26.2,1.8C34.978,2.734,43.519,3.547,52.35,3.605Z" transform="translate(0 0)" fill="#4d300f"/>
        </g>
        <g id="Grupo_33" data-name="Grupo 33" transform="translate(528.962 235.372)">
          <path id="Caminho_64" data-name="Caminho 64" d="M27.657,0c-2.15,4.241-3.079,8.832-4.183,13.422a57.472,57.472,0,0,1-4.823,13.6,61.68,61.68,0,0,1-7.96,12.027A48.954,48.954,0,0,1,0,48.573,96.744,96.744,0,0,0,16.094,25.739a83.241,83.241,0,0,0,5.229-12.9C22.834,8.367,24.461,3.66,27.657,0Z" transform="translate(0 0)" fill="#4d300f"/>
        </g>
        <g id="Grupo_34" data-name="Grupo 34" transform="translate(483.526 252.57)">
          <path id="Caminho_65" data-name="Caminho 65" d="M66.585,0A161.822,161.822,0,0,1,35.617,24.112,169.117,169.117,0,0,1,0,40.555c11.562-6.1,23.008-12.2,34.106-18.941C45.2,14.932,55.952,7.669,66.585,0Z" fill="#4d300f"/>
        </g>
        <g id="Grupo_35" data-name="Grupo 35" transform="translate(502.409 70.478)">
          <path id="Caminho_66" data-name="Caminho 66" d="M124.687,0A135.6,135.6,0,0,0,85.062,11.446,149.363,149.363,0,0,0,50.433,33.583a184.058,184.058,0,0,0-28.3,29.923A254.359,254.359,0,0,0,0,98.541,194.469,194.469,0,0,1,20.336,62.169,171.018,171.018,0,0,1,48.515,31.317a143.062,143.062,0,0,1,35.617-21.9A117.01,117.01,0,0,1,124.687,0Z" transform="translate(0 0)" fill="#4d300f"/>
        </g>
        <g id="Grupo_36" data-name="Grupo 36" transform="translate(648.188 174.829)">
          <path id="Caminho_67" data-name="Caminho 67" d="M.349,108.186C15.4,111.44,28.412,119.923,42.008,126.6a120.107,120.107,0,0,0,43.577,12.027,166.527,166.527,0,0,0,45.262-2.44,205.959,205.959,0,0,0,43.519-12.9c13.944-5.926,26.727-14.351,36.953-25.565,10.284-10.981,19.755-23.415,32.189-32.6,12.143-9.354,25.042-17.489,35.442-28.47,10.458-10.865,20.1-22.776,30.271-34.106l1.627,2.266A91.273,91.273,0,0,1,290.1,10.052a162.435,162.435,0,0,1-21.207.988c-14.119-.174-28.121-1.511-42.066-1.1-13.944.291-27.889,2.731-40.323,9.064-12.55,6.043-24.171,14.293-37.592,19.174-13.48,5.345-28.121,4.358-42.008,4.241a119.292,119.292,0,0,0-20.859,1.627A130.032,130.032,0,0,0,65.83,49.5C39.509,59.206,17.024,77.8,0,100.11c16.617-22.544,38.87-41.6,65.307-51.885A119.474,119.474,0,0,1,85.7,42.531a122.588,122.588,0,0,1,21.091-1.8c14,.058,28.3.93,41.311-4.358,13.073-4.881,24.577-13.131,37.3-19.348C198.07,10.458,212.48,7.844,226.6,7.5c14.177-.465,28.18.813,42.182.872a166.678,166.678,0,0,0,20.859-1.1,91.609,91.609,0,0,0,20.045-5.171L315.088,0l-3.777,4.3c-10.052,11.446-19.755,23.125-30.446,34.164-10.691,11.214-23.88,19.348-35.849,28.528-12.26,8.948-21.556,21.033-32.072,32.189-10.4,11.33-23.648,19.929-37.766,25.855a210.74,210.74,0,0,1-43.983,12.782,169.856,169.856,0,0,1-45.726,2.208,121.717,121.717,0,0,1-43.809-12.782C28.18,120.388,15.339,111.672.349,108.186Z" transform="translate(0 0)" fill="#4d300f"/>
        </g>
        <g id="Grupo_37" data-name="Grupo 37" transform="translate(579.569 220.614)">
          <path id="Caminho_68" data-name="Caminho 68" d="M21.382,67.457c24.519-4.241,49.445-5.752,74.255-7.2,24.81-1.336,49.735-2.557,74.255-6.449,24.519-3.777,48.748-10.284,70.827-21.556,11.039-5.636,21.44-12.434,32.363-18.535C283.945,7.669,295.508,2.266,308,.058l.291,2.266c-13.015,1.22-24.984,7.321-36.6,13.48a339.2,339.2,0,0,1-35.849,17.314,251.185,251.185,0,0,1-77.218,18.651c-13.247.7-26.553.523-39.8.755-13.247.29-26.437,1.046-39.684,2.092C52.7,56.591,26.378,59.671,0,62.4c26.32-3.079,52.582-6.566,79.019-8.948,13.189-1.162,26.436-1.975,39.742-2.266,13.247-.349,26.495-.174,39.684-.988a249.382,249.382,0,0,0,76.579-18.941A330.837,330.837,0,0,0,270.64,13.828C282.26,7.611,294.4,1.162,308.058,0l.29,2.266C296.2,4.358,284.875,9.587,274.01,15.513c-10.865,5.985-21.323,12.724-32.537,18.36C219.1,45.145,194.584,51.537,170.007,55.255,120.736,62.925,70.594,59.729,21.382,67.457Z" transform="translate(0 0)" fill="#4d300f"/>
        </g>
        <g id="Grupo_38" data-name="Grupo 38" transform="translate(737.723 314.797)">
          <path id="Caminho_69" data-name="Caminho 69" d="M15.107,28.005A78.912,78.912,0,0,1,6.275,14.7,77.2,77.2,0,0,1,0,0,77.786,77.786,0,0,1,8.832,13.305,82.278,82.278,0,0,1,15.107,28.005Z" transform="translate(0 0)" fill="#4d300f"/>
        </g>
        <g id="Grupo_39" data-name="Grupo 39" transform="translate(854.508 276.912)">
          <path id="Caminho_70" data-name="Caminho 70" d="M32.6,4.36A95.93,95.93,0,0,0,16.443,2.908C11.039,2.792,5.578,3.082,0,2.5A52.875,52.875,0,0,1,16.5,0C22.021.177,27.889,1.281,32.6,4.36Z" transform="translate(0 0)" fill="#4d300f"/>
        </g>
        <g id="Grupo_40" data-name="Grupo 40" transform="translate(862.12 268.025)">
          <path id="Caminho_71" data-name="Caminho 71" d="M25.216,2.44c-4.358.465-8.483.407-12.608.465C8.425,2.847,4.358,2.963,0,2.5A31.509,31.509,0,0,1,12.608,0,31.643,31.643,0,0,1,25.216,2.44Z" transform="translate(0 0)" fill="#4d300f"/>
        </g>
        <g id="Grupo_58" data-name="Grupo 58" transform="translate(0 0)">
          <g id="Grupo_41" data-name="Grupo 41" transform="translate(0 118.183)">
            <path id="Caminho_72" data-name="Caminho 72" d="M0,3.425A14.122,14.122,0,0,1,7.728.055a21.785,21.785,0,0,1,8.425,1.162C21.614,3.077,26.378,6.33,31.2,9.235c9.645,5.985,19.406,11.795,28.877,18.07S79.368,39.39,88.141,46.653A263.057,263.057,0,0,1,113.3,69.778c15.688,16.5,29.864,34.513,41.369,54.326,11.33,19.755,20.045,41.6,21.614,64.726a107.748,107.748,0,0,1-.174,17.314,8.526,8.526,0,0,1-6.74,7.321,18.4,18.4,0,0,1-4.706.058l-4.241-.232-8.541-.465-4.241-.232-4.3-.639a121.7,121.7,0,0,1-16.85-3.835c-21.9-6.914-42.008-19.929-56.591-37.766-14.99-17.721-22.6-40.439-25.507-62.983a158.057,158.057,0,0,1,5.462-67.747v.407c-.465-2.556-2.382-3.893-4.764-5.229L38.58,30.443c-4.3-2.963-8.541-6.043-12.724-9.122C17.2,15.22,8.832,9,0,3.425Zm0,0C8.948,8.771,17.489,14.813,26.03,20.8c4.3,2.963,8.541,5.926,12.957,8.773l6.624,4.183a22.827,22.827,0,0,1,3.37,2.266,7.758,7.758,0,0,1,2.092,3.66l.058.174-.058.232a160.19,160.19,0,0,0-4.416,66.992c3.2,22.2,10.981,44.216,25.507,61.356C86.4,185.75,106.095,198.3,127.418,204.982a122.542,122.542,0,0,0,16.327,3.66l4.125.581,4.241.232,8.483.407,4.241.232a13.557,13.557,0,0,0,3.777,0,5.052,5.052,0,0,0,4.067-4.358A114.819,114.819,0,0,0,172.912,189c-1.394-22.369-9.819-43.867-20.917-63.389-11.272-19.522-25.158-37.534-40.5-54.151A266.057,266.057,0,0,0,86.863,48.222c-8.6-7.321-18.418-13.131-27.657-19.7-9.3-6.507-18.941-12.492-28.412-18.709C26.03,6.737,21.382,3.425,16.036,1.508A21.331,21.331,0,0,0,7.728.171,15.066,15.066,0,0,0,0,3.425Z" transform="translate(0 0)" fill="#4d300f"/>
          </g>
          <g id="Grupo_42" data-name="Grupo 42" transform="translate(151.039 235.198)">
            <path id="Caminho_73" data-name="Caminho 73" d="M1.537,94.358c-1.569,13.422-.813,26.9.174,40.323C2.757,148.1,3.4,161.582,3.745,175.12c.349,13.48.349,27.017.058,40.5l-.755,20.22c-.232,6.682,0,13.305,2.034,19.464l-1.22-1.046c.407.116,1.22-.349,1.917-1.336.7-.93,1.394-2.266,2.092-3.428q2.179-3.573,4.183-7.321c2.731-4.881,5.287-9.877,7.786-14.874,4.939-10.052,9.3-20.394,13.247-30.852a278.921,278.921,0,0,0,15.92-65.074,253.591,253.591,0,0,0-.813-66.992,243.523,243.523,0,0,0-7.321-32.828C36.921,21.033,33.435,10.342,29.019,0c4.764,10.168,8.6,20.8,12.9,31.259a212.067,212.067,0,0,1,8.25,32.828,246.508,246.508,0,0,1,1.917,67.631A285.064,285.064,0,0,1,36.4,197.605a301.1,301.1,0,0,1-13.422,31.143c-2.556,5.055-5.171,10.052-7.96,14.99-1.394,2.5-2.789,4.939-4.241,7.321-.755,1.22-1.336,2.382-2.324,3.719-.872,1.162-2.5,2.963-5.055,2.556l-.93-.116-.29-.93c-2.208-6.74-2.324-13.77-2.092-20.568L.956,215.5q.784-20.132.639-40.381c-.058-13.48-.581-26.9-1.1-40.381C-.09,121.259-.439,107.663,1.537,94.358Z" transform="translate(0 0)" fill="#4d300f"/>
          </g>
          <g id="Grupo_43" data-name="Grupo 43" transform="translate(150.426 39.865)">
            <path id="Caminho_74" data-name="Caminho 74" d="M16.443,173.254C32.072,166.4,47.528,158.728,61.3,148.676c13.77-9.877,25.972-22.369,33.815-37.3,3.893-7.437,6.914-15.455,7.379-23.764.523-8.309-.93-16.733-2.5-25.1a241.575,241.575,0,0,0-14.816-48.69L82.621,7.953c-.872-2.092-1.627-3.66-2.847-4.3a3.774,3.774,0,0,0-4.009.93A8.944,8.944,0,0,0,73.5,9.348L69.606,34.622C66.759,51.53,63.448,68.437,58.335,84.88A207.763,207.763,0,0,1,37.65,132C33,139.206,28.121,146.41,21.9,152.395,15.8,158.438,8.367,163.376,0,165.352c8.309-2.266,15.455-7.437,21.265-13.6,5.926-6.159,10.516-13.363,14.874-20.684a209.379,209.379,0,0,0,19.58-47A417.664,417.664,0,0,0,66.411,34.1L70.187,8.65a11.928,11.928,0,0,1,3.254-6.566A7.1,7.1,0,0,1,81.285.632C84.016,2.143,85,4.874,85.817,6.617l2.615,5.926a248.313,248.313,0,0,1,14.758,49.445c1.511,8.425,2.963,17.082,2.382,25.855-.523,8.89-3.835,17.256-8.018,24.81-8.425,15.281-21.091,27.715-35.21,37.418C47.992,159.774,32.3,166.862,16.443,173.254Z" transform="translate(0 0)" fill="#4d300f"/>
          </g>
          <g id="Grupo_44" data-name="Grupo 44" transform="translate(212.886 58.146)">
            <path id="Caminho_75" data-name="Caminho 75" d="M0,177.923c13.945-4.183,26.378-12.027,38.987-19.116,12.55-7.2,24.984-14.874,35.849-24.4,10.923-9.471,20.568-20.336,30.678-30.794,10.052-10.516,20.51-20.626,31.2-30.5,10.691-9.819,21.73-19.348,33.118-28.47,11.388-9.064,22.834-18.07,35.268-25.855,12.376-7.728,25.972-14.119,40.439-17.024A80.825,80.825,0,0,1,267.676.188c1.859.116,3.719.349,5.52.581a8.372,8.372,0,0,1,5.52,3.486,9.864,9.864,0,0,1,2.266,5.985,20.721,20.721,0,0,1-.872,5.868c-7.96,28.063-18.941,55.488-34.977,80.007A196.76,196.76,0,0,1,217.3,129.988a173.166,173.166,0,0,1-35.268,25.972A340.7,340.7,0,0,1,142.7,175.018a198.029,198.029,0,0,1-42.3,11.039c-7.2,1.046-14.467,1.8-21.73,2.208a94.826,94.826,0,0,1-21.846-.872c-14.351-1.859-28.761-5.113-43.286-3.486,14.526-1.917,28.993,1.1,43.4,2.615a92.781,92.781,0,0,0,21.614.407c7.2-.581,14.409-1.453,21.556-2.615a197.884,197.884,0,0,0,41.717-11.388,335.427,335.427,0,0,0,38.812-19.348,183.03,183.03,0,0,0,34.513-25.8A195.655,195.655,0,0,0,242.4,94.372c15.746-24.229,26.553-51.362,34.28-79.135a16.287,16.287,0,0,0,.755-4.822,6.6,6.6,0,0,0-1.511-4.009c-.988-1.22-2.034-2.15-3.312-2.208a52.542,52.542,0,0,0-5.287-.581,81.2,81.2,0,0,0-21.207,1.453c-14,2.789-27.25,8.89-39.451,16.443-12.26,7.553-23.706,16.559-35.036,25.507q-16.995,13.6-33.176,28.063c-10.749,9.7-21.265,19.7-31.433,30.039S87.037,126.27,75.881,135.682c-11.214,9.413-23.822,16.85-36.546,23.822C26.669,166.418,14.061,174.03,0,177.923Z" transform="translate(0 0)" fill="#4d300f"/>
          </g>
          <g id="Grupo_45" data-name="Grupo 45" transform="translate(265.992 167.304)">
            <path id="Caminho_76" data-name="Caminho 76" d="M176.05,4.562a589.764,589.764,0,0,1,140.607-.7c5.81.872,11.679.93,17.663,3.021a14.371,14.371,0,0,1,7.5,6.043,13.788,13.788,0,0,1,1.162,9.587c-1.394,6.449-6.159,11.039-10.458,14.932-4.416,3.893-8.89,7.786-13.48,11.446a388.217,388.217,0,0,1-59.148,38.522,692.5,692.5,0,0,1-64.029,29.516,213.221,213.221,0,0,1-68.5,16.617,193.809,193.809,0,0,1-35.326-.7,131.437,131.437,0,0,1-34.222-8.89A161.856,161.856,0,0,1,0,84.452a160.934,160.934,0,0,0,58.393,37.883c21.73,8.715,45.552,10.458,68.735,8.483a217.192,217.192,0,0,0,67.515-16.908c21.672-8.948,43-18.593,63.622-29.632a378.789,378.789,0,0,0,58.8-37.941c4.59-3.6,9.006-7.437,13.422-11.214,4.3-3.835,8.483-8.018,9.587-13.247a11.157,11.157,0,0,0-.813-7.553,11.106,11.106,0,0,0-5.926-4.764c-5.113-1.975-11.156-2.208-16.908-3.079A633.533,633.533,0,0,0,176.05,4.562Z" transform="translate(0 0)" fill="#4d300f"/>
          </g>
          <g id="Grupo_46" data-name="Grupo 46" transform="translate(295.217 320.027)">
            <path id="Caminho_77" data-name="Caminho 77" d="M22.718,0c19.755,6.914,39.8,14,57.521,25.623a102.207,102.207,0,0,1,23.415,21.324c6.566,8.367,11.62,17.779,16.152,27.308a208.406,208.406,0,0,1,18.767,60.368,161.014,161.014,0,0,1,1.336,31.724c-.7,10.516-2.615,21.556-8.715,30.794l.291-.93a5.793,5.793,0,0,1-2.092,4.3,10.7,10.7,0,0,1-11.795,1.22c-4.764-2.963-6.624-7.844-8.773-11.911-4.183-8.425-7.728-17.14-11.214-25.8C90.756,146.65,82.97,129.8,73.092,113.938,53.512,82.273,28.005,54.442,0,29.748A439.9,439.9,0,0,1,40.846,68.154a322.434,322.434,0,0,1,34.4,44.39c10.226,15.746,18.3,32.886,25.216,50.258,3.544,8.657,7.088,17.256,11.272,25.507,2.092,4.067,4.067,8.483,7.5,10.458a6.56,6.56,0,0,0,5.462.407c1.917-.523,3.428-1.917,3.37-3.079v-.465l.291-.465c5.52-8.483,7.5-18.883,8.192-29.167a158.9,158.9,0,0,0-1.1-31.085c-2.789-20.626-9.413-40.672-18.128-59.613-4.358-9.471-9.18-18.825-15.4-27.076a99.522,99.522,0,0,0-22.6-21.265C62.053,15.107,42.3,7.437,22.718,0Z" transform="translate(0 0)" fill="#4d300f"/>
          </g>
          <g id="Grupo_47" data-name="Grupo 47" transform="translate(492.646 293.551)">
            <path id="Caminho_78" data-name="Caminho 78" d="M10.461,4.28C36.316-1.588,63.74-1.646,89.538,5.5a134.546,134.546,0,0,1,36.546,16.21,226.406,226.406,0,0,1,31.549,24.577l29.4,26.9c4.881,4.358,10.168,8.425,15.4,12.492L218,98.057c21.091,15.92,45.32,27.076,69.374,38.173l.639.291.232.581c1.278,3.37-1.394,6.043-3.486,6.74-1.8.813-3.66,1.511-5.52,2.208a97.091,97.091,0,0,1-11.33,3.312,176.215,176.215,0,0,1-23.183,3.6c-15.455,1.394-30.91,2.789-46.482,3.37-15.571.523-31.259.058-46.656-2.731-15.455-2.731-30.213-8.425-44.216-15.107-14.061-6.682-27.657-14.467-39.974-24.112A128.61,128.61,0,0,1,36.258,79.7a96.28,96.28,0,0,1-9.587-21.323c-2.208-7.437-4.59-14.758-8.831-21.265C13.714,30.542,9.415,24.093,5.232,17.586l-3.2-4.881C.99,11.078-.056,9.277,0,7.243c-.058-1.162,1.1-1.685,1.917-2.092A15.528,15.528,0,0,1,4.709,4.28C6.568,3.932,8.66,3.525,10.461,4.28Zm0,0c-1.8-.7-3.835-.29-5.694.058a15.131,15.131,0,0,0-2.731.93c-.813.407-1.859.93-1.8,1.917a9.374,9.374,0,0,0,2.092,5.229L5.58,17.237c4.358,6.449,8.773,12.782,13.015,19.29a65.19,65.19,0,0,1,5.52,10.342c1.511,3.6,2.615,7.379,3.835,10.981a97.324,97.324,0,0,0,9.819,20.8A126.338,126.338,0,0,0,68.8,112.408c12.2,9.413,25.739,16.966,39.742,23.415s28.412,12.085,43.577,14.642c15.107,2.731,30.62,3.137,46.017,2.557,15.4-.639,30.852-2.092,46.249-3.544a184.921,184.921,0,0,0,22.718-3.6,103.15,103.15,0,0,0,10.981-3.2c1.8-.639,3.544-1.336,5.287-2.092a2.208,2.208,0,0,0,1.8-2.266l.813.872c-24.054-11.214-48.457-22.486-69.839-38.812-5.345-4.067-10.284-8.425-15.571-12.434-5.229-4.067-10.516-8.192-15.513-12.666L155.948,48.089A225.542,225.542,0,0,0,124.98,23.4,137.372,137.372,0,0,0,89.131,6.953C63.74-.6,36.432-1.123,10.461,4.28Z" transform="translate(0 0)" fill="#4d300f"/>
          </g>
          <g id="Grupo_48" data-name="Grupo 48" transform="translate(591.131 425.598)">
            <path id="Caminho_79" data-name="Caminho 79" d="M105.746,22.2l30.91,19.755c10.052,6.914,20.045,14.526,27.076,25.1,1.627,2.673,3.021,5.985,2.673,9.471a13.57,13.57,0,0,1-4.59,8.89c-4.939,4.474-11.446,6.333-17.6,7.088-12.492,1.685-24.984-.291-36.895-3.138-23.88-5.985-46.888-15.8-67.108-29.923A110.745,110.745,0,0,1,13.828,33.757,77.946,77.946,0,0,1,0,0C2.266,12.027,7.844,23.183,15.223,32.77A111.128,111.128,0,0,0,41.775,57.289a206.7,206.7,0,0,0,66.411,28.7c11.737,2.905,23.822,4.881,35.675,3.37,5.926-.7,11.678-2.382,15.978-6.159a10.667,10.667,0,0,0,3.719-6.914c.349-2.615-.639-5.345-2.092-7.844-6.333-10.052-15.92-17.954-25.739-25.1Z" transform="translate(0 0)" fill="#4d300f"/>
          </g>
          <g id="Grupo_49" data-name="Grupo 49" transform="translate(497.579 280.505)">
            <path id="Caminho_80" data-name="Caminho 80" d="M163.449,71.71c17.837,3.719,36.2,3.37,54.267,2.092,9.064-.639,18.128-1.453,27.134-2.324,8.948-.93,17.954-2.5,25.855-6.449l-.7,1.743a4.681,4.681,0,0,0-1.975-2.208h-4.125c-2.963-.058-5.984-.116-8.948-.29-5.984-.291-11.911-.872-17.837-1.685a217.5,217.5,0,0,1-34.978-7.844c-23.008-7.03-43.809-19.174-64.842-29.981-20.975-10.807-43-20.51-66.585-22.311C47.187.593,23.481,4.776.473,10.412l.058-.058a5.458,5.458,0,0,0,.058,3.719,5.351,5.351,0,0,0,2.266,3.021A5.99,5.99,0,0,1,.473,14.131,5.15,5.15,0,0,1,.3,10.3v-.058H.357C23.133,3.847,46.78-1.325,70.834.3,94.947,1.639,117.607,11.284,138.7,22.091c21.207,10.807,41.892,22.427,64.435,29.574a217.194,217.194,0,0,0,34.4,7.96q8.715,1.22,17.6,1.743c2.963.174,5.868.29,8.832.349h3.312a8.472,8.472,0,0,1,1.453.116c2.382.93,3.079,2.266,3.951,4.125l.523,1.162-1.278.581c-8.483,4.067-17.837,5.4-26.9,6.217-9.122.7-18.128,1.394-27.25,1.8C199.647,76.358,181.228,76.009,163.449,71.71Z" transform="translate(0 0)" fill="#4d300f"/>
          </g>
          <g id="Grupo_50" data-name="Grupo 50" transform="translate(567.6 14.292)">
            <path id="Caminho_81" data-name="Caminho 81" d="M10.168,267.736a191.5,191.5,0,0,0,82.97-95.694,195.434,195.434,0,0,0,9.18-30.794c2.208-10.516,3.777-21.149,5.287-31.84a468.313,468.313,0,0,1,12.608-63.738c2.963-10.458,6.275-20.742,9.994-30.968l2.847-7.611,1.511-3.777c.291-.93,0-.174.407.058.116.058-.407-.116-.872-.116a13.827,13.827,0,0,0-3.486.872c-1.278.407-2.556.755-3.777,1.22-2.5.872-5,1.859-7.437,2.905C99.819,16.909,83.493,31.492,69.025,47.3A357.055,357.055,0,0,0,30.62,99.123a553.693,553.693,0,0,0-30.62,57,567.573,567.573,0,0,1,29.167-57.87A355.036,355.036,0,0,1,66.992,45.495C81.285,29.226,97.96,14.41,118.064,5.346c2.5-1.1,5.055-2.15,7.611-3.079,1.278-.523,2.615-.872,3.893-1.278A14.617,14.617,0,0,1,133.925,0a4.5,4.5,0,0,1,2.963.755,2.7,2.7,0,0,1,1.046,2.208,3.714,3.714,0,0,1-.407,1.511l-1.453,3.777L133.286,15.8c-3.66,10.11-6.856,20.394-9.761,30.736a465.925,465.925,0,0,0-12.841,63.273c-3.021,21.323-6.566,43.054-15.107,63.215a189.673,189.673,0,0,1-34.513,54.907A186.8,186.8,0,0,1,10.168,267.736Z" transform="translate(0 0)" fill="#4d300f"/>
          </g>
          <g id="Grupo_51" data-name="Grupo 51" transform="translate(681.248 0)">
            <path id="Caminho_82" data-name="Caminho 82" d="M82.331,215.21a135.8,135.8,0,0,0,25.623-57.056,125.255,125.255,0,0,0-3.486-61.995A126.586,126.586,0,0,0,91.453,67.805,133.931,133.931,0,0,0,71.7,43.577c-14.932-14.7-32.421-26.553-49.91-38.347l2.673-1.743a36.9,36.9,0,0,1-.813,15.746,111.062,111.062,0,0,1-5.462,14.351,78.306,78.306,0,0,0-4.823,14,48.874,48.874,0,0,0-.7,14.584c.639,9.877,2.557,20.045,2.034,30.329-.291,10.168-1.569,20.22-1.917,30.213-.523,9.935.872,19.987,1.278,30.1a264.128,264.128,0,0,1,.349,30.329c-.813,10.11-1.8,20.1-3.428,30.155C9.3,223.228,5.81,233.048,0,241.3c5.636-8.425,8.773-18.186,10.168-28.121,1.336-9.935,2.092-20.045,2.615-30.1a290.332,290.332,0,0,0-.813-30.155c-.581-10.052-2.092-20.045-1.743-30.329.232-10.168,1.336-20.22,1.569-30.213.465-9.994-1.453-19.813-2.15-30.039a53.725,53.725,0,0,1,.7-15.513,76.944,76.944,0,0,1,4.939-14.584A109.944,109.944,0,0,0,20.51,18.3a32.8,32.8,0,0,0,.7-14.235L20.336,0l3.428,2.324C41.194,14.177,58.8,26.262,73.964,41.253c15.223,14.874,27.192,33.467,33.118,54.035a127.86,127.86,0,0,1,2.557,63.157A135.823,135.823,0,0,1,82.331,215.21Z" transform="translate(0 0)" fill="#4d300f"/>
          </g>
          <g id="Grupo_52" data-name="Grupo 52" transform="translate(791.758 43.699)">
            <path id="Caminho_83" data-name="Caminho 83" d="M0,169.884a299.854,299.854,0,0,0,71-60.949,287.143,287.143,0,0,0,48.4-79.716c1.569-3.6,2.905-7.263,4.183-10.923,1.162-3.6,3.021-7.5,3.312-10.749a4.063,4.063,0,0,0-1.569-3.777,2.219,2.219,0,0,0-1.569-.523c-.407.058-1.743.523-2.615.7-3.893,1.046-7.786,1.743-11.62,2.5-7.786,1.336-14.99,3.254-21.788,7.321A205.224,205.224,0,0,0,67.747,25.849,246.4,246.4,0,0,0,31.9,56,359.009,359.009,0,0,0,.93,91.388C19.116,65.882,40.323,42,66.178,23.641a179.011,179.011,0,0,1,20.1-12.55A55.108,55.108,0,0,1,97.263,6.153a105.4,105.4,0,0,1,11.62-2.789c3.835-.755,7.67-1.511,11.388-2.5a24.984,24.984,0,0,1,3.079-.813,5.408,5.408,0,0,1,3.951,1.1,7.458,7.458,0,0,1,2.905,6.566c-.407,4.648-2.208,7.9-3.428,11.737-1.278,3.719-2.615,7.437-4.183,11.1a283.06,283.06,0,0,1-49.619,80.181A277.874,277.874,0,0,1,0,169.884Z" transform="translate(0 0)" fill="#4d300f"/>
          </g>
          <g id="Grupo_53" data-name="Grupo 53" transform="translate(758.407 298.819)">
            <path id="Caminho_84" data-name="Caminho 84" d="M63.8,0c20.22,2.905,39.335,11.214,56.591,22.021a278.133,278.133,0,0,1,47.353,38.754c14.235,14.584,26.436,32.014,32.189,51.943a95.29,95.29,0,0,1-3.021,60.949l-1.569,3.6a10.876,10.876,0,0,1-2.963,3.486,7.676,7.676,0,0,1-4.532,1.685,14.8,14.8,0,0,1-4.3-.7c-5-1.8-9.587-3.6-14.351-5.462-9.471-3.66-18.941-7.437-28.354-11.446-18.709-8.018-37.185-16.966-54.326-28.121a236.22,236.22,0,0,1-24.635-18.186l-11.62-9.877-5.81-4.939-6.1-4.59A66.185,66.185,0,0,1,26.959,88.78c-3.37-3.893-6.275-8.076-9.238-12.2L0,51.711,18.36,76.056c5.985,8.192,12.376,16.152,20.975,21.672,2.034,1.453,4.183,2.905,6.217,4.474l5.926,4.822,11.795,9.7A247.462,247.462,0,0,0,87.967,134.39a382.065,382.065,0,0,0,54.151,27.482c9.354,3.951,18.825,7.669,28.3,11.272,4.706,1.8,9.587,3.66,14.177,5.287,4.764,1.8,7.379-.988,9.064-6.159a91.9,91.9,0,0,0,3.2-58.8c-5.4-19.348-17.373-36.314-31.085-51.014A278.729,278.729,0,0,0,119.458,23.3C102.667,12.26,83.958,3.428,63.8,0Z" transform="translate(0 0)" fill="#4d300f"/>
          </g>
          <g id="Grupo_54" data-name="Grupo 54" transform="translate(892.449 88.188)">
            <path id="Caminho_85" data-name="Caminho 85" d="M44.332,95.241A98.685,98.685,0,0,0,71.64,47.423,97.237,97.237,0,0,0,74.2,19.94,77.11,77.11,0,0,0,72.4,6.286a17.8,17.8,0,0,0-.7-2.905c-.058-.058.116,0-.116-.058a5.171,5.171,0,0,0-1.1.174,33.582,33.582,0,0,0-6.159,2.556C56.359,10.3,49.968,17.21,43.577,24.008A251.31,251.31,0,0,0,25.914,45.622C20.22,52.942,17.837,62.064,14,70.722A149.692,149.692,0,0,1,0,95.183a146.193,146.193,0,0,0,12.434-25.1c3.428-8.541,5.636-18.07,11.272-25.972a208.81,208.81,0,0,1,17.547-22.2C47.586,15.06,54.035,7.8,62.692,3.033A31.856,31.856,0,0,1,69.548.3,6.861,6.861,0,0,1,71.872.011,3.365,3.365,0,0,1,74.6,1.7a15.1,15.1,0,0,1,1.046,3.893,83.554,83.554,0,0,1,1.685,14.177,92.891,92.891,0,0,1-3.138,28.3,99.575,99.575,0,0,1-11.33,25.972A92.334,92.334,0,0,1,44.332,95.241Z" transform="translate(0 0)" fill="#4d300f"/>
          </g>
          <g id="Grupo_55" data-name="Grupo 55" transform="translate(872.171 30.473)">
            <path id="Caminho_86" data-name="Caminho 86" d="M0,229.127c29.632-3.66,58.393-12.2,86.107-23.008a411.507,411.507,0,0,0,40.672-18.244,137.955,137.955,0,0,0,35.21-26.553c20.394-21.44,36.721-46.772,48.922-73.732a271.9,271.9,0,0,0,15.048-41.834c1.975-7.147,3.544-14.409,4.939-21.672.7-3.66,1.22-7.321,1.8-10.981.523-3.544.7-7.263-1.162-9.7l.7.523c-6.159-2.266-12.957-.291-19.058,2.556-6.217,2.905-12.376,6.275-18.418,9.587-12.143,6.682-23.938,14.061-35.384,21.9A442.356,442.356,0,0,0,95.346,91.309,423.373,423.373,0,0,1,158.27,36.344c11.388-8.076,23.125-15.629,35.268-22.544,6.1-3.428,12.143-6.856,18.476-9.935C218.232.844,225.959-1.48,233.28,1.134l.465.174.29.349c2.673,3.777,2.208,8.251,1.743,11.911-.581,3.719-1.1,7.437-1.8,11.1-1.336,7.379-2.905,14.7-4.881,21.963a274.414,274.414,0,0,1-14.99,42.415,267.656,267.656,0,0,1-21.788,39.335,240.276,240.276,0,0,1-28.063,35.152,135.515,135.515,0,0,1-36.14,26.843,435.311,435.311,0,0,1-41.194,17.721C58.916,218.611,29.748,226.164,0,229.127Z" transform="translate(0 0)" fill="#4d300f"/>
          </g>
          <g id="Grupo_56" data-name="Grupo 56" transform="translate(880.079 236.3)">
            <path id="Caminho_87" data-name="Caminho 87" d="M6.327,34.63q34.948-10.11,70.42-18.012c23.706-5.171,47.411-10.342,71.466-13.6a238.562,238.562,0,0,1,72.744-.465C232.925,4.3,245.3,6.974,256.05,13.249c5.4,3.021,10.4,6.449,15.455,9.935a10.078,10.078,0,0,1,3.486,4.183,4.823,4.823,0,0,1,.116,3.254,8.954,8.954,0,0,1-1.162,2.5c-2.092,2.963-4.532,4.59-6.8,6.74-19.174,15.8-42.763,24.17-65.83,31.259A224.572,224.572,0,0,1,165.7,79.311a186.928,186.928,0,0,1-36.488,1.278C104.868,79.195,81.046,73.5,58.1,65.715c-11.5-3.835-22.776-8.309-33.932-13.073-5.578-2.382-11.1-4.823-16.617-7.321C4.874,44.043,1.679,43.055.168,40.266c-.7-1.569.93-2.847,2.034-3.66A17.966,17.966,0,0,1,6.327,34.63Zm0,0A15.687,15.687,0,0,0,2.26,36.664c-1.1.813-2.731,2.092-2.034,3.6,1.511,2.731,4.706,3.719,7.379,5,5.52,2.5,11.1,4.881,16.675,7.2,11.156,4.648,22.485,9.006,33.99,12.782,23.009,7.5,46.888,12.608,71.059,13.6a187.207,187.207,0,0,0,36.082-1.917c11.911-1.8,23.531-5.055,35.094-8.657,22.95-7.2,46.075-15.688,64.493-31.085,2.15-1.975,4.764-3.893,6.217-5.926a6.459,6.459,0,0,0,.755-1.569,1.981,1.981,0,0,0,0-1.162,6.726,6.726,0,0,0-2.266-2.673c-4.88-3.428-9.877-6.914-15.048-9.819-10.284-6.1-22.021-8.773-33.99-10.575C196.9,1.8,172.5,1.105,148.561,4.708,100.452,10.925,52.983,21.557,6.327,34.63Z" transform="translate(0 0)" fill="#4d300f"/>
          </g>
          <g id="Grupo_57" data-name="Grupo 57" transform="translate(1073.089 59.435)">
            <path id="Caminho_88" data-name="Caminho 88" d="M0,119.927q25.362-8.628,49.91-19.174c16.327-7.03,32.363-14.874,47.353-24.345a261.41,261.41,0,0,0,42.124-32.3A228.874,228.874,0,0,0,157.515,24.7c2.847-3.37,5.578-6.856,8.134-10.458,1.22-1.8,2.847-3.6,3.312-5.171a2.029,2.029,0,0,0-.116-1.859c-.349-.581-.813-.7-.93-.639l-.639.349-.814-.581c-4.532-3.37-10.807-3.6-16.733-2.905-6.159.7-12.26,1.453-18.418,2.382-12.26,1.8-24.461,3.66-36.6,6.1-12.143,2.324-24.171,5.229-36.2,8.192Q40.468,24.639,22.776,30.333A544.11,544.11,0,0,1,94.3,9.649c12.143-2.615,24.345-4.939,36.663-6.74,6.159-.93,12.318-1.743,18.476-2.5,6.159-.813,13.305-.755,19,3.37l-1.394-.232c4.474-.813,6.217,4.125,5.113,6.624-.988,2.731-2.5,4.241-3.777,6.159-2.615,3.66-5.345,7.2-8.192,10.691A203.519,203.519,0,0,1,141.711,46.66,267.222,267.222,0,0,1,98.832,79.081c-15.339,9.3-31.666,16.792-48.225,23.531C34.048,109.178,17.082,114.814,0,119.927Z" transform="translate(0 0)" fill="#4d300f"/>
          </g>
        </g>
        <g id="Grupo_60" data-name="Grupo 60" transform="translate(205.272 254.876)">
          <g id="Grupo_59" data-name="Grupo 59" transform="translate(0 0)">
            <path id="Caminho_89" data-name="Caminho 89" d="M65.659,2.052a63.485,63.485,0,0,0-17.837-.7A62.22,62.22,0,0,0,30.8,6.294a55.921,55.921,0,0,0-14.409,9.935C12.147,20.18,9.3,25.351,7.266,30.813A59.205,59.205,0,0,0,5.7,65.151a53.038,53.038,0,0,0,19,28.238A49.287,49.287,0,0,0,57.06,103.557a60.345,60.345,0,0,0,32.6-11.1c9.471-6.74,17.14-16.443,20.51-27.773,3.486-11.156,2.266-24.054-4.241-34.222,7.379,9.645,9.3,22.892,6.333,34.8C109.119,77.236,101.45,87.695,91.63,95.132a61.061,61.061,0,0,1-34.455,12.318A53.915,53.915,0,0,1,22.024,96.759,57.29,57.29,0,0,1,1.8,66.023,60.449,60.449,0,0,1,4.071,29.476c2.324-5.694,5.636-11.272,10.4-15.4A56.924,56.924,0,0,1,29.926,4.2,60.536,60.536,0,0,1,47.647.077,60.2,60.2,0,0,1,65.659,2.052Z" fill="#4d300f"/>
          </g>
          <path id="Caminho_90" data-name="Caminho 90" d="M4.718,3.37A5.631,5.631,0,0,1,7.216,0,4.851,4.851,0,0,1,8.9,2.905c.116,1.336-.813,2.5-1.8,3.428A6.318,6.318,0,0,1,3.265,8.425C1.813,8.541.128,7.553.012,6.1-.163,4.416,1.639,3.2,3.324,2.905" transform="translate(24.685 23.782)" fill="#4d300f"/>
        </g>
        <g id="Grupo_64" data-name="Grupo 64" transform="translate(987.082 170.414)">
          <g id="Grupo_63" data-name="Grupo 63" transform="translate(0 0)">
            <g id="Grupo_61" data-name="Grupo 61" transform="translate(67.355 0)">
              <path id="Caminho_91" data-name="Caminho 91" d="M33.467,68.27a58.28,58.28,0,0,0,1.685-20.917A70.2,70.2,0,0,0,29.4,27.482,56.794,56.794,0,0,0,17.9,10.458,38.458,38.458,0,0,0,0,0,31.3,31.3,0,0,1,10.691,2.15,38.057,38.057,0,0,1,20.1,7.96C26.03,12.724,30.155,19,33.351,25.681c2.963,6.8,5.055,13.945,5.171,21.44A43.245,43.245,0,0,1,33.467,68.27Z" transform="translate(0)" fill="#4d300f"/>
            </g>
            <g id="Grupo_62" data-name="Grupo 62" transform="translate(0 54.79)">
              <path id="Caminho_92" data-name="Caminho 92" d="M1,0A48.1,48.1,0,0,1,5.012,9.935,44.427,44.427,0,0,1,7.045,20.452C3.792,18.128,1.991,14.7.828,11.156A17.478,17.478,0,0,1,1,0Z" fill="#4d300f"/>
            </g>
          </g>
          <path id="Caminho_93" data-name="Caminho 93" d="M6.01,3.641A3.051,3.051,0,0,0,4.267.213a3.174,3.174,0,0,0-3.719,1.1A4.8,4.8,0,0,0,.142,4.8,4.269,4.269,0,0,0,1.13,7.011a2.839,2.839,0,0,0,3.777,0A3.489,3.489,0,0,0,5.72,3.177" transform="translate(84.586 48.883)" fill="#4d300f"/>
        </g>
        <g id="Grupo_91" data-name="Grupo 91" transform="translate(75.475 27.599)">
          <g id="Grupo_65" data-name="Grupo 65" transform="translate(174.365 58.509)">
            <path id="Caminho_94" data-name="Caminho 94" d="M206.844,0a469.551,469.551,0,0,1-44.681,43.983A518.457,518.457,0,0,1,112.2,81.924,520.621,520.621,0,0,1,57.87,113.3,462.475,462.475,0,0,1,0,137.47a584.943,584.943,0,0,0,57.056-25.8,549.667,549.667,0,0,0,53.861-31.724,561.236,561.236,0,0,0,50.142-37.36A609.177,609.177,0,0,0,206.844,0Z" transform="translate(0)" fill="#4d300f"/>
          </g>
          <g id="Grupo_66" data-name="Grupo 66" transform="translate(0 152.634)">
            <path id="Caminho_95" data-name="Caminho 95" d="M92.15,140.84q-8.541-19.348-18.593-38c-6.74-12.376-13.828-24.519-21.614-36.256-7.611-11.853-15.92-23.241-24.577-34.338C18.651,21.149,9.587,10.4,0,0A374.06,374.06,0,0,1,28.761,31.143,423.411,423.411,0,0,1,53.919,65.307a412.624,412.624,0,0,1,21.265,36.721A390.246,390.246,0,0,1,92.15,140.84Z" transform="translate(0 0)" fill="#4d300f"/>
          </g>
          <g id="Grupo_67" data-name="Grupo 67" transform="translate(208.529 166.521)">
            <path id="Caminho_96" data-name="Caminho 96" d="M274.707,0q-33.728,10.2-67.631,19.871L139.329,39.335C116.553,45.262,93.544,50.258,70.3,53.977S23.531,59.961,0,59.09a309.17,309.17,0,0,0,35.152-1.975q17.518-1.743,34.861-4.706c23.125-3.951,46.017-9.18,68.677-15.339L206.611,18.36Q240.6,8.948,274.707,0Z" transform="translate(0 0)" fill="#4d300f"/>
          </g>
          <g id="Grupo_68" data-name="Grupo 68" transform="translate(373.074 324.543)">
            <path id="Caminho_97" data-name="Caminho 97" d="M24.4,80.2a51.986,51.986,0,0,0,6.8-22.369,59.346,59.346,0,0,0-2.847-23.008,74.95,74.95,0,0,0-10.633-20.8,70.16,70.16,0,0,0-7.437-9.064C7.611,2.224,4.125-.216,0,.19,4.009-.681,8.018,1.585,11.039,4.083a69.314,69.314,0,0,1,8.134,8.89A73.009,73.009,0,0,1,30.562,34.122,57.6,57.6,0,0,1,33,58.06,46.749,46.749,0,0,1,24.4,80.2Z" transform="translate(0 0)" fill="#4d300f"/>
          </g>
          <g id="Grupo_71" data-name="Grupo 71" transform="translate(470.279 0)">
            <g id="Grupo_69" data-name="Grupo 69" transform="translate(52.931 0)">
              <path id="Caminho_98" data-name="Caminho 98" d="M91.337,0A319.814,319.814,0,0,0,63.215,33.351a397.611,397.611,0,0,0-23.88,36.488C31.9,82.331,25.158,95.229,18.709,108.3S6.1,134.565,0,147.812c5.287-13.6,10.865-27.076,17.082-40.265,6.159-13.247,12.957-26.2,20.22-38.87A355.185,355.185,0,0,1,61.763,32.3,247.586,247.586,0,0,1,91.337,0Z" transform="translate(0)" fill="#4d300f"/>
            </g>
            <g id="Grupo_70" data-name="Grupo 70" transform="translate(0 185.52)">
              <path id="Caminho_99" data-name="Caminho 99" d="M40.439,0c-2.731,12.55-8.251,24.345-14.99,35.268C18.476,46.017,10.168,56.069,0,63.912A183.809,183.809,0,0,0,23.473,34.048,180.737,180.737,0,0,0,40.439,0Z" fill="#4d300f"/>
            </g>
          </g>
          <g id="Grupo_72" data-name="Grupo 72" transform="translate(696.645 29.225)">
            <path id="Caminho_100" data-name="Caminho 100" d="M134.681,0c-12.492,12.143-25.042,24.229-37.127,36.721S73.848,62.169,63.622,76.23c-10.807,13.6-21.091,27.657-31.666,41.485Q16.094,138.545,0,159.026q15.077-21.353,30.562-42.415C40.846,102.55,51.188,88.548,61.879,74.719,82.679,46.714,108.651,23.008,134.681,0Z" transform="translate(0)" fill="#4d300f"/>
          </g>
          <g id="Grupo_73" data-name="Grupo 73" transform="translate(647.142 47.992)">
            <path id="Caminho_101" data-name="Caminho 101" d="M0,144.616a121.642,121.642,0,0,0,17.663-33.467,131.877,131.877,0,0,0,7.2-37.011A155,155,0,0,0,22.253,36.43,200,200,0,0,0,11.5,0,160.829,160.829,0,0,1,24,36.081a145.247,145.247,0,0,1,3.2,38.173,129.1,129.1,0,0,1-7.844,37.476A107.2,107.2,0,0,1,0,144.616Z" transform="translate(0 0)" fill="#4d300f"/>
          </g>
          <g id="Grupo_76" data-name="Grupo 76" transform="translate(580.44 419.962)">
            <g id="Grupo_74" data-name="Grupo 74" transform="translate(0 0.523)">
              <path id="Caminho_102" data-name="Caminho 102" d="M99.238,53.163c-9.006-2.905-17.954-5.926-26.785-9.354Q59.206,38.754,46.365,32.537A212.214,212.214,0,0,1,21.73,18.244,139.089,139.089,0,0,1,0,0,192.552,192.552,0,0,0,22.718,16.792,261.031,261.031,0,0,0,47.353,30.5c8.425,4.242,17.082,7.96,25.739,11.679Z" transform="translate(0 0)" fill="#4d300f"/>
            </g>
            <g id="Grupo_75" data-name="Grupo 75" transform="translate(7.902 0)">
              <path id="Caminho_103" data-name="Caminho 103" d="M91.86,50.781c-8.018-3.66-16.21-6.914-24.345-10.226-8.192-3.312-16.269-6.682-24.345-10.342A180.886,180.886,0,0,1,19.929,17.431,93.609,93.609,0,0,1,0,0,118.35,118.35,0,0,0,20.917,15.92a227.429,227.429,0,0,0,23.3,12.2c7.9,3.777,16.036,7.147,24.054,10.807C76.23,42.531,84.19,46.366,91.86,50.781Z" transform="translate(0)" fill="#4d300f"/>
            </g>
          </g>
          <g id="Grupo_77" data-name="Grupo 77" transform="translate(417.057 270.233)">
            <path id="Caminho_104" data-name="Caminho 104" d="M0,4.764,53.628,36.72l53.454,32.3,26.727,16.152c8.832,5.52,17.6,11.1,26.553,16.327,17.837,10.516,36.488,20.1,56.475,25.391h-.581c-.058,0-.291,0-.465.523-.058.349.058.465,0,.407,0-.058-.232-.291-.407-.407a8.507,8.507,0,0,0-1.394-.988,20.639,20.639,0,0,0-3.2-1.627c-2.15-.7-4.881-1.394-7.263-2.266a98.487,98.487,0,0,1-14-6.391c-9.006-4.939-17.373-10.633-25.972-16.094C146.534,88.954,129.742,77.508,112.951,66,79.309,43.17,45.843,20.045,10.458,0c17.9,9.7,35.326,20.161,52.524,31.027,17.14,10.981,33.99,22.369,50.839,33.7s33.7,22.718,50.781,33.7c8.6,5.4,17.082,11.039,25.914,15.862a100.223,100.223,0,0,0,13.712,6.217c2.382.93,4.648,1.394,7.321,2.266a20.86,20.86,0,0,1,3.6,1.8,11.274,11.274,0,0,1,1.685,1.22,5.011,5.011,0,0,1,.872.988,1.766,1.766,0,0,1,.232,1.278,1.615,1.615,0,0,1-1.162,1.1l-.232.116-.232-.058c-20.336-5.462-39.045-15.281-56.882-25.972-8.948-5.345-17.721-10.981-26.495-16.559L106.327,70.362,53.105,37.708Z" transform="translate(0 0)" fill="#4d300f"/>
          </g>
          <g id="Grupo_80" data-name="Grupo 80" transform="translate(836.787 74.08)">
            <g id="Grupo_78" data-name="Grupo 78" transform="translate(43.635 0)">
              <path id="Caminho_105" data-name="Caminho 105" d="M4.764,0a10.586,10.586,0,0,1-1.1,5.578C2.731,7.2,1.8,8.89,0,9.935A15.5,15.5,0,0,1,1.569,4.59,18.188,18.188,0,0,1,4.764,0Z" transform="translate(0)" fill="#4d300f"/>
            </g>
            <g id="Grupo_79" data-name="Grupo 79" transform="translate(0 16.385)">
              <path id="Caminho_106" data-name="Caminho 106" d="M40.9,0c-3.893,12.492-9.761,24.287-16.5,35.5A161.045,161.045,0,0,1,0,66.12,353.2,353.2,0,0,0,22.427,34.28,353.158,353.158,0,0,0,40.9,0Z" transform="translate(0 0)" fill="#4d300f"/>
            </g>
          </g>
          <g id="Grupo_83" data-name="Grupo 83" transform="translate(855.031 39.219)">
            <g id="Grupo_81" data-name="Grupo 81" transform="translate(85.352 0)">
              <path id="Caminho_107" data-name="Caminho 107" d="M56.127,0c-3.6,6.74-7.437,13.363-11.678,19.755-4.183,6.391-8.715,12.55-13.364,18.651C26.32,44.39,21.44,50.258,16.269,55.894S5.636,66.876,0,71.989c5.055-5.694,10.052-11.5,14.932-17.314S24.693,43,29.283,36.953C34.048,31.027,38.522,24.868,43,18.709,47.411,12.55,51.827,6.275,56.127,0Z" transform="translate(0)" fill="#4d300f"/>
            </g>
            <g id="Grupo_82" data-name="Grupo 82" transform="translate(0 88.548)">
              <path id="Caminho_108" data-name="Caminho 108" d="M71,0A172.775,172.775,0,0,1,55.894,16.85,218.944,218.944,0,0,1,38.812,31.724,212.077,212.077,0,0,1,20.1,44.448,163.742,163.742,0,0,1,0,54.732c6.507-3.719,12.9-7.669,19.174-11.795,6.217-4.125,12.376-8.425,18.244-13.073C43.4,25.391,49.1,20.51,54.674,15.513S65.714,5.345,71,0Z" transform="translate(0 0)" fill="#4d300f"/>
            </g>
          </g>
          <g id="Grupo_86" data-name="Grupo 86" transform="translate(848.175 253.964)">
            <g id="Grupo_84" data-name="Grupo 84" transform="translate(152.925 0)">
              <path id="Caminho_109" data-name="Caminho 109" d="M20.684,0a26.282,26.282,0,0,1-9.7,5.229A26.032,26.032,0,0,1,0,6.159c3.486-1.278,6.972-2.034,10.342-3.2C13.712,2.15,17.024.872,20.684,0Z" transform="translate(0)" fill="#4d300f"/>
            </g>
            <g id="Grupo_85" data-name="Grupo 85" transform="translate(0 6.856)">
              <path id="Caminho_110" data-name="Caminho 110" d="M136.366.988A247.282,247.282,0,0,1,102.55,7.2a308.652,308.652,0,0,1-34.4,1.917,295.714,295.714,0,0,1-34.4-2.382A247.9,247.9,0,0,1,0,0Q16.908,3.225,33.932,4.939A336.516,336.516,0,0,0,68.1,6.8c11.388.174,22.834-.407,34.222-1.336C113.706,4.474,125.094,2.963,136.366.988Z" transform="translate(0 0)" fill="#4d300f"/>
            </g>
          </g>
          <g id="Grupo_87" data-name="Grupo 87" transform="translate(1013.243 39.626)">
            <path id="Caminho_111" data-name="Caminho 111" d="M148.451,0a234.386,234.386,0,0,0-37.883,7.786C98.135,11.272,85.817,15.165,73.5,19.058q-18.564,5.578-36.953,11.62C24.287,34.745,12.085,38.928,0,43.577c11.737-5.462,23.764-10.226,35.965-14.584S60.484,20.742,72.86,16.85c12.376-3.66,24.693-7.669,37.3-10.749A189.225,189.225,0,0,1,148.451,0Z" transform="translate(0 0)" fill="#4d300f"/>
          </g>
          <g id="Grupo_90" data-name="Grupo 90" transform="translate(664.108 287.78)">
            <g id="Grupo_88" data-name="Grupo 88" transform="translate(9.877 0)">
              <path id="Caminho_112" data-name="Caminho 112" d="M194.816,143.919c-7.553-20.1-15.165-40.555-28.121-57.637-12.841-17.14-29.574-31.027-47.353-42.937s-36.256-23.3-56.3-30.794C42.937,5.055,21.382,2.382,0,0,21.44,1.569,43.112,3.6,63.622,10.865c20.452,7.263,38.987,18.767,57,30.562,17.779,12.2,34.745,26.2,47.469,43.809C181.046,102.783,188.077,123.525,194.816,143.919Z" transform="translate(0)" fill="#4d300f"/>
            </g>
            <g id="Grupo_89" data-name="Grupo 89" transform="translate(0 2.673)">
              <path id="Caminho_113" data-name="Caminho 113" d="M175,96.391c-9.645-14.177-21.963-26.32-35.384-36.837a337.482,337.482,0,0,0-42.763-28.18,251.693,251.693,0,0,0-46.772-20.51A271.963,271.963,0,0,0,0,0,231.565,231.565,0,0,1,50.607,9.18,240.016,240.016,0,0,1,98.018,29.4a316.06,316.06,0,0,1,42.705,28.819C154.087,68.967,166.056,81.692,175,96.391Z" fill="#4d300f"/>
            </g>
          </g>
        </g>
      </g>
    </g>
  </g>
</svg>
