<svg xmlns="http://www.w3.org/2000/svg" xmlns:xlink="http://www.w3.org/1999/xlink" width="422" height="1486" viewBox="0 0 422 1486">
  <defs>
    <clipPath id="clip-path">
      <rect id="Retângulo_78" data-name="Retângulo 78" width="422" height="1486" transform="translate(1498 3280)" fill="none"/>
    </clipPath>
  </defs>
  <g id="folha2-sobre" transform="translate(-1498 -3280)" clip-path="url(#clip-path)">
    <g id="Folhas" transform="translate(477.848 -558.444) rotate(6)" opacity="0.318">
      <g id="F" transform="translate(1795.897 5083.856) rotate(-107)" opacity="0.317">
        <g id="Grupo_27" data-name="Grupo 27" transform="translate(177.477 251.507)">
          <path id="Caminho_58" data-name="Caminho 58" d="M0,0C7.436,6.457,12,16.045,13.5,25.894A62.932,62.932,0,0,1,10.7,55.05c.587-9.784,1.109-19.307-.391-28.7A64.059,64.059,0,0,0,0,0Z" transform="translate(0 0)" fill="#4d300f"/>
        </g>
        <g id="Grupo_28" data-name="Grupo 28" transform="translate(146.104 234.158)">
          <path id="Caminho_59" data-name="Caminho 59" d="M114.6,59.159c-19.828-8.479-39.07-18-58.376-27.525L27.59,16.828C18.2,11.675,8.349,6.979,0,0,9.066,5.805,18.98,9.914,28.7,14.61l28.96,14.154C76.835,38.548,96.011,48.266,114.6,59.159Z" transform="translate(0 0)" fill="#4d300f"/>
        </g>
        <g id="Grupo_29" data-name="Grupo 29" transform="translate(122.558 208.328)">
          <path id="Caminho_60" data-name="Caminho 60" d="M175.064,78.987c-30.982-8.479-60.529-21.459-89.619-34.83C70.965,37.178,56.68,29.938,42.461,22.568,28.242,15.263,14.089,7.7,0,0Q21.916,9.882,43.57,20.285c14.48,6.849,28.764,14.154,43.244,20.872,14.415,6.979,29.025,13.5,43.635,19.894C145.191,67.443,160,73.574,175.064,78.987Z" transform="translate(0 0)" fill="#4d300f"/>
        </g>
        <g id="Grupo_30" data-name="Grupo 30" transform="translate(428.658 334.995)">
          <path id="Caminho_61" data-name="Caminho 61" d="M0,1.565A131.024,131.024,0,0,1,45.527,29.743,114.98,114.98,0,0,1,74.356,75.074a102.67,102.67,0,0,1,5.414,26.612c.587,9.066.2,18,.978,26.807.848,8.61,2.739,17.806,8.349,24.068a14.266,14.266,0,0,0,10.827,4.631,24.04,24.04,0,0,0,11.871-3.783c7.24-4.435,12.654-11.871,15.85-19.828a55.57,55.57,0,0,0,3.587-25.7c-1.5-17.546-11.545-33.46-24.329-45.462-6.392-6.131-13.762-11.088-21.329-15.98-7.5-4.892-15.132-9.588-22.568-14.676a237.81,237.81,0,0,1-21.2-16.632C35.026,9.327,27.982,3.653,19.763,0c8.349,3.392,15.589,8.936,22.568,14.48A224.4,224.4,0,0,0,63.921,30.395c7.436,4.892,15.132,9.523,22.763,14.284,7.631,4.7,15.263,9.653,21.916,15.85C121.971,72.6,132.407,89.1,134.168,107.556a58.053,58.053,0,0,1-3.653,27.068c-3.457,8.544-9,16.5-17.089,21.459a27.162,27.162,0,0,1-13.5,4.174,17.187,17.187,0,0,1-13.11-5.675c-6.457-7.37-8.088-16.958-9-25.894-.717-9.066-.261-18.067-.783-26.873a111.2,111.2,0,0,0-4.957-26.025C61.246,41.874,33.265,14.741,0,1.565Z" transform="translate(0 0)" fill="#4d300f"/>
        </g>
        <g id="Grupo_31" data-name="Grupo 31" transform="translate(476.338 331.212)">
          <path id="Caminho_62" data-name="Caminho 62" d="M76.574,8.479A292.349,292.349,0,0,1,38.026,6.588,300.97,300.97,0,0,1,0,0C12.915.587,25.633,2.022,38.417,3.326,51.136,4.827,63.855,6.262,76.574,8.479Z" transform="translate(0 0)" fill="#4d300f"/>
        </g>
        <g id="Grupo_32" data-name="Grupo 32" transform="translate(499.297 324.882)">
          <path id="Caminho_63" data-name="Caminho 63" d="M58.768,4.047C49.114,6.526,38.939,6.134,29.156,5.287A233.551,233.551,0,0,1,0,0,231.294,231.294,0,0,1,29.416,2.025C39.265,3.069,48.854,3.982,58.768,4.047Z" transform="translate(0 0)" fill="#4d300f"/>
        </g>
        <g id="Grupo_33" data-name="Grupo 33" transform="translate(593.808 264.226)">
          <path id="Caminho_64" data-name="Caminho 64" d="M31.047,0c-2.413,4.761-3.457,9.914-4.7,15.067A64.517,64.517,0,0,1,20.937,30.33,69.242,69.242,0,0,1,12,43.831a54.955,54.955,0,0,1-12,10.7A108.6,108.6,0,0,0,18.067,28.895a93.446,93.446,0,0,0,5.87-14.48C25.633,9.392,27.46,4.109,31.047,0Z" transform="translate(0 0)" fill="#4d300f"/>
        </g>
        <g id="Grupo_34" data-name="Grupo 34" transform="translate(542.802 283.533)">
          <path id="Caminho_65" data-name="Caminho 65" d="M74.748,0A181.66,181.66,0,0,1,39.983,27.068,189.849,189.849,0,0,1,0,45.527c12.98-6.849,25.829-13.7,38.287-21.263C50.745,16.763,62.812,8.61,74.748,0Z" transform="translate(0 0)" fill="#4d300f"/>
        </g>
        <g id="Grupo_35" data-name="Grupo 35" transform="translate(564 79.118)">
          <path id="Caminho_66" data-name="Caminho 66" d="M139.973,0A152.226,152.226,0,0,0,95.489,12.849,167.673,167.673,0,0,0,56.615,37.7,206.622,206.622,0,0,0,24.851,71.291,285.542,285.542,0,0,0,0,110.622,218.309,218.309,0,0,1,22.829,69.791,191.984,191.984,0,0,1,54.463,35.156a160.6,160.6,0,0,1,39.983-24.59A131.354,131.354,0,0,1,139.973,0Z" transform="translate(0 0)" fill="#4d300f"/>
        </g>
        <g id="Grupo_36" data-name="Grupo 36" transform="translate(727.65 196.262)">
          <path id="Caminho_67" data-name="Caminho 67" d="M.391,121.449c16.893,3.653,31.5,13.175,46.766,20.676a134.83,134.83,0,0,0,48.919,13.5,186.942,186.942,0,0,0,50.81-2.739,231.206,231.206,0,0,0,48.854-14.48c15.654-6.653,30-16.111,41.483-28.7,11.545-12.328,22.177-26.286,36.135-36.591,13.632-10.5,28.112-19.633,39.787-31.96,11.74-12.2,22.568-25.568,33.982-38.287l1.826,2.544a102.461,102.461,0,0,1-23.285,5.87,182.348,182.348,0,0,1-23.807,1.109c-15.85-.2-31.569-1.7-47.223-1.239-15.654.326-31.308,3.066-45.266,10.175-14.089,6.783-27.134,16.045-42.2,21.524-15.132,6-31.569,4.892-47.158,4.761A133.916,133.916,0,0,0,96.6,49.441a145.975,145.975,0,0,0-22.7,6.131C44.353,66.464,19.111,87.336,0,112.383c18.654-25.307,43.636-46.7,73.313-58.246a134.121,134.121,0,0,1,22.894-6.392,137.616,137.616,0,0,1,23.677-2.022c15.719.065,31.765,1.044,46.375-4.892,14.676-5.479,27.59-14.741,41.874-21.72,14.219-7.37,30.395-10.306,46.244-10.7,15.915-.522,31.634.913,47.353.978a187.111,187.111,0,0,0,23.416-1.239,102.839,102.839,0,0,0,22.5-5.805L353.715,0l-4.24,4.827C338.191,17.676,327.3,30.786,315.3,43.179,303.3,55.767,288.49,64.9,275.053,75.2c-13.763,10.045-24.2,23.611-36,36.135-11.675,12.719-26.547,22.372-42.4,29.025a236.578,236.578,0,0,1-49.375,14.349,190.68,190.68,0,0,1-51.332,2.479,136.639,136.639,0,0,1-49.18-14.349C31.634,135.146,17.219,125.362.391,121.449Z" transform="translate(0 0)" fill="#4d300f"/>
        </g>
        <g id="Grupo_37" data-name="Grupo 37" transform="translate(650.619 247.659)">
          <path id="Caminho_68" data-name="Caminho 68" d="M24,75.726c27.525-4.761,55.506-6.457,83.357-8.088,27.851-1.5,55.833-2.87,83.358-7.24,27.525-4.24,54.724-11.545,79.509-24.2,12.393-6.327,24.068-13.958,36.33-20.807,12.2-6.783,25.177-12.849,39.2-15.328l.326,2.544c-14.61,1.37-28.047,8.218-41.092,15.132a380.787,380.787,0,0,1-40.244,19.437c-27.59,11.349-56.876,18.785-86.684,20.937-14.871.783-29.808.587-44.679.848-14.871.326-29.677,1.174-44.549,2.348C59.159,63.529,29.612,66.986,0,70.052c29.547-3.457,59.029-7.37,88.706-10.045,14.806-1.3,29.677-2.218,44.614-2.544,14.871-.391,29.743-.2,44.549-1.109,29.547-2.283,58.637-9.849,85.967-21.263a371.392,371.392,0,0,0,39.983-19.567C316.863,8.544,330.495,1.3,345.823,0l.326,2.544C332.517,4.892,319.8,10.762,307.6,17.415c-12.2,6.718-23.938,14.284-36.526,20.611-25.112,12.654-52.636,19.828-80.227,24C135.537,70.639,79.248,67.051,24,75.726Z" transform="translate(0 0)" fill="#4d300f"/>
        </g>
        <g id="Grupo_38" data-name="Grupo 38" transform="translate(828.161 353.389)">
          <path id="Caminho_69" data-name="Caminho 69" d="M16.959,31.438A88.586,88.586,0,0,1,7.044,16.5,86.662,86.662,0,0,1,0,0,87.322,87.322,0,0,1,9.914,14.937,92.365,92.365,0,0,1,16.959,31.438Z" transform="translate(0 0)" fill="#4d300f"/>
        </g>
        <g id="Grupo_39" data-name="Grupo 39" transform="translate(959.263 310.859)">
          <path id="Caminho_70" data-name="Caminho 70" d="M36.591,4.895A107.69,107.69,0,0,0,18.459,3.264c-6.066-.13-12.2.2-18.459-.457A59.357,59.357,0,0,1,18.524,0C24.72.2,31.308,1.438,36.591,4.895Z" transform="translate(0 0)" fill="#4d300f"/>
        </g>
        <g id="Grupo_40" data-name="Grupo 40" transform="translate(967.808 300.883)">
          <path id="Caminho_71" data-name="Caminho 71" d="M28.308,2.739c-4.892.522-9.523.457-14.154.522C9.458,3.2,4.892,3.326,0,2.8A35.372,35.372,0,0,1,14.154,0,35.523,35.523,0,0,1,28.308,2.739Z" transform="translate(0 0)" fill="#4d300f"/>
        </g>
        <g id="Grupo_58" data-name="Grupo 58" transform="translate(0 0)">
          <g id="Grupo_41" data-name="Grupo 41" transform="translate(0 132.671)">
            <path id="Caminho_72" data-name="Caminho 72" d="M0,3.845A15.853,15.853,0,0,1,8.675.062a24.456,24.456,0,0,1,9.458,1.3c6.131,2.087,11.48,5.74,16.893,9,10.827,6.718,21.785,13.241,32.417,20.285s21.655,13.567,31.5,21.72a295.308,295.308,0,0,1,28.242,25.96c17.611,18.524,33.526,38.744,46.44,60.985,12.719,22.177,22.5,46.7,24.264,72.661a120.959,120.959,0,0,1-.2,19.437,9.571,9.571,0,0,1-7.566,8.218,20.65,20.65,0,0,1-5.283.065l-4.761-.261-9.588-.522-4.761-.261-4.827-.717a136.627,136.627,0,0,1-18.915-4.3c-24.59-7.762-47.158-22.372-63.529-42.4-16.828-19.894-25.373-45.4-28.634-70.7C46.505,95.095,48.266,68.94,55.963,44.48v.457c-.522-2.87-2.674-4.37-5.348-5.87l-7.305-4.892c-4.827-3.326-9.588-6.783-14.284-10.24C19.307,17.086,9.914,10.107,0,3.845Zm0,0c10.045,6,19.633,12.784,29.221,19.5C34.047,26.674,38.809,30,43.766,33.2l7.436,4.7a25.626,25.626,0,0,1,3.783,2.544,8.709,8.709,0,0,1,2.348,4.109l.065.2L57.333,45a179.828,179.828,0,0,0-4.957,75.2c3.587,24.916,12.328,49.636,28.634,68.878,15.98,19.437,38.091,33.526,62.029,41.026a137.56,137.56,0,0,0,18.328,4.109l4.631.652,4.761.261,9.523.457,4.761.261c1.631.065,3.2.326,4.24,0a5.671,5.671,0,0,0,4.566-4.892,128.9,128.9,0,0,0,.261-18.785c-1.565-25.112-11.023-49.245-23.481-71.16-12.654-21.916-28.242-42.135-45.462-60.79a298.671,298.671,0,0,0-27.655-26.09c-9.653-8.218-20.676-14.741-31.047-22.111C56.028,24.717,45.2,18,34.569,11.02,29.221,7.563,24,3.845,18,1.693A23.947,23.947,0,0,0,8.675.192,16.913,16.913,0,0,0,0,3.845Z" transform="translate(0 0)" fill="#4d300f"/>
          </g>
          <g id="Grupo_42" data-name="Grupo 42" transform="translate(169.556 264.031)">
            <path id="Caminho_73" data-name="Caminho 73" d="M1.725,105.925c-1.761,15.067-.913,30.2.2,45.266,1.174,15.067,1.892,30.2,2.283,45.4.391,15.132.391,30.33.065,45.462l-.848,22.7c-.261,7.5,0,14.936,2.283,21.85l-1.37-1.174c.457.13,1.37-.391,2.152-1.5.783-1.044,1.565-2.544,2.348-3.848q2.446-4.011,4.7-8.218c3.066-5.479,5.935-11.088,8.74-16.7,5.544-11.284,10.436-22.894,14.871-34.634a313.114,313.114,0,0,0,17.872-73.052,284.679,284.679,0,0,0-.913-75.2,273.376,273.376,0,0,0-8.218-36.852C41.447,23.611,37.534,11.61,32.577,0c5.348,11.414,9.653,23.351,14.48,35.091a238.064,238.064,0,0,1,9.262,36.852,276.728,276.728,0,0,1,2.152,75.922A320.01,320.01,0,0,1,40.86,221.83a338,338,0,0,1-15.067,34.961c-2.87,5.675-5.805,11.284-8.936,16.828-1.565,2.8-3.131,5.544-4.761,8.218-.848,1.37-1.5,2.674-2.609,4.174-.978,1.3-2.8,3.326-5.675,2.87l-1.044-.13-.326-1.044c-2.479-7.566-2.609-15.458-2.348-23.09l.978-22.7q.881-22.6.717-45.331c-.065-15.132-.652-30.2-1.239-45.331C-.1,136.124-.492,120.862,1.725,105.925Z" transform="translate(0 0)" fill="#4d300f"/>
          </g>
          <g id="Grupo_43" data-name="Grupo 43" transform="translate(168.867 44.752)">
            <path id="Caminho_74" data-name="Caminho 74" d="M18.459,194.493c17.546-7.7,34.9-16.306,50.354-27.59,15.458-11.088,29.156-25.112,37.961-41.874,4.37-8.349,7.762-17.35,8.284-26.677.587-9.327-1.044-18.785-2.8-28.177A271.191,271.191,0,0,0,95.62,15.516L92.75,8.928c-.978-2.348-1.826-4.109-3.2-4.827-1.174-.652-3.2-.2-4.5,1.044a10.04,10.04,0,0,0-2.544,5.348l-4.37,28.373c-3.2,18.98-6.914,37.961-12.654,56.42-5.675,18.459-13.175,36.4-23.22,52.9-5.218,8.088-10.7,16.176-17.676,22.894C17.741,177.861,9.392,183.4,0,185.622c9.327-2.544,17.35-8.349,23.872-15.263,6.653-6.914,11.806-15,16.7-23.22A235.048,235.048,0,0,0,62.551,94.373a468.863,468.863,0,0,0,12-56.093l4.24-28.569a13.391,13.391,0,0,1,3.653-7.37A7.972,7.972,0,0,1,91.25.71c3.066,1.7,4.174,4.761,5.088,6.718l2.935,6.653A278.754,278.754,0,0,1,115.84,69.587c1.7,9.458,3.326,19.176,2.674,29.025-.587,9.979-4.3,19.372-9,27.851-9.458,17.154-23.677,31.112-39.526,42C53.876,179.361,36.265,187.318,18.459,194.493Z" transform="translate(0 0)" fill="#4d300f"/>
          </g>
          <g id="Grupo_44" data-name="Grupo 44" transform="translate(238.984 65.275)">
            <path id="Caminho_75" data-name="Caminho 75" d="M0,199.734c15.654-4.7,29.612-13.5,43.766-21.459,14.089-8.088,28.047-16.7,40.244-27.394,12.262-10.632,23.09-22.829,34.439-34.569,11.284-11.806,23.024-23.155,35.026-34.243,12-11.023,24.394-21.72,37.178-31.96,12.784-10.175,25.633-20.285,39.592-29.025,13.893-8.675,29.156-15.85,45.4-19.111A90.733,90.733,0,0,1,300.491.211c2.087.13,4.174.391,6.2.652,2.739.261,4.892,2.218,6.2,3.914a11.074,11.074,0,0,1,2.544,6.718,23.261,23.261,0,0,1-.978,6.588c-8.936,31.5-21.263,62.29-39.265,89.815a220.882,220.882,0,0,1-31.243,38.026,194.4,194.4,0,0,1-39.592,29.156,382.472,382.472,0,0,1-44.157,21.394,222.305,222.305,0,0,1-47.484,12.393c-8.088,1.174-16.241,2.022-24.394,2.479a106.451,106.451,0,0,1-24.525-.978c-16.111-2.087-32.286-5.74-48.593-3.913,16.306-2.152,32.547,1.239,48.723,2.935a104.156,104.156,0,0,0,24.264.457c8.088-.652,16.176-1.631,24.2-2.935a222.143,222.143,0,0,0,46.832-12.784,376.549,376.549,0,0,0,43.57-21.72,205.468,205.468,0,0,0,38.744-28.96,219.638,219.638,0,0,0,30.59-37.5c17.676-27.2,29.808-57.659,38.483-88.836a18.283,18.283,0,0,0,.848-5.414,7.413,7.413,0,0,0-1.7-4.5c-1.109-1.37-2.283-2.413-3.718-2.479A58.985,58.985,0,0,0,300.1,4.06,91.157,91.157,0,0,0,276.293,5.69C260.573,8.821,245.7,15.67,232.005,24.149c-13.762,8.479-26.612,18.589-39.331,28.634q-19.078,15.263-37.243,31.5c-12.067,10.893-23.872,22.111-35.287,33.721s-22.437,23.742-34.961,34.308C72.6,162.882,58.441,171.231,44.157,179.058,29.938,186.82,15.784,195.364,0,199.734Z" transform="translate(0 0)" fill="#4d300f"/>
          </g>
          <g id="Grupo_45" data-name="Grupo 45" transform="translate(298.6 187.814)">
            <path id="Caminho_76" data-name="Caminho 76" d="M197.632,5.121a662.064,662.064,0,0,1,157.844-.783C362,5.317,368.586,5.382,375.3,7.73a16.133,16.133,0,0,1,8.414,6.783,15.478,15.478,0,0,1,1.3,10.762c-1.565,7.24-6.914,12.393-11.741,16.763-4.957,4.37-9.979,8.74-15.132,12.849a435.813,435.813,0,0,1-66.4,43.244,777.4,777.4,0,0,1-71.878,33.134,239.36,239.36,0,0,1-76.9,18.654,217.568,217.568,0,0,1-39.657-.783A147.551,147.551,0,0,1,64.9,139.158,181.7,181.7,0,0,1,0,94.806a180.663,180.663,0,0,0,65.551,42.527c24.394,9.784,51.136,11.74,77.161,9.523a243.818,243.818,0,0,0,75.791-18.98C242.833,117.83,266.77,107,289.925,94.61a425.221,425.221,0,0,0,66.008-42.592c5.153-4.044,10.11-8.349,15.067-12.588,4.827-4.3,9.523-9,10.762-14.871a12.524,12.524,0,0,0-.913-8.479,12.467,12.467,0,0,0-6.653-5.348c-5.74-2.218-12.523-2.479-18.98-3.457A711.2,711.2,0,0,0,197.632,5.121Z" transform="translate(0 0)" fill="#4d300f"/>
          </g>
          <g id="Grupo_46" data-name="Grupo 46" transform="translate(331.408 359.259)">
            <path id="Caminho_77" data-name="Caminho 77" d="M25.5,0C47.679,7.762,70.182,15.719,90.076,28.764A114.737,114.737,0,0,1,116.361,52.7c7.37,9.392,13.045,19.959,18.132,30.656a233.954,233.954,0,0,1,21.068,67.769,180.752,180.752,0,0,1,1.5,35.613c-.783,11.806-2.935,24.2-9.784,34.569l.326-1.044a6.5,6.5,0,0,1-2.348,4.827,12.008,12.008,0,0,1-13.241,1.37c-5.348-3.326-7.436-8.805-9.849-13.371-4.7-9.458-8.675-19.241-12.588-28.96-7.7-19.5-16.437-38.418-27.525-56.224C60.072,92.358,31.438,61.116,0,33.4A493.822,493.822,0,0,1,45.853,76.509a361.961,361.961,0,0,1,38.613,49.832c11.48,17.676,20.546,36.917,28.308,56.42,3.979,9.719,7.957,19.372,12.654,28.634,2.348,4.566,4.566,9.523,8.414,11.741a7.364,7.364,0,0,0,6.131.457c2.152-.587,3.848-2.152,3.783-3.457v-.522l.326-.522c6.2-9.523,8.414-21.2,9.2-32.743a178.381,178.381,0,0,0-1.239-34.9c-3.131-23.155-10.566-45.658-20.35-66.921C126.8,73.9,121.384,63.4,114.4,54.137A111.723,111.723,0,0,0,89.032,30.264C69.66,16.958,47.484,8.349,25.5,0Z" transform="translate(0 0)" fill="#4d300f"/>
          </g>
          <g id="Grupo_47" data-name="Grupo 47" transform="translate(553.04 329.538)">
            <path id="Caminho_78" data-name="Caminho 78" d="M11.743,4.8c29.025-6.588,59.811-6.653,88.771,1.37a151.039,151.039,0,0,1,41.026,18.2,254.16,254.16,0,0,1,35.417,27.59l33,30.2c5.479,4.892,11.414,9.458,17.285,14.023l17.48,13.893c23.677,17.872,50.876,30.395,77.879,42.853l.717.326.261.652c1.435,3.783-1.565,6.783-3.914,7.566-2.022.913-4.109,1.7-6.2,2.479a108.993,108.993,0,0,1-12.719,3.718,197.817,197.817,0,0,1-26.025,4.044c-17.35,1.565-34.7,3.131-52.18,3.783-17.48.587-35.091.065-52.376-3.066-17.35-3.066-33.917-9.458-49.636-16.958-15.784-7.5-31.047-16.241-44.875-27.068C61.9,117.579,49.7,104.534,40.7,89.467A108.083,108.083,0,0,1,29.941,65.529c-2.479-8.349-5.153-16.567-9.914-23.872-4.631-7.37-9.458-14.61-14.154-21.916L2.285,14.263C1.111,12.436-.063,10.414,0,8.131c-.065-1.3,1.239-1.892,2.152-2.348A17.432,17.432,0,0,1,5.286,4.8C7.373,4.414,9.721,3.957,11.743,4.8Zm0,0c-2.022-.783-4.3-.326-6.392.065A16.986,16.986,0,0,0,2.285,5.914C1.372,6.37.2,6.957.263,8.066a10.523,10.523,0,0,0,2.348,5.87L6.264,19.35C11.156,26.59,16.113,33.7,20.875,41a73.182,73.182,0,0,1,6.2,11.61c1.7,4.044,2.935,8.284,4.3,12.327A109.255,109.255,0,0,0,42.4,88.293a141.826,141.826,0,0,0,34.83,37.9c13.7,10.566,28.895,19.046,44.614,26.286s31.9,13.567,48.919,16.437c16.959,3.066,34.374,3.522,51.658,2.87,17.285-.718,34.634-2.348,51.919-3.979a207.594,207.594,0,0,0,25.5-4.044,115.788,115.788,0,0,0,12.328-3.587c2.022-.717,3.979-1.5,5.936-2.348a2.479,2.479,0,0,0,2.022-2.544l.913.978c-27-12.588-54.4-25.242-78.4-43.57-6-4.566-11.545-9.458-17.48-13.958-5.87-4.566-11.806-9.2-17.415-14.219L175.066,53.985A253.19,253.19,0,0,0,140.3,26.264,154.212,154.212,0,0,0,100.058,7.805C71.554-.674,40.9-1.261,11.743,4.8Z" transform="translate(0 0)" fill="#4d300f"/>
          </g>
          <g id="Grupo_48" data-name="Grupo 48" transform="translate(663.599 477.773)">
            <path id="Caminho_79" data-name="Caminho 79" d="M118.709,24.916l34.7,22.176c11.284,7.762,22.5,16.306,30.395,28.177,1.826,3,3.392,6.718,3,10.632-.2,3.913-2.479,7.5-5.153,9.979-5.544,5.022-12.849,7.11-19.763,7.957-14.023,1.892-28.047-.326-41.418-3.522C93.663,93.6,67.834,82.575,45.136,66.725,33.852,58.7,23.546,49.18,15.523,37.9,7.566,26.612,1.892,13.567,0,0,2.544,13.5,8.805,26.025,17.089,36.787A124.752,124.752,0,0,0,46.9,64.312a232.036,232.036,0,0,0,74.552,32.221c13.175,3.261,26.742,5.479,40.048,3.783,6.653-.783,13.11-2.674,17.937-6.914a11.975,11.975,0,0,0,4.174-7.762c.391-2.935-.718-6-2.348-8.805-7.11-11.284-17.872-20.154-28.895-28.177Z" transform="translate(0 0)" fill="#4d300f"/>
          </g>
          <g id="Grupo_49" data-name="Grupo 49" transform="translate(558.578 314.893)">
            <path id="Caminho_80" data-name="Caminho 80" d="M183.487,80.5c20.024,4.174,40.635,3.783,60.92,2.348,10.175-.717,20.35-1.631,30.46-2.609,10.045-1.044,20.154-2.8,29.025-7.24l-.783,1.957a5.255,5.255,0,0,0-2.218-2.479h-4.631c-3.326-.065-6.718-.13-10.045-.326-6.718-.326-13.371-.978-20.024-1.892a244.161,244.161,0,0,1-39.265-8.805C201.1,53.563,177.747,39.931,154.135,27.8,130.589,15.667,105.869,4.775,79.388,2.753,52.972.665,26.36,5.362.531,11.689L.6,11.623A6.127,6.127,0,0,0,.661,15.8,6.007,6.007,0,0,0,3.2,19.189,6.725,6.725,0,0,1,.531,15.863a5.781,5.781,0,0,1-.2-4.3v-.065H.4C25.968,4.318,52.515-1.487,79.518.339,106.586,1.84,132.024,12.667,155.7,24.8c23.807,12.132,47.027,25.177,72.335,33.2a243.82,243.82,0,0,0,38.613,8.936q9.784,1.37,19.763,1.957c3.326.2,6.588.326,9.914.391h3.718a9.509,9.509,0,0,1,1.631.13c2.674,1.044,3.457,2.544,4.435,4.631l.587,1.3L305.262,76c-9.523,4.566-20.024,6.066-30.2,6.979-10.24.783-20.35,1.565-30.591,2.022C224.122,85.719,203.445,85.328,183.487,80.5Z" transform="translate(0 0)" fill="#4d300f"/>
          </g>
          <g id="Grupo_50" data-name="Grupo 50" transform="translate(637.183 16.044)">
            <path id="Caminho_81" data-name="Caminho 81" d="M11.414,300.558a214.98,214.98,0,0,0,93.141-107.426,219.4,219.4,0,0,0,10.306-34.569c2.479-11.806,4.24-23.742,5.936-35.743A525.721,525.721,0,0,1,134.95,51.268c3.326-11.74,7.044-23.285,11.219-34.765l3.2-8.544,1.7-4.24c.326-1.044,0-.2.457.065.13.065-.457-.13-.978-.13a15.522,15.522,0,0,0-3.913.978c-1.435.457-2.87.848-4.24,1.37-2.8.978-5.609,2.087-8.349,3.261-21.981,9.719-40.309,26.09-56.55,43.831a400.827,400.827,0,0,0-43.114,58.181A621.569,621.569,0,0,0,0,175.26,637.153,637.153,0,0,1,32.743,110.3,398.562,398.562,0,0,1,75.2,51.072C91.25,32.809,109.969,16.177,132.537,6c2.8-1.239,5.675-2.413,8.544-3.457,1.435-.587,2.935-.978,4.37-1.435A16.409,16.409,0,0,1,150.344,0a5.05,5.05,0,0,1,3.326.848,3.03,3.03,0,0,1,1.174,2.479,4.169,4.169,0,0,1-.457,1.7l-1.631,4.24-3.131,8.479c-4.109,11.349-7.7,22.894-10.958,34.5a523.043,523.043,0,0,0-14.415,71.03c-3.392,23.938-7.37,48.332-16.958,70.965a212.925,212.925,0,0,1-38.744,61.638A209.7,209.7,0,0,1,11.414,300.558Z" transform="translate(0 0)" fill="#4d300f"/>
          </g>
          <g id="Grupo_51" data-name="Grupo 51" transform="translate(764.763 0)">
            <path id="Caminho_82" data-name="Caminho 82" d="M92.424,241.593a152.443,152.443,0,0,0,28.764-64.051,140.611,140.611,0,0,0-3.914-69.6,142.1,142.1,0,0,0-14.61-31.83,150.349,150.349,0,0,0-22.176-27.2c-16.763-16.5-36.4-29.808-56.028-43.048l3-1.957a41.42,41.42,0,0,1-.913,17.676A124.677,124.677,0,0,1,20.415,37.7,87.906,87.906,0,0,0,15,53.419c-1.239,5.283-1.174,10.827-.783,16.371.718,11.088,2.87,22.5,2.283,34.047-.326,11.414-1.761,22.7-2.152,33.917-.587,11.153.978,22.437,1.435,33.787a296.507,296.507,0,0,1,.391,34.047c-.913,11.349-2.022,22.568-3.848,33.852C10.436,250.594,6.522,261.617,0,270.879c6.327-9.458,9.849-20.415,11.414-31.569,1.5-11.153,2.348-22.5,2.935-33.787a325.925,325.925,0,0,0-.913-33.852c-.652-11.284-2.348-22.5-1.957-34.047.261-11.414,1.5-22.7,1.761-33.917.522-11.219-1.631-22.242-2.413-33.721-.391-5.675-.522-11.61.783-17.415A86.377,86.377,0,0,1,17.154,36.2a123.422,123.422,0,0,0,5.87-15.654,36.822,36.822,0,0,0,.783-15.98L22.829,0l3.848,2.609c19.567,13.306,39.331,26.873,56.354,43.7,17.089,16.7,30.525,37.57,37.178,60.659a143.535,143.535,0,0,1,2.87,70.9A152.474,152.474,0,0,1,92.424,241.593Z" transform="translate(0 0)" fill="#4d300f"/>
          </g>
          <g id="Grupo_52" data-name="Grupo 52" transform="translate(888.82 49.056)">
            <path id="Caminho_83" data-name="Caminho 83" d="M0,190.711A336.613,336.613,0,0,0,79.7,122.29,322.344,322.344,0,0,0,134.037,32.8c1.761-4.044,3.261-8.153,4.7-12.262,1.3-4.044,3.392-8.414,3.718-12.067a4.561,4.561,0,0,0-1.761-4.24,2.491,2.491,0,0,0-1.761-.587c-.457.065-1.957.587-2.935.783-4.37,1.174-8.74,1.957-13.045,2.8-8.74,1.5-16.828,3.653-24.459,8.218A230.385,230.385,0,0,0,76.052,29.018,276.611,276.611,0,0,0,35.809,62.87,403.02,403.02,0,0,0,1.044,102.592C21.459,73.958,45.266,47.151,74.291,26.54A200.958,200.958,0,0,1,96.859,12.451a61.864,61.864,0,0,1,12.328-5.544,118.322,118.322,0,0,1,13.045-3.131c4.3-.848,8.61-1.7,12.784-2.8a28.047,28.047,0,0,1,3.457-.913A6.071,6.071,0,0,1,142.908,1.3a8.372,8.372,0,0,1,3.261,7.37c-.457,5.218-2.479,8.871-3.848,13.175-1.435,4.174-2.935,8.349-4.7,12.458a317.76,317.76,0,0,1-55.7,90.01A311.939,311.939,0,0,1,0,190.711Z" transform="translate(0 0)" fill="#4d300f"/>
          </g>
          <g id="Grupo_53" data-name="Grupo 53" transform="translate(851.381 335.452)">
            <path id="Caminho_84" data-name="Caminho 84" d="M71.617,0c22.7,3.261,44.157,12.588,63.529,24.72A312.229,312.229,0,0,1,188.3,68.225c15.98,16.371,29.677,35.939,36.135,58.311a106.972,106.972,0,0,1-3.392,68.421L219.286,199a12.209,12.209,0,0,1-3.326,3.913,8.617,8.617,0,0,1-5.088,1.892,16.62,16.62,0,0,1-4.827-.783c-5.609-2.022-10.762-4.044-16.111-6.131-10.632-4.109-21.263-8.349-31.83-12.849-21-9-41.744-19.046-60.985-31.569a265.176,265.176,0,0,1-27.655-20.415L56.42,121.971,49.9,116.427l-6.849-5.153a74.3,74.3,0,0,1-12.784-11.61c-3.783-4.37-7.044-9.066-10.371-13.7L0,58.05,20.611,85.38c6.718,9.2,13.893,18.133,23.546,24.329,2.283,1.631,4.7,3.261,6.979,5.022l6.653,5.414L71.03,131.037a277.8,277.8,0,0,0,27.721,19.828,428.9,428.9,0,0,0,60.79,30.851c10.5,4.435,21.133,8.61,31.764,12.654,5.283,2.022,10.762,4.109,15.915,5.936,5.348,2.022,8.284-1.109,10.175-6.914a103.168,103.168,0,0,0,3.587-66.008c-6.066-21.72-19.5-40.766-34.9-57.268A312.9,312.9,0,0,0,134.1,26.155C115.253,13.762,94.25,3.848,71.617,0Z" transform="translate(0 0)" fill="#4d300f"/>
          </g>
          <g id="Grupo_54" data-name="Grupo 54" transform="translate(1001.855 98.999)">
            <path id="Caminho_85" data-name="Caminho 85" d="M49.767,106.916a110.783,110.783,0,0,0,30.656-53.68,109.157,109.157,0,0,0,2.87-30.851A86.563,86.563,0,0,0,81.27,7.057,19.977,19.977,0,0,0,80.488,3.8c-.065-.065.13,0-.13-.065a5.8,5.8,0,0,0-1.239.2A37.7,37.7,0,0,0,72.2,6.8c-8.936,4.761-16.111,12.523-23.285,20.155A282.119,282.119,0,0,0,29.09,51.214C22.7,59.433,20.024,69.673,15.719,79.392A168.043,168.043,0,0,1,0,106.851,164.115,164.115,0,0,0,13.958,78.674c3.848-9.588,6.327-20.285,12.654-29.156A234.408,234.408,0,0,1,46.31,24.6c7.109-7.7,14.349-15.85,24.068-21.2a35.761,35.761,0,0,1,7.7-3.066A7.7,7.7,0,0,1,80.683.013,3.778,3.778,0,0,1,83.749,1.9c.978,2.087.783,2.935,1.174,4.37a93.8,93.8,0,0,1,1.892,15.915,104.278,104.278,0,0,1-3.522,31.765A111.782,111.782,0,0,1,70.573,83.109,103.654,103.654,0,0,1,49.767,106.916Z" transform="translate(0 0)" fill="#4d300f"/>
          </g>
          <g id="Grupo_55" data-name="Grupo 55" transform="translate(979.092 34.209)">
            <path id="Caminho_86" data-name="Caminho 86" d="M0,257.216c33.265-4.109,65.551-13.7,96.663-25.829a461.955,461.955,0,0,0,45.657-20.481A154.867,154.867,0,0,0,181.847,181.1c22.894-24.068,41.222-52.506,54.919-82.77A305.228,305.228,0,0,0,253.66,51.366c2.218-8.023,3.979-16.176,5.544-24.329.783-4.109,1.37-8.218,2.022-12.328.587-3.979.783-8.153-1.3-10.893l.783.587c-6.914-2.544-14.545-.326-21.394,2.87-6.979,3.261-13.893,7.044-20.676,10.762-13.632,7.5-26.873,15.784-39.722,24.59A496.586,496.586,0,0,0,107.034,102.5a475.275,475.275,0,0,1,70.639-61.7c12.784-9.066,25.959-17.546,39.592-25.307,6.849-3.848,13.632-7.7,20.742-11.153,6.979-3.392,15.654-6,23.872-3.066l.522.2.326.391c3,4.24,2.479,9.262,1.957,13.371-.652,4.174-1.239,8.349-2.022,12.458-1.5,8.284-3.261,16.5-5.479,24.655a308.054,308.054,0,0,1-16.828,47.614,300.467,300.467,0,0,1-24.459,44.157,269.729,269.729,0,0,1-31.5,39.461,152.127,152.127,0,0,1-40.57,30.134A488.676,488.676,0,0,1,97.577,233.6C66.138,245.41,33.4,253.89,0,257.216Z" transform="translate(0 0)" fill="#4d300f"/>
          </g>
          <g id="Grupo_56" data-name="Grupo 56" transform="translate(987.969 265.268)">
            <path id="Caminho_87" data-name="Caminho 87" d="M7.1,38.876q39.233-11.349,79.053-20.22c26.612-5.805,53.224-11.61,80.227-15.263a267.808,267.808,0,0,1,81.662-.522c13.436,1.957,27.329,4.957,39.4,12,6.066,3.392,11.675,7.24,17.35,11.153a11.313,11.313,0,0,1,3.914,4.7,5.414,5.414,0,0,1,.13,3.653,10.053,10.053,0,0,1-1.3,2.8c-2.348,3.326-5.087,5.153-7.631,7.566C278.373,62.487,251.892,71.88,226,79.837a252.1,252.1,0,0,1-39.983,9.2,209.844,209.844,0,0,1-40.961,1.435c-27.329-1.565-54.071-7.957-79.835-16.7C52.3,69.466,39.65,64.444,27.127,59.1c-6.262-2.674-12.458-5.414-18.654-8.218-3-1.435-6.588-2.544-8.284-5.675-.783-1.761,1.044-3.2,2.283-4.109A20.169,20.169,0,0,1,7.1,38.876Zm0,0a17.61,17.61,0,0,0-4.566,2.283C1.3,42.072-.529,43.507.254,45.2c1.7,3.066,5.283,4.174,8.284,5.609,6.2,2.8,12.458,5.479,18.72,8.088C39.78,64.118,52.5,69.01,65.414,73.249c25.829,8.414,52.637,14.154,79.77,15.263a210.159,210.159,0,0,0,40.5-2.152c13.371-2.022,26.416-5.675,39.4-9.719,25.764-8.088,51.723-17.611,72.4-34.9,2.413-2.218,5.348-4.37,6.979-6.653a7.251,7.251,0,0,0,.848-1.761,2.223,2.223,0,0,0,0-1.3,7.55,7.55,0,0,0-2.544-3c-5.479-3.848-11.088-7.762-16.893-11.023-11.545-6.849-24.72-9.849-38.157-11.871-26.677-4.109-54.071-4.892-80.944-.848C112.767,12.264,59.478,24.2,7.1,38.876Z" transform="translate(0 0)" fill="#4d300f"/>
          </g>
          <g id="Grupo_57" data-name="Grupo 57" transform="translate(1204.64 66.721)">
            <path id="Caminho_88" data-name="Caminho 88" d="M0,134.629q28.471-9.686,56.028-21.524c18.328-7.892,36.33-16.7,53.158-27.329A293.457,293.457,0,0,0,156.475,49.51a256.932,256.932,0,0,0,20.35-21.785c3.2-3.783,6.262-7.7,9.131-11.74,1.37-2.022,3.2-4.044,3.718-5.805a2.278,2.278,0,0,0-.13-2.087c-.391-.652-.913-.783-1.044-.717l-.717.391-.913-.652c-5.087-3.783-12.132-4.044-18.785-3.261-6.914.783-13.762,1.631-20.676,2.674-13.762,2.022-27.46,4.109-41.092,6.849-13.632,2.609-27.134,5.87-40.635,9.2Q45.429,27.66,25.568,34.052a610.814,610.814,0,0,1,80.292-23.22c13.632-2.935,27.329-5.544,41.157-7.566,6.914-1.044,13.828-1.957,20.741-2.8,6.914-.913,14.937-.848,21.329,3.783l-1.565-.261c5.022-.913,6.979,4.631,5.74,7.436-1.109,3.066-2.8,4.761-4.24,6.914-2.935,4.109-6,8.088-9.2,12A228.47,228.47,0,0,1,159.084,52.38a299.982,299.982,0,0,1-48.136,36.4C93.728,99.211,75.4,107.625,56.811,115.192,38.222,122.562,19.176,128.889,0,134.629Z" transform="translate(0 0)" fill="#4d300f"/>
          </g>
        </g>
        <g id="Grupo_60" data-name="Grupo 60" transform="translate(230.436 286.121)">
          <g id="Grupo_59" data-name="Grupo 59" transform="translate(0 0)">
            <path id="Caminho_89" data-name="Caminho 89" d="M73.708,2.3a71.268,71.268,0,0,0-20.024-.783A69.847,69.847,0,0,0,34.573,7.065,62.777,62.777,0,0,0,18.4,18.219c-4.761,4.435-7.957,10.24-10.24,16.371A66.463,66.463,0,0,0,6.4,73.138a59.54,59.54,0,0,0,21.329,31.7,55.329,55.329,0,0,0,36.33,11.414,67.742,67.742,0,0,0,36.591-12.458c10.632-7.566,19.241-18.459,23.024-31.178,3.914-12.523,2.544-27-4.761-38.417,8.284,10.827,10.436,25.7,7.11,39.07C122.5,86.7,113.887,98.445,102.864,106.794a68.546,68.546,0,0,1-38.678,13.828,60.524,60.524,0,0,1-39.461-12,64.313,64.313,0,0,1-22.7-34.5A67.86,67.86,0,0,1,4.57,33.09C7.179,26.7,10.9,20.436,16.245,15.805A63.9,63.9,0,0,1,33.595,4.717,67.957,67.957,0,0,1,53.488.086,67.576,67.576,0,0,1,73.708,2.3Z" fill="#4d300f"/>
          </g>
          <path id="Caminho_90" data-name="Caminho 90" d="M5.3,3.783A6.321,6.321,0,0,1,8.1,0,5.446,5.446,0,0,1,9.993,3.261c.13,1.5-.913,2.8-2.022,3.848a7.092,7.092,0,0,1-4.3,2.348C2.035,9.588.144,8.479.013,6.849c-.2-1.892,1.826-3.261,3.718-3.587" transform="translate(27.711 26.698)" fill="#4d300f"/>
        </g>
        <g id="Grupo_64" data-name="Grupo 64" transform="translate(1108.09 191.305)">
          <g id="Grupo_63" data-name="Grupo 63" transform="translate(0 0)">
            <g id="Grupo_61" data-name="Grupo 61" transform="translate(75.613 0)">
              <path id="Caminho_91" data-name="Caminho 91" d="M37.57,76.639a65.424,65.424,0,0,0,1.892-23.481A78.809,78.809,0,0,0,33,30.851,63.757,63.757,0,0,0,20.089,11.74,43.173,43.173,0,0,0,0,0,35.136,35.136,0,0,1,12,2.413,42.723,42.723,0,0,1,22.568,8.936c6.653,5.348,11.284,12.393,14.871,19.894,3.326,7.631,5.675,15.654,5.805,24.068A48.547,48.547,0,0,1,37.57,76.639Z" transform="translate(0 0)" fill="#4d300f"/>
            </g>
            <g id="Grupo_62" data-name="Grupo 62" transform="translate(0 61.507)">
              <path id="Caminho_92" data-name="Caminho 92" d="M1.126,0a54,54,0,0,1,4.5,11.153A49.874,49.874,0,0,1,7.909,22.959C4.257,20.35,2.235,16.5.93,12.523A19.621,19.621,0,0,1,1.126,0Z" transform="translate(0 0)" fill="#4d300f"/>
            </g>
          </g>
          <path id="Caminho_93" data-name="Caminho 93" d="M6.747,4.088A3.426,3.426,0,0,0,4.79.24,3.563,3.563,0,0,0,.616,1.479,5.39,5.39,0,0,0,.159,5.392,4.792,4.792,0,0,0,1.268,7.871a3.187,3.187,0,0,0,4.24,0,3.917,3.917,0,0,0,.913-4.3" transform="translate(94.955 54.876)" fill="#4d300f"/>
        </g>
        <g id="Grupo_91" data-name="Grupo 91" transform="translate(84.727 30.982)">
          <g id="Grupo_65" data-name="Grupo 65" transform="translate(195.74 65.682)">
            <path id="Caminho_94" data-name="Caminho 94" d="M232.2,0a527.112,527.112,0,0,1-50.158,49.375,582.017,582.017,0,0,1-56.093,42.592,584.445,584.445,0,0,1-60.985,35.221A519.17,519.17,0,0,1,0,154.322a656.647,656.647,0,0,0,64.051-28.96A617.045,617.045,0,0,0,124.514,89.75,630.038,630.038,0,0,0,180.8,47.81,683.863,683.863,0,0,0,232.2,0Z" transform="translate(0 0)" fill="#4d300f"/>
          </g>
          <g id="Grupo_66" data-name="Grupo 66" transform="translate(0 171.346)">
            <path id="Caminho_95" data-name="Caminho 95" d="M103.447,158.105q-9.588-21.72-20.872-42.657c-7.566-13.893-15.524-27.525-24.264-40.7C49.767,61.442,40.439,48.658,30.721,36.2,20.937,23.742,10.762,11.675,0,0A419.915,419.915,0,0,1,32.286,34.961,475.317,475.317,0,0,1,60.529,73.313,463.213,463.213,0,0,1,84.4,114.535,438.087,438.087,0,0,1,103.447,158.105Z" transform="translate(0 0)" fill="#4d300f"/>
          </g>
          <g id="Grupo_67" data-name="Grupo 67" transform="translate(234.092 186.935)">
            <path id="Caminho_96" data-name="Caminho 96" d="M308.384,0Q270.52,11.447,232.462,22.307l-76.052,21.85c-25.568,6.653-51.4,12.262-77.487,16.437S26.416,67.312,0,66.334a347.072,347.072,0,0,0,39.461-2.218Q59.126,62.159,78.6,58.833c25.96-4.435,51.658-10.306,77.1-17.219l76.248-21Q270.1,10.045,308.384,0Z" transform="translate(0 0)" fill="#4d300f"/>
          </g>
          <g id="Grupo_68" data-name="Grupo 68" transform="translate(418.809 364.329)">
            <path id="Caminho_97" data-name="Caminho 97" d="M27.394,90.028a58.358,58.358,0,0,0,7.631-25.112,66.621,66.621,0,0,0-3.2-25.829A84.138,84.138,0,0,0,19.894,15.737,78.761,78.761,0,0,0,11.545,5.562C8.544,2.5,4.631-.243,0,.214c4.5-.978,9,1.565,12.393,4.37a77.811,77.811,0,0,1,9.132,9.979A81.959,81.959,0,0,1,34.308,38.3a64.662,64.662,0,0,1,2.739,26.873A52.48,52.48,0,0,1,27.394,90.028Z" transform="translate(0 0)" fill="#4d300f"/>
          </g>
          <g id="Grupo_71" data-name="Grupo 71" transform="translate(527.931 0)">
            <g id="Grupo_69" data-name="Grupo 69" transform="translate(59.42 0)">
              <path id="Caminho_98" data-name="Caminho 98" d="M102.534,0A359.019,359.019,0,0,0,70.965,37.439,446.352,446.352,0,0,0,44.157,78.4C35.809,92.424,28.242,106.9,21,121.579S6.849,151.061,0,165.932c5.935-15.263,12.2-30.395,19.176-45.2C26.09,105.86,33.721,91.315,41.874,77.1a398.728,398.728,0,0,1,27.46-40.831A277.937,277.937,0,0,1,102.534,0Z" transform="translate(0 0)" fill="#4d300f"/>
            </g>
            <g id="Grupo_70" data-name="Grupo 70" transform="translate(0 208.263)">
              <path id="Caminho_99" data-name="Caminho 99" d="M45.4,0c-3.066,14.089-9.262,27.329-16.828,39.592C20.742,51.658,11.414,62.942,0,71.747A206.342,206.342,0,0,0,26.351,38.222,202.894,202.894,0,0,0,45.4,0Z" transform="translate(0 0)" fill="#4d300f"/>
            </g>
          </g>
          <g id="Grupo_72" data-name="Grupo 72" transform="translate(782.047 32.808)">
            <path id="Caminho_100" data-name="Caminho 100" d="M151.191,0c-14.023,13.632-28.112,27.2-41.679,41.222S82.9,69.791,71.421,85.575c-12.132,15.263-23.677,31.047-35.548,46.571Q18.067,155.529,0,178.521q16.926-23.97,34.308-47.614c11.545-15.784,23.155-31.5,35.156-47.027C92.815,52.441,121.971,25.829,151.191,0Z" transform="translate(0 0)" fill="#4d300f"/>
          </g>
          <g id="Grupo_73" data-name="Grupo 73" transform="translate(726.476 53.876)">
            <path id="Caminho_101" data-name="Caminho 101" d="M0,162.345a136.554,136.554,0,0,0,19.828-37.57,148.044,148.044,0,0,0,8.088-41.548A174.005,174.005,0,0,0,24.981,40.9,224.522,224.522,0,0,0,12.915,0,180.545,180.545,0,0,1,26.938,40.5a163.053,163.053,0,0,1,3.587,42.853,144.923,144.923,0,0,1-8.805,42.07A120.344,120.344,0,0,1,0,162.345Z" transform="translate(0 0)" fill="#4d300f"/>
          </g>
          <g id="Grupo_76" data-name="Grupo 76" transform="translate(651.597 471.446)">
            <g id="Grupo_74" data-name="Grupo 74" transform="translate(0 0.587)">
              <path id="Caminho_102" data-name="Caminho 102" d="M111.4,59.681c-10.11-3.261-20.155-6.653-30.069-10.5Q66.464,43.505,52.049,36.526A238.23,238.23,0,0,1,24.394,20.481,156.14,156.14,0,0,1,0,0,216.158,216.158,0,0,0,25.5,18.85,293.03,293.03,0,0,0,53.158,34.243C62.616,39,72.335,43.179,82.053,47.353Z" transform="translate(0 0)" fill="#4d300f"/>
            </g>
            <g id="Grupo_75" data-name="Grupo 75" transform="translate(8.87 0)">
              <path id="Caminho_103" data-name="Caminho 103" d="M103.121,57.007c-9-4.109-18.2-7.762-27.329-11.48-9.2-3.718-18.263-7.5-27.329-11.61a203.061,203.061,0,0,1-26.09-14.349A105.084,105.084,0,0,1,0,0,132.859,132.859,0,0,0,23.481,17.872a255.309,255.309,0,0,0,26.155,13.7c8.871,4.24,18,8.023,27,12.132C85.575,47.745,94.511,52.05,103.121,57.007Z" fill="#4d300f"/>
            </g>
          </g>
          <g id="Grupo_77" data-name="Grupo 77" transform="translate(468.185 303.361)">
            <path id="Caminho_104" data-name="Caminho 104" d="M0,5.348,60.2,41.222,120.21,77.487l30,18.133c9.914,6.2,19.763,12.458,29.808,18.328,20.024,11.806,40.961,22.568,63.4,28.5h-.652c-.065,0-.326,0-.522.587-.065.391.065.522,0,.457,0-.065-.261-.326-.457-.457a9.551,9.551,0,0,0-1.565-1.109,23.167,23.167,0,0,0-3.587-1.826c-2.413-.783-5.479-1.565-8.153-2.544a110.561,110.561,0,0,1-15.719-7.175c-10.11-5.544-19.5-11.936-29.156-18.067C164.5,99.859,145.647,87.01,126.8,74.1,89.032,48.462,51.462,22.5,11.74,0,31.83,10.893,51.4,22.633,70.7,34.83c19.241,12.328,38.157,25.112,57.072,37.83s37.83,25.5,57.007,37.83c9.653,6.066,19.176,12.393,29.09,17.806a112.513,112.513,0,0,0,15.393,6.979c2.674,1.044,5.218,1.565,8.218,2.544a23.415,23.415,0,0,1,4.044,2.022,12.656,12.656,0,0,1,1.892,1.37,5.625,5.625,0,0,1,.978,1.109,1.983,1.983,0,0,1,.261,1.435,1.813,1.813,0,0,1-1.3,1.239l-.261.13-.261-.065C220,138.929,199,127.906,178.977,115.9c-10.045-6-19.894-12.328-29.743-18.589L119.362,78.987,59.616,42.331Z" transform="translate(0 0)" fill="#4d300f"/>
          </g>
          <g id="Grupo_80" data-name="Grupo 80" transform="translate(939.37 83.162)">
            <g id="Grupo_78" data-name="Grupo 78" transform="translate(48.984 0)">
              <path id="Caminho_105" data-name="Caminho 105" d="M5.348,0c.326,2.348-.457,4.3-1.239,6.262C3.066,8.088,2.022,9.979,0,11.153a17.405,17.405,0,0,1,1.761-6A20.418,20.418,0,0,1,5.348,0Z" transform="translate(0 0)" fill="#4d300f"/>
            </g>
            <g id="Grupo_79" data-name="Grupo 79" transform="translate(0 18.393)">
              <path id="Caminho_106" data-name="Caminho 106" d="M45.918,0c-4.37,14.023-10.958,27.264-18.524,39.852C19.568,52.245,10.632,64.051,0,74.226c8.936-11.61,17.611-23.285,25.177-35.743C32.939,26.155,39.526,13.175,45.918,0Z" transform="translate(0 0)" fill="#4d300f"/>
            </g>
          </g>
          <g id="Grupo_83" data-name="Grupo 83" transform="translate(959.85 44.027)">
            <g id="Grupo_81" data-name="Grupo 81" transform="translate(95.816 0)">
              <path id="Caminho_107" data-name="Caminho 107" d="M63.007,0C58.963,7.566,54.658,15,49.9,22.176c-4.7,7.175-9.784,14.089-15,20.937C29.547,49.832,24.068,56.42,18.263,62.746S6.327,75.074,0,80.814C5.675,74.422,11.284,67.9,16.763,61.377s10.958-13.11,16.111-19.894C38.222,34.83,43.244,27.916,48.266,21,53.224,14.089,58.181,7.044,63.007,0Z" transform="translate(0 0)" fill="#4d300f"/>
            </g>
            <g id="Grupo_82" data-name="Grupo 82" transform="translate(0 99.403)">
              <path id="Caminho_108" data-name="Caminho 108" d="M79.7,0A193.955,193.955,0,0,1,62.746,18.915a245.785,245.785,0,0,1-19.176,16.7,238.075,238.075,0,0,1-21,14.284A183.815,183.815,0,0,1,0,61.442c7.305-4.174,14.48-8.61,21.524-13.241C28.5,43.57,35.417,38.744,42,33.526c6.718-5.022,13.11-10.5,19.372-16.111S73.77,6,79.7,0Z" transform="translate(0 0)" fill="#4d300f"/>
            </g>
          </g>
          <g id="Grupo_86" data-name="Grupo 86" transform="translate(952.154 285.098)">
            <g id="Grupo_84" data-name="Grupo 84" transform="translate(171.672 0)">
              <path id="Caminho_109" data-name="Caminho 109" d="M23.22,0A29.5,29.5,0,0,1,12.328,5.87C8.284,6.914,4.174,7.631,0,6.914,3.914,5.479,7.827,4.631,11.61,3.326,15.393,2.413,19.111.978,23.22,0Z" transform="translate(0 0)" fill="#4d300f"/>
            </g>
            <g id="Grupo_85" data-name="Grupo 85" transform="translate(0 7.697)">
              <path id="Caminho_110" data-name="Caminho 110" d="M153.083,1.109a277.6,277.6,0,0,1-37.961,6.979A346.49,346.49,0,0,1,76.509,10.24,331.966,331.966,0,0,1,37.9,7.566,278.3,278.3,0,0,1,0,0Q18.981,3.62,38.091,5.544A377.77,377.77,0,0,0,76.444,7.631c12.784.2,25.633-.457,38.417-1.5C127.645,5.022,140.429,3.326,153.083,1.109Z" transform="translate(0 0)" fill="#4d300f"/>
            </g>
          </g>
          <g id="Grupo_87" data-name="Grupo 87" transform="translate(1137.458 44.483)">
            <path id="Caminho_111" data-name="Caminho 111" d="M166.65,0a263.119,263.119,0,0,0-42.527,8.74c-13.958,3.913-27.786,8.284-41.614,12.654Q61.67,27.655,41.026,34.439C27.264,39,13.567,43.7,0,48.919c13.175-6.131,26.677-11.48,40.374-16.371S67.9,23.285,81.792,18.915c13.893-4.109,27.721-8.61,41.874-12.067A212.422,212.422,0,0,1,166.65,0Z" transform="translate(0 0)" fill="#4d300f"/>
          </g>
          <g id="Grupo_90" data-name="Grupo 90" transform="translate(745.521 323.059)">
            <g id="Grupo_88" data-name="Grupo 88" transform="translate(11.088 0)">
              <path id="Caminho_112" data-name="Caminho 112" d="M218.7,161.562c-8.479-22.568-17.024-45.527-31.569-64.7-14.415-19.241-33.2-34.83-53.158-48.2s-40.7-26.155-63.2-34.569C48.2,5.675,24,2.674,0,0,24.068,1.761,48.4,4.044,71.421,12.2c22.959,8.153,43.766,21.068,63.986,34.308,19.959,13.7,39,29.416,53.289,49.18C203.241,115.383,211.133,138.668,218.7,161.562Z" transform="translate(0 0)" fill="#4d300f"/>
            </g>
            <g id="Grupo_89" data-name="Grupo 89" transform="translate(0 3)">
              <path id="Caminho_113" data-name="Caminho 113" d="M196.458,108.208C185.63,92.293,171.8,78.661,156.736,66.856A378.854,378.854,0,0,0,108.73,35.221,282.549,282.549,0,0,0,56.224,12.2,305.3,305.3,0,0,0,0,0,259.953,259.953,0,0,1,56.811,10.306,269.44,269.44,0,0,1,110.034,33a354.808,354.808,0,0,1,47.94,32.352C172.977,77.422,186.413,91.706,196.458,108.208Z" fill="#4d300f"/>
            </g>
          </g>
        </g>
      </g>
      <g id="Folhas-2" data-name="Folhas" transform="translate(-438.589 2005.781) rotate(-6)" opacity="0.318">
        <g id="F-2" data-name="F" transform="translate(-317.68 3169.932) rotate(-43)">
          <g id="Grupo_27-2" data-name="Grupo 27" transform="translate(158.096 224.042)">
            <path id="Caminho_58-2" data-name="Caminho 58" d="M0,0C6.624,5.752,10.691,14.293,12.027,23.067a56.06,56.06,0,0,1-2.5,25.972c.523-8.715.988-17.2-.349-25.565A57.064,57.064,0,0,0,0,0Z" transform="translate(0 0)" fill="#4d300f"/>
          </g>
          <g id="Grupo_28-2" data-name="Grupo 28" transform="translate(130.149 208.587)">
            <path id="Caminho_59-2" data-name="Caminho 59" d="M102.085,52.7c-17.663-7.553-34.8-16.036-52-24.519L24.577,14.99C16.21,10.4,7.437,6.217,0,0,8.076,5.171,16.908,8.832,25.565,13.015l25.8,12.608C68.444,34.338,85.526,43,102.085,52.7Z" transform="translate(0 0)" fill="#4d300f"/>
          </g>
          <g id="Grupo_29-2" data-name="Grupo 29" transform="translate(109.174 185.578)">
            <path id="Caminho_60-2" data-name="Caminho 60" d="M155.946,70.362c-27.6-7.553-53.919-19.116-79.832-31.027C63.215,33.118,50.491,26.669,37.824,20.1,25.158,13.6,12.55,6.856,0,0Q19.522,8.8,38.812,18.07c12.9,6.1,25.623,12.608,38.522,18.593,12.841,6.217,25.855,12.027,38.87,17.721C129.335,60.078,142.525,65.539,155.946,70.362Z" transform="translate(0)" fill="#4d300f"/>
          </g>
          <g id="Grupo_30-2" data-name="Grupo 30" transform="translate(381.847 298.413)">
            <path id="Caminho_61-2" data-name="Caminho 61" d="M0,1.394a116.716,116.716,0,0,1,40.555,25.1A102.424,102.424,0,0,1,66.236,66.876a91.458,91.458,0,0,1,4.822,23.706c.523,8.076.174,16.036.872,23.88.755,7.669,2.44,15.862,7.437,21.44a12.708,12.708,0,0,0,9.645,4.125,21.415,21.415,0,0,0,10.575-3.37c6.449-3.951,11.272-10.575,14.119-17.663A49.5,49.5,0,0,0,116.9,96.1c-1.336-15.63-10.284-29.806-21.672-40.5-5.694-5.462-12.26-9.877-19-14.235-6.682-4.358-13.48-8.541-20.1-13.073A211.841,211.841,0,0,1,37.244,13.48C31.2,8.309,24.926,3.254,17.605,0c7.437,3.021,13.886,7.96,20.1,12.9A199.892,199.892,0,0,0,56.94,27.076c6.624,4.358,13.48,8.483,20.278,12.724,6.8,4.183,13.6,8.6,19.522,14.119,11.911,10.749,21.207,25.449,22.776,41.892a51.714,51.714,0,0,1-3.254,24.112c-3.079,7.611-8.018,14.7-15.223,19.116a24.2,24.2,0,0,1-12.027,3.719A15.31,15.31,0,0,1,77.334,137.7c-5.752-6.565-7.2-15.107-8.018-23.067-.639-8.076-.232-16.094-.7-23.938A99.059,99.059,0,0,0,64.2,67.515C54.558,37.3,29.632,13.131,0,1.394Z" transform="translate(0)" fill="#4d300f"/>
          </g>
          <g id="Grupo_31-2" data-name="Grupo 31" transform="translate(424.32 295.043)">
            <path id="Caminho_62-2" data-name="Caminho 62" d="M68.212,7.553A260.423,260.423,0,0,1,33.874,5.868,268.1,268.1,0,0,1,0,0C11.5.523,22.834,1.8,34.222,2.963,45.552,4.3,56.882,5.578,68.212,7.553Z" transform="translate(0 0)" fill="#4d300f"/>
          </g>
          <g id="Grupo_32-2" data-name="Grupo 32" transform="translate(444.772 289.404)">
            <path id="Caminho_63-2" data-name="Caminho 63" d="M52.35,3.605c-8.6,2.208-17.663,1.859-26.378,1.1A208.046,208.046,0,0,1,0,0,206.035,206.035,0,0,1,26.2,1.8C34.978,2.734,43.519,3.547,52.35,3.605Z" transform="translate(0 0)" fill="#4d300f"/>
          </g>
          <g id="Grupo_33-2" data-name="Grupo 33" transform="translate(528.962 235.372)">
            <path id="Caminho_64-2" data-name="Caminho 64" d="M27.657,0c-2.15,4.241-3.079,8.832-4.183,13.422a57.472,57.472,0,0,1-4.823,13.6,61.68,61.68,0,0,1-7.96,12.027A48.954,48.954,0,0,1,0,48.573,96.744,96.744,0,0,0,16.094,25.739a83.241,83.241,0,0,0,5.229-12.9C22.834,8.367,24.461,3.66,27.657,0Z" transform="translate(0 0)" fill="#4d300f"/>
          </g>
          <g id="Grupo_34-2" data-name="Grupo 34" transform="translate(483.526 252.57)">
            <path id="Caminho_65-2" data-name="Caminho 65" d="M66.585,0A161.822,161.822,0,0,1,35.617,24.112,169.117,169.117,0,0,1,0,40.555c11.562-6.1,23.008-12.2,34.106-18.941C45.2,14.932,55.952,7.669,66.585,0Z" fill="#4d300f"/>
          </g>
          <g id="Grupo_35-2" data-name="Grupo 35" transform="translate(502.409 70.478)">
            <path id="Caminho_66-2" data-name="Caminho 66" d="M124.687,0A135.6,135.6,0,0,0,85.062,11.446,149.363,149.363,0,0,0,50.433,33.583a184.058,184.058,0,0,0-28.3,29.923A254.359,254.359,0,0,0,0,98.541,194.469,194.469,0,0,1,20.336,62.169,171.018,171.018,0,0,1,48.515,31.317a143.062,143.062,0,0,1,35.617-21.9A117.01,117.01,0,0,1,124.687,0Z" transform="translate(0 0)" fill="#4d300f"/>
          </g>
          <g id="Grupo_36-2" data-name="Grupo 36" transform="translate(648.188 174.829)">
            <path id="Caminho_67-2" data-name="Caminho 67" d="M.349,108.186C15.4,111.44,28.412,119.923,42.008,126.6a120.107,120.107,0,0,0,43.577,12.027,166.527,166.527,0,0,0,45.262-2.44,205.959,205.959,0,0,0,43.519-12.9c13.944-5.926,26.727-14.351,36.953-25.565,10.284-10.981,19.755-23.415,32.189-32.6,12.143-9.354,25.042-17.489,35.442-28.47,10.458-10.865,20.1-22.776,30.271-34.106l1.627,2.266A91.273,91.273,0,0,1,290.1,10.052a162.435,162.435,0,0,1-21.207.988c-14.119-.174-28.121-1.511-42.066-1.1-13.944.291-27.889,2.731-40.323,9.064-12.55,6.043-24.171,14.293-37.592,19.174-13.48,5.345-28.121,4.358-42.008,4.241a119.292,119.292,0,0,0-20.859,1.627A130.032,130.032,0,0,0,65.83,49.5C39.509,59.206,17.024,77.8,0,100.11c16.617-22.544,38.87-41.6,65.307-51.885A119.474,119.474,0,0,1,85.7,42.531a122.588,122.588,0,0,1,21.091-1.8c14,.058,28.3.93,41.311-4.358,13.073-4.881,24.577-13.131,37.3-19.348C198.07,10.458,212.48,7.844,226.6,7.5c14.177-.465,28.18.813,42.182.872a166.678,166.678,0,0,0,20.859-1.1,91.609,91.609,0,0,0,20.045-5.171L315.088,0l-3.777,4.3c-10.052,11.446-19.755,23.125-30.446,34.164-10.691,11.214-23.88,19.348-35.849,28.528-12.26,8.948-21.556,21.033-32.072,32.189-10.4,11.33-23.648,19.929-37.766,25.855a210.74,210.74,0,0,1-43.983,12.782,169.856,169.856,0,0,1-45.726,2.208,121.717,121.717,0,0,1-43.809-12.782C28.18,120.388,15.339,111.672.349,108.186Z" transform="translate(0 0)" fill="#4d300f"/>
          </g>
          <g id="Grupo_37-2" data-name="Grupo 37" transform="translate(579.569 220.614)">
            <path id="Caminho_68-2" data-name="Caminho 68" d="M21.382,67.457c24.519-4.241,49.445-5.752,74.255-7.2,24.81-1.336,49.735-2.557,74.255-6.449,24.519-3.777,48.748-10.284,70.827-21.556,11.039-5.636,21.44-12.434,32.363-18.535C283.945,7.669,295.508,2.266,308,.058l.291,2.266c-13.015,1.22-24.984,7.321-36.6,13.48a339.2,339.2,0,0,1-35.849,17.314,251.185,251.185,0,0,1-77.218,18.651c-13.247.7-26.553.523-39.8.755-13.247.29-26.437,1.046-39.684,2.092C52.7,56.591,26.378,59.671,0,62.4c26.32-3.079,52.582-6.566,79.019-8.948,13.189-1.162,26.436-1.975,39.742-2.266,13.247-.349,26.495-.174,39.684-.988a249.382,249.382,0,0,0,76.579-18.941A330.837,330.837,0,0,0,270.64,13.828C282.26,7.611,294.4,1.162,308.058,0l.29,2.266C296.2,4.358,284.875,9.587,274.01,15.513c-10.865,5.985-21.323,12.724-32.537,18.36C219.1,45.145,194.584,51.537,170.007,55.255,120.736,62.925,70.594,59.729,21.382,67.457Z" transform="translate(0 0)" fill="#4d300f"/>
          </g>
          <g id="Grupo_38-2" data-name="Grupo 38" transform="translate(737.723 314.797)">
            <path id="Caminho_69-2" data-name="Caminho 69" d="M15.107,28.005A78.912,78.912,0,0,1,6.275,14.7,77.2,77.2,0,0,1,0,0,77.786,77.786,0,0,1,8.832,13.305,82.278,82.278,0,0,1,15.107,28.005Z" transform="translate(0 0)" fill="#4d300f"/>
          </g>
          <g id="Grupo_39-2" data-name="Grupo 39" transform="translate(854.508 276.912)">
            <path id="Caminho_70-2" data-name="Caminho 70" d="M32.6,4.36A95.93,95.93,0,0,0,16.443,2.908C11.039,2.792,5.578,3.082,0,2.5A52.875,52.875,0,0,1,16.5,0C22.021.177,27.889,1.281,32.6,4.36Z" transform="translate(0 0)" fill="#4d300f"/>
          </g>
          <g id="Grupo_40-2" data-name="Grupo 40" transform="translate(862.12 268.025)">
            <path id="Caminho_71-2" data-name="Caminho 71" d="M25.216,2.44c-4.358.465-8.483.407-12.608.465C8.425,2.847,4.358,2.963,0,2.5A31.509,31.509,0,0,1,12.608,0,31.643,31.643,0,0,1,25.216,2.44Z" transform="translate(0 0)" fill="#4d300f"/>
          </g>
          <g id="Grupo_58-2" data-name="Grupo 58" transform="translate(0 0)">
            <g id="Grupo_41-2" data-name="Grupo 41" transform="translate(0 118.183)">
              <path id="Caminho_72-2" data-name="Caminho 72" d="M0,3.425A14.122,14.122,0,0,1,7.728.055a21.785,21.785,0,0,1,8.425,1.162C21.614,3.077,26.378,6.33,31.2,9.235c9.645,5.985,19.406,11.795,28.877,18.07S79.368,39.39,88.141,46.653A263.057,263.057,0,0,1,113.3,69.778c15.688,16.5,29.864,34.513,41.369,54.326,11.33,19.755,20.045,41.6,21.614,64.726a107.748,107.748,0,0,1-.174,17.314,8.526,8.526,0,0,1-6.74,7.321,18.4,18.4,0,0,1-4.706.058l-4.241-.232-8.541-.465-4.241-.232-4.3-.639a121.7,121.7,0,0,1-16.85-3.835c-21.9-6.914-42.008-19.929-56.591-37.766-14.99-17.721-22.6-40.439-25.507-62.983a158.057,158.057,0,0,1,5.462-67.747v.407c-.465-2.556-2.382-3.893-4.764-5.229L38.58,30.443c-4.3-2.963-8.541-6.043-12.724-9.122C17.2,15.22,8.832,9,0,3.425Zm0,0C8.948,8.771,17.489,14.813,26.03,20.8c4.3,2.963,8.541,5.926,12.957,8.773l6.624,4.183a22.827,22.827,0,0,1,3.37,2.266,7.758,7.758,0,0,1,2.092,3.66l.058.174-.058.232a160.19,160.19,0,0,0-4.416,66.992c3.2,22.2,10.981,44.216,25.507,61.356C86.4,185.75,106.095,198.3,127.418,204.982a122.542,122.542,0,0,0,16.327,3.66l4.125.581,4.241.232,8.483.407,4.241.232a13.557,13.557,0,0,0,3.777,0,5.052,5.052,0,0,0,4.067-4.358A114.819,114.819,0,0,0,172.912,189c-1.394-22.369-9.819-43.867-20.917-63.389-11.272-19.522-25.158-37.534-40.5-54.151A266.057,266.057,0,0,0,86.863,48.222c-8.6-7.321-18.418-13.131-27.657-19.7-9.3-6.507-18.941-12.492-28.412-18.709C26.03,6.737,21.382,3.425,16.036,1.508A21.331,21.331,0,0,0,7.728.171,15.066,15.066,0,0,0,0,3.425Z" transform="translate(0 0)" fill="#4d300f"/>
            </g>
            <g id="Grupo_42-2" data-name="Grupo 42" transform="translate(151.039 235.198)">
              <path id="Caminho_73-2" data-name="Caminho 73" d="M1.537,94.358c-1.569,13.422-.813,26.9.174,40.323C2.757,148.1,3.4,161.582,3.745,175.12c.349,13.48.349,27.017.058,40.5l-.755,20.22c-.232,6.682,0,13.305,2.034,19.464l-1.22-1.046c.407.116,1.22-.349,1.917-1.336.7-.93,1.394-2.266,2.092-3.428q2.179-3.573,4.183-7.321c2.731-4.881,5.287-9.877,7.786-14.874,4.939-10.052,9.3-20.394,13.247-30.852a278.921,278.921,0,0,0,15.92-65.074,253.591,253.591,0,0,0-.813-66.992,243.523,243.523,0,0,0-7.321-32.828C36.921,21.033,33.435,10.342,29.019,0c4.764,10.168,8.6,20.8,12.9,31.259a212.067,212.067,0,0,1,8.25,32.828,246.508,246.508,0,0,1,1.917,67.631A285.064,285.064,0,0,1,36.4,197.605a301.1,301.1,0,0,1-13.422,31.143c-2.556,5.055-5.171,10.052-7.96,14.99-1.394,2.5-2.789,4.939-4.241,7.321-.755,1.22-1.336,2.382-2.324,3.719-.872,1.162-2.5,2.963-5.055,2.556l-.93-.116-.29-.93c-2.208-6.74-2.324-13.77-2.092-20.568L.956,215.5q.784-20.132.639-40.381c-.058-13.48-.581-26.9-1.1-40.381C-.09,121.259-.439,107.663,1.537,94.358Z" transform="translate(0 0)" fill="#4d300f"/>
            </g>
            <g id="Grupo_43-2" data-name="Grupo 43" transform="translate(150.426 39.865)">
              <path id="Caminho_74-2" data-name="Caminho 74" d="M16.443,173.254C32.072,166.4,47.528,158.728,61.3,148.676c13.77-9.877,25.972-22.369,33.815-37.3,3.893-7.437,6.914-15.455,7.379-23.764.523-8.309-.93-16.733-2.5-25.1a241.575,241.575,0,0,0-14.816-48.69L82.621,7.953c-.872-2.092-1.627-3.66-2.847-4.3a3.774,3.774,0,0,0-4.009.93A8.944,8.944,0,0,0,73.5,9.348L69.606,34.622C66.759,51.53,63.448,68.437,58.335,84.88A207.763,207.763,0,0,1,37.65,132C33,139.206,28.121,146.41,21.9,152.395,15.8,158.438,8.367,163.376,0,165.352c8.309-2.266,15.455-7.437,21.265-13.6,5.926-6.159,10.516-13.363,14.874-20.684a209.379,209.379,0,0,0,19.58-47A417.664,417.664,0,0,0,66.411,34.1L70.187,8.65a11.928,11.928,0,0,1,3.254-6.566A7.1,7.1,0,0,1,81.285.632C84.016,2.143,85,4.874,85.817,6.617l2.615,5.926a248.313,248.313,0,0,1,14.758,49.445c1.511,8.425,2.963,17.082,2.382,25.855-.523,8.89-3.835,17.256-8.018,24.81-8.425,15.281-21.091,27.715-35.21,37.418C47.992,159.774,32.3,166.862,16.443,173.254Z" transform="translate(0 0)" fill="#4d300f"/>
            </g>
            <g id="Grupo_44-2" data-name="Grupo 44" transform="translate(212.886 58.146)">
              <path id="Caminho_75-2" data-name="Caminho 75" d="M0,177.923c13.945-4.183,26.378-12.027,38.987-19.116,12.55-7.2,24.984-14.874,35.849-24.4,10.923-9.471,20.568-20.336,30.678-30.794,10.052-10.516,20.51-20.626,31.2-30.5,10.691-9.819,21.73-19.348,33.118-28.47,11.388-9.064,22.834-18.07,35.268-25.855,12.376-7.728,25.972-14.119,40.439-17.024A80.825,80.825,0,0,1,267.676.188c1.859.116,3.719.349,5.52.581a8.372,8.372,0,0,1,5.52,3.486,9.864,9.864,0,0,1,2.266,5.985,20.721,20.721,0,0,1-.872,5.868c-7.96,28.063-18.941,55.488-34.977,80.007A196.76,196.76,0,0,1,217.3,129.988a173.166,173.166,0,0,1-35.268,25.972A340.7,340.7,0,0,1,142.7,175.018a198.029,198.029,0,0,1-42.3,11.039c-7.2,1.046-14.467,1.8-21.73,2.208a94.826,94.826,0,0,1-21.846-.872c-14.351-1.859-28.761-5.113-43.286-3.486,14.526-1.917,28.993,1.1,43.4,2.615a92.781,92.781,0,0,0,21.614.407c7.2-.581,14.409-1.453,21.556-2.615a197.884,197.884,0,0,0,41.717-11.388,335.427,335.427,0,0,0,38.812-19.348,183.03,183.03,0,0,0,34.513-25.8A195.655,195.655,0,0,0,242.4,94.372c15.746-24.229,26.553-51.362,34.28-79.135a16.287,16.287,0,0,0,.755-4.822,6.6,6.6,0,0,0-1.511-4.009c-.988-1.22-2.034-2.15-3.312-2.208a52.542,52.542,0,0,0-5.287-.581,81.2,81.2,0,0,0-21.207,1.453c-14,2.789-27.25,8.89-39.451,16.443-12.26,7.553-23.706,16.559-35.036,25.507q-16.995,13.6-33.176,28.063c-10.749,9.7-21.265,19.7-31.433,30.039S87.037,126.27,75.881,135.682c-11.214,9.413-23.822,16.85-36.546,23.822C26.669,166.418,14.061,174.03,0,177.923Z" transform="translate(0 0)" fill="#4d300f"/>
            </g>
            <g id="Grupo_45-2" data-name="Grupo 45" transform="translate(265.992 167.304)">
              <path id="Caminho_76-2" data-name="Caminho 76" d="M176.05,4.562a589.764,589.764,0,0,1,140.607-.7c5.81.872,11.679.93,17.663,3.021a14.371,14.371,0,0,1,7.5,6.043,13.788,13.788,0,0,1,1.162,9.587c-1.394,6.449-6.159,11.039-10.458,14.932-4.416,3.893-8.89,7.786-13.48,11.446a388.217,388.217,0,0,1-59.148,38.522,692.5,692.5,0,0,1-64.029,29.516,213.221,213.221,0,0,1-68.5,16.617,193.809,193.809,0,0,1-35.326-.7,131.437,131.437,0,0,1-34.222-8.89A161.856,161.856,0,0,1,0,84.452a160.934,160.934,0,0,0,58.393,37.883c21.73,8.715,45.552,10.458,68.735,8.483a217.192,217.192,0,0,0,67.515-16.908c21.672-8.948,43-18.593,63.622-29.632a378.789,378.789,0,0,0,58.8-37.941c4.59-3.6,9.006-7.437,13.422-11.214,4.3-3.835,8.483-8.018,9.587-13.247a11.157,11.157,0,0,0-.813-7.553,11.106,11.106,0,0,0-5.926-4.764c-5.113-1.975-11.156-2.208-16.908-3.079A633.533,633.533,0,0,0,176.05,4.562Z" transform="translate(0 0)" fill="#4d300f"/>
            </g>
            <g id="Grupo_46-2" data-name="Grupo 46" transform="translate(295.217 320.027)">
              <path id="Caminho_77-2" data-name="Caminho 77" d="M22.718,0c19.755,6.914,39.8,14,57.521,25.623a102.207,102.207,0,0,1,23.415,21.324c6.566,8.367,11.62,17.779,16.152,27.308a208.406,208.406,0,0,1,18.767,60.368,161.014,161.014,0,0,1,1.336,31.724c-.7,10.516-2.615,21.556-8.715,30.794l.291-.93a5.793,5.793,0,0,1-2.092,4.3,10.7,10.7,0,0,1-11.795,1.22c-4.764-2.963-6.624-7.844-8.773-11.911-4.183-8.425-7.728-17.14-11.214-25.8C90.756,146.65,82.97,129.8,73.092,113.938,53.512,82.273,28.005,54.442,0,29.748A439.9,439.9,0,0,1,40.846,68.154a322.434,322.434,0,0,1,34.4,44.39c10.226,15.746,18.3,32.886,25.216,50.258,3.544,8.657,7.088,17.256,11.272,25.507,2.092,4.067,4.067,8.483,7.5,10.458a6.56,6.56,0,0,0,5.462.407c1.917-.523,3.428-1.917,3.37-3.079v-.465l.291-.465c5.52-8.483,7.5-18.883,8.192-29.167a158.9,158.9,0,0,0-1.1-31.085c-2.789-20.626-9.413-40.672-18.128-59.613-4.358-9.471-9.18-18.825-15.4-27.076a99.522,99.522,0,0,0-22.6-21.265C62.053,15.107,42.3,7.437,22.718,0Z" transform="translate(0 0)" fill="#4d300f"/>
            </g>
            <g id="Grupo_47-2" data-name="Grupo 47" transform="translate(492.646 293.551)">
              <path id="Caminho_78-2" data-name="Caminho 78" d="M10.461,4.28C36.316-1.588,63.74-1.646,89.538,5.5a134.546,134.546,0,0,1,36.546,16.21,226.406,226.406,0,0,1,31.549,24.577l29.4,26.9c4.881,4.358,10.168,8.425,15.4,12.492L218,98.057c21.091,15.92,45.32,27.076,69.374,38.173l.639.291.232.581c1.278,3.37-1.394,6.043-3.486,6.74-1.8.813-3.66,1.511-5.52,2.208a97.091,97.091,0,0,1-11.33,3.312,176.215,176.215,0,0,1-23.183,3.6c-15.455,1.394-30.91,2.789-46.482,3.37-15.571.523-31.259.058-46.656-2.731-15.455-2.731-30.213-8.425-44.216-15.107-14.061-6.682-27.657-14.467-39.974-24.112A128.61,128.61,0,0,1,36.258,79.7a96.28,96.28,0,0,1-9.587-21.323c-2.208-7.437-4.59-14.758-8.831-21.265C13.714,30.542,9.415,24.093,5.232,17.586l-3.2-4.881C.99,11.078-.056,9.277,0,7.243c-.058-1.162,1.1-1.685,1.917-2.092A15.528,15.528,0,0,1,4.709,4.28C6.568,3.932,8.66,3.525,10.461,4.28Zm0,0c-1.8-.7-3.835-.29-5.694.058a15.131,15.131,0,0,0-2.731.93c-.813.407-1.859.93-1.8,1.917a9.374,9.374,0,0,0,2.092,5.229L5.58,17.237c4.358,6.449,8.773,12.782,13.015,19.29a65.19,65.19,0,0,1,5.52,10.342c1.511,3.6,2.615,7.379,3.835,10.981a97.324,97.324,0,0,0,9.819,20.8A126.338,126.338,0,0,0,68.8,112.408c12.2,9.413,25.739,16.966,39.742,23.415s28.412,12.085,43.577,14.642c15.107,2.731,30.62,3.137,46.017,2.557,15.4-.639,30.852-2.092,46.249-3.544a184.921,184.921,0,0,0,22.718-3.6,103.15,103.15,0,0,0,10.981-3.2c1.8-.639,3.544-1.336,5.287-2.092a2.208,2.208,0,0,0,1.8-2.266l.813.872c-24.054-11.214-48.457-22.486-69.839-38.812-5.345-4.067-10.284-8.425-15.571-12.434-5.229-4.067-10.516-8.192-15.513-12.666L155.948,48.089A225.542,225.542,0,0,0,124.98,23.4,137.372,137.372,0,0,0,89.131,6.953C63.74-.6,36.432-1.123,10.461,4.28Z" transform="translate(0 0)" fill="#4d300f"/>
            </g>
            <g id="Grupo_48-2" data-name="Grupo 48" transform="translate(591.131 425.598)">
              <path id="Caminho_79-2" data-name="Caminho 79" d="M105.746,22.2l30.91,19.755c10.052,6.914,20.045,14.526,27.076,25.1,1.627,2.673,3.021,5.985,2.673,9.471a13.57,13.57,0,0,1-4.59,8.89c-4.939,4.474-11.446,6.333-17.6,7.088-12.492,1.685-24.984-.291-36.895-3.138-23.88-5.985-46.888-15.8-67.108-29.923A110.745,110.745,0,0,1,13.828,33.757,77.946,77.946,0,0,1,0,0C2.266,12.027,7.844,23.183,15.223,32.77A111.128,111.128,0,0,0,41.775,57.289a206.7,206.7,0,0,0,66.411,28.7c11.737,2.905,23.822,4.881,35.675,3.37,5.926-.7,11.678-2.382,15.978-6.159a10.667,10.667,0,0,0,3.719-6.914c.349-2.615-.639-5.345-2.092-7.844-6.333-10.052-15.92-17.954-25.739-25.1Z" transform="translate(0 0)" fill="#4d300f"/>
            </g>
            <g id="Grupo_49-2" data-name="Grupo 49" transform="translate(497.579 280.505)">
              <path id="Caminho_80-2" data-name="Caminho 80" d="M163.449,71.71c17.837,3.719,36.2,3.37,54.267,2.092,9.064-.639,18.128-1.453,27.134-2.324,8.948-.93,17.954-2.5,25.855-6.449l-.7,1.743a4.681,4.681,0,0,0-1.975-2.208h-4.125c-2.963-.058-5.984-.116-8.948-.29-5.984-.291-11.911-.872-17.837-1.685a217.5,217.5,0,0,1-34.978-7.844c-23.008-7.03-43.809-19.174-64.842-29.981-20.975-10.807-43-20.51-66.585-22.311C47.187.593,23.481,4.776.473,10.412l.058-.058a5.458,5.458,0,0,0,.058,3.719,5.351,5.351,0,0,0,2.266,3.021A5.99,5.99,0,0,1,.473,14.131,5.15,5.15,0,0,1,.3,10.3v-.058H.357C23.133,3.847,46.78-1.325,70.834.3,94.947,1.639,117.607,11.284,138.7,22.091c21.207,10.807,41.892,22.427,64.435,29.574a217.194,217.194,0,0,0,34.4,7.96q8.715,1.22,17.6,1.743c2.963.174,5.868.29,8.832.349h3.312a8.472,8.472,0,0,1,1.453.116c2.382.93,3.079,2.266,3.951,4.125l.523,1.162-1.278.581c-8.483,4.067-17.837,5.4-26.9,6.217-9.122.7-18.128,1.394-27.25,1.8C199.647,76.358,181.228,76.009,163.449,71.71Z" transform="translate(0 0)" fill="#4d300f"/>
            </g>
            <g id="Grupo_50-2" data-name="Grupo 50" transform="translate(567.6 14.292)">
              <path id="Caminho_81-2" data-name="Caminho 81" d="M10.168,267.736a191.5,191.5,0,0,0,82.97-95.694,195.434,195.434,0,0,0,9.18-30.794c2.208-10.516,3.777-21.149,5.287-31.84a468.313,468.313,0,0,1,12.608-63.738c2.963-10.458,6.275-20.742,9.994-30.968l2.847-7.611,1.511-3.777c.291-.93,0-.174.407.058.116.058-.407-.116-.872-.116a13.827,13.827,0,0,0-3.486.872c-1.278.407-2.556.755-3.777,1.22-2.5.872-5,1.859-7.437,2.905C99.819,16.909,83.493,31.492,69.025,47.3A357.055,357.055,0,0,0,30.62,99.123a553.693,553.693,0,0,0-30.62,57,567.573,567.573,0,0,1,29.167-57.87A355.036,355.036,0,0,1,66.992,45.495C81.285,29.226,97.96,14.41,118.064,5.346c2.5-1.1,5.055-2.15,7.611-3.079,1.278-.523,2.615-.872,3.893-1.278A14.617,14.617,0,0,1,133.925,0a4.5,4.5,0,0,1,2.963.755,2.7,2.7,0,0,1,1.046,2.208,3.714,3.714,0,0,1-.407,1.511l-1.453,3.777L133.286,15.8c-3.66,10.11-6.856,20.394-9.761,30.736a465.925,465.925,0,0,0-12.841,63.273c-3.021,21.323-6.566,43.054-15.107,63.215a189.673,189.673,0,0,1-34.513,54.907A186.8,186.8,0,0,1,10.168,267.736Z" transform="translate(0 0)" fill="#4d300f"/>
            </g>
            <g id="Grupo_51-2" data-name="Grupo 51" transform="translate(681.248 0)">
              <path id="Caminho_82-2" data-name="Caminho 82" d="M82.331,215.21a135.8,135.8,0,0,0,25.623-57.056,125.255,125.255,0,0,0-3.486-61.995A126.586,126.586,0,0,0,91.453,67.805,133.931,133.931,0,0,0,71.7,43.577c-14.932-14.7-32.421-26.553-49.91-38.347l2.673-1.743a36.9,36.9,0,0,1-.813,15.746,111.062,111.062,0,0,1-5.462,14.351,78.306,78.306,0,0,0-4.823,14,48.874,48.874,0,0,0-.7,14.584c.639,9.877,2.557,20.045,2.034,30.329-.291,10.168-1.569,20.22-1.917,30.213-.523,9.935.872,19.987,1.278,30.1a264.128,264.128,0,0,1,.349,30.329c-.813,10.11-1.8,20.1-3.428,30.155C9.3,223.228,5.81,233.048,0,241.3c5.636-8.425,8.773-18.186,10.168-28.121,1.336-9.935,2.092-20.045,2.615-30.1a290.332,290.332,0,0,0-.813-30.155c-.581-10.052-2.092-20.045-1.743-30.329.232-10.168,1.336-20.22,1.569-30.213.465-9.994-1.453-19.813-2.15-30.039a53.725,53.725,0,0,1,.7-15.513,76.944,76.944,0,0,1,4.939-14.584A109.944,109.944,0,0,0,20.51,18.3a32.8,32.8,0,0,0,.7-14.235L20.336,0l3.428,2.324C41.194,14.177,58.8,26.262,73.964,41.253c15.223,14.874,27.192,33.467,33.118,54.035a127.86,127.86,0,0,1,2.557,63.157A135.823,135.823,0,0,1,82.331,215.21Z" transform="translate(0 0)" fill="#4d300f"/>
            </g>
            <g id="Grupo_52-2" data-name="Grupo 52" transform="translate(791.758 43.699)">
              <path id="Caminho_83-2" data-name="Caminho 83" d="M0,169.884a299.854,299.854,0,0,0,71-60.949,287.143,287.143,0,0,0,48.4-79.716c1.569-3.6,2.905-7.263,4.183-10.923,1.162-3.6,3.021-7.5,3.312-10.749a4.063,4.063,0,0,0-1.569-3.777,2.219,2.219,0,0,0-1.569-.523c-.407.058-1.743.523-2.615.7-3.893,1.046-7.786,1.743-11.62,2.5-7.786,1.336-14.99,3.254-21.788,7.321A205.224,205.224,0,0,0,67.747,25.849,246.4,246.4,0,0,0,31.9,56,359.009,359.009,0,0,0,.93,91.388C19.116,65.882,40.323,42,66.178,23.641a179.011,179.011,0,0,1,20.1-12.55A55.108,55.108,0,0,1,97.263,6.153a105.4,105.4,0,0,1,11.62-2.789c3.835-.755,7.67-1.511,11.388-2.5a24.984,24.984,0,0,1,3.079-.813,5.408,5.408,0,0,1,3.951,1.1,7.458,7.458,0,0,1,2.905,6.566c-.407,4.648-2.208,7.9-3.428,11.737-1.278,3.719-2.615,7.437-4.183,11.1a283.06,283.06,0,0,1-49.619,80.181A277.874,277.874,0,0,1,0,169.884Z" transform="translate(0 0)" fill="#4d300f"/>
            </g>
            <g id="Grupo_53-2" data-name="Grupo 53" transform="translate(758.407 298.819)">
              <path id="Caminho_84-2" data-name="Caminho 84" d="M63.8,0c20.22,2.905,39.335,11.214,56.591,22.021a278.133,278.133,0,0,1,47.353,38.754c14.235,14.584,26.436,32.014,32.189,51.943a95.29,95.29,0,0,1-3.021,60.949l-1.569,3.6a10.876,10.876,0,0,1-2.963,3.486,7.676,7.676,0,0,1-4.532,1.685,14.8,14.8,0,0,1-4.3-.7c-5-1.8-9.587-3.6-14.351-5.462-9.471-3.66-18.941-7.437-28.354-11.446-18.709-8.018-37.185-16.966-54.326-28.121a236.22,236.22,0,0,1-24.635-18.186l-11.62-9.877-5.81-4.939-6.1-4.59A66.185,66.185,0,0,1,26.959,88.78c-3.37-3.893-6.275-8.076-9.238-12.2L0,51.711,18.36,76.056c5.985,8.192,12.376,16.152,20.975,21.672,2.034,1.453,4.183,2.905,6.217,4.474l5.926,4.822,11.795,9.7A247.462,247.462,0,0,0,87.967,134.39a382.065,382.065,0,0,0,54.151,27.482c9.354,3.951,18.825,7.669,28.3,11.272,4.706,1.8,9.587,3.66,14.177,5.287,4.764,1.8,7.379-.988,9.064-6.159a91.9,91.9,0,0,0,3.2-58.8c-5.4-19.348-17.373-36.314-31.085-51.014A278.729,278.729,0,0,0,119.458,23.3C102.667,12.26,83.958,3.428,63.8,0Z" transform="translate(0 0)" fill="#4d300f"/>
            </g>
            <g id="Grupo_54-2" data-name="Grupo 54" transform="translate(892.449 88.188)">
              <path id="Caminho_85-2" data-name="Caminho 85" d="M44.332,95.241A98.685,98.685,0,0,0,71.64,47.423,97.237,97.237,0,0,0,74.2,19.94,77.11,77.11,0,0,0,72.4,6.286a17.8,17.8,0,0,0-.7-2.905c-.058-.058.116,0-.116-.058a5.171,5.171,0,0,0-1.1.174,33.582,33.582,0,0,0-6.159,2.556C56.359,10.3,49.968,17.21,43.577,24.008A251.31,251.31,0,0,0,25.914,45.622C20.22,52.942,17.837,62.064,14,70.722A149.692,149.692,0,0,1,0,95.183a146.193,146.193,0,0,0,12.434-25.1c3.428-8.541,5.636-18.07,11.272-25.972a208.81,208.81,0,0,1,17.547-22.2C47.586,15.06,54.035,7.8,62.692,3.033A31.856,31.856,0,0,1,69.548.3,6.861,6.861,0,0,1,71.872.011,3.365,3.365,0,0,1,74.6,1.7a15.1,15.1,0,0,1,1.046,3.893,83.554,83.554,0,0,1,1.685,14.177,92.891,92.891,0,0,1-3.138,28.3,99.575,99.575,0,0,1-11.33,25.972A92.334,92.334,0,0,1,44.332,95.241Z" transform="translate(0 0)" fill="#4d300f"/>
            </g>
            <g id="Grupo_55-2" data-name="Grupo 55" transform="translate(872.171 30.473)">
              <path id="Caminho_86-2" data-name="Caminho 86" d="M0,229.127c29.632-3.66,58.393-12.2,86.107-23.008a411.507,411.507,0,0,0,40.672-18.244,137.955,137.955,0,0,0,35.21-26.553c20.394-21.44,36.721-46.772,48.922-73.732a271.9,271.9,0,0,0,15.048-41.834c1.975-7.147,3.544-14.409,4.939-21.672.7-3.66,1.22-7.321,1.8-10.981.523-3.544.7-7.263-1.162-9.7l.7.523c-6.159-2.266-12.957-.291-19.058,2.556-6.217,2.905-12.376,6.275-18.418,9.587-12.143,6.682-23.938,14.061-35.384,21.9A442.356,442.356,0,0,0,95.346,91.309,423.373,423.373,0,0,1,158.27,36.344c11.388-8.076,23.125-15.629,35.268-22.544,6.1-3.428,12.143-6.856,18.476-9.935C218.232.844,225.959-1.48,233.28,1.134l.465.174.29.349c2.673,3.777,2.208,8.251,1.743,11.911-.581,3.719-1.1,7.437-1.8,11.1-1.336,7.379-2.905,14.7-4.881,21.963a274.414,274.414,0,0,1-14.99,42.415,267.656,267.656,0,0,1-21.788,39.335,240.276,240.276,0,0,1-28.063,35.152,135.515,135.515,0,0,1-36.14,26.843,435.311,435.311,0,0,1-41.194,17.721C58.916,218.611,29.748,226.164,0,229.127Z" transform="translate(0 0)" fill="#4d300f"/>
            </g>
            <g id="Grupo_56-2" data-name="Grupo 56" transform="translate(880.079 236.3)">
              <path id="Caminho_87-2" data-name="Caminho 87" d="M6.327,34.63q34.948-10.11,70.42-18.012c23.706-5.171,47.411-10.342,71.466-13.6a238.562,238.562,0,0,1,72.744-.465C232.925,4.3,245.3,6.974,256.05,13.249c5.4,3.021,10.4,6.449,15.455,9.935a10.078,10.078,0,0,1,3.486,4.183,4.823,4.823,0,0,1,.116,3.254,8.954,8.954,0,0,1-1.162,2.5c-2.092,2.963-4.532,4.59-6.8,6.74-19.174,15.8-42.763,24.17-65.83,31.259A224.572,224.572,0,0,1,165.7,79.311a186.928,186.928,0,0,1-36.488,1.278C104.868,79.195,81.046,73.5,58.1,65.715c-11.5-3.835-22.776-8.309-33.932-13.073-5.578-2.382-11.1-4.823-16.617-7.321C4.874,44.043,1.679,43.055.168,40.266c-.7-1.569.93-2.847,2.034-3.66A17.966,17.966,0,0,1,6.327,34.63Zm0,0A15.687,15.687,0,0,0,2.26,36.664c-1.1.813-2.731,2.092-2.034,3.6,1.511,2.731,4.706,3.719,7.379,5,5.52,2.5,11.1,4.881,16.675,7.2,11.156,4.648,22.485,9.006,33.99,12.782,23.009,7.5,46.888,12.608,71.059,13.6a187.207,187.207,0,0,0,36.082-1.917c11.911-1.8,23.531-5.055,35.094-8.657,22.95-7.2,46.075-15.688,64.493-31.085,2.15-1.975,4.764-3.893,6.217-5.926a6.459,6.459,0,0,0,.755-1.569,1.981,1.981,0,0,0,0-1.162,6.726,6.726,0,0,0-2.266-2.673c-4.88-3.428-9.877-6.914-15.048-9.819-10.284-6.1-22.021-8.773-33.99-10.575C196.9,1.8,172.5,1.105,148.561,4.708,100.452,10.925,52.983,21.557,6.327,34.63Z" transform="translate(0 0)" fill="#4d300f"/>
            </g>
            <g id="Grupo_57-2" data-name="Grupo 57" transform="translate(1073.089 59.435)">
              <path id="Caminho_88-2" data-name="Caminho 88" d="M0,119.927q25.362-8.628,49.91-19.174c16.327-7.03,32.363-14.874,47.353-24.345a261.41,261.41,0,0,0,42.124-32.3A228.874,228.874,0,0,0,157.515,24.7c2.847-3.37,5.578-6.856,8.134-10.458,1.22-1.8,2.847-3.6,3.312-5.171a2.029,2.029,0,0,0-.116-1.859c-.349-.581-.813-.7-.93-.639l-.639.349-.814-.581c-4.532-3.37-10.807-3.6-16.733-2.905-6.159.7-12.26,1.453-18.418,2.382-12.26,1.8-24.461,3.66-36.6,6.1-12.143,2.324-24.171,5.229-36.2,8.192Q40.468,24.639,22.776,30.333A544.11,544.11,0,0,1,94.3,9.649c12.143-2.615,24.345-4.939,36.663-6.74,6.159-.93,12.318-1.743,18.476-2.5,6.159-.813,13.305-.755,19,3.37l-1.394-.232c4.474-.813,6.217,4.125,5.113,6.624-.988,2.731-2.5,4.241-3.777,6.159-2.615,3.66-5.345,7.2-8.192,10.691A203.519,203.519,0,0,1,141.711,46.66,267.222,267.222,0,0,1,98.832,79.081c-15.339,9.3-31.666,16.792-48.225,23.531C34.048,109.178,17.082,114.814,0,119.927Z" transform="translate(0 0)" fill="#4d300f"/>
            </g>
          </g>
          <g id="Grupo_60-2" data-name="Grupo 60" transform="translate(205.272 254.876)">
            <g id="Grupo_59-2" data-name="Grupo 59" transform="translate(0 0)">
              <path id="Caminho_89-2" data-name="Caminho 89" d="M65.659,2.052a63.485,63.485,0,0,0-17.837-.7A62.22,62.22,0,0,0,30.8,6.294a55.921,55.921,0,0,0-14.409,9.935C12.147,20.18,9.3,25.351,7.266,30.813A59.205,59.205,0,0,0,5.7,65.151a53.038,53.038,0,0,0,19,28.238A49.287,49.287,0,0,0,57.06,103.557a60.345,60.345,0,0,0,32.6-11.1c9.471-6.74,17.14-16.443,20.51-27.773,3.486-11.156,2.266-24.054-4.241-34.222,7.379,9.645,9.3,22.892,6.333,34.8C109.119,77.236,101.45,87.695,91.63,95.132a61.061,61.061,0,0,1-34.455,12.318A53.915,53.915,0,0,1,22.024,96.759,57.29,57.29,0,0,1,1.8,66.023,60.449,60.449,0,0,1,4.071,29.476c2.324-5.694,5.636-11.272,10.4-15.4A56.924,56.924,0,0,1,29.926,4.2,60.536,60.536,0,0,1,47.647.077,60.2,60.2,0,0,1,65.659,2.052Z" fill="#4d300f"/>
            </g>
            <path id="Caminho_90-2" data-name="Caminho 90" d="M4.718,3.37A5.631,5.631,0,0,1,7.216,0,4.851,4.851,0,0,1,8.9,2.905c.116,1.336-.813,2.5-1.8,3.428A6.318,6.318,0,0,1,3.265,8.425C1.813,8.541.128,7.553.012,6.1-.163,4.416,1.639,3.2,3.324,2.905" transform="translate(24.685 23.782)" fill="#4d300f"/>
          </g>
          <g id="Grupo_64-2" data-name="Grupo 64" transform="translate(987.082 170.414)">
            <g id="Grupo_63-2" data-name="Grupo 63" transform="translate(0 0)">
              <g id="Grupo_61-2" data-name="Grupo 61" transform="translate(67.355 0)">
                <path id="Caminho_91-2" data-name="Caminho 91" d="M33.467,68.27a58.28,58.28,0,0,0,1.685-20.917A70.2,70.2,0,0,0,29.4,27.482,56.794,56.794,0,0,0,17.9,10.458,38.458,38.458,0,0,0,0,0,31.3,31.3,0,0,1,10.691,2.15,38.057,38.057,0,0,1,20.1,7.96C26.03,12.724,30.155,19,33.351,25.681c2.963,6.8,5.055,13.945,5.171,21.44A43.245,43.245,0,0,1,33.467,68.27Z" transform="translate(0)" fill="#4d300f"/>
              </g>
              <g id="Grupo_62-2" data-name="Grupo 62" transform="translate(0 54.79)">
                <path id="Caminho_92-2" data-name="Caminho 92" d="M1,0A48.1,48.1,0,0,1,5.012,9.935,44.427,44.427,0,0,1,7.045,20.452C3.792,18.128,1.991,14.7.828,11.156A17.478,17.478,0,0,1,1,0Z" fill="#4d300f"/>
              </g>
            </g>
            <path id="Caminho_93-2" data-name="Caminho 93" d="M6.01,3.641A3.051,3.051,0,0,0,4.267.213a3.174,3.174,0,0,0-3.719,1.1A4.8,4.8,0,0,0,.142,4.8,4.269,4.269,0,0,0,1.13,7.011a2.839,2.839,0,0,0,3.777,0A3.489,3.489,0,0,0,5.72,3.177" transform="translate(84.586 48.883)" fill="#4d300f"/>
          </g>
          <g id="Grupo_91-2" data-name="Grupo 91" transform="translate(75.475 27.599)">
            <g id="Grupo_65-2" data-name="Grupo 65" transform="translate(174.365 58.509)">
              <path id="Caminho_94-2" data-name="Caminho 94" d="M206.844,0a469.551,469.551,0,0,1-44.681,43.983A518.457,518.457,0,0,1,112.2,81.924,520.621,520.621,0,0,1,57.87,113.3,462.475,462.475,0,0,1,0,137.47a584.943,584.943,0,0,0,57.056-25.8,549.667,549.667,0,0,0,53.861-31.724,561.236,561.236,0,0,0,50.142-37.36A609.177,609.177,0,0,0,206.844,0Z" transform="translate(0)" fill="#4d300f"/>
            </g>
            <g id="Grupo_66-2" data-name="Grupo 66" transform="translate(0 152.634)">
              <path id="Caminho_95-2" data-name="Caminho 95" d="M92.15,140.84q-8.541-19.348-18.593-38c-6.74-12.376-13.828-24.519-21.614-36.256-7.611-11.853-15.92-23.241-24.577-34.338C18.651,21.149,9.587,10.4,0,0A374.06,374.06,0,0,1,28.761,31.143,423.411,423.411,0,0,1,53.919,65.307a412.624,412.624,0,0,1,21.265,36.721A390.246,390.246,0,0,1,92.15,140.84Z" transform="translate(0 0)" fill="#4d300f"/>
            </g>
            <g id="Grupo_67-2" data-name="Grupo 67" transform="translate(208.529 166.521)">
              <path id="Caminho_96-2" data-name="Caminho 96" d="M274.707,0q-33.728,10.2-67.631,19.871L139.329,39.335C116.553,45.262,93.544,50.258,70.3,53.977S23.531,59.961,0,59.09a309.17,309.17,0,0,0,35.152-1.975q17.518-1.743,34.861-4.706c23.125-3.951,46.017-9.18,68.677-15.339L206.611,18.36Q240.6,8.948,274.707,0Z" transform="translate(0 0)" fill="#4d300f"/>
            </g>
            <g id="Grupo_68-2" data-name="Grupo 68" transform="translate(373.074 324.543)">
              <path id="Caminho_97-2" data-name="Caminho 97" d="M24.4,80.2a51.986,51.986,0,0,0,6.8-22.369,59.346,59.346,0,0,0-2.847-23.008,74.95,74.95,0,0,0-10.633-20.8,70.16,70.16,0,0,0-7.437-9.064C7.611,2.224,4.125-.216,0,.19,4.009-.681,8.018,1.585,11.039,4.083a69.314,69.314,0,0,1,8.134,8.89A73.009,73.009,0,0,1,30.562,34.122,57.6,57.6,0,0,1,33,58.06,46.749,46.749,0,0,1,24.4,80.2Z" transform="translate(0 0)" fill="#4d300f"/>
            </g>
            <g id="Grupo_71-2" data-name="Grupo 71" transform="translate(470.279 0)">
              <g id="Grupo_69-2" data-name="Grupo 69" transform="translate(52.931 0)">
                <path id="Caminho_98-2" data-name="Caminho 98" d="M91.337,0A319.814,319.814,0,0,0,63.215,33.351a397.611,397.611,0,0,0-23.88,36.488C31.9,82.331,25.158,95.229,18.709,108.3S6.1,134.565,0,147.812c5.287-13.6,10.865-27.076,17.082-40.265,6.159-13.247,12.957-26.2,20.22-38.87A355.185,355.185,0,0,1,61.763,32.3,247.586,247.586,0,0,1,91.337,0Z" transform="translate(0)" fill="#4d300f"/>
              </g>
              <g id="Grupo_70-2" data-name="Grupo 70" transform="translate(0 185.52)">
                <path id="Caminho_99-2" data-name="Caminho 99" d="M40.439,0c-2.731,12.55-8.251,24.345-14.99,35.268C18.476,46.017,10.168,56.069,0,63.912A183.809,183.809,0,0,0,23.473,34.048,180.737,180.737,0,0,0,40.439,0Z" fill="#4d300f"/>
              </g>
            </g>
            <g id="Grupo_72-2" data-name="Grupo 72" transform="translate(696.645 29.225)">
              <path id="Caminho_100-2" data-name="Caminho 100" d="M134.681,0c-12.492,12.143-25.042,24.229-37.127,36.721S73.848,62.169,63.622,76.23c-10.807,13.6-21.091,27.657-31.666,41.485Q16.094,138.545,0,159.026q15.077-21.353,30.562-42.415C40.846,102.55,51.188,88.548,61.879,74.719,82.679,46.714,108.651,23.008,134.681,0Z" transform="translate(0)" fill="#4d300f"/>
            </g>
            <g id="Grupo_73-2" data-name="Grupo 73" transform="translate(647.142 47.992)">
              <path id="Caminho_101-2" data-name="Caminho 101" d="M0,144.616a121.642,121.642,0,0,0,17.663-33.467,131.877,131.877,0,0,0,7.2-37.011A155,155,0,0,0,22.253,36.43,200,200,0,0,0,11.5,0,160.829,160.829,0,0,1,24,36.081a145.247,145.247,0,0,1,3.2,38.173,129.1,129.1,0,0,1-7.844,37.476A107.2,107.2,0,0,1,0,144.616Z" transform="translate(0 0)" fill="#4d300f"/>
            </g>
            <g id="Grupo_76-2" data-name="Grupo 76" transform="translate(580.44 419.962)">
              <g id="Grupo_74-2" data-name="Grupo 74" transform="translate(0 0.523)">
                <path id="Caminho_102-2" data-name="Caminho 102" d="M99.238,53.163c-9.006-2.905-17.954-5.926-26.785-9.354Q59.206,38.754,46.365,32.537A212.214,212.214,0,0,1,21.73,18.244,139.089,139.089,0,0,1,0,0,192.552,192.552,0,0,0,22.718,16.792,261.031,261.031,0,0,0,47.353,30.5c8.425,4.242,17.082,7.96,25.739,11.679Z" transform="translate(0 0)" fill="#4d300f"/>
              </g>
              <g id="Grupo_75-2" data-name="Grupo 75" transform="translate(7.902 0)">
                <path id="Caminho_103-2" data-name="Caminho 103" d="M91.86,50.781c-8.018-3.66-16.21-6.914-24.345-10.226-8.192-3.312-16.269-6.682-24.345-10.342A180.886,180.886,0,0,1,19.929,17.431,93.609,93.609,0,0,1,0,0,118.35,118.35,0,0,0,20.917,15.92a227.429,227.429,0,0,0,23.3,12.2c7.9,3.777,16.036,7.147,24.054,10.807C76.23,42.531,84.19,46.366,91.86,50.781Z" transform="translate(0)" fill="#4d300f"/>
              </g>
            </g>
            <g id="Grupo_77-2" data-name="Grupo 77" transform="translate(417.057 270.233)">
              <path id="Caminho_104-2" data-name="Caminho 104" d="M0,4.764,53.628,36.72l53.454,32.3,26.727,16.152c8.832,5.52,17.6,11.1,26.553,16.327,17.837,10.516,36.488,20.1,56.475,25.391h-.581c-.058,0-.291,0-.465.523-.058.349.058.465,0,.407,0-.058-.232-.291-.407-.407a8.507,8.507,0,0,0-1.394-.988,20.639,20.639,0,0,0-3.2-1.627c-2.15-.7-4.881-1.394-7.263-2.266a98.487,98.487,0,0,1-14-6.391c-9.006-4.939-17.373-10.633-25.972-16.094C146.534,88.954,129.742,77.508,112.951,66,79.309,43.17,45.843,20.045,10.458,0c17.9,9.7,35.326,20.161,52.524,31.027,17.14,10.981,33.99,22.369,50.839,33.7s33.7,22.718,50.781,33.7c8.6,5.4,17.082,11.039,25.914,15.862a100.223,100.223,0,0,0,13.712,6.217c2.382.93,4.648,1.394,7.321,2.266a20.86,20.86,0,0,1,3.6,1.8,11.274,11.274,0,0,1,1.685,1.22,5.011,5.011,0,0,1,.872.988,1.766,1.766,0,0,1,.232,1.278,1.615,1.615,0,0,1-1.162,1.1l-.232.116-.232-.058c-20.336-5.462-39.045-15.281-56.882-25.972-8.948-5.345-17.721-10.981-26.495-16.559L106.327,70.362,53.105,37.708Z" transform="translate(0 0)" fill="#4d300f"/>
            </g>
            <g id="Grupo_80-2" data-name="Grupo 80" transform="translate(836.787 74.08)">
              <g id="Grupo_78-2" data-name="Grupo 78" transform="translate(43.635 0)">
                <path id="Caminho_105-2" data-name="Caminho 105" d="M4.764,0a10.586,10.586,0,0,1-1.1,5.578C2.731,7.2,1.8,8.89,0,9.935A15.5,15.5,0,0,1,1.569,4.59,18.188,18.188,0,0,1,4.764,0Z" transform="translate(0)" fill="#4d300f"/>
              </g>
              <g id="Grupo_79-2" data-name="Grupo 79" transform="translate(0 16.385)">
                <path id="Caminho_106-2" data-name="Caminho 106" d="M40.9,0c-3.893,12.492-9.761,24.287-16.5,35.5A161.045,161.045,0,0,1,0,66.12,353.2,353.2,0,0,0,22.427,34.28,353.158,353.158,0,0,0,40.9,0Z" transform="translate(0 0)" fill="#4d300f"/>
              </g>
            </g>
            <g id="Grupo_83-2" data-name="Grupo 83" transform="translate(855.031 39.219)">
              <g id="Grupo_81-2" data-name="Grupo 81" transform="translate(85.352 0)">
                <path id="Caminho_107-2" data-name="Caminho 107" d="M56.127,0c-3.6,6.74-7.437,13.363-11.678,19.755-4.183,6.391-8.715,12.55-13.364,18.651C26.32,44.39,21.44,50.258,16.269,55.894S5.636,66.876,0,71.989c5.055-5.694,10.052-11.5,14.932-17.314S24.693,43,29.283,36.953C34.048,31.027,38.522,24.868,43,18.709,47.411,12.55,51.827,6.275,56.127,0Z" transform="translate(0)" fill="#4d300f"/>
              </g>
              <g id="Grupo_82-2" data-name="Grupo 82" transform="translate(0 88.548)">
                <path id="Caminho_108-2" data-name="Caminho 108" d="M71,0A172.775,172.775,0,0,1,55.894,16.85,218.944,218.944,0,0,1,38.812,31.724,212.077,212.077,0,0,1,20.1,44.448,163.742,163.742,0,0,1,0,54.732c6.507-3.719,12.9-7.669,19.174-11.795,6.217-4.125,12.376-8.425,18.244-13.073C43.4,25.391,49.1,20.51,54.674,15.513S65.714,5.345,71,0Z" transform="translate(0 0)" fill="#4d300f"/>
              </g>
            </g>
            <g id="Grupo_86-2" data-name="Grupo 86" transform="translate(848.175 253.964)">
              <g id="Grupo_84-2" data-name="Grupo 84" transform="translate(152.925 0)">
                <path id="Caminho_109-2" data-name="Caminho 109" d="M20.684,0a26.282,26.282,0,0,1-9.7,5.229A26.032,26.032,0,0,1,0,6.159c3.486-1.278,6.972-2.034,10.342-3.2C13.712,2.15,17.024.872,20.684,0Z" transform="translate(0)" fill="#4d300f"/>
              </g>
              <g id="Grupo_85-2" data-name="Grupo 85" transform="translate(0 6.856)">
                <path id="Caminho_110-2" data-name="Caminho 110" d="M136.366.988A247.282,247.282,0,0,1,102.55,7.2a308.652,308.652,0,0,1-34.4,1.917,295.714,295.714,0,0,1-34.4-2.382A247.9,247.9,0,0,1,0,0Q16.908,3.225,33.932,4.939A336.516,336.516,0,0,0,68.1,6.8c11.388.174,22.834-.407,34.222-1.336C113.706,4.474,125.094,2.963,136.366.988Z" transform="translate(0 0)" fill="#4d300f"/>
              </g>
            </g>
            <g id="Grupo_87-2" data-name="Grupo 87" transform="translate(1013.243 39.626)">
              <path id="Caminho_111-2" data-name="Caminho 111" d="M148.451,0a234.386,234.386,0,0,0-37.883,7.786C98.135,11.272,85.817,15.165,73.5,19.058q-18.564,5.578-36.953,11.62C24.287,34.745,12.085,38.928,0,43.577c11.737-5.462,23.764-10.226,35.965-14.584S60.484,20.742,72.86,16.85c12.376-3.66,24.693-7.669,37.3-10.749A189.225,189.225,0,0,1,148.451,0Z" transform="translate(0 0)" fill="#4d300f"/>
            </g>
            <g id="Grupo_90-2" data-name="Grupo 90" transform="translate(664.108 287.78)">
              <g id="Grupo_88-2" data-name="Grupo 88" transform="translate(9.877 0)">
                <path id="Caminho_112-2" data-name="Caminho 112" d="M194.816,143.919c-7.553-20.1-15.165-40.555-28.121-57.637-12.841-17.14-29.574-31.027-47.353-42.937s-36.256-23.3-56.3-30.794C42.937,5.055,21.382,2.382,0,0,21.44,1.569,43.112,3.6,63.622,10.865c20.452,7.263,38.987,18.767,57,30.562,17.779,12.2,34.745,26.2,47.469,43.809C181.046,102.783,188.077,123.525,194.816,143.919Z" transform="translate(0)" fill="#4d300f"/>
              </g>
              <g id="Grupo_89-2" data-name="Grupo 89" transform="translate(0 2.673)">
                <path id="Caminho_113-2" data-name="Caminho 113" d="M175,96.391c-9.645-14.177-21.963-26.32-35.384-36.837a337.482,337.482,0,0,0-42.763-28.18,251.693,251.693,0,0,0-46.772-20.51A271.963,271.963,0,0,0,0,0,231.565,231.565,0,0,1,50.607,9.18,240.016,240.016,0,0,1,98.018,29.4a316.06,316.06,0,0,1,42.705,28.819C154.087,68.967,166.056,81.692,175,96.391Z" fill="#4d300f"/>
              </g>
            </g>
          </g>
        </g>
      </g>
    </g>
  </g>
</svg>
