<svg xmlns="http://www.w3.org/2000/svg" xmlns:xlink="http://www.w3.org/1999/xlink" width="807" height="776" viewBox="0 0 807 776">
  <defs>
    <clipPath id="clip-path">
      <rect id="Retângulo_70" data-name="Retângulo 70" width="807" height="776" transform="translate(1113 6567)" fill="none"/>
    </clipPath>
  </defs>
  <g id="footer-folha" transform="translate(-1113 -6567)" clip-path="url(#clip-path)">
    <g id="Grupo_95" data-name="Grupo 95" transform="translate(647.135 7632.689) rotate(-43)" opacity="0.162">
      <g id="Grupo_92" data-name="Grupo 92" opacity="0.606">
        <g id="Grupo_27" data-name="Grupo 27" transform="translate(209.239 296.517)">
          <path id="Caminho_58" data-name="Caminho 58" d="M27.21,38.56c8.766,7.613,14.149,18.917,15.918,30.528a74.194,74.194,0,0,1-3.307,34.373c.692-11.535,1.307-22.762-.461-33.835A75.523,75.523,0,0,0,27.21,38.56Z" transform="translate(-27.21 -38.56)" fill="#4d300f"/>
        </g>
        <g id="Grupo_28" data-name="Grupo 28" transform="translate(172.251 276.063)">
          <path id="Caminho_59" data-name="Caminho 59" d="M157.509,105.646c-23.377-10-46.062-21.224-68.823-32.451L54.928,55.74C43.854,49.665,32.243,44.128,22.4,35.9c10.689,6.844,22.377,11.688,33.835,17.225L90.378,69.812C112.985,81.347,135.593,92.8,157.509,105.646Z" transform="translate(-22.4 -35.9)" fill="#4d300f"/>
        </g>
        <g id="Grupo_29" data-name="Grupo 29" transform="translate(144.491 245.611)">
          <path id="Caminho_60" data-name="Caminho 60" d="M225.183,125.063c-36.526-10-71.361-25.3-105.657-41.063C102.455,75.772,85.614,67.236,68.85,58.547,52.087,49.934,35.4,41.014,18.79,31.94Q44.628,43.59,70.158,55.855c17.071,8.074,33.912,16.687,50.983,24.607,16.994,8.228,34.219,15.918,51.445,23.454C189.964,111.452,207.42,118.681,225.183,125.063Z" transform="translate(-18.79 -31.94)" fill="#4d300f"/>
        </g>
        <g id="Grupo_30" data-name="Grupo 30" transform="translate(505.371 394.946)">
          <path id="Caminho_61" data-name="Caminho 61" d="M65.72,53.206a154.472,154.472,0,0,1,53.675,33.22,135.556,135.556,0,0,1,33.989,53.444,121.044,121.044,0,0,1,6.383,31.374c.692,10.689.231,21.224,1.153,31.6,1,10.15,3.23,20.993,9.843,28.375a16.819,16.819,0,0,0,12.765,5.46,28.342,28.342,0,0,0,14-4.46c8.536-5.229,14.918-14,18.686-23.377a65.514,65.514,0,0,0,4.229-30.3c-1.769-20.686-13.611-39.449-28.683-53.6-7.536-7.228-16.225-13.073-25.146-18.84-8.843-5.767-17.84-11.3-26.607-17.3A280.368,280.368,0,0,1,115.011,69.2c-8-6.844-16.3-13.534-25.991-17.84,9.843,4,18.379,10.535,26.607,17.071A264.554,264.554,0,0,0,141.08,87.194c8.766,5.767,17.84,11.227,26.837,16.841,9,5.537,17.994,11.381,25.838,18.686,15.764,14.226,28.068,33.681,30.144,55.443a68.442,68.442,0,0,1-4.306,31.913c-4.076,10.074-10.612,19.455-20.147,25.3a32.023,32.023,0,0,1-15.918,4.921,20.263,20.263,0,0,1-15.456-6.69c-7.613-8.689-9.535-19.993-10.612-30.528-.846-10.689-.308-21.3-.923-31.682a131.1,131.1,0,0,0-5.844-30.682C137.927,100.728,104.938,68.739,65.72,53.206Z" transform="translate(-65.72 -51.36)" fill="#4d300f"/>
        </g>
        <g id="Grupo_31" data-name="Grupo 31" transform="translate(561.584 390.486)">
          <path id="Caminho_62" data-name="Caminho 62" d="M163.308,60.777a344.667,344.667,0,0,1-45.447-2.23A354.834,354.834,0,0,1,73.03,50.78c15.226.692,30.221,2.384,45.293,3.922C133.318,56.47,148.313,58.162,163.308,60.777Z" transform="translate(-73.03 -50.78)" fill="#4d300f"/>
        </g>
        <g id="Grupo_32" data-name="Grupo 32" transform="translate(588.651 383.023)">
          <path id="Caminho_63" data-name="Caminho 63" d="M145.835,54.581c-11.381,2.922-23.377,2.461-34.912,1.461A275.349,275.349,0,0,1,76.55,49.813,272.685,272.685,0,0,1,111.231,52.2C122.842,53.428,134.146,54.5,145.835,54.581Z" transform="translate(-76.55 -49.809)" fill="#4d300f"/>
        </g>
        <g id="Grupo_33" data-name="Grupo 33" transform="translate(700.076 311.512)">
          <path id="Caminho_64" data-name="Caminho 64" d="M127.643,40.51c-2.845,5.614-4.076,11.688-5.537,17.763a76.065,76.065,0,0,1-6.383,17.994,81.635,81.635,0,0,1-10.535,15.918A64.79,64.79,0,0,1,91.04,104.8a128.04,128.04,0,0,0,21.3-30.221A110.167,110.167,0,0,0,119.261,57.5C121.261,51.583,123.414,45.355,127.643,40.51Z" transform="translate(-91.04 -40.51)" fill="#4d300f"/>
        </g>
        <g id="Grupo_34" data-name="Grupo 34" transform="translate(639.942 334.274)">
          <path id="Caminho_65" data-name="Caminho 65" d="M171.345,43.47c-12.15,12.381-26.222,22.839-40.986,31.913A223.824,223.824,0,0,1,83.22,97.145C98.523,89.07,113.671,81,128.359,72.076,143.046,63.233,157.272,53.62,171.345,43.47Z" transform="translate(-83.22 -43.47)" fill="#4d300f"/>
        </g>
        <g id="Grupo_35" data-name="Grupo 35" transform="translate(664.934 93.277)">
          <path id="Caminho_66" data-name="Caminho 66" d="M251.492,12.13a179.468,179.468,0,0,0-52.444,15.149,197.68,197.68,0,0,0-45.831,29.3,243.6,243.6,0,0,0-37.449,39.6,336.643,336.643,0,0,0-29.3,46.369A257.378,257.378,0,0,1,113.384,94.41a226.343,226.343,0,0,1,37.3-40.833,189.342,189.342,0,0,1,47.138-28.99A154.861,154.861,0,0,1,251.492,12.13Z" transform="translate(-86.47 -12.13)" fill="#4d300f"/>
        </g>
        <g id="Grupo_36" data-name="Grupo 36" transform="translate(857.87 231.385)">
          <path id="Caminho_67" data-name="Caminho 67" d="M112.021,173.273c19.917,4.306,37.142,15.533,55.136,24.377a158.96,158.96,0,0,0,57.673,15.918,220.4,220.4,0,0,0,59.9-3.23,272.585,272.585,0,0,0,57.6-17.071c18.455-7.844,35.373-18.994,48.907-33.835,13.611-14.534,26.145-30.99,42.6-43.14,16.072-12.381,33.143-23.146,46.908-37.68,13.842-14.38,26.607-30.144,40.064-45.139l2.153,3a120.8,120.8,0,0,1-27.453,6.921A214.98,214.98,0,0,1,467.442,44.7c-18.686-.231-37.218-2-55.674-1.461-18.455.384-36.911,3.614-53.367,12-16.61,8-31.99,18.917-49.753,25.376-17.84,7.075-37.218,5.767-55.6,5.614a157.882,157.882,0,0,0-27.606,2.153,172.1,172.1,0,0,0-26.76,7.228c-34.835,12.842-64.594,37.449-87.125,66.978,21.993-29.836,51.445-55.059,86.433-68.67a158.121,158.121,0,0,1,26.991-7.536A162.244,162.244,0,0,1,252.9,84c18.532.077,37.449,1.23,54.674-5.767,17.3-6.459,32.528-17.379,49.368-25.607,16.764-8.689,35.834-12.15,54.52-12.611,18.763-.615,37.3,1.077,55.828,1.153A220.6,220.6,0,0,0,494.895,39.7a121.243,121.243,0,0,0,26.53-6.844l7.151-2.768-5,5.69C510.274,50.929,497.432,66.386,483.283,81c-14.149,14.841-31.605,25.607-47.446,37.757-16.225,11.842-28.529,27.837-42.448,42.6-13.765,15-31.3,26.376-49.983,34.219-18.686,7.92-38.3,13.226-58.212,16.917a224.805,224.805,0,0,1-60.518,2.922A161.092,161.092,0,0,1,166.7,198.5C148.855,189.422,131.861,177.887,112.021,173.273Z" transform="translate(-111.56 -30.09)" fill="#4d300f"/>
        </g>
        <g id="Grupo_37" data-name="Grupo 37" transform="translate(767.054 291.98)">
          <path id="Caminho_68" data-name="Caminho 68" d="M128.048,127.248c32.451-5.614,65.44-7.613,98.275-9.535,32.835-1.769,65.824-3.384,98.275-8.536,32.451-5,64.517-13.611,93.738-28.529,14.611-7.459,28.375-16.456,42.832-24.53,14.38-8,29.682-15.149,46.215-18.071l.385,3c-17.225,1.615-33.066,9.689-48.446,17.84A448.925,448.925,0,0,1,411.878,81.8c-32.528,13.38-67.055,22.147-102.2,24.684-17.533.923-35.142.692-52.675,1-17.533.384-34.988,1.384-52.521,2.768-34.988,2.615-69.823,6.69-104.735,10.3,34.835-4.076,69.592-8.689,104.581-11.842,17.456-1.538,34.988-2.615,52.6-3,17.533-.461,35.065-.231,52.521-1.307C344.285,101.718,378.581,92.8,410.8,79.341a437.857,437.857,0,0,0,47.138-23.069c15.38-8.228,31.451-16.764,49.522-18.3l.384,3C491.774,43.737,476.779,50.658,462.4,58.5c-14.38,7.92-28.221,16.841-43.063,24.3-29.606,14.918-62.056,23.377-94.584,28.3C259.543,121.25,193.181,117.021,128.048,127.248Z" transform="translate(-99.75 -37.97)" fill="#4d300f"/>
        </g>
        <g id="Grupo_38" data-name="Grupo 38" transform="translate(976.37 416.632)">
          <path id="Caminho_69" data-name="Caminho 69" d="M146.963,91.245a104.438,104.438,0,0,1-11.688-17.61,102.172,102.172,0,0,1-8.3-19.455,102.949,102.949,0,0,1,11.688,17.61A108.9,108.9,0,0,1,146.963,91.245Z" transform="translate(-126.97 -54.18)" fill="#4d300f"/>
        </g>
        <g id="Grupo_39" data-name="Grupo 39" transform="translate(1130.934 366.491)">
          <path id="Caminho_70" data-name="Caminho 70" d="M190.21,53.43a126.962,126.962,0,0,0-21.377-1.922c-7.151-.154-14.38.231-21.762-.538a69.98,69.98,0,0,1,21.839-3.307C176.214,47.894,183.981,49.355,190.21,53.43Z" transform="translate(-147.07 -47.66)" fill="#4d300f"/>
        </g>
        <g id="Grupo_40" data-name="Grupo 40" transform="translate(1141.007 354.729)">
          <path id="Caminho_71" data-name="Caminho 71" d="M181.754,49.36c-5.767.615-11.227.538-16.687.615-5.537-.077-10.919.077-16.687-.538a44.235,44.235,0,0,1,33.374-.077Z" transform="translate(-148.38 -46.13)" fill="#4d300f"/>
        </g>
        <g id="Grupo_58" data-name="Grupo 58">
          <g id="Grupo_41" data-name="Grupo 41" transform="translate(0 156.414)">
            <path id="Caminho_72" data-name="Caminho 72" d="M0,24.874a18.691,18.691,0,0,1,10.227-4.46,28.833,28.833,0,0,1,11.15,1.538c7.228,2.461,13.534,6.767,19.916,10.612,12.765,7.92,25.684,15.61,38.218,23.915s25.53,15.995,37.142,25.607a348.158,348.158,0,0,1,33.3,30.605c20.762,21.839,39.525,45.677,54.751,71.9,15,26.145,26.53,55.059,28.606,85.664a142.6,142.6,0,0,1-.231,22.915,11.284,11.284,0,0,1-8.92,9.689c-2.461.538-4.46.077-6.229.077l-5.614-.308-11.3-.615-5.614-.308-5.69-.846a161.07,161.07,0,0,1-22.3-5.075c-28.99-9.151-55.6-26.376-74.9-49.983-19.84-23.454-29.913-53.521-33.758-83.357-3.922-29.99-1.846-60.826,7.228-89.663v.538c-.615-3.383-3.153-5.152-6.306-6.921L51.06,60.631c-5.69-3.922-11.3-8-16.841-12.073C22.762,40.484,11.688,32.256,0,24.874Zm0,0c11.842,7.075,23.146,15.072,34.45,22.992,5.69,3.922,11.3,7.844,17.148,11.612l8.766,5.537a30.211,30.211,0,0,1,4.46,3,10.267,10.267,0,0,1,2.768,4.845l.077.231-.077.308a212.01,212.01,0,0,0-5.844,88.663c4.229,29.375,14.534,58.519,33.758,81.2,18.84,22.916,44.908,39.525,73.13,48.369a162.182,162.182,0,0,0,21.608,4.845l5.46.769,5.614.308,11.227.538,5.614.308c1.922.077,3.768.384,5,0a6.686,6.686,0,0,0,5.383-5.767,151.956,151.956,0,0,0,.308-22.147c-1.846-29.606-13-58.058-27.683-83.9-14.918-25.838-33.3-49.676-53.6-71.669a352.121,352.121,0,0,0-32.6-30.759c-11.381-9.689-24.377-17.379-36.6-26.068-12.3-8.613-25.069-16.533-37.6-24.761-6.306-4.076-12.457-8.459-19.532-11a28.232,28.232,0,0,0-11-1.769A19.94,19.94,0,0,0,0,24.874Z" transform="translate(0 -20.34)" fill="#4d300f"/>
          </g>
          <g id="Grupo_42" data-name="Grupo 42" transform="translate(199.899 311.282)">
            <path id="Caminho_73" data-name="Caminho 73" d="M28.029,165.362c-2.076,17.763-1.077,35.6.231,53.367,1.384,17.763,2.23,35.6,2.691,53.521.461,17.84.461,35.757.077,53.6l-1,26.76c-.308,8.843,0,17.61,2.691,25.761l-1.615-1.384c.538.154,1.615-.461,2.538-1.769.923-1.23,1.846-3,2.768-4.537q2.884-4.729,5.537-9.689c3.614-6.459,7-13.073,10.3-19.686,6.536-13.3,12.3-26.991,17.533-40.833a369.149,369.149,0,0,0,21.07-86.125c3.383-29.375,3.383-59.288-1.077-88.663a322.3,322.3,0,0,0-9.689-43.447C74.86,68.317,70.246,54.168,64.4,40.48c6.306,13.457,11.381,27.529,17.071,41.371A280.666,280.666,0,0,1,92.393,125.3a326.25,326.25,0,0,1,2.538,89.509,377.28,377.28,0,0,1-20.762,87.2A398.5,398.5,0,0,1,56.4,343.226c-3.383,6.69-6.844,13.3-10.535,19.84-1.846,3.307-3.691,6.536-5.614,9.689-1,1.615-1.769,3.153-3.076,4.921-1.153,1.538-3.307,3.922-6.69,3.383l-1.23-.154-.384-1.23c-2.922-8.92-3.076-18.225-2.768-27.222l1.153-26.76q1.038-26.645.846-53.444c-.077-17.84-.769-35.6-1.461-53.444C25.876,200.965,25.415,182.971,28.029,165.362Z" transform="translate(-25.996 -40.48)" fill="#4d300f"/>
          </g>
          <g id="Grupo_43" data-name="Grupo 43" transform="translate(199.088 52.761)">
            <path id="Caminho_74" data-name="Caminho 74" d="M47.652,236.161c20.685-9.074,41.14-19.224,59.365-32.528,18.225-13.073,34.373-29.606,44.754-49.368,5.152-9.843,9.151-20.455,9.766-31.451.692-11-1.23-22.147-3.307-33.22a319.724,319.724,0,0,0-19.609-64.44l-3.383-7.767c-1.153-2.768-2.153-4.845-3.768-5.69-1.384-.769-3.768-.231-5.306,1.23-1.538,1.384-2.461,3.768-3,6.306l-5.152,33.45C114.245,75.06,109.862,97.437,103.1,119.2c-6.69,21.762-15.533,42.909-27.376,62.364-6.152,9.535-12.611,19.071-20.839,26.991-8.074,8-17.917,14.534-28.99,17.148,11-3,20.455-9.843,28.145-17.994,7.844-8.151,13.918-17.686,19.686-27.376,11.3-19.532,19.686-40.6,25.914-62.21a552.774,552.774,0,0,0,14.149-66.132l5-33.681c.615-2.922,1.615-6.152,4.306-8.689,2.538-2.307,6.536-3.768,10.381-1.922,3.614,2,4.921,5.614,6,7.92l3.46,7.844A328.639,328.639,0,0,1,162.46,88.9c2,11.15,3.922,22.608,3.153,34.219-.692,11.765-5.075,22.839-10.612,32.835-11.15,20.224-27.914,36.68-46.6,49.522C89.407,218.321,68.645,227.7,47.652,236.161Z" transform="translate(-25.89 -6.861)" fill="#4d300f"/>
          </g>
          <g id="Grupo_44" data-name="Grupo 44" transform="translate(281.753 76.956)">
            <path id="Caminho_75" data-name="Caminho 75" d="M36.64,245.487c18.455-5.537,34.912-15.918,51.6-25.3,16.61-9.535,33.066-19.686,47.446-32.3,14.457-12.534,27.222-26.914,40.6-40.756,13.3-13.918,27.145-27.3,41.294-40.371,14.149-13,28.76-25.607,43.832-37.68,15.072-12,30.221-23.915,46.677-34.219,16.379-10.227,34.373-18.686,53.521-22.531a106.971,106.971,0,0,1,29.3-2.076c2.461.154,4.921.461,7.305.769,3.23.308,5.767,2.615,7.305,4.614a13.056,13.056,0,0,1,3,7.92,27.424,27.424,0,0,1-1.154,7.767c-10.535,37.142-25.069,73.437-46.292,105.888a260.408,260.408,0,0,1-36.834,44.831,229.183,229.183,0,0,1-46.677,34.373,450.913,450.913,0,0,1-52.06,25.222,262.091,262.091,0,0,1-55.981,14.611c-9.535,1.384-19.148,2.384-28.76,2.922a125.5,125.5,0,0,1-28.914-1.153c-18.994-2.461-38.064-6.767-57.289-4.614,19.224-2.538,38.372,1.461,57.443,3.46a122.8,122.8,0,0,0,28.606.538c9.535-.769,19.071-1.922,28.529-3.46a261.9,261.9,0,0,0,55.213-15.072,443.945,443.945,0,0,0,51.368-25.607,242.237,242.237,0,0,0,45.677-34.143,258.942,258.942,0,0,0,36.065-44.216C378.3,102.841,392.6,66.93,402.827,30.173a21.557,21.557,0,0,0,1-6.382,8.74,8.74,0,0,0-2-5.306c-1.307-1.615-2.691-2.845-4.383-2.922a69.541,69.541,0,0,0-7-.769,107.472,107.472,0,0,0-28.068,1.922c-18.532,3.691-36.065,11.765-52.214,21.762-16.225,10-31.374,21.916-46.369,33.758Q241.3,90.23,219.887,109.378c-14.226,12.842-28.145,26.068-41.6,39.756s-26.453,27.991-41.217,40.448c-14.841,12.457-31.528,22.3-48.369,31.528C71.936,230.261,55.249,240.334,36.64,245.487Z" transform="translate(-36.64 -10.008)" fill="#4d300f"/>
          </g>
          <g id="Grupo_45" data-name="Grupo 45" transform="translate(352.037 221.426)">
            <path id="Caminho_76" data-name="Caminho 76" d="M278.78,34.832a780.547,780.547,0,0,1,186.092-.923c7.69,1.153,15.456,1.23,23.377,4a19.02,19.02,0,0,1,9.92,8,18.248,18.248,0,0,1,1.538,12.688c-1.846,8.536-8.151,14.611-13.842,19.763-5.844,5.152-11.765,10.3-17.84,15.149a513.8,513.8,0,0,1-78.282,50.983A916.507,916.507,0,0,1,305,183.553a282.2,282.2,0,0,1-90.662,21.993,256.505,256.505,0,0,1-46.754-.923,173.957,173.957,0,0,1-45.293-11.765,214.215,214.215,0,0,1-76.513-52.29A213,213,0,0,0,123.062,190.7c28.76,11.535,60.288,13.842,90.97,11.227a287.452,287.452,0,0,0,89.355-22.377c28.683-11.842,56.9-24.607,84.2-39.218a501.327,501.327,0,0,0,77.82-50.214c6.075-4.768,11.919-9.843,17.763-14.841,5.69-5.075,11.227-10.612,12.688-17.533a14.766,14.766,0,0,0-1.077-10,14.7,14.7,0,0,0-7.844-6.306c-6.767-2.615-14.764-2.922-22.377-4.076A838.475,838.475,0,0,0,278.78,34.832Z" transform="translate(-45.78 -28.795)" fill="#4d300f"/>
          </g>
          <g id="Grupo_46" data-name="Grupo 46" transform="translate(390.717 423.552)">
            <path id="Caminho_77" data-name="Caminho 77" d="M80.877,55.08c26.145,9.151,52.675,18.532,76.129,33.912A135.27,135.27,0,0,1,188,117.213c8.689,11.073,15.38,23.531,21.378,36.142,12.073,25.145,20.839,52.06,24.838,79.9a213.1,213.1,0,0,1,1.769,41.986c-.923,13.918-3.46,28.529-11.535,40.756l.385-1.23a7.666,7.666,0,0,1-2.768,5.69,14.157,14.157,0,0,1-15.61,1.615c-6.306-3.922-8.766-10.381-11.612-15.764C189.3,295.154,184.612,283.62,180,272.162c-9.074-22.992-19.378-45.293-32.451-66.286C121.633,163.967,87.875,127.133,50.81,94.452a582.2,582.2,0,0,1,54.059,50.829,426.739,426.739,0,0,1,45.523,58.75c13.534,20.839,24.223,43.524,33.374,66.516,4.691,11.458,9.382,22.839,14.918,33.758,2.768,5.383,5.383,11.227,9.92,13.842,2.076,1.307,4.614,1.307,7.228.538,2.538-.692,4.537-2.538,4.46-4.076v-.615l.385-.615c7.305-11.227,9.92-24.992,10.843-38.6a210.3,210.3,0,0,0-1.461-41.14c-3.691-27.3-12.457-53.828-23.992-78.9-5.767-12.534-12.15-24.915-20.378-35.834-8.3-11-18.609-20.224-29.913-28.145C132.937,75.073,106.791,64.923,80.877,55.08Z" transform="translate(-50.81 -55.08)" fill="#4d300f"/>
          </g>
          <g id="Grupo_47" data-name="Grupo 47" transform="translate(652.012 388.513)">
            <path id="Caminho_78" data-name="Caminho 78" d="M98.634,56.188c34.219-7.767,70.515-7.844,104.658,1.615a178.07,178.07,0,0,1,48.369,21.454,299.647,299.647,0,0,1,41.755,32.528l38.91,35.6c6.459,5.767,13.457,11.15,20.378,16.533L373.313,180.3c27.914,21.07,59.98,35.834,91.816,50.522l.846.385.307.769c1.692,4.46-1.846,8-4.614,8.92-2.384,1.077-4.845,2-7.305,2.922a128.507,128.507,0,0,1-15,4.383,233.219,233.219,0,0,1-30.682,4.768c-20.455,1.846-40.91,3.691-61.518,4.46-20.609.692-41.371.077-61.749-3.614-20.455-3.614-39.987-11.15-58.519-19.993-18.609-8.843-36.6-19.148-52.906-31.913-16.225-12.765-30.605-28.145-41.217-45.908a127.425,127.425,0,0,1-12.688-28.221c-2.922-9.843-6.075-19.532-11.688-28.145C102.941,90.946,97.25,82.41,91.713,73.8l-4.229-6.459C86.1,65.185,84.716,62.8,84.793,60.11c-.077-1.538,1.461-2.23,2.538-2.768a20.551,20.551,0,0,1,3.691-1.153C93.482,55.727,96.25,55.189,98.634,56.188Zm0,0c-2.384-.923-5.075-.384-7.536.077a20.025,20.025,0,0,0-3.614,1.23c-1.077.538-2.461,1.23-2.384,2.538,0,2.538,1.307,4.845,2.768,6.921l4.306,6.383c5.767,8.536,11.612,16.917,17.225,25.53a86.277,86.277,0,0,1,7.305,13.688c2,4.768,3.46,9.766,5.075,14.534a128.807,128.807,0,0,0,13,27.529c10.689,17.379,24.915,32.3,41.063,44.678,16.148,12.457,34.066,22.454,52.6,30.99s37.6,15.995,57.673,19.378c19.993,3.614,40.525,4.152,60.9,3.384,20.378-.846,40.833-2.768,61.211-4.691a244.74,244.74,0,0,0,30.067-4.768,136.523,136.523,0,0,0,14.534-4.229c2.384-.846,4.691-1.769,7-2.768,2-.538,2.614-2.384,2.384-3l1.077,1.153c-31.836-14.841-64.133-29.759-92.431-51.368-7.075-5.383-13.611-11.15-20.609-16.456-6.921-5.383-13.918-10.843-20.532-16.764l-38.526-35.988A298.5,298.5,0,0,0,250.2,81.487a181.81,181.81,0,0,0-47.446-21.762C169.149,49.729,133.007,49.037,98.634,56.188Z" transform="translate(-84.79 -50.523)" fill="#4d300f"/>
          </g>
          <g id="Grupo_48" data-name="Grupo 48" transform="translate(782.357 563.275)">
            <path id="Caminho_79" data-name="Caminho 79" d="M241.694,102.625,282.6,128.77c13.3,9.151,26.53,19.224,35.834,33.22,2.153,3.537,4,7.92,3.537,12.534-.231,4.614-2.922,8.843-6.075,11.765-6.536,5.921-15.149,8.382-23.3,9.382-16.533,2.23-33.066-.385-48.83-4.153-31.6-7.92-62.056-20.916-88.817-39.6-13.3-9.458-25.453-20.686-34.912-33.989-9.382-13.3-16.072-28.683-18.3-44.678,3,15.918,10.381,30.682,20.147,43.37,9.689,12.765,21.839,23.454,35.142,32.451a273.56,273.56,0,0,0,87.894,37.987c15.533,3.845,31.528,6.459,47.215,4.46,7.844-.923,15.456-3.153,21.147-8.151,2.691-2.461,4.691-5.69,4.921-9.151.461-3.46-.846-7.075-2.768-10.381-8.382-13.3-21.07-23.761-34.066-33.22Z" transform="translate(-101.74 -73.25)" fill="#4d300f"/>
          </g>
          <g id="Grupo_49" data-name="Grupo 49" transform="translate(658.541 371.246)">
            <path id="Caminho_80" data-name="Caminho 80" d="M301.962,143.185c23.608,4.921,47.907,4.46,71.822,2.768,12-.846,23.992-1.922,35.911-3.076,11.842-1.23,23.761-3.307,34.219-8.536l-.923,2.307c-.384-1.077-2-2.845-2.614-2.922h-5.46c-3.922-.077-7.92-.154-11.842-.384-7.92-.384-15.764-1.153-23.608-2.23a287.855,287.855,0,0,1-46.292-10.381c-30.452-9.3-57.981-25.376-85.818-39.679-27.76-14.3-56.9-27.145-88.125-29.529C148.09,49.063,116.716,54.6,86.264,62.058l.077-.077a7.224,7.224,0,0,0,.077,4.921,7.082,7.082,0,0,0,3,4,7.928,7.928,0,0,1-3.153-3.922,6.816,6.816,0,0,1-.231-5.075v-.077h.077c30.144-8.459,61.441-15.3,93.277-13.15,31.913,1.769,61.9,14.534,89.816,28.837,28.068,14.3,55.443,29.682,85.28,39.141a287.455,287.455,0,0,0,45.523,10.535q11.535,1.615,23.3,2.307c3.922.231,7.767.384,11.688.461h4.383a11.212,11.212,0,0,1,1.922.154c3.153,1.23,4.076,3,5.229,5.46l.692,1.538-1.692.769c-11.227,5.383-23.608,7.151-35.6,8.228-12.073.923-23.992,1.846-36.065,2.384C349.869,149.337,325.493,148.876,301.962,143.185Z" transform="translate(-85.639 -48.278)" fill="#4d300f"/>
          </g>
          <g id="Grupo_50" data-name="Grupo 50" transform="translate(751.213 18.916)">
            <path id="Caminho_81" data-name="Caminho 81" d="M111.147,356.805a253.454,253.454,0,0,0,109.81-126.65,258.661,258.661,0,0,0,12.15-40.756c2.922-13.918,5-27.991,7-42.14,3.768-28.375,9-56.674,16.687-84.357,3.922-13.842,8.3-27.452,13.226-40.986l3.768-10.074,2-5c.384-1.23,0-.231.538.077.154.077-.538-.154-1.154-.154a18.3,18.3,0,0,0-4.614,1.153c-1.692.538-3.383,1-5,1.615-3.307,1.153-6.613,2.461-9.843,3.845C229.8,24.838,208.192,44.14,189.044,65.056a472.562,472.562,0,0,0-50.829,68.593A732.8,732.8,0,0,0,97.69,209.085a751.176,751.176,0,0,1,38.6-76.59,469.887,469.887,0,0,1,50.06-69.823c18.917-21.531,40.986-41.14,67.593-53.136,3.307-1.461,6.69-2.845,10.074-4.076,1.692-.692,3.46-1.153,5.152-1.692,1.692-.461,3.384-1.307,5.767-1.307a5.953,5.953,0,0,1,3.922,1,3.572,3.572,0,0,1,1.384,2.922,4.915,4.915,0,0,1-.538,2l-1.922,5-3.691,10c-4.845,13.38-9.074,26.991-12.919,40.679C253.408,91.509,248.1,119.422,244.18,147.8c-4,28.221-8.689,56.981-19.993,83.665a251.032,251.032,0,0,1-45.677,72.668A247.227,247.227,0,0,1,111.147,356.805Z" transform="translate(-97.69 -2.46)" fill="#4d300f"/>
          </g>
          <g id="Grupo_51" data-name="Grupo 51" transform="translate(901.625)">
            <path id="Caminho_82" data-name="Caminho 82" d="M226.214,284.829a179.724,179.724,0,0,0,33.912-75.513,165.775,165.775,0,0,0-4.614-82.05A167.536,167.536,0,0,0,238.287,89.74a177.256,177.256,0,0,0-26.145-32.066c-19.763-19.455-42.909-35.142-66.055-50.752l3.537-2.307a48.833,48.833,0,0,1-1.077,20.839c-1.845,6.69-4.614,12.919-7.228,18.994a103.635,103.635,0,0,0-6.383,18.532c-1.461,6.229-1.384,12.765-.923,19.3.846,13.073,3.384,26.53,2.691,40.141-.384,13.457-2.076,26.76-2.538,39.987-.692,13.149,1.153,26.453,1.692,39.833a349.571,349.571,0,0,1,.461,40.141c-1.077,13.38-2.384,26.607-4.537,39.91-2.23,13.15-6.844,26.145-14.534,37.065,7.459-11.15,11.612-24.069,13.457-37.218,1.769-13.15,2.768-26.53,3.46-39.833a384.257,384.257,0,0,0-1.077-39.91c-.769-13.3-2.768-26.53-2.307-40.141.308-13.457,1.769-26.76,2.076-39.987.615-13.226-1.922-26.222-2.845-39.756-.461-6.69-.615-13.688.923-20.532a101.835,101.835,0,0,1,6.536-19.3,145.514,145.514,0,0,0,6.921-18.455,43.411,43.411,0,0,0,.923-18.84L144.164,0,148.7,3.076C171.77,18.763,195.07,34.758,215.141,54.6c20.147,19.686,35.988,44.293,43.832,71.515a169.222,169.222,0,0,1,3.384,83.588A179.76,179.76,0,0,1,226.214,284.829Z" transform="translate(-117.25)" fill="#4d300f"/>
          </g>
          <g id="Grupo_52" data-name="Grupo 52" transform="translate(1047.884 57.835)">
            <path id="Caminho_83" data-name="Caminho 83" d="M136.27,232.362A396.854,396.854,0,0,0,230.239,151.7a380.032,380.032,0,0,0,64.056-105.5c2.076-4.768,3.845-9.612,5.537-14.457,1.538-4.768,4-9.92,4.383-14.226a5.377,5.377,0,0,0-2.076-5,2.937,2.937,0,0,0-2.076-.692c-.538.077-2.307.692-3.46.923-5.152,1.384-10.3,2.307-15.38,3.307-10.3,1.769-19.84,4.306-28.837,9.689a271.6,271.6,0,0,0-26.453,15.995,326.109,326.109,0,0,0-47.446,39.91A475.142,475.142,0,0,0,137.5,128.473c24.069-33.758,52.137-65.363,86.356-89.663A236.916,236.916,0,0,1,250.463,22.2C255,19.74,259.845,17.125,265,15.664a139.5,139.5,0,0,1,15.379-3.691c5.075-1,10.151-2,15.072-3.307a33.067,33.067,0,0,1,4.076-1.077,7.157,7.157,0,0,1,5.229,1.461c2.845,1.922,4.076,5.69,3.845,8.689-.538,6.152-2.922,10.458-4.537,15.533-1.692,4.921-3.46,9.843-5.537,14.687A374.626,374.626,0,0,1,232.853,154.08,367.763,367.763,0,0,1,136.27,232.362Z" transform="translate(-136.27 -7.521)" fill="#4d300f"/>
          </g>
          <g id="Grupo_53" data-name="Grupo 53" transform="translate(1003.745 395.485)">
            <path id="Caminho_84" data-name="Caminho 84" d="M214.964,51.43c26.76,3.845,52.06,14.841,74.9,29.144a368.106,368.106,0,0,1,62.672,51.291c18.84,19.3,34.988,42.371,42.6,68.747a126.116,126.116,0,0,1-4,80.666l-2.076,4.768a14.4,14.4,0,0,1-3.922,4.614,10.159,10.159,0,0,1-6,2.23,19.6,19.6,0,0,1-5.69-.923c-6.613-2.384-12.688-4.768-18.994-7.228-12.534-4.845-25.069-9.843-37.526-15.149-24.761-10.612-49.214-22.454-71.9-37.218a312.643,312.643,0,0,1-32.6-24.069l-15.38-13.073-7.69-6.536-8.074-6.075A87.6,87.6,0,0,1,166.21,168.93c-4.46-5.152-8.3-10.689-12.227-16.148L130.53,119.869l24.3,32.22c7.921,10.843,16.379,21.378,27.76,28.683,2.691,1.922,5.537,3.845,8.228,5.921l7.844,6.383,15.61,12.842a327.519,327.519,0,0,0,32.681,23.377c22.762,14.149,46.908,25.991,71.669,36.373,12.381,5.229,24.915,10.15,37.449,14.918,6.229,2.384,12.688,4.845,18.763,7,6.306,2.384,9.766-1.307,12-8.151a121.631,121.631,0,0,0,4.229-77.82C383.908,176,368.067,153.55,349.919,134.1a368.893,368.893,0,0,0-61.287-51.829C266.408,67.655,241.647,55.967,214.964,51.43Z" transform="translate(-130.53 -51.43)" fill="#4d300f"/>
          </g>
          <g id="Grupo_54" data-name="Grupo 54" transform="translate(1181.148 116.716)">
            <path id="Caminho_85" data-name="Caminho 85" d="M212.273,141.228c17.994-17.148,30.3-39.525,36.142-63.287A128.693,128.693,0,0,0,251.8,41.569,102.052,102.052,0,0,0,249.415,23.5a23.552,23.552,0,0,0-.923-3.845c-.077-.077.154,0-.154-.077a6.843,6.843,0,0,0-1.461.231,44.446,44.446,0,0,0-8.151,3.383c-10.535,5.614-18.994,14.764-27.453,23.761A332.6,332.6,0,0,0,187.9,75.558c-7.536,9.689-10.689,21.762-15.764,33.22A198.117,198.117,0,0,1,153.6,141.151a193.481,193.481,0,0,0,16.456-33.22c4.537-11.3,7.459-23.915,14.918-34.373A276.367,276.367,0,0,1,208.2,44.184c8.382-9.074,16.917-18.686,28.375-24.992a42.161,42.161,0,0,1,9.074-3.614,9.081,9.081,0,0,1,3.076-.384,4.454,4.454,0,0,1,3.614,2.23c1.153,2.461.923,3.46,1.384,5.152a110.587,110.587,0,0,1,2.23,18.763A122.939,122.939,0,0,1,251.8,78.787a131.788,131.788,0,0,1-15,34.373A122.2,122.2,0,0,1,212.273,141.228Z" transform="translate(-153.6 -15.178)" fill="#4d300f"/>
          </g>
          <g id="Grupo_55" data-name="Grupo 55" transform="translate(1154.311 40.331)">
            <path id="Caminho_86" data-name="Caminho 86" d="M150.11,308.493c39.218-4.845,77.282-16.148,113.962-30.451A544.636,544.636,0,0,0,317.9,253.9a182.582,182.582,0,0,0,46.6-35.142c26.991-28.375,48.6-61.9,64.748-97.583A359.855,359.855,0,0,0,449.165,65.8c2.614-9.458,4.691-19.071,6.536-28.683.923-4.845,1.615-9.689,2.384-14.534.692-4.691.923-9.612-1.538-12.842l.923.692c-8.151-3-17.148-.384-25.222,3.383-8.228,3.845-16.379,8.3-24.377,12.688C391.8,35.352,376.189,45.118,361.04,55.5A585.46,585.46,0,0,0,276.3,126.091a560.333,560.333,0,0,1,83.28-72.745c15.072-10.689,30.605-20.685,46.677-29.836,8.074-4.537,16.072-9.074,24.453-13.15,8.228-4,18.455-7.075,28.144-3.614l.615.231.384.461c3.537,5,2.922,10.919,2.307,15.764-.769,4.921-1.461,9.843-2.384,14.687-1.769,9.766-3.845,19.455-6.459,29.067a363.184,363.184,0,0,1-19.84,56.135,354.234,354.234,0,0,1-28.836,52.06A318,318,0,0,1,367.5,221.675a179.351,179.351,0,0,1-47.83,35.527,576.105,576.105,0,0,1-54.52,23.454C228.084,294.574,189.482,304.571,150.11,308.493Z" transform="translate(-150.11 -5.245)" fill="#4d300f"/>
          </g>
          <g id="Grupo_56" data-name="Grupo 56" transform="translate(1164.777 312.741)">
            <path id="Caminho_87" data-name="Caminho 87" d="M159.845,86.5q46.254-13.38,93.2-23.838c31.374-6.844,62.748-13.688,94.584-17.994,31.759-5.306,64.363-5.152,96.276-.615,15.841,2.307,32.22,5.844,46.446,14.149,7.152,4,13.765,8.536,20.455,13.149a13.337,13.337,0,0,1,4.614,5.537,6.383,6.383,0,0,1,.154,4.306,11.855,11.855,0,0,1-1.538,3.307c-2.768,3.922-6,6.075-9,8.92-25.376,20.916-56.6,31.989-87.125,41.371-15.38,4.691-31.067,8.689-47.138,10.843a247.4,247.4,0,0,1-48.292,1.692c-32.22-1.846-63.748-9.382-94.123-19.686-15.226-5.075-30.144-11-44.908-17.3-7.382-3.153-14.687-6.383-21.993-9.689-3.537-1.692-7.767-3-9.766-6.69-.923-2.076,1.23-3.768,2.691-4.845A23.777,23.777,0,0,1,159.845,86.5Zm0,0a20.761,20.761,0,0,0-5.383,2.691c-1.461,1.077-3.614,2.768-2.691,4.768,2,3.614,6.229,4.921,9.766,6.613,7.305,3.307,14.687,6.459,22.07,9.535,14.764,6.152,29.759,11.919,44.985,16.917,30.452,9.92,62.057,16.687,94.046,17.994a247.767,247.767,0,0,0,47.754-2.538c15.764-2.384,31.143-6.69,46.446-11.458,30.375-9.535,60.98-20.762,85.356-41.14,2.845-2.615,6.306-5.152,8.228-7.844a8.552,8.552,0,0,0,1-2.076,2.621,2.621,0,0,0,0-1.538,8.9,8.9,0,0,0-3-3.537c-6.459-4.537-13.073-9.151-19.916-13-13.611-8.074-29.144-11.612-44.985-14-31.451-4.845-63.748-5.767-95.43-1C284.419,55.128,221.593,69.2,159.845,86.5Z" transform="translate(-151.471 -40.67)" fill="#4d300f"/>
          </g>
          <g id="Grupo_57" data-name="Grupo 57" transform="translate(1420.223 78.661)">
            <path id="Caminho_88" data-name="Caminho 88" d="M184.69,168.951q33.566-11.419,66.055-25.376c21.608-9.3,42.832-19.686,62.672-32.22A345.974,345.974,0,0,0,369.167,68.6a302.913,302.913,0,0,0,23.992-25.684c3.768-4.46,7.382-9.074,10.766-13.842,1.615-2.384,3.768-4.768,4.383-6.844a2.685,2.685,0,0,0-.154-2.461c-.461-.769-1.077-.923-1.23-.846l-.846.461L405,18.616c-6-4.46-14.3-4.768-22.146-3.845-8.151.923-16.225,1.922-24.377,3.153C342.253,20.308,326.1,22.769,310.033,26c-16.072,3.076-31.989,6.921-47.907,10.843q-23.877,6-47.292,13.534A720.125,720.125,0,0,1,309.495,23c16.072-3.46,32.22-6.536,48.523-8.92,8.151-1.23,16.3-2.307,24.453-3.307,8.151-1.077,17.61-1,25.146,4.46l-1.845-.308c5.921-1.077,8.228,5.46,6.767,8.766-1.307,3.614-3.307,5.614-5,8.151-3.46,4.845-7.075,9.535-10.843,14.149a269.357,269.357,0,0,1-24.453,25.991,353.669,353.669,0,0,1-56.751,42.909c-20.3,12.3-41.909,22.223-63.825,31.144C229.752,154.725,207.3,162.184,184.69,168.951Z" transform="translate(-184.69 -10.229)" fill="#4d300f"/>
          </g>
        </g>
        <g id="Grupo_60" data-name="Grupo 60" transform="translate(271.675 337.325)">
          <g id="Grupo_59" data-name="Grupo 59">
            <path id="Caminho_89" data-name="Caminho 89" d="M122.228,46.583a84.023,84.023,0,0,0-23.608-.923A82.347,82.347,0,0,0,76.09,52.2a74.011,74.011,0,0,0-19.071,13.15c-5.614,5.229-9.382,12.073-12.073,19.3a78.357,78.357,0,0,0-2.076,45.446,70.2,70.2,0,0,0,25.146,37.372,65.231,65.231,0,0,0,42.832,13.457,79.866,79.866,0,0,0,43.14-14.687c12.534-8.92,22.685-21.762,27.145-36.757,4.614-14.764,3-31.836-5.613-45.293,9.766,12.765,12.3,30.3,8.382,46.062-4.152,15.841-14.3,29.683-27.3,39.525-13,10.074-29.221,15.533-45.6,16.3a71.356,71.356,0,0,1-46.523-14.149,75.823,75.823,0,0,1-26.76-40.679,80,80,0,0,1,3-48.369C43.793,75.342,48.176,67.96,54.481,62.5A75.338,75.338,0,0,1,74.936,49.428a80.119,80.119,0,0,1,23.454-5.46A79.67,79.67,0,0,1,122.228,46.583Z" transform="translate(-35.329 -43.867)" fill="#4d300f"/>
          </g>
          <path id="Caminho_90" data-name="Caminho 90" d="M45.822,52.42a7.452,7.452,0,0,1,3.307-4.46c1.077,1.077,2.153,2.384,2.23,3.845.154,1.769-1.077,3.307-2.384,4.537A8.361,8.361,0,0,1,43.9,59.11c-1.922.154-4.152-1.153-4.306-3.076-.231-2.23,2.153-3.845,4.383-4.229" transform="translate(-6.908 -16.484)" fill="#4d300f"/>
        </g>
        <g id="Grupo_64" data-name="Grupo 64" transform="translate(1306.394 225.541)">
          <g id="Grupo_63" data-name="Grupo 63">
            <g id="Grupo_61" data-name="Grupo 61" transform="translate(89.144)">
              <path id="Caminho_91" data-name="Caminho 91" d="M225.773,119.685A77.133,77.133,0,0,0,228,92a92.913,92.913,0,0,0-7.613-26.3c-3.768-8.228-8.766-16.225-15.226-22.531-6.536-6.459-14.3-11.535-23.684-13.842a41.424,41.424,0,0,1,14.149,2.845,50.369,50.369,0,0,1,12.457,7.69c7.844,6.306,13.3,14.611,17.533,23.454,3.922,9,6.69,18.455,6.844,28.375A57.235,57.235,0,0,1,225.773,119.685Z" transform="translate(-181.48 -29.33)" fill="#4d300f"/>
            </g>
            <g id="Grupo_62" data-name="Grupo 62" transform="translate(0 72.514)">
              <path id="Caminho_92" data-name="Caminho 92" d="M171.215,38.76a63.663,63.663,0,0,1,5.306,13.149,58.8,58.8,0,0,1,2.691,13.918c-4.306-3.076-6.69-7.613-8.228-12.3C169.677,48.834,169.292,43.681,171.215,38.76Z" transform="translate(-169.887 -38.76)" fill="#4d300f"/>
            </g>
          </g>
          <path id="Caminho_93" data-name="Caminho 93" d="M192.4,42.563a4.039,4.039,0,0,0-2.307-4.537,4.2,4.2,0,0,0-4.921,1.461,6.354,6.354,0,0,0-.538,4.614,5.65,5.65,0,0,0,1.307,2.922,3.757,3.757,0,0,0,5,0,4.618,4.618,0,0,0,1.077-5.075" transform="translate(-72.497 26.953)" fill="#4d300f"/>
        </g>
        <g id="Grupo_91" data-name="Grupo 91" transform="translate(99.89 36.526)">
          <g id="Grupo_65" data-name="Grupo 65" transform="translate(230.77 77.436)">
            <path id="Caminho_94" data-name="Caminho 94" d="M316.756,14.82a621.445,621.445,0,0,1-59.134,58.212,686.164,686.164,0,0,1-66.132,50.214,689.033,689.033,0,0,1-71.9,41.525A612.081,612.081,0,0,1,43,196.76a774.165,774.165,0,0,0,75.514-34.143A727.479,727.479,0,0,0,189.8,120.631,742.786,742.786,0,0,0,256.16,71.186,806.242,806.242,0,0,0,316.756,14.82Z" transform="translate(-43 -14.82)" fill="#4d300f"/>
          </g>
          <g id="Grupo_66" data-name="Grupo 66" transform="translate(0 202.01)">
            <path id="Caminho_95" data-name="Caminho 95" d="M134.95,217.42q-11.3-25.607-24.607-50.291c-8.92-16.379-18.3-32.451-28.606-47.984C71.663,103.458,60.667,88.386,49.209,73.7,37.674,59.011,25.678,44.785,12.99,31.02A495.063,495.063,0,0,1,51.054,72.237a560.384,560.384,0,0,1,33.3,45.216,546.1,546.1,0,0,1,28.145,48.6A516.482,516.482,0,0,1,134.95,217.42Z" transform="translate(-12.99 -31.02)" fill="#4d300f"/>
          </g>
          <g id="Grupo_67" data-name="Grupo 67" transform="translate(275.986 220.389)">
            <path id="Caminho_96" data-name="Caminho 96" d="M412.452,33.41q-44.639,13.5-89.509,26.3L233.281,85.47c-30.144,7.844-60.6,14.457-91.354,19.378s-61.9,7.92-93.046,6.767A409.184,409.184,0,0,0,95.4,109q23.185-2.307,46.139-6.229c30.605-5.229,60.9-12.15,90.893-20.3L322.328,57.71Q367.313,45.252,412.452,33.41Z" transform="translate(-48.88 -33.41)" fill="#4d300f"/>
          </g>
          <g id="Grupo_68" data-name="Grupo 68" transform="translate(493.76 429.529)">
            <path id="Caminho_97" data-name="Caminho 97" d="M109.5,166.747a68.8,68.8,0,0,0,9-29.606,78.543,78.543,0,0,0-3.768-30.451,99.2,99.2,0,0,0-14.072-27.529,92.858,92.858,0,0,0-9.843-12C87.274,63.55,82.66,60.321,77.2,60.859c5.306-1.153,10.612,1.846,14.611,5.152a91.736,91.736,0,0,1,10.766,11.765,96.626,96.626,0,0,1,15.072,27.991,76.234,76.234,0,0,1,3.23,31.682A61.872,61.872,0,0,1,109.5,166.747Z" transform="translate(-77.2 -60.607)" fill="#4d300f"/>
          </g>
          <g id="Grupo_71" data-name="Grupo 71" transform="translate(622.41)">
            <g id="Grupo_69" data-name="Grupo 69" transform="translate(70.054)">
              <path id="Caminho_98" data-name="Caminho 98" d="M223.923,4.75A423.269,423.269,0,0,0,186.7,48.889a526.232,526.232,0,0,0-31.6,48.292c-9.843,16.533-18.763,33.6-27.3,50.906s-16.687,34.758-24.761,52.29c7-17.994,14.38-35.834,22.608-53.29,8.151-17.533,17.148-34.681,26.76-51.445a470.079,470.079,0,0,1,32.374-48.138A327.68,327.68,0,0,1,223.923,4.75Z" transform="translate(-103.04 -4.75)" fill="#4d300f"/>
            </g>
            <g id="Grupo_70" data-name="Grupo 70" transform="translate(0 245.534)">
              <path id="Caminho_99" data-name="Caminho 99" d="M147.451,36.68c-3.614,16.61-10.919,32.22-19.84,46.677-9.228,14.226-20.224,27.529-33.681,37.911A243.269,243.269,0,0,0,125,81.742,239.2,239.2,0,0,0,147.451,36.68Z" transform="translate(-93.93 -36.68)" fill="#4d300f"/>
            </g>
          </g>
          <g id="Grupo_72" data-name="Grupo 72" transform="translate(922.003 38.68)">
            <path id="Caminho_100" data-name="Caminho 100" d="M311.139,9.78C294.606,25.852,278,41.846,262,58.379s-31.374,33.681-44.908,52.29c-14.3,17.994-27.914,36.6-41.909,54.9q-20.993,27.568-42.294,54.674,19.955-28.26,40.448-56.135c13.611-18.609,27.3-37.142,41.448-55.443C242.315,71.606,276.688,40.231,311.139,9.78Z" transform="translate(-132.89 -9.78)" fill="#4d300f"/>
          </g>
          <g id="Grupo_73" data-name="Grupo 73" transform="translate(856.486 63.517)">
            <path id="Caminho_101" data-name="Caminho 101" d="M124.37,204.408a160.993,160.993,0,0,0,23.377-44.293,174.538,174.538,0,0,0,9.535-48.984,205.146,205.146,0,0,0-3.46-49.907A264.7,264.7,0,0,0,139.6,13.01a212.854,212.854,0,0,1,16.533,47.753,192.231,192.231,0,0,1,4.229,50.522,170.858,170.858,0,0,1-10.381,49.6A141.881,141.881,0,0,1,124.37,204.408Z" transform="translate(-124.37 -13.01)" fill="#4d300f"/>
          </g>
          <g id="Grupo_76" data-name="Grupo 76" transform="translate(768.208 555.816)">
            <g id="Grupo_74" data-name="Grupo 74" transform="translate(0 0.692)">
              <path id="Caminho_102" data-name="Caminho 102" d="M244.231,147.481c-11.919-3.845-23.761-7.844-35.45-12.381q-17.533-6.69-34.527-14.918a280.862,280.862,0,0,1-32.6-18.917A184.083,184.083,0,0,1,112.89,77.12a254.84,254.84,0,0,0,30.067,22.223,345.481,345.481,0,0,0,32.6,18.148c11.15,5.614,22.608,10.535,34.066,15.456Z" transform="translate(-112.89 -77.12)" fill="#4d300f"/>
            </g>
            <g id="Grupo_75" data-name="Grupo 75" transform="translate(10.458)">
              <path id="Caminho_103" data-name="Caminho 103" d="M235.825,144.238c-10.612-4.844-21.454-9.151-32.22-13.534-10.843-4.383-21.531-8.843-32.22-13.688A239.4,239.4,0,0,1,140.626,100.1,123.89,123.89,0,0,1,114.25,77.03,156.636,156.636,0,0,0,141.933,98.1a301,301,0,0,0,30.836,16.148c10.458,5,21.224,9.458,31.836,14.3C215.14,133.319,225.675,138.394,235.825,144.238Z" transform="translate(-114.25 -77.03)" fill="#4d300f"/>
            </g>
          </g>
          <g id="Grupo_77" data-name="Grupo 77" transform="translate(551.971 357.651)">
            <path id="Caminho_104" data-name="Caminho 104" d="M84.77,57.566l70.977,42.294,70.746,42.755,35.373,21.378c11.688,7.305,23.3,14.688,35.142,21.608,23.608,13.918,48.292,26.607,74.745,33.6h-.769c-.077,0-.384,0-.615.692-.077.461.077.615,0,.538,0-.077-.308-.384-.538-.538a11.26,11.26,0,0,0-1.845-1.307,27.314,27.314,0,0,0-4.229-2.153c-2.845-.923-6.459-1.846-9.612-3a130.343,130.343,0,0,1-18.532-8.459c-11.919-6.536-22.992-14.072-34.373-21.3-22.531-14.687-44.754-29.836-66.978-45.062C189.735,108.395,145.442,77.79,98.612,51.26,122.3,64.1,145.365,77.944,168.127,92.323c22.685,14.534,44.985,29.606,67.286,44.6s44.6,30.067,67.209,44.6c11.381,7.151,22.608,14.611,34.3,20.993a132.642,132.642,0,0,0,18.148,8.228c3.153,1.23,6.152,1.846,9.689,3a27.61,27.61,0,0,1,4.768,2.384,14.921,14.921,0,0,1,2.23,1.615,6.632,6.632,0,0,1,1.153,1.307,2.338,2.338,0,0,1,.308,1.692,2.137,2.137,0,0,1-1.538,1.461l-.308.154-.308-.077c-26.914-7.228-51.675-20.224-75.283-34.373-11.842-7.075-23.454-14.534-35.065-21.916l-35.219-21.608-70.438-43.216Z" transform="translate(-84.77 -51.26)" fill="#4d300f"/>
          </g>
          <g id="Grupo_80" data-name="Grupo 80" transform="translate(1107.48 98.045)">
            <g id="Grupo_78" data-name="Grupo 78" transform="translate(57.75)">
              <path id="Caminho_105" data-name="Caminho 105" d="M170.826,17.5c.385,2.768-.538,5.075-1.461,7.382-1.23,2.153-2.461,4.383-4.845,5.767a20.521,20.521,0,0,1,2.076-7.075C167.827,21.5,168.826,19.346,170.826,17.5Z" transform="translate(-164.52 -17.5)" fill="#4d300f"/>
            </g>
            <g id="Grupo_79" data-name="Grupo 79" transform="translate(0 21.685)">
              <path id="Caminho_106" data-name="Caminho 106" d="M211.146,20.32c-5.152,16.533-12.919,32.143-21.839,46.984-9.228,14.611-19.763,28.529-32.3,40.525,10.535-13.688,20.762-27.452,29.683-42.14C195.843,51.156,203.61,35.853,211.146,20.32Z" transform="translate(-157.01 -20.32)" fill="#4d300f"/>
            </g>
          </g>
          <g id="Grupo_83" data-name="Grupo 83" transform="translate(1131.626 51.906)">
            <g id="Grupo_81" data-name="Grupo 81" transform="translate(112.963)">
              <path id="Caminho_107" data-name="Caminho 107" d="M249.123,11.5c-4.768,8.92-9.843,17.686-15.456,26.145-5.537,8.459-11.535,16.61-17.687,24.684-6.306,7.92-12.765,15.687-19.609,23.146s-14.072,14.534-21.531,21.3c6.69-7.536,13.3-15.226,19.763-22.916S207.522,68.4,213.6,60.407c6.306-7.844,12.227-15.995,18.148-24.146C237.589,28.11,243.433,19.8,249.123,11.5Z" transform="translate(-174.84 -11.5)" fill="#4d300f"/>
            </g>
            <g id="Grupo_82" data-name="Grupo 82" transform="translate(0 117.192)">
              <path id="Caminho_108" data-name="Caminho 108" d="M254.119,26.74a228.671,228.671,0,0,1-19.993,22.3,289.763,289.763,0,0,1-22.608,19.686,280.676,280.676,0,0,1-24.761,16.841A216.708,216.708,0,0,1,160.15,99.178c8.613-4.921,17.071-10.15,25.376-15.61,8.228-5.46,16.379-11.15,24.146-17.3,7.921-5.921,15.456-12.381,22.839-18.994S247.121,33.815,254.119,26.74Z" transform="translate(-160.15 -26.74)" fill="#4d300f"/>
            </g>
          </g>
          <g id="Grupo_86" data-name="Grupo 86" transform="translate(1122.552 336.12)">
            <g id="Grupo_84" data-name="Grupo 84" transform="translate(202.395)">
              <path id="Caminho_109" data-name="Caminho 109" d="M212.666,48.46c-3.691,3.383-8.228,5.383-12.842,6.921-4.768,1.23-9.612,2.076-14.534,1.23,4.614-1.692,9.228-2.691,13.688-4.229C203.438,51.305,207.821,49.613,212.666,48.46Z" transform="translate(-185.29 -48.46)" fill="#4d300f"/>
            </g>
            <g id="Grupo_85" data-name="Grupo 85" transform="translate(0 9.074)">
              <path id="Caminho_110" data-name="Caminho 110" d="M339.449,50.947a327.275,327.275,0,0,1-44.754,8.228,408.5,408.5,0,0,1-45.523,2.538,391.376,391.376,0,0,1-45.523-3.153,328.1,328.1,0,0,1-44.678-8.92q22.377,4.268,44.908,6.536a445.376,445.376,0,0,0,45.216,2.461c15.072.231,30.221-.538,45.293-1.769C309.459,55.561,324.531,53.562,339.449,50.947Z" transform="translate(-158.97 -49.64)" fill="#4d300f"/>
            </g>
          </g>
          <g id="Grupo_87" data-name="Grupo 87" transform="translate(1341.018 52.444)">
            <path id="Caminho_111" data-name="Caminho 111" d="M383.853,11.57c-16.994,1.846-33.681,5.69-50.137,10.3s-32.758,9.766-49.061,14.918q-24.569,7.382-48.907,15.38c-16.225,5.383-32.374,10.919-48.369,17.071,15.533-7.228,31.451-13.534,47.6-19.3S267.43,39.022,283.81,33.87c16.379-4.845,32.681-10.15,49.368-14.226C349.711,15.415,366.705,12.339,383.853,11.57Z" transform="translate(-187.38 -11.57)" fill="#4d300f"/>
          </g>
          <g id="Grupo_90" data-name="Grupo 90" transform="translate(878.94 380.874)">
            <g id="Grupo_88" data-name="Grupo 88" transform="translate(13.073)">
              <path id="Caminho_112" data-name="Caminho 112" d="M386.828,244.755c-10-26.607-20.07-53.675-37.218-76.282-16.994-22.685-39.141-41.063-62.671-56.827S238.954,80.81,212.424,70.89c-26.607-9.92-55.136-13.457-83.434-16.61,28.375,2.076,57.058,4.768,84.2,14.38,27.068,9.612,51.6,24.838,75.437,40.448,23.531,16.148,45.985,34.681,62.825,57.981C368.6,190.312,377.908,217.764,386.828,244.755Z" transform="translate(-128.99 -54.28)" fill="#4d300f"/>
            </g>
            <g id="Grupo_89" data-name="Grupo 89" transform="translate(0 3.537)">
              <path id="Caminho_113" data-name="Caminho 113" d="M358.906,182.313c-12.765-18.763-29.067-34.835-46.831-48.753a446.65,446.65,0,0,0-56.6-37.3,333.113,333.113,0,0,0-61.9-27.145A359.942,359.942,0,0,0,127.29,54.74a306.475,306.475,0,0,1,66.978,12.15c21.839,6.459,42.755,15.764,62.748,26.76a418.3,418.3,0,0,1,56.52,38.141C331.223,146.017,347.063,162.858,358.906,182.313Z" transform="translate(-127.29 -54.74)" fill="#4d300f"/>
            </g>
          </g>
        </g>
      </g>
      <g id="Grupo_93" data-name="Grupo 93" transform="translate(65.987 34.604)">
        <path id="Caminho_114" data-name="Caminho 114" d="M104.356,125.635c-18.994,4.306-39.6-4.537-51.752-19.686C40.377,90.8,35.994,70.268,38.071,50.89" transform="translate(185.385 305.838)" fill="none" stroke="#4d300f" stroke-miterlimit="10" stroke-width="0.25"/>
        <path id="Caminho_115" data-name="Caminho 115" d="M64.2,59.54A55.39,55.39,0,0,1,47.36,66" transform="translate(250.84 363.705)" fill="none" stroke="#4d300f" stroke-miterlimit="10" stroke-width="0.25"/>
        <path id="Caminho_116" data-name="Caminho 116" d="M118.646,60.193a54.269,54.269,0,0,1-39.91,15.38A54.733,54.733,0,0,1,40.21,57.04" transform="translate(203.008 346.98)" fill="none" stroke="#4d300f" stroke-miterlimit="10" stroke-width="0.25"/>
        <path id="Caminho_117" data-name="Caminho 117" d="M76.455,53.13a46.653,46.653,0,0,1-7.536,25.376A71.1,71.1,0,0,1,50.31,97.654" transform="translate(270.575 320.823)" fill="none" stroke="#4d300f" stroke-miterlimit="10" stroke-width="0.25"/>
        <path id="Caminho_118" data-name="Caminho 118" d="M51.39,110.949a52.39,52.39,0,0,0,4-62.749" transform="translate(277.8 287.843)" fill="none" stroke="#4d300f" stroke-miterlimit="10" stroke-width="0.25"/>
        <path id="Caminho_119" data-name="Caminho 119" d="M48.26,103.469A45.4,45.4,0,0,0,72.637,50.64" transform="translate(256.861 304.166)" fill="none" stroke="#4d300f" stroke-miterlimit="10" stroke-width="0.25"/>
        <path id="Caminho_120" data-name="Caminho 120" d="M49.329,203.453A306.237,306.237,0,0,0,30.95,42.66" transform="translate(141.061 250.781)" fill="none" stroke="#4d300f" stroke-miterlimit="10" stroke-width="0.25"/>
        <path id="Caminho_121" data-name="Caminho 121" d="M44.77,65.06a118.963,118.963,0,0,1-13.38,46.831" transform="translate(144.005 400.632)" fill="none" stroke="#4d300f" stroke-miterlimit="10" stroke-width="0.25"/>
        <path id="Caminho_122" data-name="Caminho 122" d="M91.588,105.93A306.987,306.987,0,0,0,12.46,28.11" transform="translate(17.367 153.445)" fill="none" stroke="#4d300f" stroke-miterlimit="10" stroke-width="0.25"/>
        <path id="Caminho_123" data-name="Caminho 123" d="M32.618,53.554A89.312,89.312,0,0,0,23.39,39.02" transform="translate(90.486 226.431)" fill="none" stroke="#4d300f" stroke-miterlimit="10" stroke-width="0.25"/>
        <path id="Caminho_124" data-name="Caminho 124" d="M119.736,14.08C111.662,68.754,92.207,123.736,53.22,162.954c-7.459,7.459-16.072,14.611-26.53,16.379" transform="translate(112.563 59.588)" fill="none" stroke="#4d300f" stroke-miterlimit="10" stroke-width="0.25"/>
        <path id="Caminho_125" data-name="Caminho 125" d="M82.815,28.66A164.275,164.275,0,0,1,49.672,70.108C43.366,75.8,36.292,81.181,27.91,82.719" transform="translate(120.724 157.125)" fill="none" stroke="#4d300f" stroke-miterlimit="10" stroke-width="0.25"/>
        <path id="Caminho_126" data-name="Caminho 126" d="M41.668,25.79a50.042,50.042,0,0,1-6,12" transform="translate(172.637 137.925)" fill="none" stroke="#4d300f" stroke-miterlimit="10" stroke-width="0.25"/>
        <path id="Caminho_127" data-name="Caminho 127" d="M205.9,33.06A271.69,271.69,0,0,1,49.8,97.193" transform="translate(267.163 186.56)" fill="none" stroke="#4d300f" stroke-miterlimit="10" stroke-width="0.25"/>
        <path id="Caminho_128" data-name="Caminho 128" d="M83.649,30.44c-4,3.46-7.92,6.844-11.919,10.3" transform="translate(413.87 169.033)" fill="none" stroke="#4d300f" stroke-miterlimit="10" stroke-width="0.25"/>
        <path id="Caminho_129" data-name="Caminho 129" d="M252.2,46.32C192.6,78,120.705,85.769,55.65,67.544" transform="translate(306.298 275.266)" fill="none" stroke="#4d300f" stroke-miterlimit="10" stroke-width="0.25"/>
        <path id="Caminho_130" data-name="Caminho 130" d="M88.928,45.24c-2,.692-4,1.384-6,2" transform="translate(488.795 268.041)" fill="none" stroke="#4d300f" stroke-miterlimit="10" stroke-width="0.25"/>
        <path id="Caminho_131" data-name="Caminho 131" d="M165.378,73.234A189.786,189.786,0,0,1,49.57,45.32" transform="translate(265.625 268.576)" fill="none" stroke="#4d300f" stroke-miterlimit="10" stroke-width="0.25"/>
        <path id="Caminho_132" data-name="Caminho 132" d="M11.417,92.017a162.67,162.67,0,0,1,.154-61.287" transform="translate(-8.581 170.973)" fill="none" stroke="#4d300f" stroke-miterlimit="10" stroke-width="0.25"/>
        <path id="Caminho_133" data-name="Caminho 133" d="M46.8,77.889A130.629,130.629,0,0,1,12.58,48.13" transform="translate(18.17 287.375)" fill="none" stroke="#4d300f" stroke-miterlimit="10" stroke-width="0.25"/>
        <path id="Caminho_134" data-name="Caminho 134" d="M40.968,74.908a72.554,72.554,0,0,1-28.3-28.3" transform="translate(18.772 277.206)" fill="none" stroke="#4d300f" stroke-miterlimit="10" stroke-width="0.25"/>
        <path id="Caminho_135" data-name="Caminho 135" d="M12.7,62.729A81.148,81.148,0,0,1,9.936,35.2" transform="translate(-0.948 200.876)" fill="none" stroke="#4d300f" stroke-miterlimit="10" stroke-width="0.25"/>
        <path id="Caminho_136" data-name="Caminho 136" d="M166.354,140.933c-9.535-21.993-26.453-40.371-46.139-54.059S78.075,63.881,55.16,56.73" transform="translate(303.02 344.906)" fill="none" stroke="#4d300f" stroke-miterlimit="10" stroke-width="0.25"/>
        <path id="Caminho_137" data-name="Caminho 137" d="M77.722,87.013,70.34,69.25" transform="translate(404.571 428.662)" fill="none" stroke="#4d300f" stroke-miterlimit="10" stroke-width="0.25"/>
        <path id="Caminho_138" data-name="Caminho 138" d="M133.881,101.655A169.5,169.5,0,0,0,54.83,57.9" transform="translate(300.813 352.733)" fill="none" stroke="#4d300f" stroke-miterlimit="10" stroke-width="0.25"/>
        <path id="Caminho_139" data-name="Caminho 139" d="M90.812,73.511A104.805,104.805,0,0,0,54.67,58.67" transform="translate(299.742 357.885)" fill="none" stroke="#4d300f" stroke-miterlimit="10" stroke-width="0.25"/>
        <path id="Caminho_140" data-name="Caminho 140" d="M198.413,34.47A269.4,269.4,0,0,1,98.6,140.2" transform="translate(593.624 195.992)" fill="none" stroke="#4d300f" stroke-miterlimit="10" stroke-width="0.25"/>
        <path id="Caminho_141" data-name="Caminho 141" d="M166.571,40.07A302.379,302.379,0,0,1,97.44,105.2" transform="translate(585.864 233.455)" fill="none" stroke="#4d300f" stroke-miterlimit="10" stroke-width="0.25"/>
        <path id="Caminho_142" data-name="Caminho 142" d="M136.672,43.65a188.108,188.108,0,0,1-40.6,34.219" transform="translate(576.699 257.404)" fill="none" stroke="#4d300f" stroke-miterlimit="10" stroke-width="0.25"/>
        <path id="Caminho_143" data-name="Caminho 143" d="M137.572,19.39A244.394,244.394,0,0,0,99.2,94.288" transform="translate(597.638 95.111)" fill="none" stroke="#4d300f" stroke-miterlimit="10" stroke-width="0.25"/>
        <path id="Caminho_144" data-name="Caminho 144" d="M184.774,111.869A1135.6,1135.6,0,0,0,85.73,52.12" transform="translate(507.526 314.067)" fill="none" stroke="#4d300f" stroke-miterlimit="10" stroke-width="0.25"/>
        <path id="Caminho_145" data-name="Caminho 145" d="M223.592,84.617C203.6,71.928,181.99,61.393,159,55.78s-47.523-6.229-70.208.769" transform="translate(527.997 309.484)" fill="none" stroke="#4d300f" stroke-miterlimit="10" stroke-width="0.25"/>
        <path id="Caminho_146" data-name="Caminho 146" d="M116.929,65.036a18.318,18.318,0,0,0-9.689-8.766" transform="translate(651.423 341.829)" fill="none" stroke="#4d300f" stroke-miterlimit="10" stroke-width="0.25"/>
        <path id="Caminho_147" data-name="Caminho 147" d="M130.57,178.02c35.988-44.754,46.139-109.887,22.3-162.1" transform="translate(807.496 71.897)" fill="none" stroke="#4d300f" stroke-miterlimit="10" stroke-width="0.25"/>
        <path id="Caminho_148" data-name="Caminho 148" d="M129.42,126.857a137.26,137.26,0,0,0,30.221-103.2" transform="translate(799.802 123.676)" fill="none" stroke="#4d300f" stroke-miterlimit="10" stroke-width="0.25"/>
        <path id="Caminho_149" data-name="Caminho 149" d="M135.381,36.957A96.49,96.49,0,0,0,132.92,20.04" transform="translate(823.216 99.459)" fill="none" stroke="#4d300f" stroke-miterlimit="10" stroke-width="0.25"/>
        <path id="Caminho_150" data-name="Caminho 150" d="M127.96,94.869A109.892,109.892,0,0,0,156.72,28.66" transform="translate(790.035 157.125)" fill="none" stroke="#4d300f" stroke-miterlimit="10" stroke-width="0.25"/>
        <path id="Caminho_151" data-name="Caminho 151" d="M126.29,89.231c15.841-15.38,23.454-37.449,26.991-59.211" transform="translate(778.863 166.223)" fill="none" stroke="#4d300f" stroke-miterlimit="10" stroke-width="0.25"/>
        <path id="Caminho_152" data-name="Caminho 152" d="M227.659,24.98A449.924,449.924,0,0,1,135.92,114.1" transform="translate(843.286 132.506)" fill="none" stroke="#4d300f" stroke-miterlimit="10" stroke-width="0.25"/>
        <path id="Caminho_153" data-name="Caminho 153" d="M214.226,23.36a1278.323,1278.323,0,0,0-79.666,100.2" transform="translate(834.188 121.669)" fill="none" stroke="#4d300f" stroke-miterlimit="10" stroke-width="0.25"/>
        <path id="Caminho_154" data-name="Caminho 154" d="M153.533,21.42a38.873,38.873,0,0,0-7.613,7.459" transform="translate(910.183 108.691)" fill="none" stroke="#4d300f" stroke-miterlimit="10" stroke-width="0.25"/>
        <path id="Caminho_155" data-name="Caminho 155" d="M344.386,31.9c-25.838,24.3-57.135,42.14-89.97,55.443s-67.209,22.3-101.736,30.3" transform="translate(955.406 178.8)" fill="none" stroke="#4d300f" stroke-miterlimit="10" stroke-width="0.25"/>
        <path id="Caminho_156" data-name="Caminho 156" d="M179.669,59.893A34.634,34.634,0,0,1,171.21,38.9" transform="translate(1079.367 225.628)" fill="none" stroke="#4d300f" stroke-miterlimit="10" stroke-width="0.25"/>
        <path id="Caminho_157" data-name="Caminho 157" d="M183.229,65.329A55.6,55.6,0,0,1,172.31,37.8" transform="translate(1086.726 218.269)" fill="none" stroke="#4d300f" stroke-miterlimit="10" stroke-width="0.25"/>
        <path id="Caminho_158" data-name="Caminho 158" d="M181.179,60.693A52.668,52.668,0,0,1,173.72,37.47" transform="translate(1096.159 216.062)" fill="none" stroke="#4d300f" stroke-miterlimit="10" stroke-width="0.25"/>
        <path id="Caminho_159" data-name="Caminho 159" d="M212.91,63.737A49.555,49.555,0,0,0,181.69,30.21" transform="translate(1149.476 167.494)" fill="none" stroke="#4d300f" stroke-miterlimit="10" stroke-width="0.25"/>
        <path id="Caminho_160" data-name="Caminho 160" d="M204.825,51.712A38.485,38.485,0,0,0,180.91,31.18" transform="translate(1144.258 173.983)" fill="none" stroke="#4d300f" stroke-miterlimit="10" stroke-width="0.25"/>
        <path id="Caminho_161" data-name="Caminho 161" d="M186.41,57.016a42.649,42.649,0,0,0,1.384-18.686" transform="translate(1181.052 221.815)" fill="none" stroke="#4d300f" stroke-miterlimit="10" stroke-width="0.25"/>
        <path id="Caminho_162" data-name="Caminho 162" d="M246.622,37.78A380.732,380.732,0,0,1,153.73,68.462" transform="translate(962.43 218.135)" fill="none" stroke="#4d300f" stroke-miterlimit="10" stroke-width="0.25"/>
        <path id="Caminho_163" data-name="Caminho 163" d="M197.422,38.26a165.729,165.729,0,0,1-40.6,12.073" transform="translate(983.102 221.346)" fill="none" stroke="#4d300f" stroke-miterlimit="10" stroke-width="0.25"/>
        <path id="Caminho_164" data-name="Caminho 164" d="M192,27.79A86.142,86.142,0,0,1,178.93,45.784" transform="translate(1131.013 151.305)" fill="none" stroke="#4d300f" stroke-miterlimit="10" stroke-width="0.25"/>
        <path id="Caminho_165" data-name="Caminho 165" d="M346.1,19.33C300.038,59.471,241.442,81.694,184,102.687" transform="translate(1164.93 94.709)" fill="none" stroke="#4d300f" stroke-miterlimit="10" stroke-width="0.25"/>
        <path id="Caminho_166" data-name="Caminho 166" d="M299.425,22.61A564.964,564.964,0,0,1,183.31,74.977" transform="translate(1160.314 116.652)" fill="none" stroke="#4d300f" stroke-miterlimit="10" stroke-width="0.25"/>
        <path id="Caminho_167" data-name="Caminho 167" d="M250.553,24.66A407.534,407.534,0,0,1,182.96,55.88" transform="translate(1157.973 130.366)" fill="none" stroke="#4d300f" stroke-miterlimit="10" stroke-width="0.25"/>
        <path id="Caminho_168" data-name="Caminho 168" d="M258.713,17.14A517.618,517.618,0,0,0,186.66,45.592" transform="translate(1182.724 80.059)" fill="none" stroke="#4d300f" stroke-miterlimit="10" stroke-width="0.25"/>
        <path id="Caminho_169" data-name="Caminho 169" d="M266.09,13.52a491.6,491.6,0,0,0-64.979,19.993c-4.537,1.769-9.074,3.614-12.611,6.921" transform="translate(1195.034 55.842)" fill="none" stroke="#4d300f" stroke-miterlimit="10" stroke-width="0.25"/>
        <path id="Caminho_170" data-name="Caminho 170" d="M358.323,41.99A1064.2,1064.2,0,0,0,154.39,81.9" transform="translate(966.846 246.299)" fill="none" stroke="#4d300f" stroke-miterlimit="10" stroke-width="0.25"/>
        <path id="Caminho_171" data-name="Caminho 171" d="M204.192,44.627a32.157,32.157,0,0,0-21.762-1.692" transform="translate(1154.427 244.893)" fill="none" stroke="#4d300f" stroke-miterlimit="10" stroke-width="0.25"/>
        <path id="Caminho_172" data-name="Caminho 172" d="M258.785,44.65A503.513,503.513,0,0,0,157.28,66.8" transform="translate(986.179 264.094)" fill="none" stroke="#4d300f" stroke-miterlimit="10" stroke-width="0.25"/>
        <path id="Caminho_173" data-name="Caminho 173" d="M242.172,104.912A216.609,216.609,0,0,0,140.36,52.16" transform="translate(872.988 314.334)" fill="none" stroke="#4d300f" stroke-miterlimit="10" stroke-width="0.25"/>
        <path id="Caminho_174" data-name="Caminho 174" d="M225.347,89.978A210.266,210.266,0,0,0,138.53,52.76" transform="translate(860.746 318.348)" fill="none" stroke="#4d300f" stroke-miterlimit="10" stroke-width="0.25"/>
        <path id="Caminho_175" data-name="Caminho 175" d="M251.086,105.345c-10.227-9.228-22.531-15.764-34.758-22.3-25.607-13.688-52.29-27.606-81.358-29.375" transform="translate(836.93 324.436)" fill="none" stroke="#4d300f" stroke-miterlimit="10" stroke-width="0.25"/>
        <path id="Caminho_176" data-name="Caminho 176" d="M157.336,101.285c-15.995-1.615-28.914-13-40.756-23.915" transform="translate(713.906 482.983)" fill="none" stroke="#4d300f" stroke-miterlimit="10" stroke-width="0.25"/>
        <path id="Caminho_177" data-name="Caminho 177" d="M140.477,93.527c-3.768-1.922-7.459-3.768-11.227-5.69-4.845-2.461-10.3-5.69-11.15-11" transform="translate(724.074 479.438)" fill="none" stroke="#4d300f" stroke-miterlimit="10" stroke-width="0.25"/>
        <path id="Caminho_178" data-name="Caminho 178" d="M200.83,156.961c-42.986-10.227-80.358-41.832-97.66-82.511" transform="translate(624.196 463.449)" fill="none" stroke="#4d300f" stroke-miterlimit="10" stroke-width="0.25"/>
        <path id="Caminho_179" data-name="Caminho 179" d="M172.112,132.327c-14.457-3.845-27.453-12.3-38.372-22.531s-20.07-22.223-28.99-34.3" transform="translate(634.766 470.473)" fill="none" stroke="#4d300f" stroke-miterlimit="10" stroke-width="0.25"/>
        <path id="Caminho_180" data-name="Caminho 180" d="M99.883,129.526A86.946,86.946,0,0,0,82.35,62.01" transform="translate(484.915 380.228)" fill="none" stroke="#4d300f" stroke-miterlimit="10" stroke-width="0.25"/>
        <path id="Caminho_181" data-name="Caminho 181" d="M88.511,71.96a23.2,23.2,0,0,1-4.691,7.382" transform="translate(494.749 446.792)" fill="none" stroke="#4d300f" stroke-miterlimit="10" stroke-width="0.25"/>
        <path id="Caminho_182" data-name="Caminho 182" d="M219.843,40.63c-28.606,9.535-52.29,30.682-80.973,39.679" transform="translate(863.021 237.201)" fill="none" stroke="#4d300f" stroke-miterlimit="10" stroke-width="0.25"/>
        <path id="Caminho_183" data-name="Caminho 183" d="M148.571,46.33c-4.229,1.23-8.459,2.384-12.611,3.614" transform="translate(843.553 275.333)" fill="none" stroke="#4d300f" stroke-miterlimit="10" stroke-width="0.25"/>
        <path id="Caminho_184" data-name="Caminho 184" d="M250.727,39c-52.752-4-106.734,21.07-137.647,63.979" transform="translate(690.492 223.526)" fill="none" stroke="#4d300f" stroke-miterlimit="10" stroke-width="0.25"/>
        <path id="Caminho_185" data-name="Caminho 185" d="M203.814,40.09A157.531,157.531,0,0,0,114.92,92" transform="translate(702.801 233.589)" fill="none" stroke="#4d300f" stroke-miterlimit="10" stroke-width="0.25"/>
        <path id="Caminho_186" data-name="Caminho 186" d="M147.97,43.86a70.851,70.851,0,0,0-31.22,20.685" transform="translate(715.043 258.809)" fill="none" stroke="#4d300f" stroke-miterlimit="10" stroke-width="0.25"/>
        <path id="Caminho_187" data-name="Caminho 187" d="M158.092,37.98a60.149,60.149,0,0,1-24.992,4" transform="translate(824.421 219.473)" fill="none" stroke="#4d300f" stroke-miterlimit="10" stroke-width="0.25"/>
        <path id="Caminho_188" data-name="Caminho 188" d="M250.327,47.97c-16.456,13.842-36.68,22.531-57.443,28.068-20.762,5.46-42.217,7.92-63.594,10.3" transform="translate(798.933 286.304)" fill="none" stroke="#4d300f" stroke-miterlimit="10" stroke-width="0.25"/>
        <path id="Caminho_189" data-name="Caminho 189" d="M174.544,61.666A157.288,157.288,0,0,1,113.41,59.59" transform="translate(692.699 364.039)" fill="none" stroke="#4d300f" stroke-miterlimit="10" stroke-width="0.25"/>
        <path id="Caminho_190" data-name="Caminho 190" d="M162.943,61.148A149.513,149.513,0,0,1,111.96,58.61" transform="translate(682.999 357.483)" fill="none" stroke="#4d300f" stroke-miterlimit="10" stroke-width="0.25"/>
        <path id="Caminho_191" data-name="Caminho 191" d="M191.124,55.281a72.214,72.214,0,0,0-18.84-4.383A189.534,189.534,0,0,0,87.62,59.971" transform="translate(520.17 296.757)" fill="none" stroke="#4d300f" stroke-miterlimit="10" stroke-width="0.25"/>
        <path id="Caminho_192" data-name="Caminho 192" d="M177.507,42.11A411.331,411.331,0,0,1,82,104.935" transform="translate(482.574 247.102)" fill="none" stroke="#4d300f" stroke-miterlimit="10" stroke-width="0.25"/>
        <path id="Caminho_193" data-name="Caminho 193" d="M146.027,44.77A335.585,335.585,0,0,1,80.51,86.525" transform="translate(472.606 264.897)" fill="none" stroke="#4d300f" stroke-miterlimit="10" stroke-width="0.25"/>
        <path id="Caminho_194" data-name="Caminho 194" d="M111.343,47.22A109.309,109.309,0,0,1,79.2,66.137" transform="translate(463.842 281.287)" fill="none" stroke="#4d300f" stroke-miterlimit="10" stroke-width="0.25"/>
        <path id="Caminho_195" data-name="Caminho 195" d="M178.762,15.88c-41.525,19.3-70.054,58.9-90.432,99.967" transform="translate(524.92 71.63)" fill="none" stroke="#4d300f" stroke-miterlimit="10" stroke-width="0.25"/>
        <path id="Caminho_196" data-name="Caminho 196" d="M148.94,19.27c-4.306.769-7.844,3.845-11,6.844A244.365,244.365,0,0,0,89.96,90.17" transform="translate(535.824 94.308)" fill="none" stroke="#4d300f" stroke-miterlimit="10" stroke-width="0.25"/>
        <path id="Caminho_197" data-name="Caminho 197" d="M119.911,23.23a102.671,102.671,0,0,0-28.221,35.6" transform="translate(547.397 120.799)" fill="none" stroke="#4d300f" stroke-miterlimit="10" stroke-width="0.25"/>
        <path id="Caminho_198" data-name="Caminho 198" d="M138,13.5A114.9,114.9,0,0,0,101.47,26.957" transform="translate(612.823 55.708)" fill="none" stroke="#4d300f" stroke-miterlimit="10" stroke-width="0.25"/>
        <path id="Caminho_199" data-name="Caminho 199" d="M198.7,136.209c-16.3-5.767-32.6-11.535-47.753-19.763A165.65,165.65,0,0,1,93.43,64.54" transform="translate(559.038 397.154)" fill="none" stroke="#4d300f" stroke-miterlimit="10" stroke-width="0.25"/>
        <path id="Caminho_200" data-name="Caminho 200" d="M225.488,45.99A172.759,172.759,0,0,1,192.73,67.906" transform="translate(1223.331 273.058)" fill="none" stroke="#4d300f" stroke-miterlimit="10" stroke-width="0.25"/>
        <path id="Caminho_201" data-name="Caminho 201" d="M234.65,7.53a290.673,290.673,0,0,0-54.52,28.76" transform="translate(1139.04 15.77)" fill="none" stroke="#4d300f" stroke-miterlimit="10" stroke-width="0.25"/>
        <path id="Caminho_202" data-name="Caminho 202" d="M170.019,40.949c-3-2.615-5.921-5.229-8.92-7.844C149.334,22.648,137.415,12.19,123.65,4.5" transform="translate(761.202 -4.5)" fill="none" stroke="#4d300f" stroke-miterlimit="10" stroke-width="0.25"/>
      </g>
    </g>
  </g>
</svg>
