<svg xmlns="http://www.w3.org/2000/svg" width="28.412" height="24.361" viewBox="0 0 28.412 24.361">
  <g id="nosound" transform="translate(-1403 -73)">
    <g id="Icone_som" data-name="Icone som" transform="translate(1403 73.001)">
      <path id="Caminho_48" data-name="Caminho 48" d="M15.05.21a2.4,2.4,0,0,0-2.58.41L4.78,7.2a2.475,2.475,0,0,0-.4.45,2.423,2.423,0,0,0-1-.21H2.65A2.64,2.64,0,0,0,0,10.08v4.2a2.655,2.655,0,0,0,2.65,2.65h.72a2.519,2.519,0,0,0,1-.21,2.121,2.121,0,0,0,.4.44l7.69,6.58a2.492,2.492,0,0,0,1.62.62,2.309,2.309,0,0,0,.96-.21,2.488,2.488,0,0,0,1.4-2.31V2.52A2.463,2.463,0,0,0,15.05.21ZM3.37,14.93H2.65A.649.649,0,0,1,2,14.28v-4.2a.649.649,0,0,1,.65-.65h.72a.5.5,0,0,1,.5.5v4.5A.5.5,0,0,1,3.37,14.93Zm11.08,6.91a.507.507,0,0,1-.24.49.431.431,0,0,1-.45-.11L6.07,15.64a.718.718,0,0,1-.2-.52V9.24a.7.7,0,0,1,.2-.52l7.69-6.58A.578.578,0,0,1,14.09,2a.308.308,0,0,1,.13.03.507.507,0,0,1,.24.49l-.01,19.32Z" fill="#fff"/>
    </g>
    <g id="X" transform="translate(-90.908 -34.632)">
      <rect id="Ret창ngulo_50" data-name="Ret창ngulo 50" width="12.378" height="2.652" rx="1.326" transform="matrix(0.719, -0.695, 0.695, 0.719, 1511.347, 123.158)" fill="#fff"/>
      <rect id="Ret창ngulo_51" data-name="Ret창ngulo 51" width="12.378" height="2.652" rx="1.326" transform="matrix(-0.743, -0.669, 0.669, -0.743, 1520.546, 125.066)" fill="#fff"/>
    </g>
  </g>
</svg>
