<svg xmlns="http://www.w3.org/2000/svg" width="33.527" height="29.527" viewBox="0 0 33.527 29.527">
  <g id="no-sound" transform="translate(-1398.737 -69.737)">
    <g id="Icone_som" data-name="Icone som" transform="translate(1403 73.001)">
      <path id="Caminho_46" data-name="Caminho 46" d="M22.24,5.06a1,1,0,0,0-1.58,1.22,9.055,9.055,0,0,1,1.77,5.54,9.055,9.055,0,0,1-1.77,5.54.992.992,0,0,0,.18,1.4,1,1,0,0,0,.61.21.984.984,0,0,0,.79-.39,11.061,11.061,0,0,0,2.19-6.77A11.044,11.044,0,0,0,22.24,5.06Z" fill="#fff"/>
      <path id="Caminho_47" data-name="Caminho 47" d="M19.85,6.9a1,1,0,0,0-1.58,1.22,6.036,6.036,0,0,1,1.18,3.7,6.036,6.036,0,0,1-1.18,3.7.992.992,0,0,0,.18,1.4,1,1,0,0,0,.61.21.984.984,0,0,0,.79-.39,8.012,8.012,0,0,0,1.6-4.92A8.033,8.033,0,0,0,19.85,6.9Z" fill="#fff"/>
      <path id="Caminho_48" data-name="Caminho 48" d="M15.05.21a2.4,2.4,0,0,0-2.58.41L4.78,7.2a2.475,2.475,0,0,0-.4.45,2.423,2.423,0,0,0-1-.21H2.65A2.64,2.64,0,0,0,0,10.08v4.2a2.655,2.655,0,0,0,2.65,2.65h.72a2.519,2.519,0,0,0,1-.21,2.121,2.121,0,0,0,.4.44l7.69,6.58a2.492,2.492,0,0,0,1.62.62,2.309,2.309,0,0,0,.96-.21,2.488,2.488,0,0,0,1.4-2.31V2.52A2.463,2.463,0,0,0,15.05.21ZM3.37,14.93H2.65A.649.649,0,0,1,2,14.28v-4.2a.649.649,0,0,1,.65-.65h.72a.5.5,0,0,1,.5.5v4.5A.5.5,0,0,1,3.37,14.93Zm11.08,6.91a.507.507,0,0,1-.24.49.431.431,0,0,1-.45-.11L6.07,15.64a.718.718,0,0,1-.2-.52V9.24a.7.7,0,0,1,.2-.52l7.69-6.58A.578.578,0,0,1,14.09,2a.308.308,0,0,1,.13.03.507.507,0,0,1,.24.49l-.01,19.32Z" fill="#fff"/>
    </g>
    <line id="Linha_13" data-name="Linha 13" x1="30" y2="26" transform="translate(1400.5 71.5)" fill="none" stroke="#fff" stroke-linecap="round" stroke-width="2.5"/>
  </g>
</svg>
